<svg fill="none" height="16" viewBox="0 0 17 16" width="17" xmlns="http://www.w3.org/2000/svg"><g fill="currentColor"><path d="m6.00146 7.00038c1.65686 0 3-1.34314 3-3 0-1.65685-1.34314-3-3-3-1.65685 0-3 1.34315-3 3 0 1.65686 1.34315 3 3 3z"/><path d="m6.00146 9.00038c3.31371 0 6.00004 2.68632 6.00004 6.00002h-12.00003516c0-3.3137 2.68629516-6.00002 5.99999516-6.00002z"/><path d="m14.0015 5.00038c0-.55228-.4478-1-1-1-.5523 0-1 .44772-1 1v1h-1c-.5523 0-1 .44772-1 1 0 .55229.4477 1 1 1h1v1c0 .55229.4477 1.00002 1 1.00002.5522 0 1-.44773 1-1.00002v-1h1c.5522 0 1-.44771 1-1 0-.55228-.4478-1-1-1h-1z"/></g></svg>