<svg fill="none" height="16" viewBox="0 0 17 16" width="17" xmlns="http://www.w3.org/2000/svg"><path clip-rule="evenodd" d="m4.00146.00038147c-1.10457 0-2 .89543153-2 1.99999853v12.00002c0 1.1046.89543 2 2 2h8.00004c1.1045 0 2-.8954 2-2v-8.5858c0-.53044-.2107-1.03915-.5858-1.41422l-3.4142-3.414212c-.37511-.375073-.88382-.58578653-1.41425-.58578653zm5 5.99999853c0-.55228-.44771-1-1-1-.55228 0-1 .44772-1 1v2h-2c-.55228 0-1 .44772-1 1 0 .55229.44772 1.00002 1 1.00002h2v2c0 .5523.44772 1 1 1 .55229 0 1-.4477 1-1v-2h2.00004c.5522 0 1-.44773 1-1.00002 0-.55228-.4478-1-1-1h-2.00004z" fill="currentColor" fill-rule="evenodd"/></svg>