<svg fill="none" height="16" viewBox="0 0 16 16" width="16" xmlns="http://www.w3.org/2000/svg"><path d="m4 8.00038c0 .53043-.21071 1.03914-.58579 1.41421-.37507.37508-.88378.58581-1.41421.58581s-1.039141-.21073-1.414214-.58581c-.375072-.37507-.585786-.88378-.585786-1.41421s.210714-1.03914.585786-1.41421c.375073-.37507.883784-.58579 1.414214-.58579s1.03914.21072 1.41421.58579c.37508.37507.58579.88378.58579 1.41421zm6 0c0 .53043-.21071 1.03914-.58579 1.41421-.37507.37508-.88378.58581-1.41421.58581s-1.03914-.21073-1.41421-.58581c-.37508-.37507-.58579-.88378-.58579-1.41421s.21071-1.03914.58579-1.41421c.37507-.37507.88378-.58579 1.41421-.58579s1.03914.21072 1.41421.58579c.37508.37507.58579.88378.58579 1.41421zm4 2.00002c.5304 0 1.0391-.21073 1.4142-.58581.3751-.37507.5858-.88378.5858-1.41421s-.2107-1.03914-.5858-1.41421-.8838-.58579-1.4142-.58579-1.0391.21072-1.4142.58579-.5858.88378-.5858 1.41421.2107 1.03914.5858 1.41421c.3751.37508.8838.58581 1.4142.58581z" fill="currentColor"/></svg>