<svg fill="none" height="16" viewBox="0 0 16 16" width="16" xmlns="http://www.w3.org/2000/svg"><g fill="currentColor"><path d="m7.56588.117117c.269-.1561561.59924-.1561561.86824 0l1.53125.888893c.41953.24356.56533.78654.32563 1.21278-.2398.42624-.77429.57432-1.19387.33076l-1.09713-.63688-1.09713.63688c-.41958.24356-.95407.09548-1.19383-.33076s-.09399-.96922.32559-1.21278z"/><path d="m4.16596 3.11454c.23976.42624.09399.96922-.32559 1.21279l-.20175.11711.20175.11712c.41958.24357.56535.78655.32559 1.21279-.23976.42623-.77425.57432-1.19383.33076l-.22213-.12895v.24606c0 .49092-.39175.88889-.875.88889s-.875-.39797-.875-.88889v-1.77778c0-.22221.08026-.42537.21294-.58121.03032-.03565.06354-.06897.09942-.09957.04424-.03777.09221-.07117.14326-.09955l1.51651-.88033c.41958-.24356.95407-.09547 1.19383.33076z"/><path d="m11.834 3.11454c.2398-.42623.7743-.57432 1.1939-.33076l1.5165.88033c.051.02838.099.06178.1432.09955.191.16305.3124.40752.3124.68078v1.77778c0 .49092-.3918.88889-.875.88889s-.875-.39797-.875-.88889v-.24606l-.2221.12895c-.4196.24356-.9541.09547-1.1939-.33076-.2397-.42624-.0939-.96922.3256-1.21279l.2018-.11712-.2018-.11711c-.4195-.24357-.5653-.78655-.3256-1.21279z"/><path d="m5.70904 6.6701c.23976-.42624.77425-.57432 1.19383-.33076l1.09713.63688 1.09713-.63688c.41958-.24356.95407-.09548 1.19387.33076.2397.42624.0939.96922-.32563 1.21278l-1.09037.63296v1.26194c0 .49092-.39175.88892-.875.88892s-.875-.398-.875-.88892v-1.26194l-1.09037-.63296c-.41958-.24356-.56535-.78654-.32559-1.21278z"/><path d="m1.875 8.88889c.48325 0 .875.39797.875.88889v1.26192l1.09037.633c.41958.2435.56535.7865.32559 1.2128-.23976.4262-.77425.5743-1.19383.3307l-1.53125-.8889c-.27263-.1582-.44088-.4528-.44088-.7717v-1.77782c0-.49092.39175-.88889.875-.88889z"/><path d="m14.125 8.88889c.4832 0 .875.39797.875.88889v1.77782c0 .3189-.1683.6135-.4409.7717l-1.5312.8889c-.4196.2436-.9541.0955-1.1939-.3307-.2397-.4263-.0939-.9693.3256-1.2128l1.0904-.633v-1.26192c0-.49092.3918-.88889.875-.88889z"/><path d="m5.70904 13.7812c.23976-.4262.77425-.5743 1.19383-.3307l.22213.1289v-.2461c0-.4909.39175-.8889.875-.8889s.875.398.875.8889v.2461l.22213-.1289c.41958-.2436.95407-.0955 1.19387.3307.2397.4262.0939.9692-.32563 1.2128l-1.51795.8812c-.13092.0793-.28393.1248-.44742.1248s-.3165-.0455-.44742-.1248l-1.51795-.8812c-.41958-.2436-.56535-.7866-.32559-1.2128z"/></g></svg>