<svg fill="none" height="16" viewBox="0 0 16 16" width="16" xmlns="http://www.w3.org/2000/svg"><path d="m8 12.4444c.4715 0 .92368.1873 1.25708.5207s.5207.7856.5207 1.2571-.1873.9237-.5207 1.2571-.78558.5207-1.25708.5207-.92368-.1873-1.25708-.5207-.5207-.7856-.5207-1.2571.1873-.9237.5207-1.2571.78558-.5207 1.25708-.5207zm6.2222 0c.4715 0 .9237.1873 1.2571.5207s.5207.7856.5207 1.2571-.1873.9237-.5207 1.2571-.7856.5207-1.2571.5207-.9237-.1873-1.2571-.5207-.5207-.7856-.5207-1.2571.1873-.9237.5207-1.2571.7856-.5207 1.2571-.5207zm-12.44442 0c.47149 0 .92368.1873 1.25708.5207.33339.3334.5207.7856.5207 1.2571s-.18731.9237-.5207 1.2571c-.3334.3334-.78559.5207-1.25708.5207-.4715 0-.923683-.1873-1.257081-.5207s-.520699-.7856-.520699-1.2571.187301-.9237.520699-1.2571.785581-.5207 1.257081-.5207zm6.22222-6.22218c.4715 0 .92368.1873 1.25708.5207s.5207.78558.5207 1.25708-.1873.92368-.5207 1.25708-.78558.5207-1.25708.5207-.92368-.1873-1.25708-.5207-.5207-.78558-.5207-1.25708.1873-.92368.5207-1.25708.78558-.5207 1.25708-.5207zm6.2222 0c.4715 0 .9237.1873 1.2571.5207s.5207.78558.5207 1.25708-.1873.92368-.5207 1.25708-.7856.5207-1.2571.5207-.9237-.1873-1.2571-.5207-.5207-.78558-.5207-1.25708.1873-.92368.5207-1.25708.7856-.5207 1.2571-.5207zm-12.44442 0c.47149 0 .92368.1873 1.25708.5207.33339.3334.5207.78558.5207 1.25708s-.18731.92368-.5207 1.25708c-.3334.3334-.78559.5207-1.25708.5207-.4715 0-.923683-.1873-1.257081-.5207s-.520699-.78558-.520699-1.25708.187301-.92368.520699-1.25708.785581-.5207 1.257081-.5207zm6.22222-6.22222c.4715 0 .92368.187301 1.25708.520699s.5207.785581.5207 1.257081c0 .47149-.1873.92368-.5207 1.25708-.3334.33339-.78558.5207-1.25708.5207s-.92368-.18731-1.25708-.5207c-.3334-.3334-.5207-.78559-.5207-1.25708 0-.4715.1873-.923683.5207-1.257081s.78558-.520699 1.25708-.520699zm6.2222 0c.4715 0 .9237.187301 1.2571.520699s.5207.785581.5207 1.257081c0 .47149-.1873.92368-.5207 1.25708-.3334.33339-.7856.5207-1.2571.5207s-.9237-.18731-1.2571-.5207c-.3334-.3334-.5207-.78559-.5207-1.25708 0-.4715.1873-.923683.5207-1.257081s.7856-.520699 1.2571-.520699zm-12.44442 0c.47149 0 .92368.187301 1.25708.520699.33339.333398.5207.785581.5207 1.257081 0 .47149-.18731.92368-.5207 1.25708-.3334.33339-.78559.5207-1.25708.5207-.4715 0-.923683-.18731-1.257081-.5207-.333398-.3334-.520699-.78559-.520699-1.25708 0-.4715.187301-.923683.520699-1.257081s.785581-.520699 1.257081-.520699z" fill="currentColor"/></svg>