<svg xmlns="http://www.w3.org/2000/svg" fill="none" viewBox="0 0 16 16"><path fill="currentColor" d="M.889 2C.398 2 0 2.384 0 2.857v.857c0 .474.398.857.889.857H15.11c.491 0 .889-.383.889-.857v-.857c0-.473-.398-.857-.889-.857H.89Z"/><path fill="currentColor" fill-rule="evenodd" d="M.889 5.857H15.11l-.721 6.608c-.096.873-.858 1.535-1.768 1.535H3.378c-.91 0-1.673-.662-1.768-1.535L.89 5.857Zm4.444 3c0-.473.398-.857.89-.857h3.555c.49 0 .889.384.889.857 0 .474-.398.857-.89.857H6.223c-.49 0-.889-.383-.889-.857Z" clip-rule="evenodd"/></svg>