<svg xmlns="http://www.w3.org/2000/svg" fill="none" viewBox="0 0 16 16"><path fill="currentColor" d="m11.804 10.235 1.285 1.276H6.781a4.833 4.833 0 0 1-3.404-1.4 4.755 4.755 0 0 1-1.409-3.375c0-1.266.507-2.48 1.41-3.376A4.833 4.833 0 0 1 6.78 1.961c1.277 0 2.502.504 3.404 1.4a4.756 4.756 0 0 1 1.41 3.375.729.729 0 0 0 .733.73.736.736 0 0 0 .735-.73c0-1.234-.37-2.44-1.06-3.465A6.271 6.271 0 0 0 9.184.974 6.324 6.324 0 0 0 5.556.62 6.296 6.296 0 0 0 2.34 2.326 6.222 6.222 0 0 0 .62 5.519a6.194 6.194 0 0 0 .358 3.604 6.245 6.245 0 0 0 2.314 2.798 6.313 6.313 0 0 0 3.49 1.05h6.307l-1.276 1.267a.73.73 0 0 0 .802 1.2.734.734 0 0 0 .235-.166l2.364-2.347a.961.961 0 0 0 0-1.368l-2.367-2.35-.007-.006a.736.736 0 0 0-1.234.522.728.728 0 0 0 .198.512Z"/></svg>