<svg fill="none" height="16" viewBox="0 0 17 16" width="17" xmlns="http://www.w3.org/2000/svg"><path clip-rule="evenodd" d="m6.00153 2.00038c-1.65686 0-3 1.34315-3 3v4c0 2.76142 2.23857 5.00002 5 5.00002 2.76137 0 4.99997-2.2386 4.99997-5.00002v-4c0-.55228.4477-1 1-1s1 .44772 1 1v4c0 3.86602-3.134 7.00002-6.99997 7.00002-3.866 0-7-3.134-7-7.00002v-4c0-2.76142 2.23857-4.99999853 5-4.99999853 2.76142 0 4.99997 2.23857853 4.99997 4.99999853v4c0 1.65682-1.34312 3.00002-2.99997 3.00002-1.65686 0-3-1.3432-3-3.00002v-4c0-.55228.44771-1 1-1 .55228 0 1 .44772 1 1v4c0 .55229.44771 1.00002 1 1.00002.55228 0 1-.44773 1-1.00002v-4c0-1.65685-1.34315-3-3-3z" fill="currentColor" fill-rule="evenodd"/></svg>