<svg xmlns="http://www.w3.org/2000/svg" fill="none" viewBox="0 0 16 16"><path fill="currentColor" fill-rule="evenodd" d="M6.537 1.528v4.644c0 .729-.283 1.428-.786 1.944L4.564 9.333a8.352 8.352 0 0 1 3.463.62l.49.201a6.913 6.913 0 0 0 4.077.365l-2.345-2.403a2.785 2.785 0 0 1-.786-1.944V1.528a38.273 38.273 0 0 0-2.926 0Zm4.39.084.186.015A.738.738 0 0 0 11.9.939a.745.745 0 0 0-.67-.807A39.37 39.37 0 0 0 5.763.063C5.431.082 5.1.105 4.77.132a.745.745 0 0 0-.67.807c.032.413.385.72.787.688l.186-.015v4.56c0 .331-.128.649-.357.883L.78 11.09c-1.46 1.496-.797 4.15 1.37 4.476C4.06 15.852 6.012 16 8 16c1.987 0 3.94-.149 5.85-.435 2.167-.326 2.83-2.98 1.37-4.476l-3.936-4.034a1.266 1.266 0 0 1-.357-.883v-4.56Z" clip-rule="evenodd"/></svg>