<svg xmlns="http://www.w3.org/2000/svg" fill="none" viewBox="0 0 16 16"><path fill="currentColor" fill-rule="evenodd" d="M2.786 5.538C2.786 2.48 5.12 0 8 0c2.88 0 5.215 2.48 5.215 5.538v.616a6.98 6.98 0 0 0 1.636 4.529.643.643 0 0 1 .132.56.604.604 0 0 1-.362.43 18.102 18.102 0 0 1-3.732 1.02c.005.076.008.153.008.23C10.897 14.623 9.6 16 8 16c-1.6 0-2.897-1.378-2.897-3.077 0-.077.003-.154.008-.23a18.098 18.098 0 0 1-3.732-1.02.604.604 0 0 1-.362-.43.643.643 0 0 1 .132-.56 6.982 6.982 0 0 0 1.637-4.53v-.615Zm3.478 7.302a2.008 2.008 0 0 0-.002.083c0 1.02.778 1.846 1.738 1.846s1.738-.826 1.738-1.846l-.001-.083a18.242 18.242 0 0 1-3.473 0Z" clip-rule="evenodd"/></svg>