<svg fill="none" height="16" viewBox="0 0 16 16" width="16" xmlns="http://www.w3.org/2000/svg"><path d="m3 0c-.53043 0-1.03914.210714-1.41421.585786-.37508.375073-.58579.883784-.58579 1.414214v12c0 .5304.21071 1.0391.58579 1.4142.37507.3751.88378.5858 1.41421.5858h10.6c.1591 0 .3117-.0632.4243-.1757.1125-.1126.1757-.2652.1757-.4243s-.0632-.3117-.1757-.4243c-.1126-.1125-.2652-.1757-.4243-.1757h-10.6c-.21217 0-.41566-.0843-.56569-.2343-.15002-.15-.23431-.3535-.23431-.5657h11.4c.1591 0 .3117-.0632.4243-.1757.1125-.1126.1757-.2652.1757-.4243v-11.4c0-.26264-.0517-.52272-.1522-.76537-.1006-.242648-.2479-.463126-.4336-.648844-.1857-.185717-.4062-.333036-.6488-.433545-.2427-.1005095-.5028-.152241-.7654-.152241zm1.2 2.4h6.4c.2122 0 .4157.08429.5657.23431.15.15003.2343.35352.2343.56569v.8c0 .21217-.0843.41566-.2343.56569-.15.15002-.3535.23431-.5657.23431h-6.4c-.21217 0-.41566-.08429-.56569-.23431-.15002-.15003-.23431-.35352-.23431-.56569v-.8c0-.21217.08429-.41566.23431-.56569.15003-.15002.35352-.23431.56569-.23431z" fill="currentColor"/></svg>