<svg fill="none" height="16" viewBox="0 0 16 16" width="16" xmlns="http://www.w3.org/2000/svg"><path clip-rule="evenodd" d="m3.48801 15.531c-.31247-.3005-.48801-.7079-.48801-1.1327s.17554-.8322.48801-1.1326l5.48873-5.27537-5.48873-5.2754c-.30362-.30214-.47162-.70681-.46782-1.12685s.17909-.821839.48813-1.118864c.30903-.297024.72708-.46550541 1.16411-.46915544.43702-.00365003.85806.15782344 1.17242.44964144l6.66715 6.408008c.3125.30042.488.70782.488 1.13262 0 .42479-.1755.83219-.488 1.13261l-6.66715 6.40806c-.31257.3003-.73645.469-1.17842.469s-.86585-.1687-1.17842-.469z" fill="currentColor" fill-rule="evenodd"/></svg>