<svg xmlns="http://www.w3.org/2000/svg" fill="none" viewBox="0 0 16 14"><path fill="currentColor" fill-rule="evenodd" d="M3.267.21c.3.292.312.775.026 1.08A6.657 6.657 0 0 0 1.5 5.855a6.66 6.66 0 0 0 1.793 4.564.774.774 0 0 1-.026 1.08.74.74 0 0 1-1.06-.027 8.162 8.162 0 0 1-.276-.31l.569-.498-.569.498A8.203 8.203 0 0 1 0 5.855 8.2 8.2 0 0 1 2.207.237.74.74 0 0 1 3.267.21Zm9.466 0a.74.74 0 0 1 1.06.027A8.2 8.2 0 0 1 16 5.855c0 2.177-.84 4.156-2.207 5.617a.74.74 0 0 1-1.06.026.773.773 0 0 1-.026-1.08A6.657 6.657 0 0 0 14.5 5.856c0-1.77-.681-3.376-1.793-4.565a.773.773 0 0 1 .026-1.08ZM8.75 7.466c.591-.286 1-.9 1-1.61 0-.985-.784-1.782-1.75-1.782s-1.75.797-1.75 1.782c0 .71.409 1.324 1 1.61v5.771c0 .422.336.764.75.764s.75-.342.75-.764V7.465ZM5.331 3.549a.773.773 0 0 0-.086-1.076.74.74 0 0 0-1.057.087A5.129 5.129 0 0 0 3 5.855a5.13 5.13 0 0 0 1.177 3.28.74.74 0 0 0 1.057.092.773.773 0 0 0 .09-1.076A3.585 3.585 0 0 1 4.5 5.855c0-.88.312-1.684.831-2.306Zm6.492-.975a.74.74 0 0 0-1.057-.092.773.773 0 0 0-.09 1.076c.515.62.824 1.421.824 2.297 0 .875-.31 1.675-.823 2.296a.773.773 0 0 0 .09 1.076.74.74 0 0 0 1.056-.091A5.13 5.13 0 0 0 13 5.855c0-1.25-.443-2.396-1.177-3.281Z" clip-rule="evenodd"/></svg>