<svg xmlns="http://www.w3.org/2000/svg" fill="none" viewBox="2 0 12 16"><path fill="currentColor" fill-rule="evenodd" d="M5.64.077c.24.158.323.507.184.78-.133.262-.23.55-.285.855.039.044.08.087.12.128C6.211 1.067 7.055.572 8 .572c.946 0 1.79.496 2.342 1.27.041-.041.081-.083.12-.127a3.086 3.086 0 0 0-.286-.857c-.139-.274-.057-.623.184-.781.24-.158.547-.065.686.208.238.468.395.996.45 1.559a.624.624 0 0 1-.126.444 4.867 4.867 0 0 1-.527.57 3.85 3.85 0 0 1 .145 1.6c-.071.604-.505.986-.95 1.07-.121.022-.243.042-.366.06.101.174.183.364.24.566.88-.123 1.738-.33 2.567-.612-.044-.68-.122-1.35-.231-2.007-.052-.31.127-.609.4-.668.272-.059.535.145.587.455.142.85.233 1.719.271 2.604.011.257-.13.49-.345.57-1.023.382-2.09.652-3.189.8-.05.29-.147.561-.284.8 1.384.16 2.719.513 3.981 1.036.21.086.343.318.33.57a21.098 21.098 0 0 1-.796 4.762c-.087.3-.37.463-.634.365-.264-.099-.407-.422-.32-.722.372-1.288.618-2.643.72-4.043a14.1 14.1 0 0 0-1.02-.347c.045.179.07.37.07.569 0 3.014-1.69 5.714-4.02 5.714-2.33 0-4.018-2.7-4.018-5.714 0-.2.024-.39.07-.569-.345.103-.685.218-1.02.347.102 1.4.348 2.755.72 4.043.087.3-.056.623-.32.722-.263.098-.547-.065-.634-.365a21.1 21.1 0 0 1-.796-4.762c-.013-.252.12-.484.33-.57 1.062-.44 2.175-.76 3.325-.945h.006c.215-.035.432-.065.65-.09a2.458 2.458 0 0 1-.285-.8 14.802 14.802 0 0 1-3.188-.8c-.215-.08-.356-.314-.345-.57.038-.886.129-1.755.27-2.605.052-.31.315-.514.588-.455.272.06.452.358.4.668-.11.657-.187 1.327-.231 2.007.828.283 1.686.489 2.566.612.058-.202.14-.392.241-.565a11.14 11.14 0 0 1-.366-.062c-.445-.083-.878-.465-.95-1.069a3.922 3.922 0 0 1 .146-1.602 4.864 4.864 0 0 1-.528-.573.624.624 0 0 1-.125-.444 4.365 4.365 0 0 1 .45-1.554C5.092.012 5.4-.08 5.64.077Z" clip-rule="evenodd"/></svg>