<svg fill="none" height="16" viewBox="0 0 16 16" width="16" xmlns="http://www.w3.org/2000/svg"><path clip-rule="evenodd" d="m.38999.407433c.249785-.249962.588522-.3903825.94172-.3903825.3532 0 .69193.1404205.94172.3903825l5.71824 5.723997 5.71823-5.723997c.1229-.127347.2699-.228924.4324-.298802.1625-.069879.3373-.10666077.5141-.10819919.1769-.00153842.3523.03219689.516.09923809.1637.0670411.3124.1660451.4375.2912361.125.12519.2239.274059.2909.437921s.1007.339433.0992.516473c-.0016.17704-.0383.352-.1081.51467s-.1713.3098-.2985.4328l-5.71829 5.724 5.71829 5.72403c.2426.2514.3768.5882.3738.9378s-.1431.684-.3901.9313c-.2469.2472-.581.3874-.9303.3904-.3492.0031-.6857-.1313-.9369-.3742l-5.71823-5.724-5.71824 5.724c-.25122.2429-.58768.3773-.93693.3742-.349242-.003-.683323-.1432-.930285-.3904-.246962-.2473-.3870469-.5817-.3900817-.9313-.0030349-.3496.1312227-.6864.3738567-.9378l5.71825-5.72403-5.71825-5.724c-.24971-.25004-.38999-.58912-.38999-.94267 0-.353553.14028-.69263.38999-.942667z" fill="currentColor" fill-rule="evenodd"/></svg>