<svg width="17" height="16" viewBox="0 0 17 16" fill="none" xmlns="http://www.w3.org/2000/svg">
<path d="M13.4265 3.80038C13.8256 3.80033 14.2098 3.95179 14.5015 4.22414C14.7932 4.49649 14.9706 4.86943 14.998 5.26758L15.0015 5.37538V10.6254C15.0015 11.0245 14.8501 11.4087 14.5777 11.7004C14.3054 11.9921 13.9324 12.1696 13.5343 12.1969L13.4265 12.2004H2.57646C2.17738 12.2004 1.79315 12.049 1.50144 11.7766C1.20972 11.5043 1.03228 11.1313 1.00496 10.7332L1.00146 10.6254L1.00146 5.37538C1.00142 4.97629 1.15287 4.59207 1.42522 4.30035C1.69758 4.00864 2.07051 3.8312 2.46867 3.80388L2.57646 3.80038H13.4265ZM3.10146 3.10038V2.57538C3.10142 2.17629 3.25287 1.79207 3.52522 1.50035C3.79757 1.20864 4.17051 1.0312 4.56867 1.00388L4.67646 1.00038H11.3265C11.7256 1.00033 12.1098 1.15179 12.4015 1.42414C12.6932 1.69649 12.8707 2.06943 12.898 2.46758L12.9015 2.57538V3.10038H3.10146ZM12.9015 12.9004V13.4254C12.9015 13.8245 12.7501 14.2087 12.4777 14.5004C12.2054 14.7921 11.8324 14.9696 11.4343 14.9969L11.3265 15.0004H4.67646C4.27738 15.0004 3.89315 14.849 3.60144 14.5766C3.30973 14.3043 3.13228 13.9313 3.10496 13.5332L3.10146 13.4254V12.9004H12.9015Z" fill="currentColor"/>
</svg>
