<svg width="17" height="16" viewBox="0 0 17 16" fill="none" xmlns="http://www.w3.org/2000/svg">
<path d="M12.2015 13.4254C12.2015 13.8245 12.0501 14.2087 11.7777 14.5004C11.5054 14.7921 11.1324 14.9696 10.7343 14.9969L10.6265 15.0004H5.37646C4.97738 15.0004 4.59315 14.849 4.30144 14.5766C4.00972 14.3043 3.83228 13.9313 3.80496 13.5332L3.80146 13.4254V2.57538C3.80142 2.17629 3.95287 1.79207 4.22522 1.50035C4.49757 1.20864 4.87051 1.0312 5.26866 1.00388L5.37646 1.00038H10.6265C11.0256 1.00033 11.4098 1.15179 11.7015 1.42414C11.9932 1.69649 12.1706 2.06943 12.198 2.46758L12.2015 2.57538V13.4254ZM12.9015 3.10038H13.4265C13.8256 3.10033 14.2098 3.25179 14.5015 3.52414C14.7932 3.79649 14.9706 4.16943 14.998 4.56758L15.0015 4.67538V11.3254C15.0015 11.7245 14.8501 12.1087 14.5777 12.4004C14.3054 12.6921 13.9324 12.8696 13.5343 12.8969L13.4265 12.9004H12.9015V3.10038ZM3.10146 12.9004H2.57646C2.17738 12.9004 1.79315 12.749 1.50144 12.4766C1.20972 12.2043 1.03228 11.8313 1.00496 11.4332L1.00146 11.3254V4.67538C1.00142 4.27629 1.15287 3.89207 1.42522 3.60035C1.69758 3.30864 2.07051 3.1312 2.46867 3.10388L2.57646 3.10038H3.10146V12.9004Z" fill="currentColor"/>
</svg>
