<svg fill="none" height="16" viewBox="0 0 16 16" width="16" xmlns="http://www.w3.org/2000/svg"><path clip-rule="evenodd" d="m0 2.16667c0-.30942.120408-.60617.334735-.82496s.505018-.34171.808125-.34171h13.71424c.3031 0 .5938.12292.8082.34171.2143.21879.3347.51554.3347.82496s-.1204.60616-.3347.82495c-.2144.2188-.5051.34171-.8082.34171h-13.71424c-.303107 0-.593798-.12291-.808125-.34171-.214327-.21879-.334735-.51553-.334735-.82495zm0 5.83333c0-.30942.120408-.60617.334735-.82496s.505018-.34171.808125-.34171h13.71424c.3031 0 .5938.12292.8082.34171.2143.21879.3347.51554.3347.82496s-.1204.60616-.3347.82496c-.2144.21879-.5051.34171-.8082.34171h-13.71424c-.303107 0-.593798-.12292-.808125-.34171-.214327-.2188-.334735-.51554-.334735-.82496zm0 5.8333c0-.3094.120408-.6061.334735-.8249s.505018-.3417.808125-.3417h6.85714c.3031 0 .59379.1229.80812.3417s.33474.5155.33474.8249c0 .3095-.12041.6062-.33474.825s-.50502.3417-.80812.3417h-6.85714c-.303107 0-.593798-.1229-.808125-.3417s-.334735-.5155-.334735-.825z" fill="currentColor" fill-rule="evenodd"/></svg>