<svg fill="none" height="16" viewBox="0 0 16 16" width="16" xmlns="http://www.w3.org/2000/svg"><g fill="currentColor"><path d="m7 0c-.55228 0-1 .447715-1 1 0 .55228.44772 1 1 1h2c.55228 0 1-.44772 1-1 0-.552285-.44772-1-1-1z"/><path clip-rule="evenodd" d="m2 3c0-1.10457.89543-2 2-2 0 1.65685 1.34315 3 3 3h2c1.6569 0 3-1.34315 3-3 1.1046 0 2 .89543 2 2v11c0 1.1046-.8954 2-2 2h-8c-1.10457 0-2-.8954-2-2zm9.7071 5.70711c.3905-.39053.3905-1.02369 0-1.41422-.3905-.39052-1.0237-.39052-1.4142 0l-3.2929 3.29291-1.29289-1.29291c-.39053-.39052-1.02369-.39052-1.41422 0-.39052.39053-.39052 1.02371 0 1.41421l2 2c.39053.3905 1.02369.3905 1.41422 0z" fill-rule="evenodd"/></g></svg>