<svg fill="none" height="16" viewBox="0 0 16 16" width="16" xmlns="http://www.w3.org/2000/svg"><path clip-rule="evenodd" d="m15.531 12.512c-.3005.3125-.7079.488-1.1327.488s-.8322-.1755-1.1326-.488l-5.27537-5.48874-5.2754 5.48874c-.30214.3036-.70681.4716-1.12685.4678s-.821839-.1791-1.118864-.4881c-.297024-.3091-.46550541-.7271-.46915544-1.1641-.00365003-.4371.15782344-.8581.44964144-1.1724l6.408008-6.66719c.30042-.31247.70782-.48801 1.13262-.48801.42479 0 .83219.17554 1.13261.48801l6.40806 6.66719c.3003.3125.469.7364.469 1.1784 0 .4419-.1687.8658-.469 1.1784z" fill="currentColor" fill-rule="evenodd"/></svg>