<svg fill="none" height="16" viewBox="0 0 17 16" width="17" xmlns="http://www.w3.org/2000/svg"><path clip-rule="evenodd" d="m2.96666.356825c.47868-.23414 1.00452-.35604831 1.53748-.35644353.60689-.00033591 1.20346.15688953 1.73124.45626953.52779.299379.96867.730639 1.27946 1.251519.31079.52089.48082 1.11352.49342 1.71982s-.13266 1.20547-.42154 1.7388l1.42118 1.42011 5.2974-5.29342c.1888-.18217.4416-.28297.704-.28069s.5135.10745.699.29288c.1856.18542.2908.43625.2931.69847s-.0986.51484-.2809.70345l-8.13478 8.12761c.40021.7396.52063 1.5985.33924 2.4195s-.65247 1.5493-1.3271 2.0518-1.50772.7455-2.34694.6847-1.62849-.4215-2.22347-1.016c-.59497-.5946-.95591-1.3832-1.0168-2.2218-.060885-.8386.18234-1.6711.6852-2.3452.50287-.67409 1.23176-1.14482 2.05341-1.32607.82164-.18125 1.68112-.06092 2.42127.33899l1.42119-1.42011-1.42119-1.42011c-.469.25295-.98958.39562-1.5221.41716-.53253.02155-1.06295-.07861-1.55088-.29285s-.9205-.53691-1.26478-.94344c-.34428-.40652-.59119-.88619-.72193-1.40247-.130742-.51628-.141862-1.05557-.03252-1.57679.10935-.52122.33628-1.01065.66351-1.431.32723-.420348.74614-.760545 1.22483-.994685zm.1505 2.569765c-.07545.182-.11428.37707-.11428.57407 0 .39785.15817.77941.43971 1.06074s.66339.43937 1.06155.43937.78001-.15804 1.06155-.43937.4397-.66289.4397-1.06074c0-.197-.03883-.39207-.11427-.57407-.07545-.18201-.18603-.34738-.32543-.48668-.13941-.1393-.30491-.24979-.48705-.32518s-.37735-.11419-.5745-.11419-.39237.0388-.57451.11419-.34763.18588-.48704.32518c-.1394.1393-.24999.30467-.32543.48668zm0 9.00071c-.07545.182-.11428.3771-.11428.5741 0 .3978.15817.7794.43971 1.0607s.66339.4394 1.06155.4394.78001-.1581 1.06155-.4394.4397-.6629.4397-1.0607c0-.197-.03883-.3921-.11427-.5741-.07545-.182-.18603-.3474-.32543-.4867-.13941-.1393-.30491-.2498-.48705-.3252s-.37735-.1142-.5745-.1142-.39237.0388-.57451.1142-.34763.1859-.48704.3252c-.1394.1393-.24999.3047-.32543.4867zm7.89814-2.92688c.2681-.00233.5264.10074.7193.28702l3.967 3.96666c.1919.1917.2998.4519.2999.7231.0001.2713-.1076.5315-.2994.7234-.1917.1918-.4519.2997-.7232.2998s-.5315-.1076-.7234-.2993l-3.967-3.9677c-.1862-.1929-.28933-.4512-.287-.7193.0023-.26813.1099-.52461.2995-.71421.1896-.18959.4461-.29714.7143-.29947z" fill="currentColor" fill-rule="evenodd"/></svg>