<svg xmlns="http://www.w3.org/2000/svg" fill="none" viewBox="0 0 16 16"><path fill="currentColor" fill-rule="evenodd" d="M6.749.097a8.054 8.054 0 0 1 2.502 0 .75.75 0 0 1-.233 1.482 6.554 6.554 0 0 0-2.036 0A.75.75 0 1 1 6.749.097ZM4.345 1.693A.75.75 0 0 1 4.18 2.74a6.542 6.542 0 0 0-1.44 1.44.75.75 0 0 1-1.212-.883 8.042 8.042 0 0 1 1.769-1.77.75.75 0 0 1 1.048.166Zm7.31 0a.751.751 0 0 1 1.048-.165 8.039 8.039 0 0 1 1.77 1.769.75.75 0 1 1-1.214.883 6.542 6.542 0 0 0-1.439-1.44.75.75 0 0 1-.165-1.047ZM.955 6.125a.75.75 0 0 1 .624.857 6.554 6.554 0 0 0 0 2.036.75.75 0 0 1-1.482.233 8.054 8.054 0 0 1 0-2.502.75.75 0 0 1 .858-.624Zm14.09 0a.75.75 0 0 1 .858.624c.13.829.13 1.673 0 2.502a.75.75 0 0 1-1.482-.233 6.551 6.551 0 0 0 0-2.036.75.75 0 0 1 .624-.857Zm-13.352 5.53a.75.75 0 0 1 1.048.165 6.541 6.541 0 0 0 1.439 1.44.75.75 0 0 1-.883 1.212 8.039 8.039 0 0 1-1.77-1.769.75.75 0 0 1 .166-1.048Zm12.614 0a.752.752 0 0 1 .165 1.048 8.034 8.034 0 0 1-1.769 1.77.75.75 0 1 1-.883-1.214 6.541 6.541 0 0 0 1.44-1.439.75.75 0 0 1 1.047-.165Zm-8.182 3.39a.75.75 0 0 1 .857-.624 6.551 6.551 0 0 0 2.036 0 .75.75 0 1 1 .233 1.482c-.829.13-1.673.13-2.502 0a.75.75 0 0 1-.624-.858Z" clip-rule="evenodd"/></svg>