<svg fill="none" height="16" viewBox="0 0 16 16" width="16" xmlns="http://www.w3.org/2000/svg"><g fill="currentColor"><path d="m4.625 10.3333c-1.44975 0-2.625-1.21875-2.625-2.72219 0-1.40651 1.0286-2.56388 2.34826-2.70727-.06412-.25309-.09826-.51877-.09826-.79273 0-1.71822 1.34315-3.11111 3-3.11111 1.40913 0 2.59135 1.00752 2.9134 2.3658.1509-.02141.305-.03247.4616-.03247 1.864 0 3.375 1.56701 3.375 3.5 0 1.933-1.511 3.49997-3.375 3.49997h-1.875v-2.78891l.96967 1.00558c.29293.30374.76773.30374 1.06063 0s.2929-.7962 0-1.09994l-2.24997-2.33334c-.29289-.30374-.76777-.30374-1.06066 0l-2.25 2.33334c-.29289.30374-.29289.7962 0 1.09994s.76777.30374 1.06066 0l.96967-1.00558v2.78891z"/><path d="m7.25 10.3333h1.5v3.8889c0 .4296-.33579.7778-.75.7778s-.75-.3482-.75-.7778z"/></g></svg>