<svg xmlns="http://www.w3.org/2000/svg" fill="none" viewBox="0 2 16 12"><path fill="currentColor" fill-rule="evenodd" d="M4 14c-2.21 0-4-1.727-4-3.857 0-1.699 1.139-3.14 2.72-3.656a3.748 3.748 0 0 1-.053-.63c0-2.13 1.79-3.857 4-3.857A4.03 4.03 0 0 1 10.1 3.876a3.211 3.211 0 0 1 1.011-.162c1.718 0 3.111 1.343 3.111 3a2.9 2.9 0 0 1-.119.824C15.231 8.113 16 9.256 16 10.571 16 12.465 14.408 14 12.444 14H4Zm4.667-7.929A.655.655 0 0 0 8 5.43a.655.655 0 0 0-.667.642v3.935L5.6 8.206a.684.684 0 0 0-.943-.034.627.627 0 0 0-.034.908l2.888 3a.678.678 0 0 0 .489.206.678.678 0 0 0 .489-.206l2.888-3a.627.627 0 0 0-.035-.908.684.684 0 0 0-.942.033l-1.733 1.8V6.072Z" clip-rule="evenodd"/></svg>