<svg fill="none" height="16" viewBox="0 0 16 16" width="16" xmlns="http://www.w3.org/2000/svg"><path clip-rule="evenodd" d="m2 7.61111c0 1.50344 1.17525 2.72219 2.625 2.72219h2.625v2.0112l-.96967-1.0056c-.29289-.3037-.76777-.3037-1.06066 0-.29289.3038-.29289.7962 0 1.1l2.25 2.3333c.29289.3037.76777.3037 1.06066 0l2.24997-2.3333c.2929-.3038.2929-.7962 0-1.1-.2929-.3037-.7677-.3037-1.06063 0l-.96967 1.0056v-2.0112h1.875c1.864 0 3.375-1.56697 3.375-3.49997 0-1.93299-1.511-3.5-3.375-3.5-.1566 0-.3107.01106-.4616.03247-.32205-1.35828-1.50427-2.3658-2.9134-2.3658-1.65685 0-3 1.39289-3 3.11111 0 .27396.03414.53964.09826.79273-1.31966.14339-2.34826 1.30076-2.34826 2.70727zm6.75 2.72219h-1.5v-3.88886c0-.42955.33579-.77777.75-.77777s.75.34822.75.77777z" fill="currentColor" fill-rule="evenodd"/></svg>