<svg fill="none" height="16" viewBox="0 0 16 16" width="16" xmlns="http://www.w3.org/2000/svg"><path clip-rule="evenodd" d="m10.0589 2.04422c.4657.14969.7174.63509.5622 1.08416l-3.5556 10.28532c-.15525.4491-.65864.6918-1.12437.5421s-.71742-.6351-.56218-1.0842l3.55555-10.2853c.15525-.44908.65864-.69178 1.1244-.54208zm-5.8748 2.77838c.34713.33473.34713.87742 0 1.21214l-2.03813 1.96526 2.03813 1.96526c.34713.33474.34713.87744 0 1.21214-.34714.3347-.90995.3347-1.25708 0l-2.66667-2.57133c-.3471332-.33472-.3471332-.87742 0-1.21214l2.66667-2.57133c.34713-.33472.90994-.33472 1.25708 0zm7.6318 0c.3471-.33472.91-.33472 1.2571 0l2.6667 2.57133c.3471.33472.3471.87742 0 1.21214l-2.6667 2.57133c-.3471.3347-.91.3347-1.2571 0s-.3471-.8774 0-1.21214l2.0381-1.96526-2.0381-1.96526c-.3471-.33472-.3471-.87741 0-1.21214z" fill="currentColor" fill-rule="evenodd"/></svg>