<svg fill="none" height="16" viewBox="0 0 17 16" width="17" xmlns="http://www.w3.org/2000/svg"><path clip-rule="evenodd" d="m1.00146 1.00038c.26522 0 .51958.10536.70711.29289.18754.18754.29289.44189.29289.70711v12.00002c0 .2652-.10535.5196-.29289.7071-.18753.1875-.44189.2929-.70711.2929-.265212 0-.519566-.1054-.707103-.2929-.187536-.1875-.29289216-.4419-.29289216-.7071v-12.00002c0-.26522.10535616-.51957.29289216-.70711.187537-.18753.441891-.29289.707103-.29289zm7.707 3.293c.18748.18753.29279.44184.29279.707 0 .26517-.10531.51947-.29279.707l-1.293 1.293h7.58604c.2652 0 .5195.10536.7071.29289.1875.18754.2929.44189.2929.70711s-.1054.51957-.2929.70711c-.1876.18753-.4419.29289-.7071.29289h-7.58604l1.293 1.29302c.09551.0922.1717.2026.22411.3246s.07999.2532.08115.386c.00115.1328-.02415.2644-.07443.3873s-.12454.2346-.21843.3285-.20554.1681-.32844.2184-.25458.0756-.38736.0744c-.13278-.0011-.264-.0287-.386-.0811s-.23235-.1286-.32459-.2241l-3-3.00002c-.18748-.18753-.29279-.44183-.29279-.707 0-.26516.10531-.51947.29279-.707l3-3c.18752-.18747.44183-.29278.70699-.29278.26517 0 .51948.10531.707.29278z" fill="currentColor" fill-rule="evenodd"/></svg>