<svg fill="none" height="16" viewBox="0 0 17 16" width="17" xmlns="http://www.w3.org/2000/svg" xmlns:xlink="http://www.w3.org/1999/xlink"><clipPath id="a"><path d="m.001465.000381h16v16h-16z"/></clipPath><g clip-path="url(#a)" fill="currentColor"><path d="m11.0372 15.0004c-.2432 0-.4773-.0896-.6557-.2508l-2.70476-2.4502c-.05965-.0548-.13851-.0854-.22047-.0854s-.16083.0306-.22047.0854l-2.60196 2.4389c-.0916.0855-.19954.1525-.31769.1973-.11814.0447-.24416.0664-.37088.0636-.25591-.0055-.4991-.1099-.67604-.2904-.17696-.1804-.2732-.422-.26753-.6716s.11277-.4868.29774-.6594l3.24987-3.0382c.24799-.2206.5722-.34174.9078-.3392.3356.0026.65784.1286.90226.3529l3.33343 3.017c.1421.1285.2413.2958.2844.4801.0432.1843.0285.377-.0423.553s-.1943.3271-.3545.4336c-.1601.1065-.3494.1634-.5432.1634zm-4.01609-3.2928.03086.0263zm.87803-.0251-.02056.0188z"/><path d="m7.45048 6.00033c-.16965.00025-.33768-.03198-.49442-.09505-.15674-.06295-.29908-.15551-.41885-.27217l-3.2376-3.01641c-.18507-.17193-.29224-.40819-.29791-.65684-.00567-.24864.09062-.48929.26768-.669.17705-.17971.42037-.28377.67644-.28926.25606-.00551.50389.08798.68896.25991l2.60346 2.42811c.05967.05463.13858.08505.2206.08505.082 0 .16091-.03042.2206-.08505l2.70126-2.43935c.1876-.16895.4366-.258589.6923-.24922.2557.00937.4971.11698.6711.29918.174.18219.2663.42404.2567.67232-.0097.2483-.1205.4827-.3081.65165l-3.35597 3.03264c-.2375.22308-.55584.34649-.88625.34349zm-.41676-1.72367-.03602.03122zm.83609 0 .01672.01749z"/></g></svg>