<svg xmlns="http://www.w3.org/2000/svg" fill="none" viewBox="2 2 12 12"><path fill="currentColor" fill-rule="evenodd" d="M2 3.313C2 2.587 2.588 2 3.313 2h2.624c.725 0 1.313.588 1.313 1.313v2.624c0 .725-.588 1.313-1.313 1.313H5v3c0 .414.336.75.75.75h3v-.938c0-.724.588-1.312 1.313-1.312h2.624c.725 0 1.313.588 1.313 1.313v2.624c0 .725-.588 1.313-1.313 1.313h-2.624a1.312 1.312 0 0 1-1.313-1.313v-.562h-3a1.875 1.875 0 0 1-1.875-1.875v-3h-.563A1.313 1.313 0 0 1 2 5.937V3.313Z" clip-rule="evenodd"/></svg>