<svg fill="none" height="16" viewBox="0 0 17 16" width="17" xmlns="http://www.w3.org/2000/svg"><path d="m8 0c.19597.00002585.38511.0719729.53156.202195.14644.130221.24.309661.26293.504283l.0056.093611v1.051321c1.35691.177 2.61711.79763 3.58461 1.76528s1.588 2.22802 1.7648 3.58491l1.0513-.0008c.2039.00022.4001.07831.5484.2183.1482.13999.2375.33132.2494.5349.012.20357-.0543.40403-.1851.56041-.1309.15638-.3166.25688-.5191.28097l-.0936.0056h-1.0513c-.177 1.35672-.7975 2.61692-1.765 3.58442s-2.2277 1.588-3.58441 1.765v1.0513c-.00023.2039-.07831.4001-.2183.5483-.14.1483-.33132.2376-.5349.2495-.20358.012-.40403-.0543-.56041-.1852-.15638-.1308-.25688-.3165-.28097-.519l-.0056-.0936v-1.0513c-1.3566-.1772-2.6166-.7977-3.58394-1.7652-.96733-.9675-1.58773-2.2276-1.76465-3.58422h-1.052118c-.203926-.00023-.40007-.07832-.548355-.21831s-.2375198-.33132-.24947082-.53489c-.01195098-.20358.05428342-.40404.18516982-.56042.130887-.15638.316547-.25688.519046-.28096l.09361-.0056h1.051318c.17713-1.3566.79771-2.61661 1.76519-3.58394s2.22757-1.58773 3.5842-1.76465v-1.052121c0-.212197.0843-.415703.23434-.565748.15005-.1500462.35355-.234341.56575-.234341zm0 3.40038c-1.22013 0-2.39029.48469-3.25305 1.34746-.86276.86276-1.34746 2.03292-1.34746 3.25305s.4847 2.39031 1.34746 3.25301c.86276.8628 2.03292 1.3475 3.25305 1.3475s2.3903-.4847 3.2531-1.3475c.8627-.8627 1.3474-2.03288 1.3474-3.25301s-.4847-2.39029-1.3474-3.25305c-.8628-.86277-2.03297-1.34746-3.2531-1.34746zm0 1.40015c.84879 0 1.66281.33718 2.263.93736.6002.60019.9374 1.41421.9374 2.263 0 .84878-.3372 1.66281-.9374 2.26301-.60019.6002-1.41421.9373-2.263.9373s-1.66281-.3371-2.26299-.9373c-.60019-.6002-.93736-1.41423-.93736-2.26301 0-.84879.33717-1.66281.93736-2.263.60018-.60018 1.4142-.93736 2.26299-.93736z" fill="currentColor"/></svg>