<svg fill="none" height="16" viewBox="0 0 16 16" width="16" xmlns="http://www.w3.org/2000/svg"><path d="m2.28571 0c-.6062 0-1.18759.240816-1.61624.66947-.428654.42865-.66947 1.01004-.66947 1.61624v2.28572c0 .60621.240816 1.18759.66947 1.61624.42865.42866 1.01004.66947 1.61624.66947h2.28572c.60621 0 1.18759-.24081 1.61624-.66947.42866-.42865.66947-1.01003.66947-1.61624v-2.28572c0-.6062-.24081-1.18759-.66947-1.61624-.42865-.428654-1.01003-.66947-1.61624-.66947zm0 9.14286c-.6062 0-1.18759.24081-1.61624.66947-.428654.42867-.66947 1.01007-.66947 1.61627v2.2857c0 .6062.240816 1.1876.66947 1.6162.42865.4287 1.01004.6695 1.61624.6695h2.28572c.60621 0 1.18759-.2408 1.61624-.6695.42866-.4286.66947-1.01.66947-1.6162v-2.2857c0-.6062-.24081-1.1876-.66947-1.61627-.42865-.42866-1.01003-.66947-1.61624-.66947zm6.85715-6.85715c0-.6062.24081-1.18759.66947-1.61624.42867-.428654 1.01007-.66947 1.61627-.66947h2.2857c.6062 0 1.1876.240816 1.6162.66947.4287.42865.6695 1.01004.6695 1.61624v2.28572c0 .60621-.2408 1.18759-.6695 1.61624-.4286.42866-1.01.66947-1.6162.66947h-2.2857c-.6062 0-1.1876-.24081-1.61627-.66947-.42866-.42865-.66947-1.01003-.66947-1.61624zm3.42854 6.85715c.3031 0 .5938.12041.8082.33473.2143.21433.3347.50502.3347.80811v1.1429h1.1428c.3031 0 .5938.1204.8082.3347.2143.2143.3347.505.3347.8081s-.1204.5938-.3347.8082c-.2144.2143-.5051.3347-.8082.3347h-1.1428v1.1428c0 .3031-.1204.5938-.3347.8082-.2144.2143-.5051.3347-.8082.3347s-.5938-.1204-.8081-.3347c-.2143-.2144-.3347-.5051-.3347-.8082v-1.1428h-1.1429c-.30309 0-.59378-.1204-.80811-.3347-.21432-.2144-.33473-.5051-.33473-.8082s.12041-.5938.33473-.8081c.21433-.2143.50502-.3347.80811-.3347h1.1429v-1.1429c0-.30309.1204-.59378.3347-.80811.2143-.21432.505-.33473.8081-.33473z" fill="currentColor"/></svg>