<svg fill="none" height="17" viewBox="0 0 16 17" width="16" xmlns="http://www.w3.org/2000/svg"><path d="m16 6.47368v2.52632c0 2.0926-3.3583 3.7895-7.5 3.7895-4.14167 0-7.5-1.6969-7.5-3.7895v-2.52632c0 2.09264 3.35833 3.78952 7.5 3.78952 4.1417 0 7.5-1.69688 7.5-3.78952zm-15 4.21052c0 2.0926 3.35833 3.7895 7.5 3.7895 4.1417 0 7.5-1.6969 7.5-3.7895v2.5263c0 2.0927-3.3583 3.7895-7.5 3.7895-4.14167 0-7.5-1.6968-7.5-3.7895zm7.5-2.10525c-4.14167 0-7.5-1.69684-7.5-3.78948 0-2.09263 3.35833-3.78947 7.5-3.78947 4.1417 0 7.5 1.69684 7.5 3.78947 0 2.09264-3.3583 3.78948-7.5 3.78948z" fill="currentColor"/></svg>