<svg fill="none" height="16" viewBox="0 0 16 16" width="16" xmlns="http://www.w3.org/2000/svg"><path d="m1.00248 2.12145c0-1.193195 1.01914-2.236445 2.33548-2.1112228 4.28621.4090838 8.25724 2.3521028 11.12854 5.4451628.8858.95152.6101 2.36406-.3966 3.06674l-.3502.24486-.3005-.4307-.0066-.00878c-2.641-3.51498-6.93776-5.80248-11.7892-5.80248h-.62092zm11.39842 6.89917.3129.44905-3.26766 2.28513-.16723.1196v1.6765c0 .2116-.08722.4144-.24248.564s-.36584.2336-.58541.2336-.43015-.084-.58541-.2336-.24248-.3524-.24248-.564v-.0478c-.01325-.1004-.06561-.1922-.14648-.2568-.08087-.0645-.1842-.0971-.28905-.091s-.20338.0503-.27562.1238-.11279.1706-.11343.2718v1.1972c.00003.2047-.08159.4015-.22797.5498s-.34633.2367-.55847.2469c-.21215.0103-.42027-.0584-.58131-.1919-.16104-.1334-.26268-.3214-.28389-.525l-1.19217.8295c-1.23273.8566-2.955568.0088-2.95474-1.4564l.00248-10.48038h.62092c4.43253 0 8.35839 2.0873 10.7775 5.3zm-8.08602-1.85041c.21957 0 .43014-.08403.5854-.23361s.24249-.35245.24249-.56398c0-.21154-.08723-.41441-.24249-.56399-.15526-.14957-.36583-.23361-.5854-.23361s-.43015.08404-.58541.23361c-.15526.14958-.24248.35245-.24248.56399 0 .21153.08722.4144.24248.56398s.36584.23361.58541.23361zm3.31156 2.39118c.21957 0 .43015-.08403.58541-.23361s.24248-.35245.24248-.56398c0-.21154-.08722-.41441-.24248-.56399-.15526-.14957-.36584-.23361-.58541-.23361s-.43015.08404-.58541.23361c-.15526.14958-.24248.35245-.24248.56399 0 .21153.08722.4144.24248.56398s.36584.23361.58541.23361zm-3.31156 2.39121c.21957 0 .43014-.0841.5854-.2336.15526-.1496.24249-.3525.24249-.564 0-.2116-.08723-.4144-.24249-.564s-.36583-.2336-.5854-.2336-.43015.084-.58541.2336-.24248.3524-.24248.564c0 .2115.08722.4144.24248.564.15526.1495.36584.2336.58541.2336z" fill="currentColor"/></svg>