<svg fill="none" height="16" viewBox="0 0 16 16" width="16" xmlns="http://www.w3.org/2000/svg"><path d="m3.2448 5.0577c.051-.08163.10409-.16194.1592-.24084h9.192c.0552.07867.108.15976.1592.24084l1.1821-.68472c.2394-.1387.546-.05654.684.18331l.3013.52377c.1374.23882.0557.5438-.1827.68195l-1.3391.77607c.1296.47366.1992.97381.1992 1.49002v.80281h1.9c.2761 0 .5.22386.5.5v.60562c0 .27617-.2239.49997-.5.49997h-1.9c0 .7651-.152 1.4949-.4288 2.1596l1.5688.9093c.2384.1382.3201.4431.1827.6819l-.3014.5239c-.138.2398-.4446.322-.684.1833l-1.5869-.9192c-.7654.9487-1.8144 1.617-2.98417 1.9119-.29534.0745-.56623-.1608-.56623-.4654v-5.78808h-1.6v5.78878c0 .3046-.27093.54-.56629.4654-1.1698-.2951-2.21884-.9636-2.98411-1.9126l-1.58688.9192c-.23944.1387-.546.0565-.68399-.1833l-.30131-.5237c-.137424-.2389-.05568-.5439.18278-.682l1.5686-.9086c-.28398-.6846-.42973-1.4189-.4288-2.1604h-1.9c-.276143 0-.5-.2238-.5-.49997v-.60562c0-.27614.223858-.5.5-.5h1.9v-.80281c0-.51621.0696-1.01556.1992-1.49002l-1.33915-.77607c-.23839-.13815-.320088-.44313-.18268-.68195l.30135-.52377c.138-.23985.44456-.32201.68401-.18331zm1.5552-1.84646c0-.85167.33714-1.66847.93726-2.27069.60011-.602224 1.41405-.94055 2.26274-.94055s1.66263.338326 2.2627.94055c.6002.60222.9373 1.41902.9373 2.27069z" fill="currentColor"/></svg>