<svg xmlns="http://www.w3.org/2000/svg" fill="none" viewBox="0 0 15 12"><path fill="currentColor" fill-rule="evenodd" d="M12.184 10.433h-10a.404.404 0 0 1-.283-.115.388.388 0 0 1-.117-.277V1.959c0-.215.18-.392.4-.392h10c.106 0 .208.042.283.115a.388.388 0 0 1 .117.277v8.082a.388.388 0 0 1-.117.277.404.404 0 0 1-.283.115ZM2.184 12h10c.53 0 1.04-.206 1.414-.574a1.94 1.94 0 0 0 .586-1.385V1.959c0-.52-.21-1.018-.586-1.385A2.021 2.021 0 0 0 12.184 0h-10C1.654 0 1.144.206.77.574a1.94 1.94 0 0 0-.586 1.385v8.082c0 .52.21 1.018.586 1.385A2.02 2.02 0 0 0 2.184 12Zm7-8.278v4.605c0 .207.084.407.234.554a.809.809 0 0 0 1.132 0 .776.776 0 0 0 .234-.554V3.722a.776.776 0 0 0-.234-.554.809.809 0 0 0-1.132 0 .776.776 0 0 0-.234.554Z" clip-rule="evenodd"/></svg>