<svg fill="none" height="16" viewBox="0 0 16 16" width="16" xmlns="http://www.w3.org/2000/svg"><path d="m7 2.77682c-1.09029-.51289-2.28735-.77857-3.5-.77681-1.255 0-2.443.28019-3.5.77681v9.66178c1.0903-.5128 2.28736-.7785 3.5-.7768 1.669 0 3.218.4928 4.5 1.3382 1.32608-.8742 2.8947-1.3406 4.5-1.3382 1.255 0 2.443.2802 3.5.7768v-9.66178c-1.0903-.51289-2.2874-.77857-3.5-.77681-1.255 0-2.443.28019-3.5.77681v6.95265c0 .25625-.10536.50203-.29289.68323-.18754.1812-.44189.283-.70711.283s-.51957-.1018-.70711-.283c-.18753-.1812-.29289-.42698-.29289-.68323z" fill="currentColor"/></svg>