<svg xmlns="http://www.w3.org/2000/svg" width="17" height="16" fill="none"><path fill="currentColor" d="M1.72 5.776a1.147 1.147 0 0 0 0-1.622L.504 2.937A1.72 1.72 0 1 1 2.937.504L4.154 1.72a1.147 1.147 0 0 0 1.622 0 1.147 1.147 0 0 1 1.622 0l.486.487c.18.18.18.47 0 .649L2.856 7.884c-.18.18-.47.18-.649 0l-.487-.486a1.147 1.147 0 0 1 0-1.622ZM5.526 7.96a.573.573 0 0 1 0-.812l1.622-1.622a.574.574 0 0 1 .811 0l6.083 6.083c.367.367.573.865.573 1.384v.24c0 .366.146.717.404.975l.813.813a.574.574 0 0 1-.811.811l-.813-.813a1.378 1.378 0 0 0-.974-.403h-.24c-.52 0-1.018-.207-1.385-.574L5.526 7.959Z"/></svg>