<svg fill="none" height="16" viewBox="0 0 17 16" width="17" xmlns="http://www.w3.org/2000/svg"><path d="m12.0785.69696c.2105-.217926.4623-.391752.7407-.511334.2784-.1195821.5778-.18252571.8807-.18515838.303-.00263267.6034.05509848.8839.16982438.2804.114727.5351.284151.7494.498386.2142.214236.3836.468992.4984.749402.1147.28042.1724.58087.1698.88384-.0027.30296-.0656.60237-.1852.88074-.1196.27838-.2934.53016-.5113.74064l-.9047.90469-3.2263-3.22633zm-2.51782 2.51787-9.55921516 9.55917v3.2264h3.22633516l9.5604-9.55924-3.22866-3.22633z" fill="currentColor"/></svg>