<svg fill="none" height="16" viewBox="0 0 17 16" width="17" xmlns="http://www.w3.org/2000/svg"><g clip-rule="evenodd" fill="currentColor" fill-rule="evenodd"><path d="m11.8675.00038147c-.3008 0-.5892.12040753-.8019.33473553-.2126.214327-.3321.505017-.3321.808123v13.71426c0 .3031.1195.5938.3321.8081.2127.2144.5011.3348.8019.3348.3007 0 .5892-.1204.8018-.3348.2127-.2143.3322-.505.3322-.8081v-13.71426c0-.303106-.1195-.593796-.3322-.808123-.2126-.214328-.5011-.33473553-.8018-.33473553z"/><path d="m2.3336 2.38414c-.44285.44631-.44285 1.16993 0 1.61624l3.73411 3.76331-3.73411 3.76331c-.44285.4463-.44285 1.1699 0 1.6162.44285.4464 1.16086.4464 1.60371 0l4.53596-4.57139c.44285-.44631.44285-1.16993 0-1.61624l-4.53596-4.57143c-.44285-.44632-1.16086-.44632-1.60371 0z"/></g></svg>