<svg xmlns="http://www.w3.org/2000/svg" width="17" height="16" fill="none"><g fill="currentColor" clip-path="url(#a)"><path d="M11.036 6a.978.978 0 0 1-.656-.25L7.675 3.3a.326.326 0 0 0-.44 0L4.631 5.737A.969.969 0 0 1 3.944 6a.977.977 0 0 1-.676-.29.929.929 0 0 1 .03-1.331l3.25-3.038A1.35 1.35 0 0 1 7.456 1c.335.003.657.129.902.353L11.69 4.37a.92.92 0 0 1 .242 1.033.945.945 0 0 1-.354.434.982.982 0 0 1-.543.163ZM7.02 2.708l.03.026-.03-.026Zm.878-.025-.02.018.02-.018ZM7.551 15a1.318 1.318 0 0 0 .913-.367l3.238-3.016A.926.926 0 0 0 12 10.96a.923.923 0 0 0-.268-.67.982.982 0 0 0-1.365-.03l-2.604 2.43a.327.327 0 0 1-.441 0l-2.701-2.44a.982.982 0 0 0-1.364.05.921.921 0 0 0 .052 1.324l3.356 3.033c.237.223.556.346.886.343Zm.417-1.723.036.03-.036-.03Zm-.836 0-.017.017.017-.017Z"/></g><defs><clipPath id="a"><path fill="currentColor" d="M.001 0h16v16h-16z"/></clipPath></defs></svg>