<svg fill="none" height="16" viewBox="0 0 17 16" width="17" xmlns="http://www.w3.org/2000/svg"><path clip-rule="evenodd" d="m16.0015.88927c0-.490919-.398-.88888853-.8889-.88888853h-3.5556c-.4909 0-.8889.39796953-.8889.88888853 0 .49092.398.88889.8889.88889h1.4096l-2.927 2.92702c-.34714.34713-.34714.90994 0 1.25708.3471.34713.9099.34713 1.2571 0l2.927-2.92702v1.40959c0 .49092.398.88889.8889.88889s.8889-.39797.8889-.88889zm-11.55559-.88888853h-3.555556c-.49092 0-.88888928.39796953-.88888928.88888853v3.55556c0 .49092.39796928.88889.88888928.88889.490916 0 .888886-.39797.888886-.88889v-1.40959l2.92702 2.92702c.34713.34713.90994.34713 1.25708 0 .34713-.34714.34713-.90995 0-1.25708l-2.92702-2.92702h1.40959c.49092 0 .88889-.39797.88889-.88889 0-.490919-.39797-.88888853-.88889-.88888853zm5.59369 10.03811853c-.34714.3471-.34714.91 0 1.2571l2.927 2.927h-1.4096c-.4909 0-.8889.398-.8889.8889s.398.8889.8889.8889h3.5556c.4909 0 .8889-.398.8889-.8889v-3.5556c0-.4909-.398-.8888-.8889-.8888s-.8889.3979-.8889.8888v1.4096l-2.927-2.927c-.3472-.34712-.91-.34712-1.2571 0zm-4.07626 1.2571c.34713-.3471.34713-.91 0-1.2571-.34714-.34712-.90995-.34712-1.25708 0l-2.92702 2.927v-1.4096c0-.4909-.39797-.8888-.888886-.8888-.49092 0-.88888928.3979-.88888928.8888v3.5556c0 .4909.39796928.8889.88888928.8889h3.555556c.49092 0 .88889-.398.88889-.8889s-.39797-.8889-.88889-.8889h-1.40959z" fill="currentColor" fill-rule="evenodd"/></svg>