<svg fill="none" height="16" viewBox="0 0 16 16" width="16" xmlns="http://www.w3.org/2000/svg"><g fill="currentColor"><path d="m2.6485 1.0839c.50609.22112.7371.81064.51598 1.31672-.74866 1.71351-1.16448 3.6067-1.16448 5.59963 0 1.99294.41582 3.88615 1.16448 5.59965.22112.5061-.00989 1.0956-.51598 1.3167-.50608.2211-1.0956-.0099-1.31672-.516-.856916-1.9612-1.33178-4.1267-1.33178-6.40035 0-2.27369.474864-4.4391 1.33178-6.40037.22112-.50609.81064-.737099 1.31672-.51598z"/><path d="m10.9613 5.00024c-.9114 0-1.77334.41427-2.34266 1.12592l-.32749.40937-.11123-.27807c-.30373-.75931-1.03914-1.25722-1.85695-1.25722h-.32297c-.55228 0-1 .44772-1 1 0 .55229.44772 1 1 1h.32297l.53213 1.33034-1.03548 1.29436c-.18977.23721-.47709.37526-.78087.37526h-.03875c-.55228 0-1 .4478-1 1 0 .5523.44772 1 1 1h.03875c.91135 0 1.77329-.4142 2.34261-1.1259l.32749-.4093.11123.278c.30373.7593 1.03914 1.2572 1.85695 1.2572h.32297c.5523 0 1-.4477 1-1 0-.5522-.4477-1-1-1h-.32297l-.53213-1.3303 1.0355-1.29435c.1898-.23722.4771-.37531.7809-.37531h.0387c.5523 0 1-.44771 1-1 0-.55228-.4477-1-1-1z"/><path d="m12.8355 2.40062c-.2211-.50608.0099-1.0956.516-1.31672.5061-.221119 1.0956.00989 1.3167.51598.8569 1.96127 1.3318 4.12668 1.3318 6.40037 0 2.27365-.4749 4.43915-1.3318 6.40035-.2211.5061-.8106.7371-1.3167.516s-.7371-.8106-.516-1.3167c.7487-1.7135 1.1645-3.60671 1.1645-5.59965 0-1.99293-.4158-3.88612-1.1645-5.59963z"/></g></svg>