<svg xmlns="http://www.w3.org/2000/svg" fill="none" viewBox="1 2.5 14 11"><path stroke="currentColor" stroke-linecap="round" stroke-linejoin="round" stroke-width="1.5" d="M1.808 13.5h12.384m-12.384 0A.817.817 0 0 1 1 12.675m.808.825h1.077c.446 0 .807-.37.807-.825m-2.692 0v-9.35m0 9.35v-1.1c0-.456.362-.825.808-.825M15 12.675v-9.35m0 9.35a.816.816 0 0 1-.808.825m.808-.825v-1.1a.816.816 0 0 0-.808-.825m0 2.75h-1.077a.816.816 0 0 1-.807-.825M14.192 2.5H1.808m12.384 0c.446 0 .808.37.808.825m-.808-.825h-1.077a.816.816 0 0 0-.807.825m2.692 0v1.1a.816.816 0 0 1-.808.825M1.808 2.5A.816.816 0 0 0 1 3.325m.808-.825h1.077c.446 0 .807.37.807.825M1 3.325v1.1c0 .456.362.825.808.825m0 0h1.077m-1.077 0A.816.816 0 0 0 1 6.075v1.1c0 .456.362.825.808.825m1.077-2.75c.446 0 .807-.37.807-.825v-1.1M2.885 5.25c.446 0 .807.37.807.825v1.1m0-3.85v3.85m0-3.85c0-.456.362-.825.808-.825h7c.446 0 .808.37.808.825m.807 1.925h1.077m-1.077 0a.816.816 0 0 1-.807-.825v-1.1m.807 1.925a.816.816 0 0 0-.807.825v1.1m1.884-1.925c.446 0 .808.37.808.825v1.1a.816.816 0 0 1-.808.825m-1.884-4.675v3.85M4.5 8h7m-7 0a.816.816 0 0 1-.808-.825M4.5 8a.816.816 0 0 0-.808.825m0-1.65A.816.816 0 0 1 2.885 8m9.423-.825A.816.816 0 0 1 11.5 8m.808-.825c0 .456.361.825.807.825M11.5 8c.446 0 .808.37.808.825m-8.616 3.85v-3.85m0 3.85c0 .456.362.825.808.825h7c.446 0 .808-.37.808-.825m-8.616 0v-1.1a.817.817 0 0 0-.807-.825m9.423 1.925v-3.85m0 3.85v-1.1c0-.456.361-.825.807-.825m-.807-1.925v1.1c0 .456.361.825.807.825m-.807-1.925c0-.456.361-.825.807-.825m-9.423.825v1.1a.817.817 0 0 1-.807.825m.807-1.925A.816.816 0 0 0 2.885 8M1.808 8h1.077M1.808 8A.816.816 0 0 0 1 8.825v1.1c0 .456.362.825.808.825M13.115 8h1.077m0 0c.446 0 .808.37.808.825v1.1a.816.816 0 0 1-.808.825m-12.384 0h1.077m10.23 0h1.077"/></svg>