<svg fill="none" height="16" viewBox="0 0 17 16" width="17" xmlns="http://www.w3.org/2000/svg"><path d="m12.2015 13.4254c0 .3991-.1514.7833-.4238 1.075-.2723.2917-.6453.4692-1.0434.4965l-.1078.0035h-5.25004c-.39908 0-.78331-.1514-1.07502-.4238-.29172-.2723-.46916-.6453-.49648-1.0434l-.0035-.1078v-10.85002c-.00004-.39909.15141-.78331.42376-1.07503.27235-.29171.64529-.46915 1.04344-.49647l.1078-.0035h5.25004c.3991-.00005.7833.15141 1.075.42376s.4691.64529.4965 1.04344l.0035.1078zm.7-10.32502h.525c.3991-.00005.7833.15141 1.075.42376s.4691.64529.4965 1.04344l.0035.1078v6.65002c0 .3991-.1514.7833-.4238 1.075-.2723.2917-.6453.4692-1.0434.4965l-.1078.0035h-.525zm-9.80004 9.80002h-.525c-.39908 0-.78331-.1514-1.07502-.4238-.29172-.2723-.46916-.6453-.49648-1.0434l-.0035-.1078v-6.65002c-.00004-.39909.15141-.78331.42376-1.07503.27236-.29171.64529-.46915 1.04344-.49647l.1078-.0035h.525z" fill="currentColor"/></svg>