<svg fill="none" height="16" viewBox="0 0 16 16" width="16" xmlns="http://www.w3.org/2000/svg"><path clip-rule="evenodd" d="m8 1.77778c-1.65024 0-3.23288.65555-4.39978 1.82244-1.16689 1.1669-1.82244 2.74954-1.82244 4.39978 0 .81711.16094 1.62623.47364 2.3811.31269.755.77102 1.4409 1.3488 2.0187.57779.5778 1.26372 1.0361 2.01864 1.3488.75491.3127 1.56403.4736 2.38114.4736s1.62623-.1609 2.3811-.4736c.755-.3127 1.4409-.771 2.0187-1.3488s1.0361-1.2637 1.3488-2.0187c.3127-.75487.4736-1.56399.4736-2.3811 0-1.65024-.6555-3.23288-1.8224-4.39978-1.1669-1.16689-2.74956-1.82244-4.3998-1.82244zm-5.65685.56537c1.50029-1.500295 3.53512-2.34315 5.65685-2.34315 2.1217 0 4.1566.842855 5.6569 2.34315 1.5002 1.50029 2.3431 3.53512 2.3431 5.65685 0 1.05057-.2069 2.0909-.609 3.0615-.402.9706-.9913 1.8525-1.7341 2.5954-.7429.7428-1.6248 1.3321-2.5954 1.7341-.9706.4021-2.01093.609-3.0615.609s-2.09086-.2069-3.06147-.609c-.9706-.402-1.85252-.9913-2.59538-1.7341-.74287-.7429-1.33215-1.6248-1.734186-2.5954-.402038-.9706-.608964-2.01092-.608964-3.0615.00000005-2.12173.842855-4.15656 2.34315-5.65685zm4.76796 2.69389c0-.49092.39797-.88889.88889-.88889h.00632c.49092 0 .88889.39797.88889.88889v.00632c0 .49092-.39797.88889-.88889.88889h-.00632c-.49092 0-.88889-.39797-.88889-.88889zm.19602 3.25369-.44909 1.79887c-.06867.2747-.05733.564.03297.8324.09038.2686.2559.5056.47693.683s.48829.2876.77009.3177c.28179.03.5663-.0214.81976-.1481l.04003-.0205c.43694-.2238.60972-.7594.38592-1.1964-.14087-.275-.40529-.4454-.69087-.478l.44925-1.79961c.06836-.27477.05672-.56407-.03386-.83233-.09059-.26826-.25615-.50495-.47708-.68203-.22094-.17708-.48799-.28714-.76954-.31714-.27985-.02983-.56236.02068-.8145.14555l-.02945.01437c-.44122.21523-.62442.7474-.40918 1.18862.1382.2833.40706.46023.69862.4936z" fill="currentColor" fill-rule="evenodd"/></svg>