<svg fill="none" height="16" viewBox="0 0 16 16" width="16" xmlns="http://www.w3.org/2000/svg"><g fill="currentColor"><path d="m5.23039.704865c-.1359-.507158-.65719-.808128-1.16435-.6722353-.50716.1358923-.80813.6571883-.67224 1.1643503l.24606.91829c.13589.50715.65719.80812 1.16435.67223.50715-.13589.80812-.65719.67223-1.16434z"/><path d="m1.19697 3.39381c-.507153-.1359-1.028448.16507-1.1643403.67223-.1358927.50716.1650773 1.02845.6722353 1.16435l.918285.24605c.50716.13589 1.02846-.16508 1.16435-.67223.13589-.50716-.16508-1.02846-.67223-1.16435z"/><path d="m9.57578 2.85343c.37127-.37126.37127-.9732 0-1.34447-.37127-.37126-.97321-.37126-1.34447 0l-.67223.67224c-.37127.37126-.37127.9732 0 1.34447.37126.37126.9732.37126 1.34447 0z"/><path d="m2.85343 9.57578.67224-.67223c.37126-.37126.37126-.97321 0-1.34447-.37127-.37127-.97321-.37127-1.34447 0l-.67224.67223c-.37126.37127-.37127.97321 0 1.34447.37127.37127.97321.37127 1.34447 0z"/><path d="m5.89555 4.65975c-.3531-.14124-.7564-.05846-1.02531.21046-.26892.26891-.3517.67221-.21046 1.02531l3.80274 9.50688c.13904.3476.46913.5812.84318.5967.37405.0156.7224-.1898.8898-.5247l1.3115-2.6229 2.8701 2.87c.3712.3713.9732.3713 1.3444 0 .3713-.3712.3713-.9732 0-1.3445l-2.87-2.87 2.623-1.3115c.3348-.1674.5402-.51578.5247-.88983-.0156-.37405-.2492-.70414-.5968-.84318z"/></g></svg>