<svg fill="none" height="17" viewBox="0 0 16 17" width="16" xmlns="http://www.w3.org/2000/svg"><path d="m9.41839.387949 5.73061 3.868891c.1233.08327.2244.19609.2943.32843.07.13234.1065.28012.1065.43022 0 .15009-.0365.29787-.1065.43021-.0699.13234-.171.24516-.2943.32843l-5.73061 3.8698c-.36979.24974-.8043.38297-1.24876.38297s-.87898-.13323-1.24876-.38297l-5.73061-3.8698c-.12331-.08327-.224408-.19609-.294335-.32843-.069926-.13234-.106512-.28012-.106512-.43021 0-.1501.036586-.29788.106512-.43022.069927-.13234.171025-.24516.294335-.32843l5.73061-3.868891c.36978-.249736.8043-.38300515 1.24876-.38300515s.87897.13326915 1.24876.38300515zm5.97731 7.994011c-.1336.21656-.3106.40232-.5195.54528l-5.44701 3.72386c-.37203.2545-.81067.3904-1.25956.3904-.4489 0-.88754-.1359-1.25957-.3904l-5.447-3.72386c-.326-.22274-.571044-.54744-.697691-.9245-.126647-.37705-.127934-.78573-.003665-1.16359l6.159166 4.15795c.34578.2334.74859.3652 1.16383.381.41523.0158.82667-.0852 1.18873-.2917l.14406-.0893 6.15921-4.15795c.0841.25475.1115.5252.0802.79194-.0313.26675-.1205.52317-.2612.75087zm0 2.96344c-.1336.2166-.3106.4023-.5195.5453l-5.44701 3.7239c-.37203.2544-.81067.3903-1.25956.3903-.4489 0-.88754-.1359-1.25957-.3903l-5.447-3.7239c-.326-.2228-.571044-.5475-.697691-.9245-.126647-.3771-.127934-.7857-.003665-1.16361l6.159166 4.15791c.34578.2334.74859.3653 1.16383.3811.41523.0157.82667-.0852 1.18873-.2917l.14406-.0894 6.15921-4.15791c.0841.25471.1115.52521.0802.79191-.0313.2668-.1205.5232-.2612.7509z" fill="currentColor"/></svg>