<svg xmlns="http://www.w3.org/2000/svg" fill="none" viewBox="0 0 16 16"><path fill="currentColor" fill-rule="evenodd" d="m5.171 2.146 1.947 2.466a3.514 3.514 0 0 1 1.764 0l1.947-2.466a6.52 6.52 0 0 0-5.658 0Zm8.683 3.025-2.466 1.947c.15.578.15 1.186 0 1.764l2.466 1.947a6.52 6.52 0 0 0 0-5.658Zm-3.025 8.683-1.947-2.466c-.578.15-1.186.15-1.764 0l-1.947 2.466a6.52 6.52 0 0 0 5.658 0ZM2.146 10.83l2.466-1.947a3.514 3.514 0 0 1 0-1.764L2.146 5.171a6.52 6.52 0 0 0 0 5.658ZM3.63 1.297a8.01 8.01 0 0 1 8.738 0 8.031 8.031 0 0 1 2.334 2.334 8.01 8.01 0 0 1 0 8.738 8.033 8.033 0 0 1-2.334 2.334 8.01 8.01 0 0 1-8.738 0 8.032 8.032 0 0 1-2.334-2.334 8.01 8.01 0 0 1 0-8.738A8.03 8.03 0 0 1 3.63 1.297Zm5.198 4.882a2.008 2.008 0 0 0-2.243.407 1.994 1.994 0 0 0-.407 2.243 1.994 1.994 0 0 0 .992.992 2.008 2.008 0 0 0 2.243-.407 1.994 1.994 0 0 0 .407-2.243 1.994 1.994 0 0 0-.992-.992Z" clip-rule="evenodd"/></svg>