<svg fill="none" height="16" viewBox="0 0 16 16" width="16" xmlns="http://www.w3.org/2000/svg"><path clip-rule="evenodd" d="m7.2756 1.92683c.61123-.59344 1.44024-.92683 2.30465-.92683h3.16045c.8645 0 1.6935.33339 2.3047.92683.6112.59343.9546 1.39831.9546 2.23755v7.67122c0 .8393-.3434 1.6441-.9546 2.2376-.6112.5934-1.4403.9268-2.3047.9268h-3.16045c-.86441 0-1.69342-.3334-2.30465-.9268-.61123-.5935-.95461-1.3983-.95461-2.2376v-.7671c0-.4766.39797-.863.88889-.863s.88889.3864.88889.863v.7671c0 .3815.15608.7473.43391 1.0171.27783.2697.65465.4213 1.04757.4213h3.16045c.393 0 .7698-.1516 1.0476-.4213.2778-.2698.4339-.6356.4339-1.0171v-7.67122c0-.38147-.1561-.74732-.4339-1.01707-.2778-.26974-.6546-.42128-1.0476-.42128h-3.16045c-.39292 0-.76974.15154-1.04757.42128-.27783.26975-.43391.6356-.43391 1.01707v.76713c0 .47663-.39797.86301-.88889.86301s-.88889-.38638-.88889-.86301v-.76713c0-.83924.34338-1.64412.95461-2.23755zm-2.59768 2.39443c.34713.33703.34713.88346 0 1.22049l-1.64306 1.59524h8.91574c.4909 0 .8889.38638.8889.86301s-.398.86301-.8889.86301h-8.91574l1.64306 1.59519c.34713.3371.34713.8835 0 1.2205-.34713.3371-.90994.3371-1.25708 0l-3.16049-3.06846c-.1666994-.16184-.26035-.38135-.26035-.61024s.0936506-.4484.26035-.61024l3.16049-3.0685c.34714-.33702.90995-.33702 1.25708 0z" fill="currentColor" fill-rule="evenodd"/></svg>