<svg xmlns="http://www.w3.org/2000/svg" fill="none" viewBox="2 0.5 12 15"><path fill="currentColor" fill-rule="evenodd" d="M7.665 15.39c.022.014.04.024.052.03l.02.012c.162.09.363.09.525 0l.021-.011.052-.03a12.37 12.37 0 0 0 .832-.55 14.34 14.34 0 0 0 1.95-1.69C12.531 11.676 14 9.46 14 6.61 14 3.237 11.314.5 8 .5S2 3.236 2 6.612c0 2.849 1.469 5.064 2.883 6.539a14.311 14.311 0 0 0 2.597 2.127l.185.113ZM8 8.835c1.205 0 2.182-.995 2.182-2.222 0-1.228-.977-2.223-2.182-2.223s-2.182.995-2.182 2.223c0 1.227.977 2.222 2.182 2.222Z" clip-rule="evenodd"/></svg>