<svg fill="none" height="16" viewBox="0 0 17 16" width="17" xmlns="http://www.w3.org/2000/svg"><path d="m.998535 2.79962c0-.47739.189645-.93523.527205-1.27279.33757-.33757.79541-.527211 1.2728-.527211h12.39996c.4774 0 .9353.189641 1.2728.527211.3376.33756.5272.7954.5272 1.27279v4c0 .15913-.0632.31174-.1757.42426s-.2651.17574-.4243.17574h-6.79996v1.6008h.79996c.1592 0 .3118.06321.4243.17573.1125.11253.1757.26514.1757.42427v1.80318h1.4c.1592 0 .3118.0632.4243.1758.1125.1125.1757.2651.1757.4242v.596h3.4c.1592 0 .3118.0632.4243.1758.1125.1125.1757.2651.1757.4242s-.0632.3118-.1757.4243-.2651.1757-.4243.1757h-3.4v1.0024c0 .1591-.0632.3118-.1757.4243s-.2651.1757-.4243.1757h-6.79996c-.15913 0-.31175-.0632-.42427-.1757s-.17573-.2652-.17573-.4243v-1.0024h-3.4c-.15913 0-.31175-.0632-.42427-.1757s-.175735-.2652-.175735-.4243.063215-.3117.175735-.4242c.11252-.1126.26514-.1758.42427-.1758h3.4008v-.596c0-.1591.06321-.3117.17573-.4242.11252-.1126.26514-.1758.42427-.1758h1.4v-1.80398c0-.15913.06321-.31174.17573-.42427.11252-.11252.26514-.17573.42427-.17573h.7992v-1.6h-6.8c-.15913 0-.31175-.06322-.42427-.17574s-.175735-.26513-.175735-.42426zm12.798365 2.2016c.1053 0 .2095-.02074.3068-.06102.0972-.04028.1856-.09933.2601-.17376.0744-.07444.1334-.16281.1737-.26006.0403-.09726.061-.20149.061-.30676s-.0207-.20951-.061-.30676-.0993-.18562-.1737-.26006c-.0745-.07443-.1629-.13348-.2601-.17376-.0973-.04029-.2015-.06102-.3068-.06102-.2126 0-.4165.08445-.5668.23478s-.2348.35422-.2348.56682.0845.41649.2348.56682c.1503.15032.3542.23478.5668.23478z" fill="currentColor"/></svg>