<svg fill="none" height="16" viewBox="0 0 16 16" width="16" xmlns="http://www.w3.org/2000/svg"><path d="m7.99979 0c-1.5913 0-3.11742.632141-4.24264 1.75736-1.12522 1.12522-1.75736 2.65134-1.75736 4.24264v3.586l-.707.707c-.13981.1399-.23502.318-.27359.512-.038564.1939-.01876.395.05691.5777s.20381.3388.36822.4487.35771.1686.55546.1686h12.00001c.1977 0 .391-.0587.5554-.1686.1645-.1099.2926-.266.3683-.4487.0756-.1827.0954-.3838.0569-.5777-.0386-.194-.1338-.3721-.2736-.512l-.707-.707v-3.586c0-1.5913-.6322-3.11742-1.7574-4.24264-1.1252-1.125219-2.65131-1.75736-4.24261-1.75736zm0 16c-.79565 0-1.55871-.3161-2.12132-.8787s-.87868-1.3257-.87868-2.1213h6.00001c0 .7956-.3161 1.5587-.8787 2.1213s-1.32566.8787-2.12131.8787z" fill="currentColor"/></svg>