<svg fill="none" height="16" viewBox="0 0 16 16" width="16" xmlns="http://www.w3.org/2000/svg"><path d="m7.3552.00000003c-.22421-.00005537-.44194.07523957-.61821.21379397-.17628.138554-.30088.332328-.35379.550206-.5528 2.2736-1.228 4.76-1.908 7.236h4.1248c.15913 0 .31174.06321.42426.17574.11253.11252.17574.26513.17574.42426s-.06321.31174-.17574.42426c-.11252.11253-.26513.17574-.42426.17574h-4.4552l-.44 1.6h5.6952c.15913 0 .31174.0632.42426.1757.11253.1126.17574.2652.17574.4243s-.06321.3117-.17574.4243c-.11252.1125-.26513.1757-.42426.1757h-6.0224c-.26.9584-.5112 1.896-.7456 2.8h-2.032c-.15913 0-.311742.0632-.424264.1757-.112522.1126-.175736.2652-.175736.4243s.063214.3117.175736.4243c.112522.1125.265134.1757.424264.1757h14.8c.1591 0 .3117-.0632.4243-.1757.1125-.1126.1757-.2652.1757-.4243s-.0632-.3117-.1757-.4243c-.1126-.1125-.2652-.1757-.4243-.1757h-2.032l-3.7496-14.0576c-.05673-.212806-.18213-.400931-.35673-.535171-.1746-.1342397-.38863-.20708544-.60887-.20722897z" fill="currentColor"/></svg>