<svg fill="none" height="16" viewBox="0 0 17 16" width="17" xmlns="http://www.w3.org/2000/svg"><path clip-rule="evenodd" d="m4.42104 4.03685c.0087-.30071.13648-.59252.35523-.81128.21876-.21875.51057-.34653.81128-.35523l6.41505-.18473c.3007-.00861.5856.10256.7921.30907.2066.2065.3177.49144.3091.79214l-.1847 6.41508c-.0137.2974-.1436.5843-.3617.7989-.2181.2145-.5069.3395-.8043.3481-.2973.0085-.5794-.1001-.7855-.3024s-.3196-.4822-.3162-.7793l.1059-3.67745-6.25828 6.25825c-.2188.2188-.51068.3466-.81145.3552-.30076.0087-.58577-.1025-.79232-.309-.20654-.2066-.31772-.4916-.30905-.7923.00866-.3008.13644-.5927.35524-.8115l6.25824-6.25824-3.67743.1059c-.30071.00861-.58564-.10256-.79215-.30907-.20651-.2065-.31768-.49144-.30906-.79214z" fill="currentColor" fill-rule="evenodd"/></svg>