<svg xmlns="http://www.w3.org/2000/svg" fill="none" viewBox="0 0 16 16"><path fill="currentColor" fill-rule="evenodd" d="M2.531 1C1.686 1 1 1.686 1 2.531V13.47c0 .844.686 1.53 1.531 1.53H13.47c.845 0 1.531-.686 1.531-1.531V2.53A1.533 1.533 0 0 0 13.469 1H2.53Zm11.156 1.531a.219.219 0 0 0-.218-.218H8.656v5.03h5.031V2.532ZM2.531 2.313a.219.219 0 0 0-.219.218v4.813h5.032V2.313H2.53Zm0 11.375a.219.219 0 0 1-.219-.22V8.657h5.032v5.031H2.53Zm11.156-.22c0 .122-.097.22-.218.22H8.656V8.655h5.031v4.813Z" clip-rule="evenodd"/></svg>