<svg xmlns="http://www.w3.org/2000/svg" fill="none" viewBox="0 1 16 13"><path fill="currentColor" d="M10.667 3.6c0 .69-.281 1.35-.781 1.838S8.707 6.2 8 6.2s-1.386-.274-1.886-.762c-.5-.487-.78-1.148-.78-1.838s.28-1.35.78-1.838S7.293 1 8 1s1.386.274 1.886.762c.5.487.78 1.148.78 1.838zm4.444 1.733c0 .46-.187.9-.52 1.226-.334.325-.786.508-1.258.508s-.923-.183-1.257-.508c-.333-.325-.52-.766-.52-1.226s.187-.9.52-1.225.786-.508 1.257-.508.924.183 1.257.508.521.766.521 1.225zM11.556 11.4c0-.92-.375-1.801-1.042-2.451C9.847 8.299 8.943 7.933 8 7.933S6.153 8.3 5.486 8.95a3.423 3.423 0 0 0-1.042 2.45V14h7.112zM4.444 5.333c0 .46-.187.9-.52 1.226a1.801 1.801 0 0 1-1.257.508 1.8 1.8 0 0 1-1.257-.508c-.334-.325-.521-.766-.521-1.226s.187-.9.52-1.225.786-.508 1.258-.508c.471 0 .923.183 1.257.508.333.325.52.766.52 1.225zM13.334 14v-2.6a5.074 5.074 0 0 0-.667-2.519 2.738 2.738 0 0 1 2.298.465c.322.243.582.554.761.91.18.356.273.747.274 1.144V14zm-10-5.119a5.076 5.076 0 0 0-.667 2.519V14H0v-2.6c0-.397.093-.789.272-1.145.179-.356.44-.668.761-.911a2.733 2.733 0 0 1 2.3-.462z"/></svg>