<svg fill="none" height="16" viewBox="0 0 16 16" width="16" xmlns="http://www.w3.org/2000/svg"><path d="m13.0909 8.08333c0-.41421-.3582-.75-.8-.75h-4.21817c-.44183 0-.8.33579-.8.75v2.49997c0 .4142.35817.75.8.75h4.21817c.4418 0 .8-.3358.8-.75zm2.9091 4.58337v-9.3467c0-.73333-.6545-1.32-1.4545-1.32h-13.09095c-.800005 0-1.45455.58667-1.45455 1.32v9.3467c0 .7333.654545 1.3333 1.45455 1.3333h13.09095c.8 0 1.4545-.6 1.4545-1.3333zm-1.4545-.4867c0 .2761-.2239.5-.5.5h-12.09095c-.27615 0-.5-.2239-.5-.5v-8.36667c0-.27614.22385-.5.5-.5h12.09095c.2761 0 .5.22386.5.5z" fill="currentColor"/></svg>