<svg fill="none" height="16" viewBox="0 0 16 16" width="16" xmlns="http://www.w3.org/2000/svg"><path d="m6.97595.727591c.32283-.970121 1.725-.970121 2.04675 0l1.1514 3.467579c.0704.21118.2071.39519.3907.52573.1837.13053.4047.20091.6316.20107h3.7255c1.0428 0 1.4754 1.30614.6328 1.90654l-3.0131 2.14248c-.184.13065-.321.31496-.3914.52652-.0703.21155-.0705.43948-.0003.65109l1.1514 3.4676c.3228.9701-.8125 1.778-1.6572 1.1776l-3.0131-2.1425c-.18379-.1306-.40509-.2009-.63221-.2009s-.44842.0703-.63222.2009l-3.0131 2.1425c-.84367.6004-1.97789-.2075-1.65613-1.1776l1.15143-3.4676c.07014-.21161.07001-.43954-.00035-.65109-.07037-.21156-.20737-.39587-.39135-.52652l-3.012026-2.14143c-.842593-.6004-.4089212-1.90653.632756-1.90653h3.72441c.22711.00005.44841-.07022.63224-.20077.18382-.13055.32073-.31468.39114-.52604l1.15143-3.467575z" fill="currentColor"/></svg>