<svg fill="none" height="16" viewBox="0 0 17 16" width="17" xmlns="http://www.w3.org/2000/svg"><path d="m7.68625.336987c.54722.548061.40317 1.660293-.2649 2.909513l2.96175 2.47189c1.3595-.78029 2.5447-.9965 3.0936-.44677.7655.7667.0434 2.77308-1.6194 4.76378l3.7689 3.7748c.5003.501.5003 1.3134 0 1.8144-.5002.501-1.3113.501-1.8116 0l-3.7682-3.774c-1.99056 1.6706-3.99864 2.3971-4.7653 1.6292-.55115-.552-.33121-1.7465.45576-3.1152l-2.4589-2.95198c-1.26165.68541-2.388024.83764-2.940408.2844-.886176-.88754.0405-3.25464 2.069788-5.28705 2.02929-2.03242 4.39274-2.960525 5.27891-2.072983z" fill="currentColor"/></svg>