<svg fill="none" height="16" viewBox="0 0 16 16" width="16" xmlns="http://www.w3.org/2000/svg"><path d="m14.7747 3.74363c-.6398-1.01611-1.5018-1.87818-2.5179-2.51797l-.2665.42311c-1.1553-.727472-2.52289-1.148389-3.9903-1.148389s-2.83498.420918-3.99034 1.148389l-.26642-.42311c-1.0161.6398-1.87817 1.50186-2.51796 2.51797l.42311.26641c-.727473 1.15536-1.14839 2.52293-1.14839 3.99034s.420917 2.83502 1.14839 3.99032l-.42311.2664c.63979 1.0161 1.50186 1.8782 2.51797 2.518l.26641-.4231c1.15536.7275 2.52293 1.1484 3.99034 1.1484s2.835-.4209 3.9903-1.1484l.2665.4231c1.0161-.6398 1.8781-1.5019 2.5179-2.518l-.4231-.2664c.7275-1.1553 1.1484-2.52291 1.1484-3.99032s-.4209-2.83498-1.1484-3.99034z" fill="currentColor" fill-opacity=".1" stroke="currentColor" stroke-dasharray="10 4"/></svg>