<svg fill="none" height="16" viewBox="0 0 16 16" width="16" xmlns="http://www.w3.org/2000/svg"><path d="m9.3125 12.8v1.6h4.375c.2761 0 .5.2239.5.5v.6c0 .2761-.2239.5-.5.5h-4.375c-.43098 0-.8443-.1686-1.14905-.4686-.30474-.3001-.47595-.7071-.47595-1.1314v-1.6h-2.4375c-.86195 0-1.6886-.3371-2.2981-.9373-.60949-.6001-.9519-1.414-.9519-2.2627v-3.2h13v3.2c0 .8487-.3424 1.6626-.9519 2.2627-.6095.6002-1.4361.9373-2.2981.9373zm2.4375-9.6h2.4375c.2155 0 .4222.08429.5745.23431.1524.15003.238.35352.238.56569v1.6h-13v-1.6c0-.21217.0856-.41566.23798-.56569.15237-.15002.35903-.23431.57452-.23431h2.4375v-2.7c0-.276142.22386-.5.5-.5h.625c.27614 0 .5.223858.5.5v2.7h3.25v-2.7c0-.276142.2239-.5.5-.5h.625c.2761 0 .5.223858.5.5zm-3.25 6.8c.21549 0 .42215-.08429.57452-.23431.15238-.15003.23798-.35352.23798-.56569s-.0856-.41566-.23798-.56568c-.15237-.15003-.35903-.23432-.57452-.23432s-.42215.08429-.57452.23432c-.15238.15002-.23798.35351-.23798.56568s.0856.41566.23798.56569c.15237.15002.35903.23431.57452.23431z" fill="currentColor"/></svg>