<svg width="16" height="16" viewBox="0 0 16 16" fill="none" xmlns="http://www.w3.org/2000/svg">
<path d="M0 10C0 9.44772 0.447715 9 1 9H3C3.55228 9 4 9.44772 4 10V15C4 15.5523 3.55228 16 3 16H1C0.447715 16 0 15.5523 0 15V10Z" fill="#818996"/>
<path d="M6 6C6 5.44772 6.44772 5 7 5H9C9.55228 5 10 5.44772 10 6V15C10 15.5523 9.55228 16 9 16H7C6.44772 16 6 15.5523 6 15V6Z" fill="#818996" fill-opacity="0.4"/>
<path d="M12 3C12 2.44772 12.4477 2 13 2H15C15.5523 2 16 2.44772 16 3V15C16 15.5523 15.5523 16 15 16H13C12.4477 16 12 15.5523 12 15V3Z" fill="#818996" fill-opacity="0.4"/>
</svg>
