<svg fill="none" height="16" viewBox="0 0 17 16" width="17" xmlns="http://www.w3.org/2000/svg"><path clip-rule="evenodd" d="m5.99518 2.25143c.34171.33474.34171.87745 0 1.21219l-2.00628 1.96533h4.88756c3.38274 0 6.12504 2.68629 6.12504 6.00005v1.7142c0 .4734-.3918.8572-.875.8572-.4833 0-.875-.3838-.875-.8572v-1.7142c0-2.36698-1.9588-4.28576-4.37504-4.28576h-4.88756l2.00628 1.96534c.34171.33473.34171.87744 0 1.21222-.34171.3347-.89572.3347-1.23743 0l-3.5-3.42861c-.341712-.33474-.341712-.87745 0-1.21219l3.5-3.42857c.34171-.33473.89572-.33473 1.23743 0z" fill="currentColor" fill-rule="evenodd"/></svg>