<svg fill="none" height="16" viewBox="0 0 16 16" width="16" xmlns="http://www.w3.org/2000/svg"><path d="m6.8748 13.815c.16064.1106.34736.174.54024.1837.19289.0097.38469-.0349.55496-.1288s.31262-.2338.41185-.4046c.09923-.1709.15162-.3663.1516-.5654v-3.07774l5.80795 3.99284c.1606.1106.3473.174.5402.1837s.3847-.0349.555-.1288c.1702-.0939.3126-.2338.4118-.4046.0992-.1709.1516-.3663.1516-.5654v-8.79977c0-.19914-.0524-.39455-.1516-.56539s-.2416-.31069-.4118-.40464c-.1703-.09395-.3621-.13847-.555-.1288-.1929.00966-.3796.07314-.5402.18366l-5.80795 3.99288v-3.07771c.00002-.19914-.05237-.39455-.1516-.56539s-.24158-.31069-.41185-.40464-.36207-.13847-.55496-.1288c-.19288.00966-.3796.07314-.54024.18366l-6.399901 4.39987c-.146086.10045-.265866.23654-.34871.39619-.0828437.15964-.126189.33791-.126189.51898s.0433453.35934.126189.51898c.082844.15965.202624.29574.34871.39619z" fill="currentColor"/></svg>