<svg xmlns="http://www.w3.org/2000/svg" fill="none" viewBox="1 1 14 14"><path fill="currentColor" fill-rule="evenodd" d="M8.002 1c.362 0 .656.294.656.656v.227a29.047 29.047 0 0 1 5.836.725.656.656 0 1 1-.294 1.28c-.32-.074-.641-.142-.965-.204l1.49 6.604a.656.656 0 0 1-.34.727 4.36 4.36 0 0 1-2.007.488 4.36 4.36 0 0 1-2.008-.488.656.656 0 0 1-.339-.727l1.55-6.87c-.96-.124-1.935-.2-2.923-.222v10.07c1.133.04 2.24.19 3.308.438a.656.656 0 0 1-.296 1.279 16.242 16.242 0 0 0-3.668-.417c-1.262 0-2.49.144-3.668.417a.656.656 0 1 1-.296-1.279 17.51 17.51 0 0 1 3.307-.439V3.195a27.78 27.78 0 0 0-2.922.223l1.55 6.87a.656.656 0 0 1-.34.727 4.36 4.36 0 0 1-2.007.488 4.36 4.36 0 0 1-2.008-.488.656.656 0 0 1-.339-.727l1.49-6.604c-.324.062-.646.13-.965.203a.656.656 0 1 1-.294-1.279 28.748 28.748 0 0 1 5.835-.725v-.227c0-.362.294-.656.657-.656ZM3.626 5.851l-.946 4.19a3.061 3.061 0 0 0 1.891 0l-.945-4.19Zm8.752 0-.945 4.19a3.062 3.062 0 0 0 1.89 0l-.945-4.19Z" clip-rule="evenodd"/></svg>