<svg fill="none" height="16" viewBox="0 0 16 16" width="16" xmlns="http://www.w3.org/2000/svg"><path clip-rule="evenodd" d="m6.00461 2.00221c-1.06168 0-2.07988.42173-2.8306 1.17241-.75072.75069-1.17247 1.76884-1.17247 2.83047s.42175 2.07978 1.17247 2.83047c.75072.75068 1.76892 1.17244 2.8306 1.17244s2.07988-.42176 2.8306-1.17244c.75072-.75069 1.17249-1.76884 1.17249-2.83047s-.42177-2.07978-1.17249-2.83047c-.75072-.75068-1.76892-1.17241-2.8306-1.17241zm-6.00460989 4.00288c-.00012059-.94498.22281389-1.87664.65067089-2.71922.427859-.84257 1.048559-1.57227 1.811619-2.12975.76306-.557469 1.64693-.926977 2.57973-1.0784647.9328-.1514883 1.88818-.08067997 2.78846.2066657.90027.287346 1.72001.783119 2.39252 1.446989.6725.66387 1.1789 1.4771 1.4778 2.37354.299.89645.3821 1.8508.2427 2.78543s-.4975 1.82316-1.0451 2.59332l4.8207 4.8205c.1823.1887.2831.4415.2809.7039-.0023.2624-.1076.5134-.2931.6989-.1856.1855-.4366.2908-.699.2931-.2624.0022-.5152-.0986-.7039-.2809l-4.81972-4.8195c-.89832.6388-1.95515 1.0179-3.05467 1.0959-1.09951.078-2.19929-.1481-3.17881-.6536-.97953-.5055-1.801-1.2709-2.374403-2.21221-.573404-.94135-.87661122-2.02237-.87639689-3.1246z" fill="currentColor" fill-rule="evenodd"/></svg>