<svg fill="none" height="16" viewBox="0 0 16 16" width="16" xmlns="http://www.w3.org/2000/svg"><g clip-rule="evenodd" fill="currentColor" fill-rule="evenodd"><path d="m0 3c0-1.10457.895431-2 2-2h12c1.1046 0 2 .89543 2 2v2c0 1.10457-.8954 2-2 2h-12c-1.104569 0-2-.89543-2-2zm14 1c0 .55228-.4477 1-1 1s-1-.44772-1-1 .4477-1 1-1 1 .44772 1 1z"/><path d="m0 11c0-1.10457.895431-2 2-2h12c1.1046 0 2 .89543 2 2v2c0 1.1046-.8954 2-2 2h-12c-1.104569 0-2-.8954-2-2zm14 1c0 .5523-.4477 1-1 1s-1-.4477-1-1 .4477-1 1-1 1 .4477 1 1z"/></g></svg>