<svg xmlns="http://www.w3.org/2000/svg" fill="none" viewBox="0 0 16 14"><path fill="currentColor" fill-rule="evenodd" d="M0 .75A.75.75 0 0 1 .75 0h11.5a.75.75 0 0 1 0 1.5H.75A.75.75 0 0 1 0 .75ZM0 4.5a.75.75 0 0 1 .75-.75h6.365a.75.75 0 0 1 0 1.5H.75A.75.75 0 0 1 0 4.5ZM12 4a.75.75 0 0 1 .55.24l3.25 3.5a.75.75 0 0 1-1.1 1.02l-1.95-2.1v6.59a.75.75 0 0 1-1.5 0V6.66L9.3 8.76a.75.75 0 1 1-1.1-1.02l3.25-3.5A.75.75 0 0 1 12 4ZM0 8.25a.75.75 0 0 1 .75-.75H5A.75.75 0 0 1 5 9H.75A.75.75 0 0 1 0 8.25Z" clip-rule="evenodd"/></svg>