<svg xmlns="http://www.w3.org/2000/svg" fill="none" viewBox="0 1 16 14"><path fill="currentColor" fill-rule="evenodd" d="M0 1.75A.75.75 0 0 1 .75 1h11.5a.75.75 0 0 1 0 1.5H.75A.75.75 0 0 1 0 1.75ZM0 5.5a.75.75 0 0 1 .75-.75h7.508a.75.75 0 0 1 0 1.5H.75A.75.75 0 0 1 0 5.5ZM12 5a.75.75 0 0 1 .75.75v6.59l1.95-2.1a.75.75 0 1 1 1.1 1.02l-3.25 3.5a.75.75 0 0 1-1.1 0l-3.25-3.5a.75.75 0 1 1 1.1-1.02l1.95 2.1V5.75A.75.75 0 0 1 12 5ZM0 9.25a.75.75 0 0 1 .75-.75h4.562a.75.75 0 0 1 0 1.5H.75A.75.75 0 0 1 0 9.25Z" clip-rule="evenodd"/></svg>