<svg fill="none" height="16" viewBox="0 0 17 16" width="17" xmlns="http://www.w3.org/2000/svg"><path d="m1.00223 1.00038c-.265417 0-.519966.10536-.707647.29289-.18768.18754-.29311816.44189-.29311816.70711s.10543816.51957.29311816.70711c.187681.18753.44223.29289.707647.29289h11.00847c.2654 0 .52-.10536.7076-.29289.1877-.18754.2932-.44189.2932-.70711s-.1055-.51957-.2932-.70711c-.1876-.18753-.4422-.29289-.7076-.29289zm0 4c-.265417 0-.519966.10536-.707647.29289-.18768.18754-.29311816.44189-.29311816.70711s.10543816.51957.29311816.70711c.187681.18753.44223.29289.707647.29289h5.00385c.26542 0 .51997-.10536.70765-.29289.18768-.18754.29311-.44189.29311-.70711s-.10543-.51957-.29311-.70711c-.18768-.18753-.44223-.29289-.70765-.29289zm0 4c-.265417 0-.519966.10536-.707647.29289-.18768.18754-.29311816.44189-.29311816.70713 0 .2652.10543816.5196.29311816.7071.187681.1875.44223.2929.707647.2929h4.00308c.26542 0 .51997-.1054.70765-.2929s.29312-.4419.29312-.7071c0-.26524-.10544-.51959-.29312-.70713-.18768-.18753-.44223-.29289-.70765-.29289zm10.00767 5.00002c0 .2652.1055.5196.2931.7071.1877.1875.4423.2929.7077.2929s.52-.1054.7076-.2929c.1877-.1875.2932-.4419.2932-.7071v-5.58602l1.2939 1.293c.1888.18216.4416.28295.704.28068.2624-.00228.5134-.10745.6989-.29286.1856-.18541.2908-.43622.2931-.69842.0023-.26219-.0986-.5148-.2809-.7034l-3.0023-3c-.1876-.18747-.4421-.29278-.7075-.29278s-.5199.10531-.7076.29278l-3.00226 3c-.09559.09225-.17183.20259-.22428.3246-.05244.122-.08005.25322-.08121.386-.00115.13278.02417.26446.07449.38736.05032.12289.12463.23454.21859.32844.09397.09389.20571.16814.3287.21842s.25477.0756.38765.0744c.13288-.0011.2642-.02871.3863-.08112s.23253-.12859.32484-.2241l1.29398-1.293z" fill="currentColor"/></svg>