<svg xmlns="http://www.w3.org/2000/svg" fill="none" viewBox="0.75 0.75 14.5 14.5"><path fill="currentColor" d="M8 .75a.775.775 0 0 0-.775.775v12.95a.775.775 0 0 0 1.55 0V1.525A.775.775 0 0 0 8 .75Zm-3.15 2.1a.775.775 0 0 0-.775.775v8.75a.775.775 0 0 0 1.55 0v-8.75a.775.775 0 0 0-.775-.775Zm6.3 0a.775.775 0 0 0-.775.775v8.75a.775.775 0 0 0 1.55 0v-8.75a.775.775 0 0 0-.775-.775Zm-9.625 2.8a.775.775 0 0 0-.775.775v3.15a.775.775 0 0 0 1.55 0v-3.15a.775.775 0 0 0-.775-.775Zm12.95 0a.775.775 0 0 0-.775.775v3.15a.775.775 0 0 0 1.55 0v-3.15a.775.775 0 0 0-.775-.775Z"/></svg>