<svg fill="none" height="16" viewBox="0 0 16 16" width="16" xmlns="http://www.w3.org/2000/svg"><path d="m8 0c.21772.00002872.42786.0799611.59055.224636.1627.144675.26664.34403.29212.560253l.00622.104v14.222211c-.00025.2266-.087.4445-.24253.6092-.15553.1648-.3681.2639-.59427.2772s-.44887-.0603-.62261-.2057c-.17373-.1454-.28539-.3517-.31215-.5767l-.00622-.104v-14.222211c0-.235748.09365-.461841.26035-.62854.1667-.1666985.39279-.260349.62854-.260349zm-3.55556 2.66667c.21772.00003.42786.07996.59056.22463.1627.14468.26664.34403.29211.56026l.00622.104v8.88884c-.00025.2266-.087.4445-.24253.6093-.15553.1647-.36809.2638-.59426.2771s-.44888-.0603-.62261-.2057c-.17374-.1454-.28539-.3517-.31215-.5767l-.00622-.104v-8.88884c0-.23575.09365-.46184.26035-.62854.16669-.1667.39279-.26035.62853-.26035zm7.11116 0c.2177.00003.4278.07996.5905.22463.1627.14468.2666.34403.2921.56026l.0062.104v8.88884c-.0002.2266-.087.4445-.2425.6093-.1555.1647-.3681.2638-.5943.2771-.2261.0133-.4488-.0603-.6226-.2057-.1737-.1454-.2854-.3517-.3121-.5767l-.0062-.104v-8.88884c0-.23575.0936-.46184.2603-.62854s.3928-.26035.6286-.26035zm-10.666711 2.66666c.217721.00003.427851.07996.590551.22464.1627.14467.26664.34403.29212.56025l.00622.104v3.55556c-.00025.22652-.08701.44452-.24253.60922-.15553.1647-.3681.2639-.594268.2772-.22617.0132-.448875-.0604-.622611-.2058s-.28539-.3516-.3121488-.57662l-.0062222-.104v-3.55556c0-.23575.0936505-.46184.260349-.62854.166699-.1667.392792-.26035.62854-.26035zm14.222211 0c.2177.00003.4279.07996.5906.22464.1627.14467.2666.34403.2921.56025l.0062.104v3.55556c-.0003.22652-.087.44452-.2425.60922-.1556.1647-.3681.2639-.5943.2772-.2262.0132-.4489-.0604-.6226-.2058s-.2854-.3516-.3122-.57662l-.0062-.104v-3.55556c0-.23575.0937-.46184.2604-.62854s.3928-.26035.6285-.26035z" fill="currentColor"/></svg>