<svg xmlns="http://www.w3.org/2000/svg" viewBox="0 0 17 16" width="17" height="16"><g class="layer"><g fill="currentColor" fill-rule="evenodd" clip-rule="evenodd"><path d="M3.5 16c.3 0 .59-.12.8-.34.22-.21.34-.5.34-.8V1.14A1.144 1.144 0 0 0 3.5 0c-.3 0-.59.12-.8.33-.21.22-.33.51-.33.81v13.72c0 .3.12.59.33.8.21.22.5.34.8.34zM14.47 14.95c.57-.58.57-1.52 0-2.1L9.62 7.97l4.85-4.89c.57-.57.57-1.52 0-2.09-.58-.58-1.51-.58-2.09 0L6.5 6.92c-.58.57-.58 1.52 0 2.09l5.88 5.94c.58.57 1.51.57 2.09 0z"/></g></g></svg>