<svg fill="none" height="16" viewBox="0 0 16 16" width="16" xmlns="http://www.w3.org/2000/svg"><path clip-rule="evenodd" d="m3.60022 2.26399c.34714.35198.34714.92266 0 1.27464-2.42992 2.46389-2.42993 6.45864 0 8.92257.34713.3519.34713.9226 0 1.2746s-.90994.352-1.25708 0c-3.124188-3.1679-3.124188-8.30396 0-11.47181.34714-.35199.90995-.35199 1.25708 0zm8.79958.00021c.3471-.35199.9099-.35199 1.2571 0 3.1241 3.16785 3.1241 8.304 0 11.4718-.3472.352-.91.352-1.2571 0-.3472-.352-.3472-.9227 0-1.2746 2.4299-2.46392 2.4299-6.45867 0-8.92256-.3472-.35198-.3472-.92266 0-1.27464zm-6.28542 2.54908c.34714.35198.34714.92266 0 1.27465-1.04139 1.05595-1.04139 2.76798 0 3.82393.34713.35194.34713.92264 0 1.27464s-.90994.352-1.25708 0c-1.73566-1.75991-1.73566-4.6133.00001-6.37322.34713-.35198.90994-.35198 1.25707 0zm3.77124.00021c.34718-.35198.90998-.35198 1.25708 0 1.7357 1.75992 1.7357 4.61331 0 6.37321-.3471.352-.9099.352-1.25708 0-.34713-.352-.34713-.9226 0-1.27463 1.04138-1.05595 1.04138-2.76798 0-3.82394-.34713-.35198-.34713-.92266 0-1.27464zm-1.88562 2.2853c.49092 0 .88888.40353.88888.90131v.00902c0 .49778-.39796.90131-.88888.90131s-.88889-.40353-.88889-.90131v-.00902c0-.49778.39797-.90131.88889-.90131z" fill="currentColor" fill-rule="evenodd"/></svg>