<svg fill="none" height="16" viewBox="0 0 16 16" width="16" xmlns="http://www.w3.org/2000/svg"><g fill="currentColor"><path d="m2.40612 1.25628c-.34714-.341707-.90996-.341707-1.25709 0-.347136.34171-.347136.89573 0 1.23744l6.15236 6.05619c.04356.0544.09352.10359.14879.14646l6.14342 6.04733c.3471.3417.9099.3417 1.257 0 .3472-.3417.3472-.8957 0-1.2374l-.5998-.5905c2.5158-3.09196 2.3178-7.61801-.594-10.48427-.3471-.34171-.9099-.34171-1.257 0-.3472.34171-.3472.89573 0 1.23744 2.2165 2.18191 2.4112 5.60044.5839 7.99953l-1.2754-1.2554c1.1433-1.69875.9548-4.01002-.5656-5.5067-.3472-.34171-.91-.34171-1.25713 0s-.34713.89573 0 1.23744c.82103.8082.99473 2.0123.52123 2.98805l-1.77016-1.74248c-.0054-.00546-.01088-.01085-.01643-.01617z"/><path d="m1.98883 6.41319c.12663-.4669-.15521-.94644-.62952-1.0711-.474308-.12466-.961471.15278-1.088107.61968-.711868 2.62457-.022689 5.54473 2.071837 7.60653.34714.3417.90995.3417 1.25709 0 .34713-.3418.34713-.8958 0-1.2375-1.62767-1.6022-2.16621-3.87174-1.6113-5.91761z"/><path d="m5.68938 9.31208c-.2457-.41837-.78942-.56147-1.21443-.31961-.42502.24186-.57038.77708-.32469 1.19543.19059.3245.4265.6294.70696.9055.34714.3417.90995.3417 1.25709 0 .34713-.3417.34713-.8957 0-1.23745-.16986-.16721-.31124-.35028-.42493-.54387z"/></g></svg>