<svg xmlns="http://www.w3.org/2000/svg" fill="none" viewBox="0 0 14 17"><path fill="currentColor" d="m7.389 8.3 1.33-1.33A.75.75 0 0 1 9.78 8.03L8.45 9.361A1.502 1.502 0 0 1 7 11.25a1.5 1.5 0 1 1 .389-2.95Z"/><path fill="currentColor" fill-rule="evenodd" d="M4.75 1.25A.75.75 0 0 1 5.5.5h3a.75.75 0 0 1 0 1.5h-.75v1l-.001.041a6.718 6.718 0 0 1 3.464 1.435l.007-.006.75-.75a.75.75 0 1 1 1.06 1.06l-.75.75-.006.007a6.75 6.75 0 1 1-10.548 0L1.72 5.53l-.75-.75a.75.75 0 0 1 1.06-1.06l.75.75.007.006A6.718 6.718 0 0 1 6.25 3.041a.756.756 0 0 1 0-.041V2H5.5a.75.75 0 0 1-.75-.75ZM7 15A5.25 5.25 0 1 0 7 4.5 5.25 5.25 0 0 0 7 15Z" clip-rule="evenodd"/></svg>