<svg width="16" height="16" viewBox="0 0 16 16" fill="none" xmlns="http://www.w3.org/2000/svg"><path fill-rule="evenodd" clip-rule="evenodd" d="M16 11V3C16 2.46957 15.7893 1.96086 15.4142 1.58579C15.0391 1.21071 14.5304 1 14 1H2C1.46957 1 0.960859 1.21071 0.585786 1.58579C0.210714 1.96086 0 2.46957 0 3V11C0 11.5304 0.210714 12.0391 0.585786 12.4142C0.960859 12.7893 1.46957 13 2 13H5L8 16L11 13H14C14.5304 13 15.0391 12.7893 15.4142 12.4142C15.7893 12.0391 16 11.5304 16 11ZM3 5C3 4.73478 3.10536 4.48043 3.29289 4.29289C3.48043 4.10536 3.73478 4 4 4H12C12.2652 4 12.5196 4.10536 12.7071 4.29289C12.8946 4.48043 13 4.73478 13 5C13 5.26522 12.8946 5.51957 12.7071 5.70711C12.5196 5.89464 12.2652 6 12 6H4C3.73478 6 3.48043 5.89464 3.29289 5.70711C3.10536 5.51957 3 5.26522 3 5ZM4 8C3.73478 8 3.48043 8.10536 3.29289 8.29289C3.10536 8.48043 3 8.73478 3 9C3 9.26522 3.10536 9.51957 3.29289 9.70711C3.48043 9.89464 3.73478 10 4 10H7C7.26522 10 7.51957 9.89464 7.70711 9.70711C7.89464 9.51957 8 9.26522 8 9C8 8.73478 7.89464 8.48043 7.70711 8.29289C7.51957 8.10536 7.26522 8 7 8H4Z" fill="currentColor"/></svg>