<svg xmlns="http://www.w3.org/2000/svg" fill="none" viewBox="1 1 14.04 14"><path fill="currentColor" d="M8 11.889A1.556 1.556 0 1 1 8 15a1.556 1.556 0 0 1 0-3.111Zm5.444 0a1.556 1.556 0 1 1 0 3.111 1.556 1.556 0 0 1 0-3.111Zm-10.888 0a1.556 1.556 0 1 1 0 3.111 1.556 1.556 0 0 1 0-3.111ZM8 6.444a1.556 1.556 0 1 1 0 3.111 1.556 1.556 0 0 1 0-3.11Zm5.444 0a1.556 1.556 0 1 1 0 3.112 1.556 1.556 0 0 1 0-3.112Zm-10.888 0a1.556 1.556 0 1 1 0 3.112 1.556 1.556 0 0 1 0-3.112ZM8 1a1.556 1.556 0 1 1 0 3.111A1.556 1.556 0 0 1 8 1Zm5.444 0a1.556 1.556 0 1 1 0 3.111 1.556 1.556 0 0 1 0-3.111ZM2.556 1a1.556 1.556 0 1 1 0 3.111 1.556 1.556 0 0 1 0-3.111Z"/></svg>