<svg fill="none" height="16" viewBox="0 0 17 16" width="17" xmlns="http://www.w3.org/2000/svg"><path clip-rule="evenodd" d="m15.7086 7.29327c.3905.39053.3905 1.02369 0 1.41422l-7.00003 7.00001c-.39052.3905-1.02369.3905-1.41421 0l-7.000002-7.00001c-.1952932-.1953-.29292429-.45127-.29289315-.70723v-4.99988c0-1.65685 1.34314515-2.99999853 2.99999515-2.99999853h5.00028c.25583.00006964.51164.09770063.70683.29289353zm-12.70714-3.29289c.55229 0 1-.44771 1-1 0-.55228-.44771-1-1-1-.55228 0-1 .44772-1 1 0 .55229.44772 1 1 1z" fill="currentColor" fill-rule="evenodd"/></svg>