<svg fill="none" height="16" viewBox="0 0 16 16" width="16" xmlns="http://www.w3.org/2000/svg"><path d="m10.6667 3.6c0 .68956-.281 1.35088-.78108 1.83848-.5001.48759-1.17838.76152-1.88562.76152s-1.38552-.27393-1.88562-.76152c-.50009-.4876-.78105-1.14892-.78105-1.83848s.28096-1.35088.78105-1.83848c.5001-.48759 1.17838-.76152 1.88562-.76152s1.38552.27393 1.88562.76152c.50008.4876.78108 1.14892.78108 1.83848zm4.4444 1.73333c0 .45971-.1873.90059-.5207 1.22565-.3334.32507-.7856.50769-1.2571.50769s-.9236-.18262-1.257-.50769c-.3334-.32506-.5207-.76594-.5207-1.22565s.1873-.90059.5207-1.22565.7855-.50768 1.257-.50768.9237.18262 1.2571.50768.5207.76594.5207 1.22565zm-3.5555 6.06667c0-.9194-.3746-1.80118-1.0414-2.4513-.66684-.65013-1.57121-1.01537-2.5142-1.01537s-1.84736.36524-2.51416 1.01537c-.66679.65012-1.0414 1.5319-1.0414 2.4513v2.6h7.11116zm-7.11116-6.06667c0 .45971-.1873.90059-.52069 1.22565-.3334.32507-.78559.50769-1.25708.50769-.4715 0-.92368-.18262-1.25708-.50769-.3334-.32506-.520701-.76594-.520701-1.22565s.187301-.90059.520701-1.22565.78558-.50768 1.25708-.50768c.47149 0 .92368.18262 1.25708.50768.33339.32506.52069.76594.52069 1.22565zm8.88886 8.66667v-2.6c.0013-.8812-.2281-1.74804-.6666-2.51853.3941-.09833.806-.10761 1.2043-.02711.3983.08049.7725.24862 1.0941.49156.3215.24295.5819.55428.7612.91028.1794.356.273.7472.2737 1.1438v2.6zm-9.99997-5.11853c-.43844.7705-.66791 1.63743-.66666 2.51853v2.6h-2.66666976v-2.6c-.00017132-.3969.09285606-.7886.27195276-1.145.179097-.35641.439508-.66812.761277-.91124.32177-.24312.69635-.41118 1.09505-.49131.39869-.08013.8109-.07021 1.20505.02902z" fill="currentColor"/></svg>