<svg xmlns="http://www.w3.org/2000/svg" fill="none" viewBox="0 2 16 12"><path fill="currentColor" fill-rule="evenodd" d="M2 2C.895 2 0 2.863 0 3.929v8.142C0 13.137.895 14 2 14h12c1.105 0 2-.864 2-1.929V3.93C16 2.863 15.105 2 14 2H2Zm.838 7.501a.627.627 0 0 1 .05-.907l1.671-1.451-1.672-1.45a.627.627 0 0 1-.05-.909.684.684 0 0 1 .942-.048l2.223 1.929c.14.122.22.296.22.478s-.08.356-.22.478L3.779 9.549a.684.684 0 0 1-.941-.048Zm4.94-1.287a.655.655 0 0 0-.667.643c0 .355.299.643.667.643H10a.655.655 0 0 0 .667-.643.655.655 0 0 0-.667-.643H7.778Z" clip-rule="evenodd"/></svg>