<svg fill="none" height="16" viewBox="0 0 17 16" width="17" xmlns="http://www.w3.org/2000/svg"><g fill="currentColor"><path d="m.00146484 8.50038c0-.82843.69051616-1.5 1.54231516-1.5.85179 0 1.54231.67157 1.54231 1.5v6.00002c0 .8284-.69052 1.5-1.54231 1.5-.851799 0-1.54231516-.6716-1.54231516-1.5z"/><path d="m4.11429 8.33372v5.43058c0 .7576.44008 1.4501 1.13676 1.7889l.05125.0249c.57109.2777 1.20082.4223 1.83931.4223h5.56889c.9803 0 1.8242-.6729 2.0165-1.6078l1.2338-5.99998c.2545-1.23759-.7188-2.39224-2.0164-2.39224h-3.6609v-4c0-1.104568-.92065-1.99999853-2.05638-1.99999853-.56786 0-1.02821.44771553-1.02821.99999853v.66667c0 .86548-.28863 1.70761-.82256 2.4l-1.43949 1.86666c-.53394.69239-.82257 1.53452-.82257 2.40001z"/></g></svg>