<svg fill="none" height="16" viewBox="0 0 17 16" width="17" xmlns="http://www.w3.org/2000/svg"><g fill="currentColor"><path d="m16.0015 7.50038c0 .82843-.6906 1.5-1.5423 1.5-.8518 0-1.5424-.67157-1.5424-1.5v-6c0-.828425.6906-1.49999765 1.5424-1.49999758.8517.00000007 1.5423.67157258 1.5423 1.49999758z"/><path d="m11.8886 7.66705v-5.4306c0-.75754-.44-1.45007-1.1367-1.788854l-.0513-.024923c-.5711-.27771-1.20079-.422291-1.83928-.42229106l-5.56889-.00000047c-.98026-.00000008-1.82424.67291953-2.01648 1.60776853l-1.2338523 6c-.2544987 1.23758.7187863 2.39225 2.0164823 2.39225h3.66082v4c0 1.1046.92068 2 2.05641 2 .56786 0 1.02821-.4477 1.02821-1v-.6667c0-.8655.28863-1.7076.82256-2.4l1.43952-1.8667c.5339-.69234.8225-1.53447.8225-2.39995z"/></g></svg>