<svg xmlns="http://www.w3.org/2000/svg" fill="none" viewBox="0.5 1.5 15 13"><path fill="currentColor" d="M4.78 13.417a.736.736 0 0 1-.696-.457 5.456 5.456 0 0 1-.37-1.98c0-1.264.428-2.426 1.145-3.348.108-.138.266-.223.428-.286a2.08 2.08 0 0 0 .866-.668 6.476 6.476 0 0 1 2.044-1.733c.516-.278.963-.69 1.18-1.239.152-.384.23-.793.23-1.207v-.457c0-.3.24-.542.536-.542.887 0 1.607.728 1.607 1.625 0 .832-.185 1.62-.517 2.324-.19.403.077.926.518.926h2.233c.733 0 1.39.501 1.467 1.239.032.304.049.614.049.928a8.69 8.69 0 0 1-1.892 5.432 1.453 1.453 0 0 1-1.146.526H9.593c-.345 0-.689-.056-1.016-.167l-2.225-.75a3.184 3.184 0 0 0-1.016-.166H4.78ZM1.094 7.803A8.729 8.729 0 0 0 .5 10.979c0 .881.13 1.732.372 2.533.185.614.774.988 1.409.988h.648c.318 0 .515-.36.374-.648a6.533 6.533 0 0 1-.66-2.873c0-1.234.34-2.387.93-3.37.175-.29-.02-.692-.357-.692h-.752c-.594 0-1.152.327-1.37.886Z"/></svg>