<svg fill="none" height="16" viewBox="0 0 16 16" width="16" xmlns="http://www.w3.org/2000/svg"><path clip-rule="evenodd" d="m10 5c-.55229 0-1-.44772-1-1s.44771-1 1-1h5c.5523 0 1 .44772 1 1v5c0 .55228-.4477 1-1 1s-1-.44772-1-1v-2.58579l-4.29289 4.29289c-.39053.3905-1.02369.3905-1.41422 0l-2.29289-2.29289-4.29289 4.29289c-.39053.3905-1.023693.3905-1.414217 0-.3905241-.3905-.3905241-1.0237 0-1.4142l4.999997-5.00001c.39053-.39052 1.02369-.39052 1.41422 0l2.29289 2.2929 3.5858-3.58579z" fill="currentColor" fill-rule="evenodd"/></svg>