<svg fill="none" height="16" viewBox="0 0 16 16" width="16" xmlns="http://www.w3.org/2000/svg"><g fill="currentColor"><path d="m8.39392.080855c-.25155-.1078067-.53629-.1078067-.78784 0l-6.999999 2.999995c-.367684.15758-.606081.51912-.606081.91915s.238397.76157.606081.91915l2.644289 1.13326c.09616-.10894.21669-.19768.35571-.25726l4-1.71428c.50763-.21756 1.09551.01759 1.31307.52522.21755.50763-.0176 1.09551-.52523 1.31307l-2.72724 1.16881 1.9394.83118c.25155.1078.53629.1078.78784 0l6.99998-3c.3677-.15758.6061-.51912.6061-.91915s-.2384-.76157-.6061-.91915z"/><path d="m1.31004 7.39673 1.68996.72427v4.1016c-.34277-.0777-.69295-.1359-1.04929-.1732-.46977-.0493-.84101-.4205-.89027-.8903-.03998-.3813-.06044-.7681-.06044-1.15927 0-.89652.10741-1.76834.31004-2.6031z"/><path d="m7.29996 14.5725c-.67288-.6596-1.44829-1.2141-2.29996-1.6374v-3.95696l1.81824.77925c.75465.32341 1.60887.32341 2.36352 0l5.50824-2.36066c.2026.83476.31 1.70658.31 2.6031 0 .39117-.0205.77797-.0604 1.15927-.0493.4698-.4205.841-.8903.8903-2.0728.2173-3.9369 1.1386-5.34926 2.5231-.38885.3812-1.01123.3812-1.40008 0z"/><path d="m4 16c.55228 0 1-.4477 1-1v-2.0649c-.62864-.3124-1.29883-.5534-2-.7125v2.7774c0 .5523.44772 1 1 1z"/></g></svg>