<svg fill="none" height="16" viewBox="0 0 17 16" width="17" xmlns="http://www.w3.org/2000/svg"><path d="m8.00146.00038147c-2.76142 0-5 2.23857853-5 4.99999853v2c-1.10456 0-2 .89543-2 2v5.00002c0 1.1046.89544 2 2 2h10.00004c1.1045 0 2-.8954 2-2v-5.00002c0-1.10457-.8955-2-2-2h-8.00004v-2c0-1.65685 1.34315-3 3-3 1.39651 0 2.57244.95512 2.90554 2.24926.1377.53485.6829.85684 1.2177.71918.5349-.13766.8568-.68284.7192-1.2177-.555-2.15632-2.5113-3.75073853-4.84244-3.75073853z" fill="currentColor"/></svg>