<svg fill="none" height="16" viewBox="0 0 16 16" width="16" xmlns="http://www.w3.org/2000/svg"><path clip-rule="evenodd" d="m8.5 6.4c.85248 0 1.67-.33714 2.2728-.93726.6028-.60011.9415-1.41405.9415-2.26274s-.3387-1.66263-.9415-2.262742c-.6028-.600116-1.42032-.937258-2.2728-.937258s-1.67005.337142-2.27284.937258c-.6028.600112-.94145 1.414052-.94145 2.262742s.33865 1.66263.94145 2.26274c.60279.60012 1.42036.93726 2.27284.93726zm-7.5 9.6c0-.9805.19399-1.9515.5709-2.8574s.92936-1.729 1.6258-2.4223c.69644-.6934 1.52323-1.24336 2.43317-1.6186.90995-.37523 1.88522-.56837 2.87013-.56837s1.9602.19314 2.8701.56837c.91.37524 1.7368.9252 2.4332 1.6186.6964.6933 1.2489 1.5164 1.6258 2.4223s.5709 1.8769.5709 2.8574z" fill="currentColor" fill-rule="evenodd"/></svg>