<svg fill="none" height="16" viewBox="0 0 16 16" width="16" xmlns="http://www.w3.org/2000/svg"><path clip-rule="evenodd" d="m3 .8c0-.212173.08278-.415656.23013-.565686.14735-.1500286.3472-.234314.55558-.234314h1.57143c.20839 0 .40824.0842854.55559.234314.14735.15003.23013.353513.23013.565686v14.4c0 .2122-.08278.4157-.23013.5657s-.3472.2343-.55559.2343h-1.57143c-.20838 0-.40823-.0843-.55558-.2343s-.23013-.3535-.23013-.5657zm7.8571 0c0-.212173.0828-.415656.2302-.565686.1473-.1500286.3472-.234314.5556-.234314h1.5714c.2084 0 .4082.0842854.5556.234314.1473.15003.2301.353513.2301.565686v14.4c0 .2122-.0828.4157-.2301.5657-.1474.15-.3472.2343-.5556.2343h-1.5714c-.2084 0-.4083-.0843-.5556-.2343-.1474-.15-.2302-.3535-.2302-.5657z" fill="currentColor" fill-rule="evenodd"/></svg>