<svg fill="none" height="16" viewBox="0 0 17 16" width="17" xmlns="http://www.w3.org/2000/svg"><path clip-rule="evenodd" d="m.00146484 1.14324c0-.303106.12040816-.593796.33473516-.808123.214327-.214328.505017-.33473553.80812-.33473553h13.71428c.3031 0 .5938.12040753.8081.33473553.2144.214327.3348.505017.3348.808123 0 .3031-.1204.59379-.3348.80812-.2143.21433-.505.33474-.8081.33474h-13.71428c-.303103 0-.593793-.12041-.80812-.33474s-.33473516-.50502-.33473516-.80812zm0 4.57143c0-.30311.12040816-.5938.33473516-.80812.214327-.21433.505017-.33474.80812-.33474h13.71428c.3031 0 .5938.12041.8081.33474.2144.21432.3348.50501.3348.80812 0 .3031-.1204.59379-.3348.80812-.2143.21433-.505.33473-.8081.33473h-13.71428c-.303103 0-.593793-.1204-.80812-.33473s-.33473516-.50502-.33473516-.80812zm0 4.57143c0-.30311.12040816-.5938.33473516-.80813.214327-.21432.505017-.33473.80812-.33473h13.71428c.3031 0 .5938.12041.8081.33473.2144.21433.3348.50502.3348.80813 0 .3031-.1204.5938-.3348.8081-.2143.2143-.505.3348-.8081.3348h-13.71428c-.303103 0-.593793-.1205-.80812-.3348s-.33473516-.505-.33473516-.8081zm0 4.5714c0-.3031.12040816-.5938.33473516-.8081s.505017-.3347.80812-.3347h13.71428c.3031 0 .5938.1204.8081.3347.2144.2143.3348.505.3348.8081s-.1204.5938-.3348.8081c-.2143.2144-.505.3348-.8081.3348h-13.71428c-.303103 0-.593793-.1204-.80812-.3348-.214327-.2143-.33473516-.505-.33473516-.8081z" fill="currentColor" fill-rule="evenodd"/></svg>