<svg fill="none" height="16" viewBox="0 0 17 16" width="17" xmlns="http://www.w3.org/2000/svg"><path clip-rule="evenodd" d="m.694567 1.89037c.461753-.5442 1.126693-.88999 1.862453-.88999h10.88888c.7358 0 1.4007.34579 1.8625.88999.4575.53923.6931 1.24015.6931 1.94334v7.33329c0 .7032-.2356 1.4042-.6931 1.9434-.4618.5442-1.1267.89-1.8625.89h-10.88888c-.73577 0-1.4007-.3458-1.862453-.89-.457524-.5392-.69310216-1.2402-.69310216-1.9434v-7.33329c0-.70319.23557816-1.40411.69310216-1.94334zm1.306893 4.77668v1.66666h5v-1.66666zm0-2v-.83334c0-.26926.0922-.50097.21813-.64938.12169-.14343.24808-.18395.33743-.18395h10.88888c.0894 0 .2157.04052.3374.18395.126.14841.2182.38012.2182.64938v.83334zm7 2v1.66666h5.00004v-1.66666zm5.00004 3.66665h-5.00004v1.6667h4.44444c.0894 0 .2157-.0405.3374-.184.126-.1484.2182-.3801.2182-.6494zm-7.00004 1.6667v-1.6667h-5v.8333c0 .2693.0922.501.21813.6494.12169.1435.24808.184.33743.184z" fill="currentColor" fill-rule="evenodd"/></svg>