<svg fill="none" height="16" viewBox="0 0 17 16" width="17" xmlns="http://www.w3.org/2000/svg"><path clip-rule="evenodd" d="m8.00153 2.00038c-3.75435 0-6.93188 2.52257-8.00000412 6 1.06812412 3.47742 4.24565412 6.00002 8.00000412 6.00002 3.75437 0 6.93187-2.5226 7.99997-6.00002-1.0681-3.47743-4.2456-6-7.99997-6zm2.37137 8.42432c.6289-.64293.9822-1.515.9822-2.42432 0-.90931-.3533-1.78138-.9822-2.42436-.62895-.64299-1.48195-1.00421-2.37137-1.00421-.88943 0-1.74243.36122-2.37135 1.00421-.62892.64298-.98225 1.51505-.98225 2.42436 0 .90932.35333 1.78139.98225 2.42432.62892.643 1.48192 1.0043 2.37135 1.0043.88942 0 1.74242-.3613 2.37137-1.0043zm-1.81071-1.86366c-.28131.28131-.66284.43934-1.06066.43934-.39783 0-.77936-.15803-1.06066-.43934-.28131-.2813-.43934-.66283-.43934-1.06066 0-.39782.15803-.77935.43934-1.06066.2813-.2813.66283-.43934 1.06066-.43934.39782 0 .77935.15804 1.06066.43934.2813.28131.43934.66284.43934 1.06066 0 .39783-.15804.77936-.43934 1.06066z" fill="currentColor" fill-rule="evenodd"/></svg>