<svg fill="none" height="16" viewBox="0 0 16 16" width="16" xmlns="http://www.w3.org/2000/svg"><path clip-rule="evenodd" d="m14.5602 6.47584c-3.6231-3.68208-9.4973-3.68208-13.12041 0-.32937.33474-.863387.33474-1.19276 0-.3293732-.33473-.3293732-.87744 0-1.21218 4.28185-4.351548 11.22407-4.351548 15.50597 0 .3293.33474.3293.87745 0 1.21218-.3294.33474-.8634.33474-1.1928 0zm-2.3855 2.42437c-2.30563-2.34314-6.04377-2.34314-8.34938 0-.32937.33474-.86339.33474-1.19276 0-.32937-.33473-.32937-.87744 0-1.21218 2.96436-3.01261 7.77054-3.01261 10.73484 0 .3294.33474.3294.87745 0 1.21218-.3293.33474-.8634.33474-1.1927 0zm-2.38555 2.42439c-.98812-1.0042-2.59018-1.0042-3.5783 0-.32937.3347-.86339.3347-1.19276 0-.32937-.3348-.32937-.8775 0-1.2122 1.64686-1.67367 4.31696-1.67367 5.96381 0 .3294.3347.3294.8774 0 1.2122-.3294.3347-.8634.3347-1.19275 0zm-2.63256 1.8183c0-.4734.37761-.8572.84341-.8572h.00843c.46581 0 .84342.3838.84342.8572 0 .4733-.37761.8571-.84342.8571h-.00843c-.4658 0-.84341-.3838-.84341-.8571z" fill="currentColor" fill-rule="evenodd"/></svg>