<svg fill="none" height="16" viewBox="0 0 17 16" width="17" xmlns="http://www.w3.org/2000/svg"><g clip-rule="evenodd" fill="currentColor" fill-rule="evenodd"><path d="m6.00146 2.00038c-2.20913 0-4 1.79086-4 4s1.79087 4.00002 4 4.00002c2.20914 0 4.00004-1.79088 4.00004-4.00002s-1.7909-4-4.00004-4zm-5.99999516 4c0-3.31371 2.68629516-5.99999853 5.99999516-5.99999853 3.31371 0 6.00004 2.68628853 6.00004 5.99999853 0 1.29583-.4108 2.49572-1.1093 3.47654l4.8164 4.81638c.3905.3905.3905 1.0237 0 1.4142-.3906.3905-1.0237.3905-1.4142 0l-4.8164-4.8164c-.98082.6985-2.1807 1.1093-3.47654 1.1093-3.3137 0-5.99999516-2.68631-5.99999516-6.00002z"/><path d="m3.00146 6.00038c0-.55228.44772-1 1-1h4c.55229 0 1 .44772 1 1 0 .55229-.44771 1-1 1h-4c-.55228 0-1-.44771-1-1z"/></g></svg>