<svg width="140" height="52" viewBox="0 0 140 52" fill="none" xmlns="http://www.w3.org/2000/svg">
<path d="M46.7071 23.7071C46.3166 23.3166 45.6834 23.3166 45.2929 23.7071L41.7071 27.2929C41.0771 27.9229 41.5233 29 42.4142 29H49.5858C50.4767 29 50.9229 27.9229 50.2929 27.2929L46.7071 23.7071Z" fill="#777E90"/>
<path d="M82.2929 25.2929C82.6834 25.6834 82.6834 26.3166 82.2929 26.7071L78.7071 30.2929C78.0771 30.9229 77 30.4767 77 29.5858V22.4142C77 21.5233 78.0771 21.0771 78.7071 21.7071L82.2929 25.2929Z" fill="#777E90"/>
<path d="M111.707 26.7071C111.317 26.3166 111.317 25.6834 111.707 25.2929L115.293 21.7071C115.923 21.0771 117 21.5233 117 22.4142V29.5858C117 30.4767 115.923 30.9229 115.293 30.2929L111.707 26.7071Z" fill="#777E90"/>
<path d="M11.7071 30.2929C11.3166 30.6834 10.6834 30.6834 10.2929 30.2929L6.70711 26.7071C6.07714 26.0771 6.52331 25 7.41421 25H14.5858C15.4767 25 15.9229 26.0771 15.2929 26.7071L11.7071 30.2929Z" fill="#777E90"/>
<rect x="0.5" y="0.5" width="139" height="51" rx="4.5" stroke="#7B61FF" stroke-dasharray="10 5"/>
</svg>
