<svg width="20" height="20" viewBox="0 0 20 20" fill="none" xmlns="http://www.w3.org/2000/svg">
<path d="M16.25 12.25C16.5261 12.25 16.75 12.4739 16.75 12.75V14.5H18.5C18.7761 14.5 19 14.7239 19 15V15.5C19 15.7761 18.7761 16 18.5 16H16.75V17.75C16.75 18.0261 16.5261 18.25 16.25 18.25H15.75C15.4739 18.25 15.25 18.0261 15.25 17.75V16H13.5C13.2239 16 13 15.7761 13 15.5V15C13 14.7239 13.2239 14.5 13.5 14.5H15.25V12.75C15.25 12.4739 15.4739 12.25 15.75 12.25H16.25ZM16.756 3.25C17.167 3.25 17.5 3.58375 17.5 3.99475V11.0065C17.0182 10.8363 16.5109 10.7496 16 10.75V4.75H4L4.00075 15.25L10.9698 8.28025C11.0987 8.15086 11.2705 8.07305 11.4528 8.06145C11.6351 8.04984 11.8154 8.10525 11.9598 8.21725L12.0295 8.281L14.689 10.9435C14.1075 11.1207 13.5679 11.4138 13.1027 11.8052C12.6375 12.1966 12.2565 12.6781 11.9824 13.2208C11.7084 13.7635 11.5471 14.356 11.5083 14.9627C11.4695 15.5693 11.5539 16.1776 11.7565 16.7507L3.244 16.75C3.04661 16.7498 2.85737 16.6712 2.71787 16.5316C2.57836 16.392 2.5 16.2026 2.5 16.0052V3.99475C2.50137 3.79778 2.58018 3.60926 2.71938 3.46991C2.85859 3.33056 3.04704 3.25157 3.244 3.25H16.756ZM7 6.25C7.39782 6.25 7.77936 6.40804 8.06066 6.68934C8.34196 6.97064 8.5 7.35218 8.5 7.75C8.5 8.14782 8.34196 8.52936 8.06066 8.81066C7.77936 9.09196 7.39782 9.25 7 9.25C6.60218 9.25 6.22064 9.09196 5.93934 8.81066C5.65804 8.52936 5.5 8.14782 5.5 7.75C5.5 7.35218 5.65804 6.97064 5.93934 6.68934C6.22064 6.40804 6.60218 6.25 7 6.25Z" fill="#B1B5C3"/>
</svg>
