<svg width="20" height="20" viewBox="0 0 20 20" fill="none" xmlns="http://www.w3.org/2000/svg">
<path d="M9.67779 3.55079C9.91668 2.8164 10.9543 2.8164 11.1924 3.55079L12.4019 7.27771C12.454 7.43758 12.5552 7.57687 12.6911 7.67569C12.8269 7.7745 12.9905 7.82778 13.1584 7.8279H17.0722C17.8439 7.8279 18.164 8.81665 17.5405 9.27115L14.3744 11.574C14.2384 11.673 14.1372 11.8125 14.0852 11.9727C14.0333 12.1328 14.0333 12.3053 14.0853 12.4654L15.2941 16.1924C15.533 16.9275 14.6929 17.5383 14.0694 17.0838L10.9033 14.781C10.7672 14.682 10.6033 14.6286 10.4351 14.6286C10.2668 14.6286 10.1029 14.682 9.96685 14.781L6.80075 17.0838C6.17725 17.5383 5.33715 16.9267 5.57604 16.1924L6.78483 12.4654C6.83681 12.3053 6.83684 12.1328 6.78491 11.9727C6.73299 11.8125 6.63177 11.673 6.49577 11.574L3.32968 9.27115C2.70538 8.81665 3.02708 7.8279 3.7979 7.8279H7.71093C7.87899 7.82795 8.04275 7.77475 8.17877 7.67592C8.3148 7.5771 8.41611 7.43771 8.46821 7.27771L9.67779 3.55079V3.55079Z" stroke="#777E90" stroke-width="2" stroke-linecap="round" stroke-linejoin="round"/>
</svg>
