<svg width="85" height="52" viewBox="0 0 85 52" fill="none" xmlns="http://www.w3.org/2000/svg">
<path d="M25.049 18.927C25.349 18.006 26.652 18.006 26.951 18.927L28.021 22.219C28.0864 22.4195 28.2135 22.5942 28.3841 22.7181C28.5547 22.842 28.7601 22.9088 28.971 22.909H32.433C33.402 22.909 33.804 24.149 33.021 24.719L30.221 26.753C30.05 26.877 29.9227 27.052 29.8573 27.2529C29.7919 27.4537 29.7918 27.6701 29.857 27.871L30.927 31.163C31.227 32.084 30.172 32.851 29.387 32.281L26.587 30.247C26.4162 30.123 26.2106 30.0562 25.9995 30.0562C25.7884 30.0562 25.5828 30.123 25.412 30.247L22.612 32.281C21.828 32.851 20.774 32.084 21.073 31.163L22.143 27.871C22.2082 27.6701 22.2081 27.4537 22.1427 27.2529C22.0773 27.052 21.95 26.877 21.779 26.753L18.98 24.72C18.197 24.15 18.6 22.91 19.568 22.91H23.029C23.2401 22.9101 23.4457 22.8433 23.6165 22.7194C23.7874 22.5955 23.9146 22.4207 23.98 22.22L25.05 18.928L25.049 18.927Z" fill="#FFC700"/>
<path d="M58.6778 19.5508C58.9167 18.8164 59.9543 18.8164 60.1924 19.5508L61.4019 23.2777C61.454 23.4376 61.5552 23.5769 61.6911 23.6757C61.8269 23.7745 61.9905 23.8278 62.1584 23.8279H66.0722C66.8439 23.8279 67.164 24.8166 66.5405 25.2712L63.3744 27.574C63.2384 27.673 63.1372 27.8125 63.0852 27.9727C63.0333 28.1328 63.0333 28.3053 63.0853 28.4654L64.2941 32.1924C64.533 32.9275 63.6929 33.5383 63.0694 33.0838L59.9033 30.781C59.7672 30.682 59.6033 30.6286 59.4351 30.6286C59.2668 30.6286 59.1029 30.682 58.9668 30.781L55.8008 33.0838C55.1773 33.5383 54.3372 32.9267 54.576 32.1924L55.7848 28.4654C55.8368 28.3053 55.8368 28.1328 55.7849 27.9727C55.733 27.8125 55.6318 27.673 55.4958 27.574L52.3297 25.2712C51.7054 24.8166 52.0271 23.8279 52.7979 23.8279H56.7109C56.879 23.8279 57.0427 23.7747 57.1788 23.6759C57.3148 23.5771 57.4161 23.4377 57.4682 23.2777L58.6778 19.5508V19.5508Z" stroke="#777E90" stroke-width="2" stroke-linecap="round" stroke-linejoin="round"/>
<rect x="0.5" y="0.5" width="84" height="51" rx="4.5" stroke="#7B61FF" stroke-dasharray="10 5"/>
</svg>
