<svg width="20" height="20" viewBox="0 0 20 20" fill="none" xmlns="http://www.w3.org/2000/svg">
<path fill-rule="evenodd" clip-rule="evenodd" d="M5.05 4.05001C6.36282 2.73718 8.14339 1.99965 10 1.99965C11.8566 1.99965 13.6372 2.73718 14.95 4.05001C16.2628 5.36283 17.0004 7.1434 17.0004 9.00001C17.0004 10.8566 16.2628 12.6372 14.95 13.95L10 18.9L5.05 13.95C4.39992 13.3 3.88424 12.5283 3.53241 11.679C3.18058 10.8296 2.9995 9.91932 2.9995 9.00001C2.9995 8.08069 3.18058 7.17038 3.53241 6.32106C3.88424 5.47173 4.39992 4.70003 5.05 4.05001ZM10 11C10.5304 11 11.0391 10.7893 11.4142 10.4142C11.7893 10.0391 12 9.53044 12 9.00001C12 8.46957 11.7893 7.96087 11.4142 7.58579C11.0391 7.21072 10.5304 7.00001 10 7.00001C9.46957 7.00001 8.96086 7.21072 8.58579 7.58579C8.21072 7.96087 8 8.46957 8 9.00001C8 9.53044 8.21072 10.0391 8.58579 10.4142C8.96086 10.7893 9.46957 11 10 11Z" fill="#777E90"/>
</svg>
