<svg width="184" height="52" viewBox="0 0 184 52" fill="none" xmlns="http://www.w3.org/2000/svg">
<path fill-rule="evenodd" clip-rule="evenodd" d="M19 23.25C19 21.4551 20.4551 20 22.25 20H29.75C31.5449 20 33 21.4551 33 23.25V28.7499C33 30.5449 31.5449 31.9999 29.75 31.9999H22.25C20.4551 31.9999 19 30.5449 19 28.7499V23.25ZM22.5 30.4999C21.3954 30.4999 20.5 29.6045 20.5 28.4999V23.5C20.5 22.3954 21.3954 21.5 22.5 21.5H27V30.4999H22.5Z" fill="#777E90"/>
<path fill-rule="evenodd" clip-rule="evenodd" d="M165 23.25C165 21.4551 163.545 20 161.75 20H154.25C152.455 20 151 21.4551 151 23.25V28.7499C151 30.5449 152.455 31.9999 154.25 31.9999H161.75C163.545 31.9999 165 30.5449 165 28.7499V23.25ZM161.5 30.4999C162.605 30.4999 163.5 29.6045 163.5 28.4999V23.5C163.5 22.3954 162.605 21.5 161.5 21.5H157V30.4999H161.5Z" fill="#777E90"/>
<path fill-rule="evenodd" clip-rule="evenodd" d="M66.25 20C64.4551 20 63 21.4551 63 23.25V28.7499C63 30.5449 64.4551 31.9999 66.25 31.9999H73.75C75.5449 31.9999 77 30.5449 77 28.7499V23.25C77 21.4551 75.5449 20 73.75 20H66.25ZM64.5 28.4999C64.5 29.6045 65.3954 30.4999 66.5 30.4999H73.75C74.7165 30.4999 75.5 29.7164 75.5 28.7499V23.25C75.5 22.2835 74.7165 21.5 73.75 21.5H66.5C65.3954 21.5 64.5 22.3954 64.5 23.5V28.4999Z" fill="#777E90"/>
<path d="M72.5 21H71V31H72.5V21Z" fill="#777E90"/>
<path fill-rule="evenodd" clip-rule="evenodd" d="M117.75 20C119.545 20 121 21.4551 121 23.25V28.7499C121 30.5449 119.545 31.9999 117.75 31.9999H110.25C108.455 31.9999 107 30.5449 107 28.7499V23.25C107 21.4551 108.455 20 110.25 20H117.75ZM119.5 28.4999C119.5 29.6045 118.605 30.4999 117.5 30.4999H110.25C109.283 30.4999 108.5 29.7164 108.5 28.7499V23.25C108.5 22.2835 109.283 21.5 110.25 21.5H117.5C118.605 21.5 119.5 22.3954 119.5 23.5V28.4999Z" fill="#777E90"/>
<path d="M111.5 21H113V31H111.5V21Z" fill="#777E90"/>
<rect x="0.5" y="0.5" width="183" height="51" rx="4.5" stroke="#7B61FF" stroke-dasharray="10 5"/>
</svg>
