<svg width="81" height="52" viewBox="0 0 81 52" fill="none" xmlns="http://www.w3.org/2000/svg">
<path d="M19 19C18.7348 19 18.4804 19.1054 18.2929 19.2929C18.1054 19.4804 18 19.7348 18 20C18 20.2652 18.1054 20.5196 18.2929 20.7071C18.4804 20.8946 18.7348 21 19 21H30C30.2652 21 30.5196 20.8946 30.7071 20.7071C30.8946 20.5196 31 20.2652 31 20C31 19.7348 30.8946 19.4804 30.7071 19.2929C30.5196 19.1054 30.2652 19 30 19H19ZM19 23C18.7348 23 18.4804 23.1054 18.2929 23.2929C18.1054 23.4804 18 23.7348 18 24C18 24.2652 18.1054 24.5196 18.2929 24.7071C18.4804 24.8946 18.7348 25 19 25H24C24.2652 25 24.5196 24.8946 24.7071 24.7071C24.8946 24.5196 25 24.2652 25 24C25 23.7348 24.8946 23.4804 24.7071 23.2929C24.5196 23.1054 24.2652 23 24 23H19ZM19 27C18.7348 27 18.4804 27.1054 18.2929 27.2929C18.1054 27.4804 18 27.7348 18 28C18 28.2652 18.1054 28.5196 18.2929 28.7071C18.4804 28.8946 18.7348 29 19 29H23C23.2652 29 23.5196 28.8946 23.7071 28.7071C23.8946 28.5196 24 28.2652 24 28C24 27.7348 23.8946 27.4804 23.7071 27.2929C23.5196 27.1054 23.2652 27 23 27H19ZM29 32C29 32.2652 29.1054 32.5196 29.2929 32.7071C29.4804 32.8946 29.7348 33 30 33C30.2652 33 30.5196 32.8946 30.7071 32.7071C30.8946 32.5196 31 32.2652 31 32V26.414L32.293 27.707C32.4816 27.8892 32.7342 27.99 32.9964 27.9877C33.2586 27.9854 33.5094 27.8802 33.6948 27.6948C33.8802 27.5094 33.9854 27.2586 33.9877 26.9964C33.99 26.7342 33.8892 26.4816 33.707 26.293L30.707 23.293C30.5195 23.1055 30.2652 23.0002 30 23.0002C29.7348 23.0002 29.4805 23.1055 29.293 23.293L26.293 26.293C26.1975 26.3852 26.1213 26.4956 26.0689 26.6176C26.0165 26.7396 25.9889 26.8708 25.9877 27.0036C25.9866 27.1364 26.0119 27.2681 26.0622 27.391C26.1125 27.5139 26.1867 27.6255 26.2806 27.7194C26.3745 27.8133 26.4861 27.8875 26.609 27.9378C26.7319 27.9881 26.8636 28.0134 26.9964 28.0123C27.1292 28.0111 27.2604 27.9835 27.3824 27.9311C27.5044 27.8787 27.6148 27.8025 27.707 27.707L29 26.414V32Z" fill="#B1B5C3"/>
<path d="M48 19C47.7348 19 47.4804 19.1054 47.2929 19.2929C47.1054 19.4804 47 19.7348 47 20C47 20.2652 47.1054 20.5196 47.2929 20.7071C47.4804 20.8946 47.7348 21 48 21H59C59.2652 21 59.5196 20.8946 59.7071 20.7071C59.8946 20.5196 60 20.2652 60 20C60 19.7348 59.8946 19.4804 59.7071 19.2929C59.5196 19.1054 59.2652 19 59 19H48ZM48 23C47.7348 23 47.4804 23.1054 47.2929 23.2929C47.1054 23.4804 47 23.7348 47 24C47 24.2652 47.1054 24.5196 47.2929 24.7071C47.4804 24.8946 47.7348 25 48 25H55C55.2652 25 55.5196 24.8946 55.7071 24.7071C55.8946 24.5196 56 24.2652 56 24C56 23.7348 55.8946 23.4804 55.7071 23.2929C55.5196 23.1054 55.2652 23 55 23H48ZM48 27C47.7348 27 47.4804 27.1054 47.2929 27.2929C47.1054 27.4804 47 27.7348 47 28C47 28.2652 47.1054 28.5196 47.2929 28.7071C47.4804 28.8946 47.7348 29 48 29H52C52.2652 29 52.5196 28.8946 52.7071 28.7071C52.8946 28.5196 53 28.2652 53 28C53 27.7348 52.8946 27.4804 52.7071 27.2929C52.5196 27.1054 52.2652 27 52 27H48ZM60 24C60 23.7348 59.8946 23.4804 59.7071 23.2929C59.5196 23.1054 59.2652 23 59 23C58.7348 23 58.4804 23.1054 58.2929 23.2929C58.1054 23.4804 58 23.7348 58 24V29.586L56.707 28.293C56.5184 28.1108 56.2658 28.01 56.0036 28.0123C55.7414 28.0146 55.4906 28.1198 55.3052 28.3052C55.1198 28.4906 55.0146 28.7414 55.0123 29.0036C55.01 29.2658 55.1108 29.5184 55.293 29.707L58.293 32.707C58.4805 32.8945 58.7348 32.9998 59 32.9998C59.2652 32.9998 59.5195 32.8945 59.707 32.707L62.707 29.707C62.8892 29.5184 62.99 29.2658 62.9877 29.0036C62.9854 28.7414 62.8802 28.4906 62.6948 28.3052C62.5094 28.1198 62.2586 28.0146 61.9964 28.0123C61.7342 28.01 61.4816 28.1108 61.293 28.293L60 29.586V24Z" fill="#B1B5C3"/>
<rect x="0.5" y="0.5" width="80" height="51" rx="4.5" stroke="#7B61FF" stroke-dasharray="10 5"/>
</svg>
