<svg width="20" height="20" viewBox="0 0 20 20" fill="none" xmlns="http://www.w3.org/2000/svg">
<path d="M13 7H7V13H13V7Z" fill="#777E90"/>
<path fill-rule="evenodd" clip-rule="evenodd" d="M7.00001 2C7.00001 1.73478 7.10536 1.48043 7.2929 1.29289C7.48044 1.10535 7.73479 0.999996 8.00001 0.999996C8.26522 0.999996 8.51958 1.10535 8.70711 1.29289C8.89465 1.48043 9.00001 1.73478 9.00001 2V3H11V2C11 1.73478 11.1054 1.48043 11.2929 1.29289C11.4804 1.10535 11.7348 0.999996 12 0.999996C12.2652 0.999996 12.5196 1.10535 12.7071 1.29289C12.8946 1.48043 13 1.73478 13 2V3H15C15.5304 3 16.0391 3.21071 16.4142 3.58578C16.7893 3.96086 17 4.46956 17 5V7H18C18.2652 7 18.5196 7.10535 18.7071 7.29289C18.8946 7.48043 19 7.73478 19 8C19 8.26521 18.8946 8.51957 18.7071 8.7071C18.5196 8.89464 18.2652 9 18 9H17V11H18C18.2652 11 18.5196 11.1054 18.7071 11.2929C18.8946 11.4804 19 11.7348 19 12C19 12.2652 18.8946 12.5196 18.7071 12.7071C18.5196 12.8946 18.2652 13 18 13H17V15C17 15.5304 16.7893 16.0391 16.4142 16.4142C16.0391 16.7893 15.5304 17 15 17H13V18C13 18.2652 12.8946 18.5196 12.7071 18.7071C12.5196 18.8946 12.2652 19 12 19C11.7348 19 11.4804 18.8946 11.2929 18.7071C11.1054 18.5196 11 18.2652 11 18V17H9.00001V18C9.00001 18.2652 8.89465 18.5196 8.70711 18.7071C8.51958 18.8946 8.26522 19 8.00001 19C7.73479 19 7.48044 18.8946 7.2929 18.7071C7.10536 18.5196 7.00001 18.2652 7.00001 18V17H5.00001C4.46957 17 3.96087 16.7893 3.58579 16.4142C3.21072 16.0391 3.00001 15.5304 3.00001 15V13H2.00001C1.73479 13 1.48044 12.8946 1.2929 12.7071C1.10536 12.5196 1.00001 12.2652 1.00001 12C1.00001 11.7348 1.10536 11.4804 1.2929 11.2929C1.48044 11.1054 1.73479 11 2.00001 11H3.00001V9H2.00001C1.73479 9 1.48044 8.89464 1.2929 8.7071C1.10536 8.51957 1.00001 8.26521 1.00001 8C1.00001 7.73478 1.10536 7.48043 1.2929 7.29289C1.48044 7.10535 1.73479 7 2.00001 7H3.00001V5C3.00001 4.46956 3.21072 3.96086 3.58579 3.58578C3.96087 3.21071 4.46957 3 5.00001 3H7.00001V2ZM5.00001 5H15V15H5.00001V5Z" fill="#777E90"/>
</svg>
