<svg width="18" height="18" viewBox="0 0 18 18" fill="none" xmlns="http://www.w3.org/2000/svg">
<path fill-rule="evenodd" clip-rule="evenodd" d="M3 3.85714C3 3.62981 3.09031 3.4118 3.25105 3.25105C3.4118 3.09031 3.62981 3 3.85714 3H14.1429C14.3702 3 14.5882 3.09031 14.7489 3.25105C14.9097 3.4118 15 3.62981 15 3.85714C15 4.08447 14.9097 4.30249 14.7489 4.46323C14.5882 4.62398 14.3702 4.71429 14.1429 4.71429H3.85714C3.62981 4.71429 3.4118 4.62398 3.25105 4.46323C3.09031 4.30249 3 4.08447 3 3.85714ZM3 7.28571C3 7.05839 3.09031 6.84037 3.25105 6.67962C3.4118 6.51888 3.62981 6.42857 3.85714 6.42857H14.1429C14.3702 6.42857 14.5882 6.51888 14.7489 6.67962C14.9097 6.84037 15 7.05839 15 7.28571C15 7.51304 14.9097 7.73106 14.7489 7.89181C14.5882 8.05255 14.3702 8.14286 14.1429 8.14286H3.85714C3.62981 8.14286 3.4118 8.05255 3.25105 7.89181C3.09031 7.73106 3 7.51304 3 7.28571ZM3 10.7143C3 10.487 3.09031 10.2689 3.25105 10.1082C3.4118 9.94745 3.62981 9.85714 3.85714 9.85714H14.1429C14.3702 9.85714 14.5882 9.94745 14.7489 10.1082C14.9097 10.2689 15 10.487 15 10.7143C15 10.9416 14.9097 11.1596 14.7489 11.3204C14.5882 11.4811 14.3702 11.5714 14.1429 11.5714H3.85714C3.62981 11.5714 3.4118 11.4811 3.25105 11.3204C3.09031 11.1596 3 10.9416 3 10.7143ZM3 14.1429C3 13.9155 3.09031 13.6975 3.25105 13.5368C3.4118 13.376 3.62981 13.2857 3.85714 13.2857H14.1429C14.3702 13.2857 14.5882 13.376 14.7489 13.5368C14.9097 13.6975 15 13.9155 15 14.1429C15 14.3702 14.9097 14.5882 14.7489 14.7489C14.5882 14.9097 14.3702 15 14.1429 15H3.85714C3.62981 15 3.4118 14.9097 3.25105 14.7489C3.09031 14.5882 3 14.3702 3 14.1429Z" fill="#777E90"/>
</svg>
