<svg width="20" height="20" viewBox="0 0 20 20" fill="none" xmlns="http://www.w3.org/2000/svg">
<path d="M3 7.66667H17M3 11.3333H17M10 7.66667V15M4.55556 15H15.4444C15.857 15 16.2527 14.8068 16.5444 14.463C16.8361 14.1192 17 13.6529 17 13.1667V5.83333C17 5.3471 16.8361 4.88079 16.5444 4.53697C16.2527 4.19315 15.857 4 15.4444 4H4.55556C4.143 4 3.74733 4.19315 3.45561 4.53697C3.16389 4.88079 3 5.3471 3 5.83333V13.1667C3 13.6529 3.16389 14.1192 3.45561 14.463C3.74733 14.8068 4.143 15 4.55556 15Z" stroke="#777E90" stroke-width="2" stroke-linecap="round" stroke-linejoin="round"/>
</svg>
