<svg xmlns="http://www.w3.org/2000/svg" xmlns:xlink="http://www.w3.org/1999/xlink"><symbol id="add-asset" viewBox="0 0 17 16"><path clip-rule="evenodd" d="M4.001 0a2 2 0 0 0-2 2v12a2 2 0 0 0 2 2h8a2 2 0 0 0 2-2V5.415A2 2 0 0 0 13.416 4L10 .586A2 2 0 0 0 8.588 0zm5 6a1 1 0 1 0-2 0v2h-2a1 1 0 0 0 0 2h2v2a1 1 0 1 0 2 0v-2h2a1 1 0 0 0 0-2h-2z" fill="currentColor" fill-rule="evenodd"/></symbol><symbol id="add-user" viewBox="0 0 17 16"><path d="M6.001 7a3 3 0 1 0 0-6 3 3 0 0 0 0 6zm0 2a6 6 0 0 1 6 6h-12a6 6 0 0 1 6-6zm8.001-4a1 1 0 0 0-2 0v1h-1a1 1 0 1 0 0 2h1v1a1 1 0 1 0 2 0V8h1a1 1 0 0 0 0-2h-1z" fill="currentColor"/></symbol><symbol id="additional-actions" viewBox="0 0 16 16"><path d="M4 8a2 2 0 1 1-4 0 2 2 0 0 1 4 0zm6 0a2 2 0 1 1-4 0 2 2 0 0 1 4 0zm4 2a2 2 0 1 0 0-4 2 2 0 0 0 0 4z" fill="currentColor"/></symbol><symbol id="analytics" viewBox="0 0 16 16"><g fill="currentColor"><path d="M0 8a8 8 0 0 1 8-8v8h8A8 8 0 1 1 0 8z"/><path d="M10 .252A8.014 8.014 0 0 1 15.748 6H10z"/></g></symbol><symbol id="annotation" viewBox="0 0 16 16"><path d="M7.566.117a.863.863 0 0 1 .868 0l1.531.889c.42.244.566.787.326 1.213a.868.868 0 0 1-1.194.33L8 1.914l-1.097.637c-.42.243-.954.095-1.194-.331s-.094-.97.326-1.213zm-3.4 2.998a.895.895 0 0 1-.326 1.212l-.201.117.201.118c.42.243.566.786.326 1.212a.868.868 0 0 1-1.194.331l-.222-.129v.246c0 .491-.392.89-.875.89S1 6.712 1 6.221V4.444a.894.894 0 0 1 .456-.78l1.516-.88a.868.868 0 0 1 1.194.33zm7.668 0a.868.868 0 0 1 1.194-.331l1.516.88a.893.893 0 0 1 .456.78v1.778c0 .491-.392.89-.875.89s-.875-.399-.875-.89v-.246l-.222.13a.868.868 0 0 1-1.194-.332.897.897 0 0 1 .326-1.212l.201-.118-.201-.117a.897.897 0 0 1-.326-1.212zM5.709 6.67a.868.868 0 0 1 1.194-.33L8 6.975l1.097-.637a.868.868 0 0 1 1.194.331c.24.426.094.97-.326 1.213l-1.09.633v1.262c0 .49-.392.889-.875.889s-.875-.398-.875-.89V8.517l-1.09-.633a.897.897 0 0 1-.326-1.213zM1.875 8.889c.483 0 .875.398.875.889v1.262l1.09.633c.42.243.566.786.326 1.212a.868.868 0 0 1-1.194.331l-1.531-.889A.891.891 0 0 1 1 11.556V9.778c0-.491.392-.89.875-.89zm12.25 0c.483 0 .875.398.875.889v1.778a.891.891 0 0 1-.44.771l-1.532.89a.868.868 0 0 1-1.194-.331.897.897 0 0 1 .326-1.213l1.09-.633V9.778c0-.491.392-.89.875-.89zm-8.416 4.892a.868.868 0 0 1 1.194-.33l.222.128v-.246c0-.49.392-.889.875-.889s.875.398.875.89v.245l.222-.129a.868.868 0 0 1 1.194.331c.24.426.094.97-.326 1.213l-1.518.881a.86.86 0 0 1-.894 0l-1.518-.881a.897.897 0 0 1-.326-1.213z" fill="currentColor"/></symbol><symbol id="app-switcher" viewBox="0 0 16 16"><path d="M8 12.444A1.778 1.778 0 1 1 8 16a1.778 1.778 0 0 1 0-3.556zm6.222 0a1.778 1.778 0 1 1 0 3.556 1.778 1.778 0 0 1 0-3.556zm-12.444 0a1.778 1.778 0 1 1 0 3.556 1.778 1.778 0 0 1 0-3.556zM8 6.222a1.778 1.778 0 1 1 0 3.556 1.778 1.778 0 0 1 0-3.556zm6.222 0a1.778 1.778 0 1 1 0 3.556 1.778 1.778 0 0 1 0-3.556zm-12.444 0a1.778 1.778 0 1 1 0 3.556 1.778 1.778 0 0 1 0-3.556zM8 0a1.778 1.778 0 1 1 0 3.556A1.778 1.778 0 0 1 8 0zm6.222 0a1.778 1.778 0 1 1 0 3.556 1.778 1.778 0 0 1 0-3.556zM1.778 0a1.778 1.778 0 1 1 0 3.556 1.778 1.778 0 0 1 0-3.556z" fill="currentColor"/></symbol><symbol id="archive" viewBox="0 0 17 16"><path clip-rule="evenodd" d="M.587 1.586A2 2 0 0 1 2.002 1h12a2 2 0 1 1 0 4h-12A2 2 0 0 1 .587 1.586zM15.001 6h-14v7a2 2 0 0 0 2 2h10a2 2 0 0 0 2-2zM6.294 8.293A1 1 0 0 0 7.002 10h2a1 1 0 0 0 0-2h-2a1 1 0 0 0-.708.293z" fill="currentColor" fill-rule="evenodd"/></symbol><symbol id="arrow" viewBox="0 0 17 16"><path clip-rule="evenodd" d="M3.295 5.707a1 1 0 0 1 0-1.414l4.005-4a1.002 1.002 0 0 1 1.415 0l4.005 4a1 1 0 0 1-.711 1.695 1.002 1.002 0 0 1-.704-.28L9.009 3.413V15a1 1 0 0 1-1.71.707A1 1 0 0 1 7.007 15V3.414L4.71 5.707a1.002 1.002 0 0 1-1.415 0z" fill="currentColor" fill-rule="evenodd"/></symbol><symbol id="assist" viewBox="0 0 16 16"><path clip-rule="evenodd" d="M16 11V3a2 2 0 0 0-2-2H2a2 2 0 0 0-2 2v8a2 2 0 0 0 2 2h3l3 3 3-3h3a2 2 0 0 0 2-2zM3 5a1 1 0 0 1 1-1h8a1 1 0 1 1 0 2H4a1 1 0 0 1-1-1zm1 3a1 1 0 0 0 0 2h3a1 1 0 0 0 0-2z" fill="currentColor" fill-rule="evenodd"/></symbol><symbol id="attached" viewBox="0 0 17 16"><path clip-rule="evenodd" d="M6.002 2a3 3 0 0 0-3 3v4a5 5 0 1 0 10 0V5a1 1 0 1 1 2 0v4a7 7 0 1 1-14 0V5a5 5 0 1 1 10 0v4a3 3 0 1 1-6 0V5a1 1 0 1 1 2 0v4a1 1 0 1 0 2 0V5a3 3 0 0 0-3-3z" fill="currentColor" fill-rule="evenodd"/></symbol><symbol id="beaker" viewBox="0 0 16 16"><path clip-rule="evenodd" d="M5.065 0a.978.978 0 0 0-.904.617c-.151.374-.067.804.212 1.09l.692.707v3.758c0 .265-.103.52-.286.707l-3.914 4C-.983 12.769.326 16 2.941 16h10.118c2.615 0 3.924-3.231 2.076-5.121l-3.914-4a1.011 1.011 0 0 1-.286-.707V2.414l.692-.707c.28-.286.363-.716.212-1.09A.978.978 0 0 0 10.935 0zm1.957 6.172V2h1.956v4.172c0 .795.31 1.558.86 2.12l1.005 1.028a3.832 3.832 0 0 0-2.124.102l-.46.156a3.833 3.833 0 0 1-2.475 0l-.55-.187a1.936 1.936 0 0 0-.112-.035l1.04-1.063c.55-.563.86-1.326.86-2.121z" fill="currentColor" fill-rule="evenodd"/></symbol><symbol id="beginning" viewBox="0 0 17 16"><path d="M4.135 0c.301 0 .59.12.802.335.213.214.332.505.332.808v13.714c0 .304-.119.594-.332.809a1.13 1.13 0 0 1-1.603 0A1.147 1.147 0 0 1 3 14.857V1.143c0-.303.12-.594.333-.808A1.13 1.13 0 0 1 4.135 0zm9.535 2.384a1.15 1.15 0 0 1 0 1.616L9.934 7.764l3.734 3.763c.443.446.443 1.17 0 1.616a1.128 1.128 0 0 1-1.603 0L7.53 8.572a1.15 1.15 0 0 1 0-1.616l4.536-4.572a1.128 1.128 0 0 1 1.603 0z" clip-rule="evenodd" fill="currentColor" fill-rule="evenodd"/></symbol><symbol id="book" viewBox="0 0 16 16"><path d="M3 0a2 2 0 0 0-2 2v12a2 2 0 0 0 2 2h10.6a.6.6 0 0 0 0-1.2H3a.8.8 0 0 1-.8-.8h11.4a.6.6 0 0 0 .6-.6V2a2 2 0 0 0-2-2zm1.2 2.4h6.4a.8.8 0 0 1 .8.8V4a.8.8 0 0 1-.8.8H4.2a.8.8 0 0 1-.8-.8v-.8a.8.8 0 0 1 .8-.8z" fill="currentColor"/></symbol><symbol id="bookmark" viewBox="0 0 17 16"><path d="M3 2a2 2 0 0 1 2-2h6a2 2 0 0 1 2 2v14l-5-2.5L3 16z" fill="currentColor"/></symbol><symbol id="bounding-box" viewBox="0 0 18 16"><path d="M15.856 11.745V4.254a2.276 2.276 0 0 0 1.143-1.969A2.286 2.286 0 0 0 14.713 0c-.844 0-1.573.462-1.969 1.142H5.253A2.275 2.275 0 0 0 3.284 0 2.286 2.286 0 0 0 1 2.285c0 .844.462 1.573 1.142 1.969v7.491A2.276 2.276 0 0 0 1 13.714 2.286 2.286 0 0 0 3.284 16c.844 0 1.573-.463 1.969-1.143h7.49A2.276 2.276 0 0 0 14.714 16a2.286 2.286 0 0 0 2.285-2.286c0-.844-.462-1.573-1.142-1.969zm-11.429 0V4.254a2.28 2.28 0 0 0 .826-.826h7.49c.2.342.484.627.827.826v7.491a2.279 2.279 0 0 0-.826.826H5.253a2.279 2.279 0 0 0-.826-.826zm10.857-9.46a.572.572 0 1 1-1.144-.001.572.572 0 0 1 1.144.001zm-12-.571a.572.572 0 1 1-.001 1.144.572.572 0 0 1 .001-1.144zm-.571 12a.572.572 0 1 1 1.144.001.572.572 0 0 1-1.144-.001zm12 .571a.572.572 0 1 1 .001-1.144.572.572 0 0 1-.001 1.144z" fill="currentColor"/></symbol><symbol id="breadcrumb" viewBox="0 0 16 16"><path clip-rule="evenodd" d="M3.488 15.531c-.312-.3-.488-.708-.488-1.133s.176-.832.488-1.132L8.977 7.99 3.488 2.715c-.304-.302-.472-.707-.468-1.127S3.2.766 3.508.47A1.701 1.701 0 0 1 4.672 0c.437-.004.858.158 1.173.45l6.667 6.408c.312.3.488.708.488 1.132 0 .425-.176.833-.488 1.133L5.845 15.53c-.313.3-.737.469-1.179.469s-.865-.169-1.178-.469z" fill="currentColor" fill-rule="evenodd"/></symbol><symbol id="camera-1" viewBox="0 0 16 16"><path clip-rule="evenodd" d="M16 8A8 8 0 1 1 0 8a8 8 0 0 1 16 0zm-4.523 4.89A6 6 0 0 1 3.11 4.524zm1.414-1.414L4.524 3.11a6 6 0 0 1 8.367 8.367z" fill="currentColor" fill-rule="evenodd"/></symbol><symbol id="camera" viewBox="0 0 16 16"><path clip-rule="evenodd" d="M2 3a2 2 0 0 0-2 2v8a2 2 0 0 0 2 2h12a2 2 0 0 0 2-2V5a2 2 0 0 0-2-2h-1.586a1 1 0 0 1-.707-.293l-1.121-1.121A2 2 0 0 0 9.172 1H6.828a2 2 0 0 0-1.414.586L4.293 2.707A1 1 0 0 1 3.586 3zm6 9a3 3 0 1 0 0-6 3 3 0 0 0 0 6z" fill="currentColor" fill-rule="evenodd"/></symbol><symbol id="cancel" viewBox="0 0 16 16"><path clip-rule="evenodd" d="M.39.407a1.331 1.331 0 0 1 1.883 0l5.719 5.724L13.71.407a1.333 1.333 0 1 1 1.883 1.886L9.875 8.017l5.718 5.724a1.334 1.334 0 0 1-.946 2.26 1.33 1.33 0 0 1-.937-.375L7.992 9.902l-5.719 5.724a1.33 1.33 0 0 1-2.257-.947c-.003-.35.131-.687.374-.938l5.718-5.724L.39 2.293a1.334 1.334 0 0 1 0-1.886z" fill="currentColor" fill-rule="evenodd"/></symbol><symbol id="caret" viewBox="0 0 16 16"><path d="M9.233 3.525a1.71 1.71 0 0 0-2.466 0L.514 9.945C-.584 11.071.194 13 1.747 13h12.506c1.553 0 2.331-1.928 1.233-3.056z" fill="currentColor"/></symbol><symbol id="carousel-horizontal" viewBox="0 0 17 16"><path d="M13.427 3.8a1.575 1.575 0 0 1 1.571 1.468l.004.107v5.25a1.575 1.575 0 0 1-1.468 1.572l-.107.003H2.577a1.575 1.575 0 0 1-1.572-1.467l-.004-.108v-5.25A1.575 1.575 0 0 1 2.47 3.804l.107-.004h10.85ZM3.1 3.1v-.525a1.575 1.575 0 0 1 1.47-1.571L4.676 1h6.65a1.575 1.575 0 0 1 1.572 1.468l.004.107V3.1h-9.8Zm9.8 9.8v.525a1.575 1.575 0 0 1-1.467 1.572l-.107.003h-6.65a1.575 1.575 0 0 1-1.572-1.467l-.004-.108V12.9h9.8Z" fill="currentColor"/></symbol><symbol id="carousel-vertical" viewBox="0 0 17 16"><path d="M12.201 13.425a1.575 1.575 0 0 1-1.467 1.572l-.107.003h-5.25a1.575 1.575 0 0 1-1.572-1.467l-.004-.108V2.575A1.575 1.575 0 0 1 5.27 1.004L5.376 1h5.25a1.575 1.575 0 0 1 1.572 1.468l.003.107v10.85Zm.7-10.325h.526a1.575 1.575 0 0 1 1.571 1.468l.004.107v6.65a1.575 1.575 0 0 1-1.468 1.572l-.107.003h-.525V3.1Zm-9.8 9.8h-.525a1.575 1.575 0 0 1-1.571-1.467l-.004-.108v-6.65A1.575 1.575 0 0 1 2.47 3.104l.107-.004h.525v9.8Z" fill="currentColor"/></symbol><symbol id="category-list" viewBox="0 0 16 16"><path clip-rule="evenodd" d="M0 2.167c0-.31.12-.606.335-.825S.84 1 1.143 1h13.714c.303 0 .594.123.808.342.215.218.335.515.335.825s-.12.606-.335.825a1.131 1.131 0 0 1-.808.341H1.143c-.303 0-.594-.123-.808-.341A1.18 1.18 0 0 1 0 2.167zM0 8c0-.31.12-.606.335-.825s.505-.342.808-.342h13.714c.303 0 .594.123.808.342a1.18 1.18 0 0 1 0 1.65 1.131 1.131 0 0 1-.808.342H1.143a1.13 1.13 0 0 1-.808-.342A1.18 1.18 0 0 1 0 8zm0 5.833c0-.31.12-.606.335-.825s.505-.341.808-.341H8c.303 0 .594.123.808.341a1.18 1.18 0 0 1 0 1.65A1.136 1.136 0 0 1 8 15H1.143c-.303 0-.594-.123-.808-.342S0 14.143 0 13.833z" fill="currentColor" fill-rule="evenodd"/></symbol><symbol id="checklist-complete" viewBox="0 0 16 16"><g fill="currentColor"><path d="M7 0a1 1 0 0 0 0 2h2a1 1 0 0 0 0-2z"/><path clip-rule="evenodd" d="M2 3a2 2 0 0 1 2-2 3 3 0 0 0 3 3h2a3 3 0 0 0 3-3 2 2 0 0 1 2 2v11a2 2 0 0 1-2 2H4a2 2 0 0 1-2-2zm9.707 5.707a1 1 0 0 0-1.414-1.414L7 10.586 5.707 9.293a1 1 0 0 0-1.414 1.414l2 2a1 1 0 0 0 1.414 0z" fill-rule="evenodd"/></g></symbol><symbol id="checklist" viewBox="0 0 16 16"><g fill="currentColor"><path d="M7 0a1 1 0 0 0 0 2h2a1 1 0 0 0 0-2z"/><path clip-rule="evenodd" d="M2 3a2 2 0 0 1 2-2 3 3 0 0 0 3 3h2a3 3 0 0 0 3-3 2 2 0 0 1 2 2v11a2 2 0 0 1-2 2H4a2 2 0 0 1-2-2zm3 4a1 1 0 0 0 0 2h.01a1 1 0 1 0 0-2zm3 0a1 1 0 0 0 0 2h3a1 1 0 1 0 0-2zm-3 4a1 1 0 1 0 0 2h.01a1 1 0 1 0 0-2zm3 0a1 1 0 1 0 0 2h3a1 1 0 1 0 0-2z" fill-rule="evenodd"/></g></symbol><symbol id="checkmark" viewBox="0 0 16 16"><path clip-rule="evenodd" d="M14.707 3.293a1 1 0 0 1 0 1.414l-8 8a1 1 0 0 1-1.414 0l-4-4a1 1 0 0 1 1.414-1.414L6 10.586l7.293-7.293a1 1 0 0 1 1.414 0z" fill="currentColor" fill-rule="evenodd"/></symbol><symbol id="chevron-down" viewBox="0 0 16 16"><path clip-rule="evenodd" d="M15.531 3.488c-.3-.312-.708-.488-1.133-.488s-.832.176-1.132.488L7.99 8.977 2.715 3.488c-.302-.304-.707-.472-1.127-.468S.766 3.2.47 3.508A1.701 1.701 0 0 0 0 4.672c-.004.437.158.858.45 1.173l6.408 6.667c.3.312.708.488 1.132.488a1.57 1.57 0 0 0 1.133-.488l6.408-6.667c.3-.313.469-.737.469-1.179s-.169-.865-.469-1.178z" fill="currentColor" fill-rule="evenodd"/></symbol><symbol id="chevron-left" viewBox="0 0 16 16"><path clip-rule="evenodd" d="M12.512 15.531c.313-.3.488-.708.488-1.133s-.175-.832-.488-1.132L7.023 7.99l5.489-5.275c.304-.302.472-.707.468-1.127S12.8.766 12.492.47A1.701 1.701 0 0 0 11.328 0a1.703 1.703 0 0 0-1.173.45L3.488 6.858C3.176 7.158 3 7.566 3 7.99c0 .425.176.833.488 1.133l6.667 6.408c.313.3.737.469 1.179.469.442 0 .865-.169 1.178-.469z" fill="currentColor" fill-rule="evenodd"/></symbol><symbol id="chevron-right" viewBox="0 0 16 16"><path clip-rule="evenodd" d="M3.488 15.531c-.312-.3-.488-.708-.488-1.133s.176-.832.488-1.132L8.977 7.99 3.488 2.715c-.304-.302-.472-.707-.468-1.127S3.2.766 3.508.47A1.701 1.701 0 0 1 4.672 0c.437-.004.858.158 1.173.45l6.667 6.408c.312.3.488.708.488 1.132 0 .425-.176.833-.488 1.133L5.845 15.53c-.313.3-.737.469-1.179.469s-.865-.169-1.178-.469z" fill="currentColor" fill-rule="evenodd"/></symbol><symbol id="chevron-up" viewBox="0 0 16 16"><path clip-rule="evenodd" d="M15.531 12.512c-.3.313-.708.488-1.133.488s-.832-.175-1.132-.488L7.99 7.023l-5.275 5.489c-.302.304-.707.472-1.127.468S.766 12.8.47 12.492A1.701 1.701 0 0 1 0 11.328a1.703 1.703 0 0 1 .45-1.173l6.408-6.667C7.158 3.176 7.566 3 7.99 3c.425 0 .833.176 1.133.488l6.408 6.667c.3.313.469.737.469 1.179 0 .442-.169.865-.469 1.178z" fill="currentColor" fill-rule="evenodd"/></symbol><symbol id="chevron" viewBox="0 0 16 16"><path clip-rule="evenodd" d="M15.531 12.512c-.3.313-.708.488-1.133.488s-.832-.175-1.132-.488L7.99 7.023l-5.275 5.489c-.302.304-.707.472-1.127.468S.766 12.8.47 12.492A1.701 1.701 0 0 1 0 11.328a1.703 1.703 0 0 1 .45-1.173l6.408-6.667C7.158 3.176 7.566 3 7.99 3c.425 0 .833.176 1.133.488l6.408 6.667c.3.313.469.737.469 1.179 0 .442-.169.865-.469 1.178z" fill="currentColor" fill-rule="evenodd"/></symbol><symbol id="chop" viewBox="0 0 17 16"><path clip-rule="evenodd" d="M2.967.357a3.505 3.505 0 0 1 4.548 1.351 3.498 3.498 0 0 1 .072 3.459l1.42 1.42 5.298-5.294a1.001 1.001 0 0 1 1.415 1.415l-8.134 8.127a3.498 3.498 0 0 1-3.335 5.156 3.504 3.504 0 0 1-3.24-3.238 3.498 3.498 0 0 1 2.738-3.67 3.505 3.505 0 0 1 2.422.338l1.42-1.42-1.42-1.42a3.505 3.505 0 0 1-5.06-2.222A3.498 3.498 0 0 1 2.967.357zm.15 2.57A1.499 1.499 0 0 0 4.504 5a1.502 1.502 0 0 0 1.062-2.56 1.501 1.501 0 0 0-2.449.487zm0 9a1.5 1.5 0 0 0 1.387 2.075 1.502 1.502 0 0 0 1.387-2.075 1.5 1.5 0 0 0-2.774 0zM11.015 9c.268-.002.527.101.72.287l3.967 3.967a1.023 1.023 0 1 1-1.447 1.447l-3.967-3.968A1.023 1.023 0 0 1 11.015 9z" fill="currentColor" fill-rule="evenodd"/></symbol><symbol id="cloud-download" viewBox="0 0 16 16"><path clip-rule="evenodd" d="M2 7.611c0 1.504 1.175 2.722 2.625 2.722H7.25v2.011l-.97-1.005a.731.731 0 0 0-1.06 0 .798.798 0 0 0 0 1.1l2.25 2.333a.731.731 0 0 0 1.06 0l2.25-2.333a.798.798 0 0 0 0-1.1.731.731 0 0 0-1.06 0l-.97 1.006v-2.012h1.875c1.864 0 3.375-1.567 3.375-3.5s-1.511-3.5-3.375-3.5c-.157 0-.31.011-.462.033C9.841 2.008 8.66 1 7.25 1c-1.657 0-3 1.393-3 3.111 0 .274.034.54.098.793C3.028 5.047 2 6.204 2 7.61zm6.75 2.722h-1.5V6.444c0-.43.336-.777.75-.777s.75.348.75.777z" fill="currentColor" fill-rule="evenodd"/></symbol><symbol id="cloud-upload" viewBox="0 0 16 16"><g fill="currentColor"><path d="M4.625 10.333C3.175 10.333 2 9.115 2 7.611c0-1.406 1.029-2.564 2.348-2.707a3.225 3.225 0 0 1-.098-.793C4.25 2.393 5.593 1 7.25 1c1.41 0 2.591 1.008 2.913 2.366a3.2 3.2 0 0 1 .462-.033C12.489 3.333 14 4.9 14 6.833s-1.511 3.5-3.375 3.5H8.75V7.544l.97 1.006c.293.304.767.304 1.06 0s.293-.796 0-1.1L8.53 5.117a.731.731 0 0 0-1.06 0L5.22 7.45c-.293.304-.293.796 0 1.1s.767.304 1.06 0l.97-1.006v2.79z"/><path d="M7.25 10.333h1.5v3.89c0 .429-.336.777-.75.777s-.75-.348-.75-.778z"/></g></symbol><symbol id="cloud" viewBox="0 0 16 16"><path d="M3.5 14a3.5 3.5 0 0 1-.369-6.98 4 4 0 1 1 7.753-1.977A4.5 4.5 0 1 1 11.5 14h-8Z" fill="currentColor"/></symbol><symbol id="code" viewBox="0 0 16 16"><path clip-rule="evenodd" d="M10.059 2.044a.85.85 0 0 1 .562 1.084L7.065 13.414c-.155.449-.658.692-1.124.542s-.717-.635-.562-1.084L8.935 2.586c.155-.449.658-.691 1.124-.542zM4.184 4.823a.836.836 0 0 1 0 1.212L2.146 8l2.038 1.965a.836.836 0 0 1 0 1.212.912.912 0 0 1-1.257 0L.26 8.607a.836.836 0 0 1 0-1.213l2.667-2.571a.912.912 0 0 1 1.257 0zm7.632 0a.912.912 0 0 1 1.257 0l2.667 2.57a.836.836 0 0 1 0 1.213l-2.667 2.571c-.347.335-.91.335-1.257 0s-.347-.877 0-1.212L13.854 8l-2.038-1.965a.836.836 0 0 1 0-1.212z" fill="currentColor" fill-rule="evenodd"/></symbol><symbol id="collapse-all" viewBox="0 0 17 16"><clipPath id="a"><path d="M.001 0h16v16h-16z"/></clipPath><g clip-path="url(#a)" fill="currentColor"><path d="M11.037 15a.978.978 0 0 1-.656-.25L7.678 12.3a.326.326 0 0 0-.441 0l-2.602 2.438a.969.969 0 0 1-.689.261.976.976 0 0 1-.676-.29.929.929 0 0 1 .03-1.331l3.25-3.038a1.354 1.354 0 0 1 1.81.013l3.334 3.017a.918.918 0 0 1 .242 1.033.945.945 0 0 1-.355.434.981.981 0 0 1-.543.163zm-4.016-3.292.031.026zm.878-.025-.02.018zM7.45 6a1.32 1.32 0 0 1-.913-.367L3.3 2.617a.925.925 0 0 1-.298-.657.923.923 0 0 1 .267-.67.98.98 0 0 1 .677-.288.982.982 0 0 1 .689.26L7.238 3.69a.327.327 0 0 0 .441 0l2.702-2.44a.981.981 0 0 1 1.363.05.921.921 0 0 1-.051 1.324L8.337 5.657A1.278 1.278 0 0 1 7.45 6zm-.416-1.723-.036.03zm.836 0 .017.017z"/></g></symbol><symbol id="collapse-panel" viewBox="0 0 17 16"><path clip-rule="evenodd" d="M1.001 1a1 1 0 0 1 1 1v12a1 1 0 1 1-2 0V2a1 1 0 0 1 1-1zm7.707 3.293a1 1 0 0 1 0 1.414L7.415 7h7.587a1 1 0 0 1 0 2H7.415l1.293 1.293a1 1 0 1 1-1.414 1.414l-3-3a1 1 0 0 1 0-1.414l3-3a1 1 0 0 1 1.414 0z" fill="currentColor" fill-rule="evenodd"/></symbol><symbol id="collection" viewBox="0 0 16 16"><path d="M5 1a1 1 0 0 0 0 2h6a1 1 0 1 0 0-2zM2 5a1 1 0 0 1 1-1h10a1 1 0 1 1 0 2H3a1 1 0 0 1-1-1zM0 9a2 2 0 0 1 2-2h12a2 2 0 0 1 2 2v4a2 2 0 0 1-2 2H2a2 2 0 0 1-2-2z" fill="currentColor"/></symbol><symbol id="columns" viewBox="0 0 16 16"><path d="M0 2a1 1 0 0 1 1-1h2a1 1 0 0 1 1 1v12a1 1 0 0 1-1 1H1a1 1 0 0 1-1-1zm6 0a1 1 0 0 1 1-1h2a1 1 0 0 1 1 1v12a1 1 0 0 1-1 1H7a1 1 0 0 1-1-1zm7-1a1 1 0 0 0-1 1v12a1 1 0 0 0 1 1h2a1 1 0 0 0 1-1V2a1 1 0 0 0-1-1z" fill="currentColor"/></symbol><symbol id="computer" viewBox="0 0 16 16"><path clip-rule="evenodd" d="M1 3a2 2 0 0 1 2-2h10a2 2 0 0 1 2 2v8a2 2 0 0 1-2 2h-2.22l.123.489.804.804A1 1 0 0 1 11 16H5a1 1 0 0 1-.707-1.707l.804-.804L5.22 13H3a2 2 0 0 1-2-2zm5.771 7a.98.98 0 0 0-.044 0H3V3h10v7H9.273a.98.98 0 0 0-.044 0z" fill="currentColor" fill-rule="evenodd"/></symbol><symbol id="copy" viewBox="0 0 17 16"><path clip-rule="evenodd" d="M.646.645A2.2 2.2 0 0 1 2.202 0h6.6a2.2 2.2 0 0 1 2.2 2.2h-8.8V11a2.2 2.2 0 0 1-2.2-2.2V2.2A2.2 2.2 0 0 1 .646.645zm5 5A2.2 2.2 0 0 0 5.002 7.2v6.6a2.2 2.2 0 0 0 2.2 2.2h6.6a2.2 2.2 0 0 0 2.2-2.2V7.2a2.2 2.2 0 0 0-2.2-2.2h-6.6a2.2 2.2 0 0 0-1.556.645z" fill="currentColor" fill-rule="evenodd"/></symbol><symbol id="cross-hairs" viewBox="0 0 17 16"><path d="M8 0a.8.8 0 0 1 .794.706L8.8.8v1.051a6.204 6.204 0 0 1 5.35 5.35h1.05a.8.8 0 0 1 .094 1.594l-.093.006h-1.052a6.204 6.204 0 0 1-5.349 5.35v1.05a.8.8 0 0 1-1.594.094l-.006-.093V14.15a6.204 6.204 0 0 1-5.35-5.349H.8a.8.8 0 0 1-.093-1.595L.8 7.201h1.052A6.204 6.204 0 0 1 7.2 1.852V.8A.8.8 0 0 1 8 0zm0 3.4a4.6 4.6 0 1 0 0 9.201 4.6 4.6 0 0 0 0-9.2zm0 1.4a3.2 3.2 0 1 1 0 6.401 3.2 3.2 0 0 1 0-6.4z" fill="currentColor"/></symbol><symbol id="dark-mode" viewBox="0 0 16 16"><path d="M16 11.076A8.37 8.37 0 0 1 4.924 0 8.371 8.371 0 1 0 16 11.076z" fill="currentColor"/></symbol><symbol id="dashboard" viewBox="0 0 16 16"><path d="M2.286 0A2.286 2.286 0 0 0 0 2.286V4.57a2.286 2.286 0 0 0 2.286 2.286H4.57A2.286 2.286 0 0 0 6.856 4.57V2.286A2.286 2.286 0 0 0 4.571 0zm0 9.143A2.286 2.286 0 0 0 0 11.429v2.285A2.286 2.286 0 0 0 2.286 16H4.57a2.286 2.286 0 0 0 2.286-2.286V11.43A2.286 2.286 0 0 0 4.57 9.144zm6.857-6.857A2.286 2.286 0 0 1 11.429 0h2.285A2.286 2.286 0 0 1 16 2.286V4.57a2.286 2.286 0 0 1-2.286 2.286H11.43A2.286 2.286 0 0 1 9.144 4.57zm3.428 6.857a1.143 1.143 0 0 1 1.143 1.143v1.143h1.143a1.143 1.143 0 0 1 0 2.285h-1.143v1.143a1.143 1.143 0 0 1-2.285 0v-1.143h-1.143a1.143 1.143 0 0 1 0-2.285h1.143v-1.143a1.143 1.143 0 0 1 1.142-1.143z" fill="currentColor"/></symbol><symbol id="data-generation" viewBox="0 0 16 16"><path d="M13.318 10a.5.5 0 0 1 .5.5v1.75H15.5a.5.5 0 0 1 .5.5v.5a.5.5 0 0 1-.5.5h-1.682v1.75a.5.5 0 0 1-.5.5h-.454a.5.5 0 0 1-.5-.5v-1.75h-1.682a.5.5 0 0 1-.5-.5v-.5a.5.5 0 0 1 .5-.5h1.682V10.5a.5.5 0 0 1 .5-.5zm.506-9c.399 0 .722.334.722.745v7.011A4.238 4.238 0 0 0 13.09 8.5v-6H1.455V13l6.758-6.97a.711.711 0 0 1 .96-.063l.068.064 2.579 2.663a4.327 4.327 0 0 0-1.539.861c-.45.392-.82.873-1.086 1.416s-.422 1.135-.46 1.742a4.632 4.632 0 0 0 .241 1.788L.721 14.5a.711.711 0 0 1-.51-.218.757.757 0 0 1-.211-.527V1.745a.762.762 0 0 1 .213-.525A.716.716 0 0 1 .72 1zm-9.46 3c.385 0 .755.158 1.028.44s.426.662.426 1.06-.153.78-.426 1.06S4.75 7 4.364 7s-.756-.158-1.029-.44-.426-.662-.426-1.06.153-.78.426-1.06S3.978 4 4.364 4z" fill="currentColor"/></symbol><symbol id="data-management" viewBox="0 0 16 17"><path d="M16 6.474V9c0 2.093-3.358 3.79-7.5 3.79C4.358 12.79 1 11.093 1 9V6.474c0 2.092 3.358 3.79 7.5 3.79 4.142 0 7.5-1.698 7.5-3.79zm-15 4.21c0 2.093 3.358 3.79 7.5 3.79 4.142 0 7.5-1.697 7.5-3.79v2.527C16 15.303 12.642 17 8.5 17 4.358 17 1 15.303 1 13.21zM8.5 8.58C4.358 8.58 1 6.883 1 4.79S4.358 1 8.5 1C12.642 1 16 2.697 16 4.79c0 2.092-3.358 3.789-7.5 3.789z" fill="currentColor"/></symbol><symbol id="dataset-slice" viewBox="0 0 16 16"><path d="M1.002 2.121A2.124 2.124 0 0 1 3.338.011c4.286.408 8.257 2.351 11.128 5.444.886.952.61 2.364-.396 3.067l-.35.245-.3-.43-.007-.01c-2.641-3.514-6.938-5.802-11.79-5.802h-.62zm11.399 6.9.313.449-3.268 2.285-.167.12v1.676c0 .212-.087.414-.243.564s-.365.234-.585.234-.43-.085-.585-.234-.243-.352-.243-.564v-.048a.395.395 0 0 0-.146-.257.425.425 0 0 0-.565.033.391.391 0 0 0-.113.272v1.197c0 .205-.082.402-.228.55s-.347.237-.559.247a.847.847 0 0 1-.581-.192.789.789 0 0 1-.284-.525l-1.192.83C2.722 16.513.999 15.665 1 14.2l.002-10.48h.621c4.433 0 8.359 2.087 10.778 5.3zM4.315 7.17c.22 0 .43-.085.585-.234s.243-.353.243-.564a.783.783 0 0 0-.243-.564.845.845 0 0 0-1.17 0 .783.783 0 0 0-.243.564c0 .211.087.414.242.564s.366.233.586.233zm3.311 2.39c.22 0 .43-.084.586-.233a.78.78 0 0 0 0-1.128c-.155-.15-.366-.234-.586-.234s-.43.084-.585.234a.783.783 0 0 0-.242.564c0 .211.087.414.242.564s.366.233.585.233zm-3.311 2.392a.84.84 0 0 0 .585-.234.783.783 0 0 0 .243-.564c0-.212-.087-.414-.243-.564s-.366-.234-.585-.234-.43.084-.586.234a.78.78 0 0 0 0 1.128c.156.15.366.234.586.234z" fill="currentColor"/></symbol><symbol id="date" viewBox="0 0 16 16"><path clip-rule="evenodd" d="M4 0a1 1 0 0 0-1 1v1H2a2 2 0 0 0-2 2v10a2 2 0 0 0 2 2h12a2 2 0 0 0 2-2V4a2 2 0 0 0-2-2h-1V1a1 1 0 0 0-2 0v1H5V1a1 1 0 0 0-1-1zm0 5a1 1 0 0 0 0 2h8a1 1 0 1 0 0-2z" fill="currentColor" fill-rule="evenodd"/></symbol><symbol id="debugging" viewBox="0 0 16 16"><path d="M3.245 5.058a4.77 4.77 0 0 1 .159-.241h9.192c.055.079.108.16.16.24l1.181-.684a.5.5 0 0 1 .684.183l.302.524a.5.5 0 0 1-.183.682l-1.34.776c.13.474.2.974.2 1.49v.803h1.9a.5.5 0 0 1 .5.5v.606a.5.5 0 0 1-.5.5h-1.9c0 .765-.152 1.494-.429 2.16l1.569.908a.5.5 0 0 1 .183.682l-.302.524a.5.5 0 0 1-.684.183l-1.587-.919a5.591 5.591 0 0 1-2.984 1.912c-.295.075-.566-.16-.566-.465V9.634H7.2v5.788c0 .305-.27.54-.566.466a5.591 5.591 0 0 1-2.984-1.913l-1.587.92a.5.5 0 0 1-.684-.184l-.302-.524a.5.5 0 0 1 .183-.682l1.569-.908a5.62 5.62 0 0 1-.429-2.16H.5a.5.5 0 0 1-.5-.5V9.33a.5.5 0 0 1 .5-.5h1.9v-.803c0-.516.07-1.015.2-1.49l-1.34-.776a.5.5 0 0 1-.183-.682l.302-.524a.5.5 0 0 1 .684-.183zM4.8 3.21c0-.851.337-1.668.937-2.27a3.194 3.194 0 0 1 4.526 0c.6.602.937 1.419.937 2.27z" fill="currentColor"/></symbol><symbol id="delete" viewBox="0 0 17 16"><path clip-rule="evenodd" d="M7.002 0a1 1 0 0 0-.894.553L5.384 2H2.002a1 1 0 0 0 0 2v10a2 2 0 0 0 2 2h8a2 2 0 0 0 2-2V4a1 1 0 1 0 0-2h-3.383L9.896.553A1 1 0 0 0 9.002 0zm-2 6a1 1 0 1 1 2 0v6a1 1 0 1 1-2 0zm5-1a1 1 0 0 0-1 1v6a1 1 0 1 0 2 0V6a1 1 0 0 0-1-1z" fill="currentColor" fill-rule="evenodd"/></symbol><symbol id="docs" viewBox="0 0 16 16"><path d="M7 2.777A8.2 8.2 0 0 0 3.5 2a8.21 8.21 0 0 0-3.5.777v9.662a8.202 8.202 0 0 1 3.5-.777A8.15 8.15 0 0 1 8 13a8.16 8.16 0 0 1 4.5-1.338 8.21 8.21 0 0 1 3.5.777V2.777A8.2 8.2 0 0 0 12.5 2a8.21 8.21 0 0 0-3.5.777v6.952a.95.95 0 0 1-.293.684 1.023 1.023 0 0 1-1.414 0A.95.95 0 0 1 7 9.729z" fill="currentColor"/></symbol><symbol id="domains" viewBox="0 0 16 16"><clipPath id="a"><path d="M0 0h16v16H0z"/></clipPath><g clip-path="url(#a)"><path clip-rule="evenodd" d="M2.083 7h1.946c.089-1.546.383-2.97.837-4.118A6.004 6.004 0 0 0 2.083 7zM8 0a8 8 0 1 0 0 16A8 8 0 0 0 8 0zm0 2c-.076 0-.232.032-.465.262-.238.234-.497.623-.737 1.182-.389.907-.673 2.142-.766 3.556h3.936c-.093-1.414-.377-2.649-.766-3.556-.24-.56-.5-.948-.737-1.182C8.232 2.032 8.076 2 8 2zm3.971 5c-.089-1.546-.383-2.97-.837-4.118A6.003 6.003 0 0 1 13.917 7zM9.968 9H6.032c.093 1.414.377 2.649.766 3.556.24.56.5.948.737 1.182.233.23.389.262.465.262s.232-.032.465-.262c.238-.234.498-.623.737-1.182.389-.907.673-2.142.766-3.556zm1.166 4.118c.454-1.147.748-2.572.837-4.118h1.946a6.003 6.003 0 0 1-2.783 4.118zm-6.268 0C4.412 11.97 4.118 10.546 4.03 9H2.083a6.004 6.004 0 0 0 2.783 4.118z" fill="currentColor" fill-rule="evenodd"/></g></symbol><symbol id="double-chevron" viewBox="0 0 17 16"><path clip-rule="evenodd" d="M2.295 13.707a1 1 0 0 1 0-1.414l5.005-5a1.002 1.002 0 0 1 1.415 0l5.005 5a1 1 0 0 1-1.415 1.414L8.008 9.414 3.71 13.707a1.002 1.002 0 0 1-1.415 0zm0-6a1 1 0 0 1 0-1.414l5.005-5a1.002 1.002 0 0 1 1.415 0l5.005 5a1 1 0 0 1-1.415 1.414L8.008 3.414 3.71 7.707a1.002 1.002 0 0 1-1.415 0z" fill="currentColor" fill-rule="evenodd"/></symbol><symbol id="download" viewBox="0 0 17 16"><path clip-rule="evenodd" d="M1.001 15a1 1 0 0 1 1-1h12a1 1 0 1 1 0 2h-12a1 1 0 0 1-1-1zm3.293-7.707a1 1 0 0 1 1.414 0l1.293 1.293V1a1 1 0 0 1 2 0v7.586l1.294-1.293a1 1 0 1 1 1.414 1.414l-3 3a1 1 0 0 1-1.415 0l-3-3a1 1 0 0 1 0-1.414z" fill="currentColor" fill-rule="evenodd"/></symbol><symbol id="drag" viewBox="0 0 17 16"><path d="M11.335 11.667a1.667 1.667 0 1 1 0 3.333 1.667 1.667 0 0 1 0-3.333zm-6.667 0a1.667 1.667 0 1 1 0 3.333 1.667 1.667 0 0 1 0-3.333zm6.667-5.833a1.667 1.667 0 1 1 0 3.333 1.667 1.667 0 0 1 0-3.333zm-6.667 0a1.667 1.667 0 1 1 0 3.333 1.667 1.667 0 0 1 0-3.333zM11.335 0a1.667 1.667 0 1 1 0 3.334 1.667 1.667 0 0 1 0-3.334zM4.668 0a1.667 1.667 0 1 1 0 3.334 1.667 1.667 0 0 1 0-3.334z" fill="currentColor"/></symbol><symbol id="edit" viewBox="0 0 17 16"><path d="M12.079.697a2.282 2.282 0 1 1 3.226 3.226l-.905.905-3.226-3.226zM9.56 3.215 0 12.774V16h3.227l9.56-9.559L9.56 3.215z" fill="currentColor"/></symbol><symbol id="end" viewBox="0 0 17 16"><path d="M11.867 0c-.3 0-.589.12-.801.335a1.148 1.148 0 0 0-.333.808v13.714c0 .304.12.594.333.809a1.13 1.13 0 0 0 1.603 0c.213-.215.332-.505.332-.809V1.143c0-.303-.119-.594-.332-.808A1.13 1.13 0 0 0 11.867 0zM2.334 2.384a1.15 1.15 0 0 0 0 1.616l3.734 3.764-3.734 3.763a1.15 1.15 0 0 0 0 1.616c.442.447 1.16.447 1.603 0l4.536-4.571a1.15 1.15 0 0 0 0-1.616L3.937 2.384a1.128 1.128 0 0 0-1.603 0z" clip-rule="evenodd" fill="currentColor" fill-rule="evenodd"/></symbol><symbol id="expand-all" viewBox="0 0 17 16"><clipPath id="a"><path d="M.001 0h16v16h-16z"/></clipPath><g clip-path="url(#a)" fill="currentColor"><path d="M11.037 6a.978.978 0 0 1-.656-.25L7.678 3.3a.326.326 0 0 0-.441 0L4.634 5.737A.969.969 0 0 1 3.945 6a.977.977 0 0 1-.676-.29.929.929 0 0 1 .03-1.331L6.55 1.34a1.354 1.354 0 0 1 1.81.013l3.334 3.017a.918.918 0 0 1 .242 1.033.945.945 0 0 1-.355.434.981.981 0 0 1-.543.163zM7.021 2.708l.031.026zm.878-.025-.02.018zM8.552 15a1.318 1.318 0 0 0 .914-.367l3.237-3.016a.923.923 0 0 0 .03-1.326.982.982 0 0 0-1.365-.03L8.765 12.69a.327.327 0 0 1-.442 0l-2.7-2.44a.982.982 0 0 0-1.364.05.921.921 0 0 0 .051 1.324l3.356 3.033c.238.223.556.346.886.343zm.417-1.723.036.03zm-.836 0-.017.017z"/></g></symbol><symbol id="expand-full-screen" viewBox="0 0 20 20"><path d="M16.667 6.833V3.667m0 0h-3.334m3.334 0L12.5 7.625m-9.167-.792V3.667m0 0h3.334m-3.334 0L7.5 7.625m9.167 5.542v3.166m0 0h-3.334m3.334 0L12.5 12.375m-9.167 3.958L7.5 12.375m-4.167 3.958v-3.166m0 3.166h3.334" stroke="currentColor" stroke-width="2" stroke-linecap="round" stroke-linejoin="round"/></symbol><symbol id="expand-panel" viewBox="0 0 17 14"><path fill-rule="evenodd" clip-rule="evenodd" d="M15.002 14a1 1 0 0 1-1-1V1a1 1 0 1 1 2 0v12a1 1 0 0 1-1 1Zm-7.708-3.293a1 1 0 0 1 0-1.414L8.587 8H1.001a1 1 0 0 1 0-2h7.586L7.294 4.707a1 1 0 1 1 1.414-1.414l3 3a1 1 0 0 1 0 1.414l-3 3a1 1 0 0 1-1.414 0Z" fill="currentColor"/></symbol><symbol id="expand" viewBox="0 0 17 16"><path clip-rule="evenodd" d="M16.002.89a.889.889 0 0 0-.89-.89h-3.555a.889.889 0 0 0 0 1.778h1.41L10.04 4.705a.889.889 0 1 0 1.257 1.257l2.927-2.927v1.41a.889.889 0 0 0 1.777 0zM4.446 0H.89a.889.889 0 0 0-.889.89v3.555a.889.889 0 1 0 1.778 0v-1.41l2.927 2.927a.889.889 0 0 0 1.257-1.257L3.036 1.778h1.41a.889.889 0 0 0 0-1.778zm5.594 10.04a.889.889 0 0 0 0 1.257l2.927 2.927h-1.41a.889.889 0 0 0 0 1.777h3.556a.89.89 0 0 0 .889-.889v-3.555a.889.889 0 0 0-1.778 0v1.41l-2.927-2.928a.889.889 0 0 0-1.257 0zm-4.077 1.257a.889.889 0 0 0-1.257-1.257L1.78 12.966v-1.41a.889.889 0 0 0-1.778 0v3.556c0 .49.398.888.89.888h3.555a.889.889 0 0 0 0-1.777h-1.41z" fill="currentColor" fill-rule="evenodd"/></symbol><symbol id="expression" viewBox="0 0 16 16"><path d="M2.648 1.084A1 1 0 0 1 3.164 2.4 13.95 13.95 0 0 0 2 8c0 1.992.416 3.885 1.164 5.599a1 1 0 1 1-1.832.8A15.95 15.95 0 0 1 0 8c0-2.273.475-4.439 1.332-6.4a1 1 0 0 1 1.316-.516zM10.961 5A3 3 0 0 0 8.62 6.126l-.328.41-.111-.279A2 2 0 0 0 6.323 5H6a1 1 0 0 0 0 2h.323l.532 1.33L5.82 9.626a1 1 0 0 1-.781.375H5a1 1 0 0 0 0 2h.039a3 3 0 0 0 2.342-1.126l.328-.409.111.278A2 2 0 0 0 9.677 12H10a1 1 0 1 0 0-2h-.323l-.532-1.33 1.035-1.294A1 1 0 0 1 10.961 7H11a1 1 0 1 0 0-2zm1.874-2.6a1 1 0 0 1 1.833-.8A15.95 15.95 0 0 1 16 8c0 2.274-.475 4.44-1.332 6.4a1 1 0 1 1-1.833-.8A13.949 13.949 0 0 0 14 8c0-1.993-.416-3.886-1.165-5.6z" fill="currentColor"/></symbol><symbol id="eye-hidden" viewBox="0 0 17 16"><path fill-rule="evenodd" clip-rule="evenodd" d="M1.85 1a.88.88 0 0 1 .602.229l1.524 1.45a8.88 8.88 0 0 1 3.86-.875c3.832 0 7.075 2.395 8.165 5.696a8.152 8.152 0 0 1-2.83 3.923l1.26 1.198a.793.793 0 0 1 .24.573.794.794 0 0 1-.25.568.878.878 0 0 1-.598.238.88.88 0 0 1-.602-.228L1.241 2.379a.793.793 0 0 1-.24-.572.794.794 0 0 1 .251-.568A.878.878 0 0 1 1.85 1Zm4.248 3.696Zm0 0 1.295 1.232a1.8 1.8 0 0 1 .886.002c.29.074.554.22.766.421.212.202.365.453.443.729.078.276.079.566.002.842l1.295 1.232a3.123 3.123 0 0 0 .448-2.064 3.196 3.196 0 0 0-.975-1.892 3.494 3.494 0 0 0-1.99-.928 3.57 3.57 0 0 0-2.17.426Zm1.65 5.995L10 12.768A9.035 9.035 0 0 1 7.957 13C4.224 13 1.064 10.741.002 7.627A7.504 7.504 0 0 1 1.566 5l3.062 2.82c.051.746.396 1.45.97 1.978a3.47 3.47 0 0 0 2.15.893Z" fill="currentColor"/></symbol><symbol id="eye" viewBox="0 0 17 16"><path fill-rule="evenodd" clip-rule="evenodd" d="M8.002 2c-3.755 0-6.932 2.523-8 6 1.068 3.478 4.245 6 8 6 3.754 0 6.931-2.522 8-6-1.069-3.477-4.246-6-8-6Zm2.37 8.425A3.468 3.468 0 0 0 11.356 8c0-.909-.353-1.781-.982-2.424a3.317 3.317 0 0 0-2.371-1.004c-.89 0-1.743.361-2.372 1.004A3.468 3.468 0 0 0 4.648 8c0 .91.353 1.782.982 2.425a3.317 3.317 0 0 0 2.372 1.004c.889 0 1.742-.361 2.37-1.004ZM8.563 8.56a1.5 1.5 0 1 1-2.122-2.12 1.5 1.5 0 0 1 2.121 2.12Z" fill="currentColor"/></symbol><symbol id="failed-badge" viewBox="0 0 16 16"><path clip-rule="evenodd" d="M8 16A8 8 0 1 0 8-.001 8 8 0 0 0 8 16zM6.707 5.293a1 1 0 0 0-1.414 1.414L6.586 8 5.293 9.293a1 1 0 1 0 1.414 1.414L8 9.414l1.293 1.293a1 1 0 0 0 1.414-1.414L9.414 8l1.293-1.293a1 1 0 0 0-1.414-1.414L8 6.586z" fill="currentColor" fill-rule="evenodd"/></symbol><symbol id="failed" viewBox="0 0 16 16"><path clip-rule="evenodd" d="M8 16A8 8 0 1 0 8-.001 8 8 0 0 0 8 16zM6.707 5.293a1 1 0 0 0-1.414 1.414L6.586 8 5.293 9.293a1 1 0 1 0 1.414 1.414L8 9.414l1.293 1.293a1 1 0 0 0 1.414-1.414L9.414 8l1.293-1.293a1 1 0 0 0-1.414-1.414L8 6.586z" fill="currentColor" fill-rule="evenodd"/></symbol><symbol id="fast-foward" viewBox="0 0 16 16"><path d="M1.659 3.185a1.045 1.045 0 0 0-1.507.35C.052 3.705 0 3.9 0 4.1v8.8a1.118 1.118 0 0 0 .563.97 1.039 1.039 0 0 0 1.096-.055l5.808-3.993V12.9c0 .199.052.394.151.565.1.171.242.311.412.405a1.039 1.039 0 0 0 1.095-.055l6.4-4.4c.146-.1.266-.236.349-.396a1.127 1.127 0 0 0-.349-1.434l-6.4-4.4a1.045 1.045 0 0 0-1.507.35c-.1.17-.151.366-.151.565v3.078z" fill="currentColor"/></symbol><symbol id="favorite-filled" viewBox="0 0 17 16"><path d="M6.977.776a1.063 1.063 0 0 1 2.047 0l1.152 3.7c.07.224.207.42.39.56.184.14.405.214.632.214h3.725c1.043 0 1.476 1.394.633 2.034L12.543 9.57c-.184.14-.32.336-.391.562a1.17 1.17 0 0 0 0 .695l1.15 3.698c.324 1.035-.812 1.897-1.656 1.257l-3.013-2.286a1.045 1.045 0 0 0-1.265 0l-3.013 2.286c-.844.64-1.978-.222-1.656-1.257l1.151-3.698a1.17 1.17 0 0 0 0-.695 1.122 1.122 0 0 0-.391-.562L.447 7.285c-.843-.64-.41-2.033.632-2.033h3.725c.227 0 .448-.075.632-.215.184-.139.32-.335.391-.56L6.98.776z" fill="currentColor"/></symbol><symbol id="favorite-outline" viewBox="0 0 17 16"><path clip-rule="evenodd" d="M6.428 1.175c.488-1.565 2.66-1.568 3.147 0l1.133 3.647h3.642c.824 0 1.384.566 1.574 1.176.188.607.05 1.377-.587 1.862h-.001l-2.98 2.263 1.142 3.678a1.69 1.69 0 0 1-.587 1.863 1.61 1.61 0 0 1-1.971-.001l-2.938-2.231-2.938 2.23a1.61 1.61 0 0 1-1.972.001 1.69 1.69 0 0 1-.587-1.862l1.142-3.678L.667 7.86A1.692 1.692 0 0 1 .08 5.998c.19-.61.75-1.176 1.573-1.176h3.642zm1.574.929L6.969 5.425a1.687 1.687 0 0 1-.588.842 1.629 1.629 0 0 1-.985.333H1.947l2.824 2.145c.282.213.485.51.588.842a1.72 1.72 0 0 1 0 1.02l-1.057 3.402 2.714-2.061a1.63 1.63 0 0 1 1.971 0l2.714 2.06-1.057-3.401a1.72 1.72 0 0 1 0-1.02 1.68 1.68 0 0 1 .588-.842L14.056 6.6h-3.45a1.63 1.63 0 0 1-.984-.333 1.684 1.684 0 0 1-.588-.84zm.09 11.26c0-.001 0 0 0 0zm4.25-3.285z" fill="currentColor" fill-rule="evenodd"/></symbol><symbol id="feedback" viewBox="0 0 16 16"><clipPath id="a"><path d="M0 0h16v16H0z"/></clipPath><g clip-path="url(#a)"><path clip-rule="evenodd" d="M16 1a1 1 0 0 0-1.447-.895L6.763 4H3a3 3 0 1 0 0 6h.28l1.771 5.316A1 1 0 0 0 6 16h1a1 1 0 0 0 1-1v-4.382l6.553 3.276A1 1 0 0 0 16 13z" fill="currentColor" fill-rule="evenodd"/></g></symbol><symbol id="filter-outline" viewBox="0 0 16 16"><path clip-rule="evenodd" d="M3.049 2.087v1.657l4.2 4.889c.298.348.447.793.447 1.233v2.314l.608-.707V9.866c0-.44.149-.885.448-1.233l4.2-4.89V2.088zM1.448.583A1.637 1.637 0 0 1 2.688 0h10.624c.495 0 .937.23 1.24.583.3.348.448.794.448 1.234v1.999c0 .44-.149.885-.448 1.233l-4.2 4.89v1.926c0 .253-.09.497-.253.687l-2.656 3.092c-.281.327-.732.443-1.131.29s-.664-.542-.664-.977V9.938l-4.2-4.889A1.897 1.897 0 0 1 1 3.816v-2c0-.44.149-.885.448-1.233z" fill="currentColor" fill-rule="evenodd"/></symbol><symbol id="filter" viewBox="0 0 16 16"><path clip-rule="evenodd" d="M1 1a1 1 0 0 1 1-1h12a1 1 0 0 1 1 1v3a1 1 0 0 1-.293.707L10 9.414V13a1 1 0 0 1-.293.707l-2 2A1 1 0 0 1 6 15V9.414L1.293 4.707A1 1 0 0 1 1 4z" fill="currentColor" fill-rule="evenodd"/></symbol><symbol id="flagged" viewBox="0 0 17 16"><path clip-rule="evenodd" d="M1.001 4a3 3 0 0 1 3-3h10a1 1 0 0 1 .8 1.6L12.252 6l2.55 3.4a1 1 0 0 1-.8 1.6h-10a1 1 0 0 0-1 1v3a1 1 0 1 1-2 0z" fill="currentColor" fill-rule="evenodd"/></symbol><symbol id="free-text" viewBox="0 0 16 16"><path d="M12.077.697a2.282 2.282 0 1 1 3.226 3.226l-.904.905L11.172 1.6zM9.56 3.214 0 12.774V16h3.226l9.56-9.56-3.228-3.226z" fill="currentColor"/></symbol><symbol id="globe" viewBox="0 0 16 16"><path clip-rule="evenodd" d="M8 16A8 8 0 1 0 8 0a8 8 0 0 0 0 16zM2.332 6.027a6.012 6.012 0 0 1 1.912-2.706C4.512 3.73 4.974 4 5.5 4A1.5 1.5 0 0 1 7 5.5V6a2 2 0 0 0 4 0 2 2 0 0 1 1.523-1.943A5.977 5.977 0 0 1 14 8c0 .34-.028.675-.083 1H13a2 2 0 0 0-2 2v2.197A5.973 5.973 0 0 1 8 14v-2a2 2 0 0 0-2-2 2 2 0 0 1-2-2 2 2 0 0 0-1.668-1.973z" fill="currentColor" fill-rule="evenodd"/></symbol><symbol id="group-boxes" viewBox="0 0 17 16"><path clip-rule="evenodd" d="M10.214 5.786V2.925c.468-.272.786-.773.786-1.354A1.565 1.565 0 0 0 8.075.786h-5.15A1.564 1.564 0 0 0 1.57 0a1.565 1.565 0 0 0-.784 2.925v5.15A1.565 1.565 0 0 0 0 9.429a1.565 1.565 0 0 0 2.925.785h2.86v2.86A1.565 1.565 0 0 0 5 14.43a1.565 1.565 0 0 0 2.925.784h5.15c.272.468.773.786 1.353.786a1.565 1.565 0 0 0 .786-2.925v-5.15c.468-.272.786-.773.786-1.354a1.565 1.565 0 0 0-2.925-.785zm0 1.571v.718c.468.272.786.773.786 1.354C11 10.297 10.296 11 9.428 11c-.58 0-1.08-.318-1.353-.786h-.718v2.861c.235.137.431.332.568.568h5.15c.137-.236.332-.431.568-.568v-5.15a1.568 1.568 0 0 1-.568-.568zm-1.571 0v.718a1.567 1.567 0 0 0-.568.568h-.718v-.718c.235-.137.431-.333.568-.568zm0-1.571h-.718A1.564 1.564 0 0 0 6.57 5a1.565 1.565 0 0 0-.784 2.925v.718H2.925a1.566 1.566 0 0 0-.568-.568v-5.15c.235-.137.431-.333.568-.568h5.15c.137.235.332.431.568.568zm.786-3.822a.393.393 0 1 0-.001-.786.393.393 0 0 0 0 .786zm-7.465-.393a.393.393 0 1 0-.786.001.393.393 0 0 0 .786 0zm-.393 7.465a.393.393 0 1 0 .001.786.393.393 0 0 0 0-.786zm7.465.393a.393.393 0 1 0 .786-.001.393.393 0 0 0-.786 0zm5.393-2.465a.393.393 0 1 0-.002-.786.393.393 0 0 0 .002.786zm-7.465-.393a.393.393 0 1 0-.786.001.393.393 0 0 0 .786 0zm-.393 7.465a.393.393 0 1 0 .002.786.393.393 0 0 0-.002-.786zm7.465.393a.393.393 0 1 0 .786-.002.393.393 0 0 0-.786.002z" fill="currentColor" fill-rule="evenodd"/></symbol><symbol id="help" viewBox="0 0 16 16"><clipPath id="a"><path d="M0 0h16v16H0z"/></clipPath><g clip-path="url(#a)"><path clip-rule="evenodd" d="M16 8A8 8 0 1 1-.001 8 8 8 0 0 1 16 8zM8 5a1 1 0 0 0-.867.5 1 1 0 1 1-1.731-1A3 3 0 1 1 9 8.83V9a1 1 0 0 1-2 0V8a1 1 0 0 1 1-1 1 1 0 0 0 0-2zm0 8a1 1 0 1 0 0-2 1 1 0 0 0 0 2z" fill="currentColor" fill-rule="evenodd"/></g></symbol><symbol id="hidden" viewBox="0 0 17 16"><path clip-rule="evenodd" d="M1.85 1a.88.88 0 0 1 .602.229l1.524 1.45a8.88 8.88 0 0 1 3.86-.875c3.832 0 7.075 2.395 8.165 5.696a8.152 8.152 0 0 1-2.83 3.923l1.26 1.198a.793.793 0 0 1 .24.573.794.794 0 0 1-.25.568.878.878 0 0 1-.598.238.88.88 0 0 1-.602-.228L1.241 2.379a.793.793 0 0 1-.24-.572.794.794 0 0 1 .251-.568A.878.878 0 0 1 1.85 1zm4.248 3.696zm0 0 1.295 1.232a1.8 1.8 0 0 1 .886.002c.29.074.554.22.766.421.212.202.365.453.443.729.078.276.079.566.002.842l1.295 1.232a3.123 3.123 0 0 0 .448-2.064 3.196 3.196 0 0 0-.975-1.892 3.494 3.494 0 0 0-1.99-.928 3.57 3.57 0 0 0-2.17.426zm1.65 5.995L10 12.768A9.035 9.035 0 0 1 7.957 13C4.224 13 1.064 10.741.002 7.627A7.504 7.504 0 0 1 1.566 5l3.062 2.82c.051.746.396 1.45.97 1.978a3.47 3.47 0 0 0 2.15.893z" fill="currentColor" fill-rule="evenodd"/></symbol><symbol id="home" viewBox="0 0 16 16"><path d="M8.707.293a1 1 0 0 0-1.414 0l-7 7a1 1 0 0 0 1.414 1.414L2 8.414V15a1 1 0 0 0 1 1h2a1 1 0 0 0 1-1v-2a1 1 0 0 1 1-1h2a1 1 0 0 1 1 1v2a1 1 0 0 0 1 1h2a1 1 0 0 0 1-1V8.414l.293.293a1 1 0 1 0 1.414-1.414z" fill="currentColor"/></symbol><symbol id="important-badge" viewBox="0 0 16 16"><path clip-rule="evenodd" d="M16 8A8 8 0 1 1 0 8a8 8 0 0 1 16 0zm-7 4a1 1 0 1 1-2 0 1 1 0 0 1 2 0zM8 3a1 1 0 0 0-1 1v4a1 1 0 0 0 2 0V4a1 1 0 0 0-1-1z" fill="currentColor" fill-rule="evenodd"/></symbol><symbol id="inbox-1" viewBox="0 0 17 16"><path d="M12.201 13.425a1.575 1.575 0 0 1-1.467 1.572l-.108.003h-5.25a1.575 1.575 0 0 1-1.571-1.467l-.004-.108V2.575A1.575 1.575 0 0 1 5.27 1.004L5.376 1h5.25a1.575 1.575 0 0 1 1.572 1.468l.003.107zm.7-10.325h.525a1.575 1.575 0 0 1 1.572 1.468l.003.107v6.65a1.575 1.575 0 0 1-1.467 1.572l-.108.003h-.525zm-9.8 9.8h-.525a1.575 1.575 0 0 1-1.571-1.467l-.004-.108v-6.65A1.575 1.575 0 0 1 2.47 3.104l.107-.004h.525z" fill="currentColor"/></symbol><symbol id="inbox" viewBox="0 0 16 16"><g fill="currentColor"><path clip-rule="evenodd" d="M1 3a2 2 0 0 1 2-2h1a1 1 0 0 1 0 2H3v10h10V3h-1a1 1 0 1 1 0-2h1a2 2 0 0 1 2 2v10a2 2 0 0 1-2 2H3a2 2 0 0 1-2-2z" fill-rule="evenodd"/><path d="M2 10h3l1 2h4l1-2h3v4H2zm3.293-4.707a1 1 0 0 1 1.414 0L7 5.586V1a1 1 0 1 1 2 0v4.586l.293-.293a1 1 0 0 1 1.414 1.414l-2 2a1 1 0 0 1-1.414 0l-2-2a1 1 0 0 1 0-1.414z"/></g></symbol><symbol id="information" viewBox="0 0 16 16"><path clip-rule="evenodd" d="M8 1.778a6.222 6.222 0 1 0 0 12.444A6.222 6.222 0 0 0 8 1.778zm-5.657.565a8 8 0 1 1 11.314 11.314A8 8 0 0 1 2.343 2.343zm4.768 2.694A.89.89 0 0 1 8 4.148h.006a.89.89 0 0 1 .89.889v.006a.89.89 0 0 1-.89.89H8a.889.889 0 0 1-.889-.89zm.196 3.254-.449 1.799a1.484 1.484 0 0 0 1.28 1.833c.282.03.566-.022.82-.148l.04-.02a.889.889 0 0 0-.305-1.675l.45-1.8a1.484 1.484 0 0 0-1.282-1.83 1.48 1.48 0 0 0-.815.145l-.03.015a.889.889 0 0 0 .29 1.682z" fill="currentColor" fill-rule="evenodd"/></symbol><symbol id="insights" viewBox="0 0 16 16"><path clip-rule="evenodd" d="M1 1a1 1 0 0 0 0 2v8a2 2 0 0 0 2 2h2.586l-1.293 1.293a1 1 0 1 0 1.414 1.414L8 13.414l2.293 2.293a1 1 0 0 0 1.414-1.414L10.414 13H13a2 2 0 0 0 2-2V3a1 1 0 1 0 0-2zm11.707 4.707a1 1 0 0 0-1.414-1.414L8 7.586 6.707 6.293a1 1 0 0 0-1.414 0l-2 2a1 1 0 0 0 1.414 1.414L6 8.414l1.293 1.293a1 1 0 0 0 1.414 0z" fill="currentColor" fill-rule="evenodd"/></symbol><symbol id="interaction" viewBox="0 0 16 16"><path d="M5.23.705a.95.95 0 0 0-1.836.492l.246.918a.95.95 0 0 0 1.836-.492zM1.197 3.394A.95.95 0 1 0 .705 5.23l.918.246a.95.95 0 0 0 .492-1.836zm8.379-.541A.95.95 0 1 0 8.23 1.51l-.672.672a.95.95 0 1 0 1.345 1.345zM2.853 9.576l.673-.672A.95.95 0 0 0 2.18 7.559l-.672.672a.95.95 0 0 0 1.344 1.345zM5.896 4.66A.95.95 0 0 0 4.66 5.896l3.803 9.506a.95.95 0 0 0 1.732.072l1.312-2.622 2.87 2.87a.95.95 0 1 0 1.344-1.345l-2.87-2.87 2.623-1.311a.95.95 0 0 0-.072-1.734z" fill="currentColor"/></symbol><symbol id="key" viewBox="0 0 16 16"><path clip-rule="evenodd" d="M16 6a6 6 0 0 1-7.743 5.743L6 14H4v2H0v-4l4.257-4.257A6 6 0 1 1 16 6zm-6-4a1 1 0 1 0 0 2 2 2 0 0 1 2 2 1 1 0 1 0 2 0 4 4 0 0 0-4-4z" fill="currentColor" fill-rule="evenodd"/></symbol><symbol id="layers" viewBox="0 0 16 17"><path d="m9.418.388 5.731 3.869a.908.908 0 0 1 .4.758.92.92 0 0 1-.4.76l-5.73 3.869a2.23 2.23 0 0 1-2.498 0l-5.73-3.87a.908.908 0 0 1-.402-.759.921.921 0 0 1 .401-.758L6.92.387a2.23 2.23 0 0 1 2.498 0zm5.978 7.994c-.134.217-.31.402-.52.545L9.43 12.651a2.23 2.23 0 0 1-2.519 0L1.463 8.927a1.821 1.821 0 0 1-.698-.924 1.846 1.846 0 0 1-.003-1.164l6.159 4.158a2.231 2.231 0 0 0 2.352.09l.144-.09 6.16-4.158a1.842 1.842 0 0 1-.181 1.543zm0 2.963c-.134.217-.31.403-.52.546L9.43 15.615a2.23 2.23 0 0 1-2.519 0L1.463 11.89a1.822 1.822 0 0 1-.698-.925 1.846 1.846 0 0 1-.003-1.163L6.92 13.96a2.231 2.231 0 0 0 2.352.089l.144-.09 6.16-4.157a1.842 1.842 0 0 1-.181 1.542z" fill="currentColor"/></symbol><symbol id="light-mode" viewBox="0 0 16 16"><path clip-rule="evenodd" d="M8 0a1 1 0 0 1 1 1v1a1 1 0 0 1-2 0V1a1 1 0 0 1 1-1zm4 8a4 4 0 1 1-8 0 4 4 0 0 1 8 0zm-.464 4.95.707.707a1 1 0 0 0 1.414-1.414l-.707-.707a1 1 0 0 0-1.414 1.414zm2.12-10.607a1 1 0 0 1 0 1.414l-.706.707a1 1 0 1 1-1.414-1.414l.707-.707a1 1 0 0 1 1.414 0zM15 9a1 1 0 1 0 0-2h-1a1 1 0 1 0 0 2zm-7 4a1 1 0 0 1 1 1v1a1 1 0 1 1-2 0v-1a1 1 0 0 1 1-1zM3.05 4.464A1 1 0 0 0 4.465 3.05l-.708-.707a1 1 0 0 0-1.414 1.414zm1.414 8.486-.707.707a1 1 0 0 1-1.414-1.414l.707-.707a1 1 0 0 1 1.414 1.414zM2 9a1 1 0 0 0 0-2H1a1 1 0 0 0 0 2z" fill="currentColor" fill-rule="evenodd"/></symbol><symbol id="lightbulb" viewBox="0 0 16 16"><path d="M9 1a1 1 0 1 0-2 0v1a1 1 0 1 0 2 0zm4.657 2.757a1 1 0 0 0-1.414-1.414l-.707.707a1 1 0 0 0 1.414 1.414zM16 8a1 1 0 0 1-1 1h-1a1 1 0 1 1 0-2h1a1 1 0 0 1 1 1zM3.05 4.464A1 1 0 1 0 4.464 3.05l-.707-.707a1 1 0 0 0-1.414 1.414zM3 8a1 1 0 0 1-1 1H1a1 1 0 0 1 0-2h1a1 1 0 0 1 1 1zm3 6v-1h4v1a2 2 0 1 1-4 0zm4-2c.015-.34.208-.646.477-.859a4 4 0 1 0-4.954 0c.27.213.462.519.476.859z" fill="currentColor"/></symbol><symbol id="link" viewBox="0 0 17 16"><g fill="currentColor"><path d="M10.264 3.263a1.75 1.75 0 0 1 2.475 2.475l-2.625 2.625a1.75 1.75 0 0 1-2.475 0A.875.875 0 0 0 6.402 9.6a3.5 3.5 0 0 0 4.95 0l2.624-2.625a3.5 3.5 0 0 0-4.95-4.95L7.715 3.339a.875.875 0 1 0 1.238 1.237z"/><path d="M5.889 7.638a1.75 1.75 0 0 1 2.475 0A.875.875 0 1 0 9.6 6.4a3.5 3.5 0 0 0-4.95 0L2.028 9.026a3.5 3.5 0 0 0 4.95 4.95l1.312-1.313a.875.875 0 0 0-1.238-1.238L5.74 12.738a1.75 1.75 0 0 1-2.475-2.475z"/></g></symbol><symbol id="location" viewBox="0 0 16 16"><path clip-rule="evenodd" d="M2.904 1.941C4.123.698 5.776 0 7.5 0s3.377.698 4.596 1.941C13.316 3.184 14 4.87 14 6.627s-.685 3.444-1.904 4.687L7.5 16l-4.596-4.686a6.637 6.637 0 0 1-1.41-2.15 6.74 6.74 0 0 1 0-5.073 6.637 6.637 0 0 1 1.41-2.15zM7.5 8.521c.493 0 .965-.2 1.313-.555s.544-.836.544-1.339c0-.502-.196-.983-.544-1.338A1.84 1.84 0 0 0 7.5 4.734c-.492 0-.965.2-1.313.555a1.912 1.912 0 0 0-.544 1.338c0 .503.196.984.544 1.34s.82.554 1.313.554z" fill="currentColor" fill-rule="evenodd"/></symbol><symbol id="lock" viewBox="0 0 17 16"><path clip-rule="evenodd" d="M3.001 7V5a5 5 0 0 1 10 0v2a2 2 0 0 1 2 2v5a2 2 0 0 1-2 2h-10a2 2 0 0 1-2-2V9a2 2 0 0 1 2-2zm8-2v2h-6V5a3 3 0 0 1 6 0z" fill="currentColor" fill-rule="evenodd"/></symbol><symbol id="logout" viewBox="0 0 16 16"><path clip-rule="evenodd" d="M7.276 1.927A3.31 3.31 0 0 1 9.58 1h3.16a3.31 3.31 0 0 1 2.305.927c.612.593.955 1.398.955 2.237v7.672c0 .839-.343 1.644-.955 2.237a3.31 3.31 0 0 1-2.304.927H9.58a3.31 3.31 0 0 1-2.305-.927 3.118 3.118 0 0 1-.955-2.237v-.768c0-.476.398-.862.889-.862s.889.386.889.863v.767c0 .381.156.747.434 1.017.278.27.654.421 1.047.421h3.16c.394 0 .77-.152 1.048-.421.278-.27.434-.636.434-1.017V4.164c0-.381-.156-.747-.434-1.017a1.504 1.504 0 0 0-1.047-.421H9.58c-.394 0-.77.152-1.048.421-.278.27-.434.636-.434 1.017v.768c0 .476-.398.863-.89.863s-.888-.387-.888-.863v-.768c0-.839.343-1.644.955-2.237zM4.678 4.32a.845.845 0 0 1 0 1.22L3.035 7.138h8.916c.49 0 .888.386.888.863s-.398.863-.888.863H3.035l1.643 1.595a.845.845 0 0 1 0 1.22.908.908 0 0 1-1.257 0L.26 8.61a.847.847 0 0 1 0-1.22l3.16-3.07a.908.908 0 0 1 1.258 0z" fill="currentColor" fill-rule="evenodd"/></symbol><symbol id="looping-off" viewBox="0 0 16 16"><clipPath id="a"><path d="M0 0h16v16H0z"/></clipPath><mask id="b" height="16" maskUnits="userSpaceOnUse" width="16" x="0" y="0"><path d="M2.828 0 16 13.172V0zM16 16 0 0v16z" fill="currentColor"/></mask><g clip-path="url(#a)" stroke="currentColor" stroke-linecap="round" stroke-width="2"><g mask="url(#b)"><path d="M9 12H5.5a3.5 3.5 0 1 1 0-7h6a3.5 3.5 0 0 1 .469 6.969"/><path d="m7 14 1.823-1.823a.25.25 0 0 0 0-.354L7 10"/></g><path d="m3 1 12 12" stroke-linejoin="round" stroke-miterlimit="2.166"/></g></symbol><symbol id="looping" viewBox="0 0 16 16"><g stroke="currentColor" stroke-linecap="round" stroke-width="2"><path d="M9 12H5.5a3.5 3.5 0 1 1 0-7h6a3.5 3.5 0 1 1 0 7"/><path d="m7 14 1.823-1.823a.25.25 0 0 0 0-.354L7 10"/></g></symbol><symbol id="mail" viewBox="0 0 16 16"><g fill="currentColor"><path d="M.003 3.884 8 7.882l7.997-3.998A2 2 0 0 0 14 2H2A2 2 0 0 0 .003 3.884z"/><path d="m16 6.118-8 4-8-4V12a2 2 0 0 0 2 2h12a2 2 0 0 0 2-2z"/></g></symbol><symbol id="maintenance" viewBox="0 0 17 16"><path d="M11.803 0c-.66 0-1.31.154-1.899.449A4.184 4.184 0 0 0 8.416 1.7a4.11 4.11 0 0 0-.613 3.71L.559 12.826A1.851 1.851 0 0 0 0 14.156a1.837 1.837 0 0 0 .571 1.323 1.875 1.875 0 0 0 1.356.52 1.888 1.888 0 0 0 1.323-.597l7.163-7.332c.726.253 1.51.303 2.263.145.753-.158 1.448-.519 2.008-1.042s.964-1.19 1.167-1.924a4.11 4.11 0 0 0-.015-2.245.593.593 0 0 0-.426-.41.605.605 0 0 0-.573.155L12.29 5.266l-1.646-1.63 2.525-2.5a.592.592 0 0 0 .156-.571.592.592 0 0 0-.422-.42 4.235 4.235 0 0 0-1.1-.145z" fill="currentColor"/></symbol><symbol id="map-drives" viewBox="0 0 17 16"><path d="M.999 2.8a1.8 1.8 0 0 1 1.8-1.8h12.4a1.8 1.8 0 0 1 1.8 1.8v4a.6.6 0 0 1-.6.6h-6.8V9h.8a.6.6 0 0 1 .6.6v1.804h1.4a.6.6 0 0 1 .6.6v.596h3.4a.6.6 0 1 1 0 1.2h-3.4v1.002a.6.6 0 0 1-.6.6h-6.8a.6.6 0 0 1-.6-.6V13.8h-3.4a.6.6 0 1 1 0-1.2h3.4v-.596a.6.6 0 0 1 .6-.6H7V9.6a.6.6 0 0 1 .6-.6h.8V7.4H1.6a.6.6 0 0 1-.6-.6zM13.797 5a.802.802 0 1 0 0-1.604.802.802 0 0 0 0 1.604z" fill="currentColor"/></symbol><symbol id="menu" viewBox="0 0 16 16"><path clip-rule="evenodd" d="M0 2.167c0-.31.12-.606.335-.825S.84 1 1.143 1h13.714c.303 0 .594.123.808.342.215.218.335.515.335.825s-.12.606-.335.825a1.131 1.131 0 0 1-.808.341H1.143c-.303 0-.594-.123-.808-.341A1.18 1.18 0 0 1 0 2.167zM0 8c0-.31.12-.606.335-.825s.505-.342.808-.342h13.714c.303 0 .594.123.808.342a1.18 1.18 0 0 1 0 1.65 1.131 1.131 0 0 1-.808.342H1.143c-.303 0-.594-.123-.808-.342S0 8.309 0 8zm0 5.833c0-.31.12-.606.335-.825s.505-.341.808-.341h13.714c.303 0 .594.123.808.341a1.18 1.18 0 0 1 0 1.65 1.131 1.131 0 0 1-.808.342H1.143c-.303 0-.594-.123-.808-.342S0 14.143 0 13.833z" fill="currentColor" fill-rule="evenodd"/></symbol><symbol id="minimize" viewBox="0 0 17 16"><path d="M5.085 1v3.834a.25.25 0 0 1-.25.25H1M10.918 1v3.834c0 .138.112.25.25.25h3.833m0 5.833h-3.833a.25.25 0 0 0-.25.25V15m-5.833 0v-3.833a.25.25 0 0 0-.25-.25H1" stroke="currentColor" stroke-linecap="round" stroke-width="2"/></symbol><symbol id="minus-badge" viewBox="0 0 16 16"><path clip-rule="evenodd" d="M8 16A8 8 0 1 0 8 0a8 8 0 0 0 0 16zM5 7a1 1 0 0 0 0 2h6a1 1 0 1 0 0-2z" fill="currentColor" fill-rule="evenodd"/></symbol><symbol id="minus" viewBox="0 0 17 16"><path clip-rule="evenodd" d="M.002 8c0-.265.12-.52.334-.707A1.23 1.23 0 0 1 1.144 7H14.86c.303 0 .594.106.808.293.214.188.335.442.335.707s-.12.52-.335.707A1.23 1.23 0 0 1 14.86 9H1.144a1.23 1.23 0 0 1-.808-.293A.941.941 0 0 1 .002 8z" fill="currentColor" fill-rule="evenodd"/></symbol><symbol id="navigate-back" viewBox="0 0 17 16"><path clip-rule="evenodd" d="M5.709 12.707a1 1 0 0 1-1.415 0l-4-4a1 1 0 0 1 0-1.414l4-4A1 1 0 1 1 5.71 4.707L3.416 7H15a1 1 0 1 1 0 2H3.416l2.293 2.293a1 1 0 0 1 0 1.415z" fill="currentColor" fill-rule="evenodd"/></symbol><symbol id="navigate-to" viewBox="0 0 17 16"><path clip-rule="evenodd" d="M10.294 3.293a1 1 0 0 1 1.415 0l4 4a1 1 0 0 1 0 1.414l-4 4a1 1 0 0 1-1.415-1.414L12.587 9H1.001a1 1 0 1 1 0-2h11.586l-2.293-2.293a1 1 0 0 1 0-1.414z" fill="currentColor" fill-rule="evenodd"/></symbol><symbol id="notification" viewBox="0 0 20 20"><path d="M10 2a6 6 0 0 0-6 6v3.586l-.707.707A1 1 0 0 0 4 14h12a1 1 0 0 0 .707-1.707L16 11.586V8a6 6 0 0 0-6-6Zm0 16a3 3 0 0 1-3-3h6a3 3 0 0 1-3 3Z" fill="currentColor"/></symbol><symbol id="notifications" viewBox="0 0 16 16"><path d="M8 0a6 6 0 0 0-6 6v3.586l-.707.707A1 1 0 0 0 2 12h12a1 1 0 0 0 .707-1.707L14 9.586V6a6 6 0 0 0-6-6zm0 16a3 3 0 0 1-3-3h6a3 3 0 0 1-3 3z" fill="currentColor"/></symbol><symbol id="obstacle" viewBox="0 0 16 16"><path d="M7.355 0a1 1 0 0 0-.972.764C5.83 3.038 5.155 5.524 4.475 8H8.6a.6.6 0 1 1 0 1.2H4.145l-.44 1.6H9.4a.6.6 0 1 1 0 1.2H3.378c-.26.958-.512 1.896-.746 2.8H.6a.6.6 0 1 0 0 1.2h14.8a.6.6 0 0 0 0-1.2h-2.032L9.618.742A1 1 0 0 0 8.653 0z" fill="currentColor"/></symbol><symbol id="open-external-link" viewBox="0 0 17 16"><path clip-rule="evenodd" d="M4.421 4.037c.009-.3.137-.593.355-.811.219-.22.51-.347.812-.356l6.415-.184c.3-.009.585.102.792.309.206.206.317.491.309.792l-.185 6.415a1.205 1.205 0 0 1-.362.799c-.218.214-.507.34-.804.348-.297.008-.58-.1-.785-.302s-.32-.483-.317-.78l.106-3.677L4.5 12.848c-.219.219-.51.347-.811.355a1.07 1.07 0 0 1-.793-.309 1.071 1.071 0 0 1-.309-.792c.009-.3.137-.593.355-.812L9.2 5.032l-3.678.106a1.07 1.07 0 0 1-.792-.309 1.071 1.071 0 0 1-.309-.792z" fill="currentColor" fill-rule="evenodd"/></symbol><symbol id="organization" viewBox="0 0 16 16"><path clip-rule="evenodd" d="M2 2a2 2 0 0 1 2-2h8a2 2 0 0 1 2 2v12a1 1 0 1 1 0 2h-3a1 1 0 0 1-1-1v-2a1 1 0 0 0-1-1H7a1 1 0 0 0-1 1v2a1 1 0 0 1-1 1H2a1 1 0 1 1 0-2zm3 1h2v2H5zm2 4H5v2h2zm2-4h2v2H9zm2 4H9v2h2z" fill="currentColor" fill-rule="evenodd"/></symbol><symbol id="pan" viewBox="0 0 17 16"><path d="M7.002 1a1 1 0 1 1 2 0v5.5a.5.5 0 1 0 1 0V2a1 1 0 1 1 2 0v4.5a.5.5 0 0 0 1 0V4a1 1 0 1 1 2 0v5a7 7 0 1 1-14 0V7a1 1 0 1 1 2 0v2.5a.5.5 0 1 0 1 0V2a1 1 0 1 1 2 0v4.5a.5.5 0 1 0 1 0z" fill="currentColor"/></symbol><symbol id="passed-or-success" viewBox="0 0 16 16"><path clip-rule="evenodd" d="M8 16A8 8 0 1 0 8-.001 8 8 0 0 0 8 16zm3.707-9.293a1 1 0 0 0-1.414-1.414L7 8.586 5.707 7.293a1 1 0 0 0-1.414 1.414l2 2a1 1 0 0 0 1.414 0z" fill="currentColor" fill-rule="evenodd"/></symbol><symbol id="picture-in-picture" viewBox="0 0 16 16"><path d="M13.09 8.083c0-.414-.357-.75-.8-.75H8.074c-.442 0-.8.336-.8.75v2.5c0 .414.358.75.8.75h4.218c.442 0 .8-.336.8-.75zM16 12.667V3.32C16 2.587 15.346 2 14.546 2H1.455C.655 2 0 2.587 0 3.32v9.347C0 13.4.655 14 1.455 14h13.09c.8 0 1.455-.6 1.455-1.333zm-1.454-.487a.5.5 0 0 1-.5.5H1.955a.5.5 0 0 1-.5-.5V3.813a.5.5 0 0 1 .5-.5h12.09a.5.5 0 0 1 .5.5z" fill="currentColor"/></symbol><symbol id="pie-chart" viewBox="0 0 16 16"><g fill="currentColor"><path d="M0 8a8 8 0 0 1 8-8v8h8A8 8 0 1 1 0 8z"/><path d="M10 .252A8.014 8.014 0 0 1 15.748 6H10z"/></g></symbol><symbol id="pinned-1" viewBox="0 0 17 16"><path d="M7.686.337c.547.548.403 1.66-.265 2.91l2.962 2.471c1.36-.78 2.545-.996 3.094-.446.765.766.043 2.773-1.62 4.763l3.77 3.775c.5.501.5 1.314 0 1.815a1.28 1.28 0 0 1-1.812 0l-3.769-3.774c-1.99 1.67-3.998 2.397-4.765 1.629-.551-.552-.331-1.747.456-3.115L3.278 7.413c-1.262.685-2.388.837-2.94.284-.887-.888.04-3.255 2.07-5.287C4.436.378 6.8-.55 7.685.337z" fill="currentColor"/></symbol><symbol id="pinned" viewBox="0 0 16 16"><path d="M6.976.728c.323-.97 1.725-.97 2.047 0l1.151 3.467c.07.211.207.395.39.526.185.13.406.2.632.201h3.726c1.043 0 1.475 1.306.633 1.907L12.542 8.97c-.184.13-.321.315-.392.527-.07.211-.07.439 0 .65l1.151 3.468c.323.97-.812 1.778-1.657 1.178L8.631 12.65a1.092 1.092 0 0 0-1.264 0l-3.014 2.143c-.843.6-1.977-.208-1.656-1.178L3.85 10.15c.07-.212.07-.44 0-.651a1.055 1.055 0 0 0-.392-.527L.445 6.83c-.843-.6-.409-1.907.633-1.907h3.724c.227 0 .449-.07.632-.2a1.06 1.06 0 0 0 .392-.527L6.977.73z" fill="currentColor"/></symbol><symbol id="placeholder" viewBox="0 0 16 16"><path d="M14.775 3.744a8.042 8.042 0 0 0-2.518-2.518l-.267.423C10.835.92 9.467.5 8 .5S5.165.921 4.01 1.65l-.267-.423a8.042 8.042 0 0 0-2.518 2.518l.423.266C.921 5.165.5 6.533.5 8s.42 2.835 1.148 3.99l-.423.267a8.042 8.042 0 0 0 2.518 2.518l.267-.423C5.165 15.08 6.533 15.5 8 15.5s2.835-.42 3.99-1.148l.267.423a8.042 8.042 0 0 0 2.518-2.518l-.423-.266C15.079 10.835 15.5 9.468 15.5 8s-.42-2.836-1.148-3.991z" fill="currentColor" fill-opacity=".1" stroke="currentColor" stroke-dasharray="10 4"/></symbol><symbol id="plugin-store" viewBox="0 0 20 20"><path d="M10.833 15v1.667h4.5a.5.5 0 0 1 .5.5v.666a.5.5 0 0 1-.5.5h-4.5a1.667 1.667 0 0 1-1.666-1.666V15h-2.5a3.333 3.333 0 0 1-3.334-3.333V8.333h13.334v3.334A3.333 3.333 0 0 1 13.333 15h-2.5Zm2.5-10h2.5a.833.833 0 0 1 .834.833V7.5H3.333V5.833A.833.833 0 0 1 4.167 5h2.5V2.167a.5.5 0 0 1 .5-.5h.666a.5.5 0 0 1 .5.5V5h3.334V2.167a.5.5 0 0 1 .5-.5h.666a.5.5 0 0 1 .5.5V5ZM10 12.083a.833.833 0 1 0 0-1.666.833.833 0 0 0 0 1.666Z" fill="currentColor"/></symbol><symbol id="plugins" viewBox="0 0 16 16"><path d="M9.313 12.8v1.6h4.374a.5.5 0 0 1 .5.5v.6a.5.5 0 0 1-.5.5H9.314c-.431 0-.845-.169-1.15-.469a1.588 1.588 0 0 1-.475-1.131v-1.6H5.25a3.276 3.276 0 0 1-2.298-.937A3.175 3.175 0 0 1 2 9.6V6.4h13v3.2c0 .849-.342 1.663-.952 2.263-.61.6-1.436.937-2.298.937zm2.437-9.6h2.438c.215 0 .422.084.574.234.152.15.238.354.238.566v1.6H2V4c0-.212.086-.416.238-.566a.819.819 0 0 1 .574-.234H5.25V.5a.5.5 0 0 1 .5-.5h.625a.5.5 0 0 1 .5.5v2.7h3.25V.5a.5.5 0 0 1 .5-.5h.625a.5.5 0 0 1 .5.5zM8.5 10a.819.819 0 0 0 .575-.234.794.794 0 0 0 0-1.132.819.819 0 0 0-1.15 0 .794.794 0 0 0 0 1.132c.153.15.36.234.575.234z" fill="currentColor"/></symbol><symbol id="plus-badge" viewBox="0 0 16 16"><path clip-rule="evenodd" d="M8 16A8 8 0 1 0 8 0a8 8 0 0 0 0 16zM9 5a1 1 0 0 0-2 0v2H5a1 1 0 1 0 0 2h2v2a1 1 0 1 0 2 0V9h2a1 1 0 1 0 0-2H9z" fill="currentColor" fill-rule="evenodd"/></symbol><symbol id="plus" viewBox="0 0 17 16"><path clip-rule="evenodd" d="M8 0a1.143 1.143 0 0 1 1.143 1.143v5.715h5.715a1.143 1.143 0 1 1 0 2.285H9.143v5.715a1.143 1.143 0 1 1-2.285 0V9.143H1.143a1.143 1.143 0 0 1 0-2.285h5.715V1.143A1.143 1.143 0 0 1 8 0z" fill="currentColor" fill-rule="evenodd"/></symbol><symbol id="priority-high" viewBox="0 0 16 16"><path d="M0 10a1 1 0 0 1 1-1h2a1 1 0 0 1 1 1v5a1 1 0 0 1-1 1H1a1 1 0 0 1-1-1v-5Zm6-4a1 1 0 0 1 1-1h2a1 1 0 0 1 1 1v9a1 1 0 0 1-1 1H7a1 1 0 0 1-1-1V6Zm6-3a1 1 0 0 1 1-1h2a1 1 0 0 1 1 1v12a1 1 0 0 1-1 1h-2a1 1 0 0 1-1-1V3Z" fill="currentColor"/></symbol><symbol id="priority-low" viewBox="0 0 16 16"><path d="M0 10a1 1 0 0 1 1-1h2a1 1 0 0 1 1 1v5a1 1 0 0 1-1 1H1a1 1 0 0 1-1-1v-5Z" fill="currentColor"/><path d="M6 6a1 1 0 0 1 1-1h2a1 1 0 0 1 1 1v9a1 1 0 0 1-1 1H7a1 1 0 0 1-1-1V6Zm6-3a1 1 0 0 1 1-1h2a1 1 0 0 1 1 1v12a1 1 0 0 1-1 1h-2a1 1 0 0 1-1-1V3Z" fill="currentColor" fill-opacity=".4"/></symbol><symbol id="priority-medium" viewBox="0 0 16 16"><path d="M0 10a1 1 0 0 1 1-1h2a1 1 0 0 1 1 1v5a1 1 0 0 1-1 1H1a1 1 0 0 1-1-1v-5Zm6-4a1 1 0 0 1 1-1h2a1 1 0 0 1 1 1v9a1 1 0 0 1-1 1H7a1 1 0 0 1-1-1V6Z" fill="currentColor"/><path d="M12 3a1 1 0 0 1 1-1h2a1 1 0 0 1 1 1v12a1 1 0 0 1-1 1h-2a1 1 0 0 1-1-1V3Z" fill="currentColor" fill-opacity=".4"/></symbol><symbol id="project" viewBox="0 0 16 16"><path d="M0 4a2 2 0 0 1 2-2h5l2 2h5a2 2 0 0 1 2 2v6a2 2 0 0 1-2 2H2a2 2 0 0 1-2-2z" fill="currentColor"/></symbol><symbol id="refresh-1" viewBox="0 0 17 17"><path d="M7.896 13.814A5.465 5.465 0 0 1 6.478 14C3.453 14 1 11.538 1 8.5S3.453 3 6.478 3s5.479 2.462 5.479 5.5v3.056M8.912 8.5l2.828 2.84c.12.119.312.119.43 0L15 8.5" stroke="currentColor" stroke-linecap="round" stroke-width="2"/></symbol><symbol id="refresh" viewBox="0 0 17 16"><path clip-rule="evenodd" d="M2.002 0a1 1 0 0 1 1 1v2.101a7.002 7.002 0 0 1 11.6 2.566 1.001 1.001 0 1 1-1.885.666A5.001 5.001 0 0 0 4.001 5h3a1 1 0 0 1 0 2h-5a1 1 0 0 1-1-1V1a1 1 0 0 1 1-1zm.008 9.057a1 1 0 0 1 1.276.61A5.002 5.002 0 0 0 12.002 11h-3a1 1 0 0 1 0-2h5a1 1 0 0 1 1 1v5a1 1 0 1 1-2 0v-2.1A7.002 7.002 0 0 1 1.4 10.332a1 1 0 0 1 .61-1.276z" fill="currentColor" fill-rule="evenodd"/></symbol><symbol id="remove-asset" viewBox="0 0 17 16"><path clip-rule="evenodd" d="M4.001 0a2 2 0 0 0-2 2v12a2 2 0 0 0 2 2h8a2 2 0 0 0 2-2V5.415A2 2 0 0 0 13.416 4L10 .586A2 2 0 0 0 8.588 0zm1 8a1 1 0 0 0 0 2h6a1 1 0 0 0 0-2z" fill="currentColor" fill-rule="evenodd"/></symbol><symbol id="reply" viewBox="0 0 17 16"><path clip-rule="evenodd" d="M5.995 2.251a.845.845 0 0 1 0 1.213L3.99 5.429h4.887c3.383 0 6.126 2.686 6.126 6v1.714a.866.866 0 0 1-.876.857.866.866 0 0 1-.874-.857V11.43c0-2.367-1.96-4.286-4.376-4.286H3.99L5.995 9.11a.845.845 0 0 1 0 1.212.888.888 0 0 1-1.237 0l-3.5-3.429a.845.845 0 0 1 0-1.212l3.5-3.429a.888.888 0 0 1 1.237 0z" fill="currentColor" fill-rule="evenodd"/></symbol><symbol id="reset" viewBox="0 0 17 16"><path d="M8.105 12.814c.452.122.928.186 1.418.186 3.026 0 5.478-2.462 5.478-5.5 0-3.037-2.452-5.5-5.478-5.5-3.025 0-5.478 2.463-5.478 5.5v3.056M7.088 7.5 4.26 10.34a.304.304 0 0 1-.43 0L1 7.5" stroke="currentColor" stroke-linecap="round" stroke-width="2"/></symbol><symbol id="retry" viewBox="0 0 17 16"><path d="M13.002 9.522c0 3.026-2.463 5.478-5.5 5.478-3.038 0-5.5-2.452-5.5-5.478 0-3.025 2.462-5.478 5.5-5.478h3.055M7.501 7.087l2.84-2.828a.304.304 0 0 0 0-.43L7.501 1" stroke="currentColor" stroke-linecap="round" stroke-width="2"/></symbol><symbol id="rewind" viewBox="0 0 16 16"><path d="M6.875 13.815a1.045 1.045 0 0 0 1.507-.35c.1-.17.151-.366.151-.565V9.822l5.808 3.993a1.044 1.044 0 0 0 1.507-.35c.1-.17.152-.366.152-.565V4.1a1.118 1.118 0 0 0-.563-.97 1.04 1.04 0 0 0-1.096.055L8.533 7.178V4.1c0-.199-.052-.394-.151-.565s-.242-.311-.412-.405a1.039 1.039 0 0 0-1.095.055l-6.4 4.4c-.146.1-.266.236-.349.396a1.127 1.127 0 0 0 0 1.038c.083.16.203.296.349.396z" fill="currentColor"/></symbol><symbol id="schedule" viewBox="0 0 16 16"><path clip-rule="evenodd" d="M8 16A8 8 0 1 0 8 0a8 8 0 0 0 0 16zM9 4a1 1 0 0 0-2 0v4a1 1 0 0 0 .293.707l2.828 2.83a1 1 0 0 0 1.415-1.416L9 7.586z" fill="currentColor" fill-rule="evenodd"/></symbol><symbol id="search" viewBox="0 0 16 16"><path clip-rule="evenodd" d="M6.005 2.002a4.003 4.003 0 1 0 0 8.007 4.003 4.003 0 0 0 0-8.007zM0 6.005a6.004 6.004 0 1 1 10.898 3.479l4.821 4.82a1 1 0 0 1-1.415 1.415l-4.82-4.82A6.004 6.004 0 0 1 0 6.006z" fill="currentColor" fill-rule="evenodd"/></symbol><symbol id="sensor" viewBox="0 0 16 16"><g fill="currentColor"><path d="M3 1a1 1 0 0 0 0 2c5.523 0 10 4.477 10 10a1 1 0 1 0 2 0C15 6.373 9.627 1 3 1z"/><path d="M2 7a1 1 0 0 1 1-1 7 7 0 0 1 7 7 1 1 0 1 1-2 0 5 5 0 0 0-5-5 1 1 0 0 1-1-1zm-1 6a2 2 0 1 1 4 0 2 2 0 0 1-4 0z"/></g></symbol><symbol id="server" viewBox="0 0 16 16"><path d="M0 3a2 2 0 0 1 2-2h12a2 2 0 0 1 2 2v2a2 2 0 0 1-2 2H2a2 2 0 0 1-2-2zm14 1a1 1 0 1 1-2 0 1 1 0 0 1 2 0zM0 11a2 2 0 0 1 2-2h12a2 2 0 0 1 2 2v2a2 2 0 0 1-2 2H2a2 2 0 0 1-2-2zm14 1a1 1 0 1 1-2 0 1 1 0 0 1 2 0z" clip-rule="evenodd" fill="currentColor" fill-rule="evenodd"/></symbol><symbol id="set-prioritiy" viewBox="0 0 17 16"><path d="M0 9a1 1 0 0 1 1-1h2a1 1 0 0 1 1 1v5a1 1 0 0 1-1 1H1a1 1 0 0 1-1-1V9Zm6-4a1 1 0 0 1 1-1h2a1 1 0 0 1 1 1v9a1 1 0 0 1-1 1H7a1 1 0 0 1-1-1V5Zm6-3a1 1 0 0 1 1-1h2a1 1 0 0 1 1 1v12a1 1 0 0 1-1 1h-2a1 1 0 0 1-1-1V2Z" fill="currentColor"/></symbol><symbol id="settings" viewBox="0 0 16 16"><path clip-rule="evenodd" d="M9.49 1.17c-.38-1.56-2.6-1.56-2.98 0a1.532 1.532 0 0 1-2.286.948c-1.372-.836-2.942.734-2.106 2.106.54.886.06 2.042-.947 2.287-1.561.379-1.561 2.6 0 2.978a1.532 1.532 0 0 1 .947 2.287c-.836 1.372.734 2.942 2.106 2.106a1.533 1.533 0 0 1 2.287.947c.379 1.561 2.6 1.561 2.978 0a1.532 1.532 0 0 1 2.287-.947c1.372.836 2.942-.734 2.106-2.106a1.533 1.533 0 0 1 .947-2.287c1.56-.379 1.56-2.6 0-2.978a1.532 1.532 0 0 1-.947-2.287c.836-1.372-.734-2.942-2.106-2.106a1.532 1.532 0 0 1-2.287-.947zM8 11a3 3 0 1 0 0-6 3 3 0 0 0 0 6z" fill="currentColor" fill-rule="evenodd"/></symbol><symbol id="shapes" viewBox="0 0 16 16"><path d="M4.5 8a3.5 3.5 0 1 0 0 7 3.5 3.5 0 0 0 0-7zm10.363-1.5-2.924-5a1.019 1.019 0 0 0-1.753 0l-2.924 5c-.39.667.098 1.5.877 1.5h5.847c.78 0 1.267-.833.877-1.5zm-.738 2.375H9.75a.875.875 0 0 0-.875.875v4.375A.875.875 0 0 0 9.75 15h4.375a.875.875 0 0 0 .875-.875V9.75a.875.875 0 0 0-.875-.875z" fill="currentColor"/></symbol><symbol id="share" viewBox="0 0 17 16"><path d="M13 6a3 3 0 1 0-2.976-2.63l-4.94 2.47a3 3 0 1 0 0 4.32l4.94 2.47a3 3 0 1 0 .895-1.79l-4.94-2.47c.03-.245.03-.494 0-.74l4.94-2.47C11.457 5.68 12.19 6 13 6z" fill="currentColor"/></symbol><symbol id="shortcut" viewBox="0 0 16 16"><path clip-rule="evenodd" d="M9.115.041c.357.117.6.46.6.848v4.444h3.428c.32 0 .612.185.76.479s.125.648-.058.92l-6 8.889a.84.84 0 0 1-.96.338.886.886 0 0 1-.6-.848v-4.444H2.858a.854.854 0 0 1-.76-.479.917.917 0 0 1 .058-.92l6-8.889a.841.841 0 0 1 .96-.338z" fill="currentColor" fill-rule="evenodd"/></symbol><symbol id="sort-ascending" viewBox="0 0 17 16"><path d="M1.002 1a1.001 1.001 0 1 0 0 2h11.009a1.001 1.001 0 1 0 0-2zm0 4a1.001 1.001 0 1 0 0 2h5.004a1.001 1.001 0 1 0 0-2zm0 4a1.001 1.001 0 1 0 0 2h4.003a1.001 1.001 0 0 0 .708-1.707A1.001 1.001 0 0 0 5.005 9zm10.008 5a1 1 0 0 0 2.002 0V8.414l1.293 1.293a1.001 1.001 0 0 0 1.415-1.414l-3.002-3a1 1 0 0 0-1.415 0l-3.002 3a1 1 0 1 0 1.415 1.414l1.294-1.293z" fill="currentColor"/></symbol><symbol id="sort-decending" viewBox="0 0 17 16"><path d="M1.002 1a1.001 1.001 0 1 0 0 2h11.009a1 1 0 1 0 0-2zm0 4a1.001 1.001 0 1 0 0 2h7.006a1.001 1.001 0 1 0 0-2zm0 4a1.001 1.001 0 1 0 0 2h4.003a1 1 0 1 0 0-2zm12.01-3a1 1 0 0 0-2.002 0v5.587l-1.294-1.293a1.002 1.002 0 0 0-1.696.71 1 1 0 0 0 .28.704l3.003 3a1.001 1.001 0 0 0 1.415 0l3.002-3a1 1 0 0 0-1.415-1.414l-1.294 1.293z" fill="currentColor"/></symbol><symbol id="soundwave" viewBox="0 0 16 16"><path d="M8 0a.889.889 0 0 1 .883.785l.006.104V15.11a.889.889 0 0 1-1.772.104l-.006-.104V.89A.889.889 0 0 1 8 0zM4.444 2.667a.889.889 0 0 1 .883.785l.006.104v8.888a.89.89 0 0 1-1.771.104l-.006-.104V3.556a.889.889 0 0 1 .888-.89zm7.112 0a.889.889 0 0 1 .882.785l.006.104v8.888a.889.889 0 0 1-1.771.104l-.006-.104V3.556a.889.889 0 0 1 .889-.89zM.889 5.333a.889.889 0 0 1 .883.785l.006.104v3.556a.889.889 0 0 1-1.772.104L0 9.778V6.222a.889.889 0 0 1 .889-.889zm14.222 0a.889.889 0 0 1 .883.785l.006.104v3.556a.89.89 0 0 1-1.772.104l-.006-.104V6.222a.889.889 0 0 1 .89-.889z" fill="currentColor"/></symbol><symbol id="status-offline" viewBox="0 0 16 16"><path d="M2.406 1.256a.899.899 0 0 0-1.257 0 .865.865 0 0 0 0 1.238L7.301 8.55a.887.887 0 0 0 .15.146l6.143 6.048a.899.899 0 0 0 1.257 0 .865.865 0 0 0 0-1.238l-.6-.59a7.786 7.786 0 0 0-.594-10.484.899.899 0 0 0-1.257 0 .865.865 0 0 0 0 1.237 6.055 6.055 0 0 1 .584 8l-1.276-1.256a4.326 4.326 0 0 0-.565-5.507c-.348-.341-.91-.341-1.257 0s-.348.896 0 1.238c.82.808.994 2.012.52 2.988l-1.77-1.743a.864.864 0 0 0-.016-.016zm-.417 5.157a.874.874 0 0 0-.63-1.07.89.89 0 0 0-1.088.619 7.788 7.788 0 0 0 2.072 7.606.899.899 0 0 0 1.257 0 .865.865 0 0 0 0-1.237 6.057 6.057 0 0 1-1.61-5.918zM5.69 9.312a.897.897 0 0 0-1.215-.32.868.868 0 0 0-.325 1.196c.19.324.427.63.707.905a.899.899 0 0 0 1.257 0 .865.865 0 0 0 0-1.237 2.635 2.635 0 0 1-.425-.544z" fill="currentColor"/></symbol><symbol id="status-online" viewBox="0 0 16 16"><path clip-rule="evenodd" d="M3.6 2.264a.91.91 0 0 1 0 1.275c-2.43 2.464-2.43 6.458 0 8.922.347.352.347.923 0 1.275s-.91.352-1.257 0c-3.124-3.168-3.124-8.304 0-11.472a.88.88 0 0 1 1.257 0zm8.8 0a.88.88 0 0 1 1.257 0c3.124 3.168 3.124 8.304 0 11.472a.88.88 0 0 1-1.257 0 .91.91 0 0 1 0-1.275c2.43-2.464 2.43-6.458 0-8.922a.91.91 0 0 1 0-1.275zm-6.286 2.55a.91.91 0 0 1 0 1.274 2.73 2.73 0 0 0 0 3.824c.348.352.348.922 0 1.274s-.91.353-1.257 0a4.551 4.551 0 0 1 0-6.373.88.88 0 0 1 1.257 0zm3.772 0a.88.88 0 0 1 1.257 0 4.551 4.551 0 0 1 0 6.373.88.88 0 0 1-1.257 0 .91.91 0 0 1 0-1.275 2.73 2.73 0 0 0 0-3.824.91.91 0 0 1 0-1.275zM8 7.098c.49 0 .889.403.889.901v.01c0 .497-.398.9-.889.9s-.889-.403-.889-.9V8c0-.498.398-.901.889-.901z" fill="currentColor" fill-rule="evenodd"/></symbol><symbol id="success-badge" viewBox="0 0 16 16"><path clip-rule="evenodd" d="M8 16A8 8 0 1 0 8-.001 8 8 0 0 0 8 16zm3.707-9.293a1 1 0 0 0-1.414-1.414L7 8.586 5.707 7.293a1 1 0 0 0-1.414 1.414l2 2a1 1 0 0 0 1.414 0z" fill="currentColor" fill-rule="evenodd"/></symbol><symbol id="success" viewBox="0 0 16 16"><path clip-rule="evenodd" d="M2 1a2 2 0 0 0-2 2v10a2 2 0 0 0 2 2h12a2 2 0 0 0 2-2V3a2 2 0 0 0-2-2zm12 12H2l4-8 3 6 2-4z" fill="currentColor" fill-rule="evenodd"/></symbol><symbol id="support" viewBox="0 0 20 20"><path fill-rule="evenodd" clip-rule="evenodd" d="M18 13V5a2 2 0 0 0-2-2H4a2 2 0 0 0-2 2v8a2 2 0 0 0 2 2h3l3 3 3-3h3a2 2 0 0 0 2-2ZM5 7a1 1 0 0 1 1-1h8a1 1 0 1 1 0 2H6a1 1 0 0 1-1-1Zm1 3a1 1 0 0 0 0 2h3a1 1 0 0 0 0-2H6Z" fill="currentColor"/></symbol><symbol id="swatch-1" viewBox="0 0 17 16"><path d="M1.72 5.776a1.147 1.147 0 0 0 0-1.622L.504 2.937A1.72 1.72 0 1 1 2.937.504L4.154 1.72a1.147 1.147 0 0 0 1.622 0 1.147 1.147 0 0 1 1.622 0l.486.487c.18.18.18.47 0 .649L2.856 7.884c-.18.18-.47.18-.649 0l-.487-.486a1.147 1.147 0 0 1 0-1.622ZM5.526 7.96a.573.573 0 0 1 0-.812l1.622-1.622a.574.574 0 0 1 .811 0l6.083 6.083c.367.367.573.865.573 1.384v.24c0 .366.146.717.404.975l.813.813a.574.574 0 0 1-.811.811l-.813-.813a1.378 1.378 0 0 0-.974-.403h-.24c-.52 0-1.018-.207-1.385-.574L5.526 7.959Z" fill="currentColor"/></symbol><symbol id="swatch" viewBox="0 0 17 16"><g fill="currentColor"><path clip-rule="evenodd" d="M2.002 0a2 2 0 0 0-2 2v11a3 3 0 0 0 6 0V2a2 2 0 0 0-2-2zm1 14a1 1 0 1 0 0-2 1 1 0 0 0 0 2z" fill-rule="evenodd"/><path d="m8.002 12.243 4.899-4.9a2 2 0 0 0 0-2.828l-1.414-1.414a2 2 0 0 0-2.829 0l-.656.657zm6 3.757h-6.93l6-6h.93a2 2 0 0 1 2 2v2a2 2 0 0 1-2 2z"/></g></symbol><symbol id="switch-horizontal" viewBox="0 0 17 16"><path d="M6.001 3.013a1 1 0 0 0 0 2h5.586l-1.293 1.293a1 1 0 0 0 1.414 1.414l3-3a1 1 0 0 0 0-1.414l-3-3a1 1 0 1 0-1.414 1.414l1.293 1.293zm4 10a1 1 0 0 0 0-2H4.415L5.708 9.72a1 1 0 1 0-1.414-1.414l-3 3a1 1 0 0 0 0 1.414l3 3a1 1 0 0 0 1.414-1.414l-1.293-1.293z" fill="currentColor"/></symbol><symbol id="switch-vertical" viewBox="0 0 17 16"><path d="M2.994 10a1 1 0 0 0 1.001 1 1.002 1.002 0 0 0 1.002-1V4.414l1.295 1.293a1.002 1.002 0 0 0 1.697-.71 1 1 0 0 0-.281-.704l-3.005-3a1.002 1.002 0 0 0-1.416 0l-3.004 3a1 1 0 0 0 .711 1.695c.263.002.516-.099.705-.28l1.295-1.294zm10.015-4a1 1 0 0 0-1.001-1 1.002 1.002 0 0 0-1.002 1v5.586l-1.295-1.293a1.002 1.002 0 0 0-1.697.71 1 1 0 0 0 .28.704l3.006 3a1.003 1.003 0 0 0 1.416 0l3.004-3a.999.999 0 0 0-.711-1.694 1.002 1.002 0 0 0-.705.28l-1.295 1.293z" fill="currentColor"/></symbol><symbol id="system-status" viewBox="0 0 16 16"><path clip-rule="evenodd" d="M5.594.26a.889.889 0 0 0-.26.629v.889H3.555a1.778 1.778 0 0 0-1.778 1.778v1.777h-.89a.889.889 0 1 0 0 1.778h.89V8.89h-.89a.889.889 0 1 0 0 1.778h.89v1.777a1.778 1.778 0 0 0 1.778 1.778h1.777v.89a.889.889 0 1 0 1.778 0v-.89h1.78v.89a.889.889 0 1 0 1.778 0v-.89h1.777a1.778 1.778 0 0 0 1.778-1.778v-1.777h.89a.889.889 0 0 0 0-1.778h-.89V7.11h.89a.889.889 0 1 0 0-1.778h-.89V3.556a1.778 1.778 0 0 0-1.778-1.778h-1.777v-.89a.889.889 0 0 0-1.778 0v.89H7.11v-.89A.889.889 0 0 0 5.594.26zm6.85 3.296H3.556v8.888h8.888zM5 5h5v5H5z" fill="currentColor" fill-rule="evenodd"/></symbol><symbol id="tag" viewBox="0 0 17 16"><path clip-rule="evenodd" d="M15.709 7.293a1 1 0 0 1 0 1.414l-7 7a1 1 0 0 1-1.415 0l-7-7A.997.997 0 0 1 .001 8V3a3 3 0 0 1 3-3h5a1 1 0 0 1 .708.293zM3 4a1 1 0 1 0 0-2 1 1 0 0 0 0 2z" fill="currentColor" fill-rule="evenodd"/></symbol><symbol id="team" viewBox="0 0 16 16"><path d="M10.667 3.6c0 .69-.281 1.35-.781 1.838S8.707 6.2 8 6.2s-1.386-.274-1.886-.762c-.5-.487-.78-1.148-.78-1.838s.28-1.35.78-1.838S7.293 1 8 1s1.386.274 1.886.762c.5.487.78 1.148.78 1.838zm4.444 1.733c0 .46-.187.9-.52 1.226-.334.325-.786.508-1.258.508s-.923-.183-1.257-.508c-.333-.325-.52-.766-.52-1.226s.187-.9.52-1.225.786-.508 1.257-.508.924.183 1.257.508.521.766.521 1.225zM11.556 11.4c0-.92-.375-1.801-1.042-2.451C9.847 8.299 8.943 7.933 8 7.933S6.153 8.3 5.486 8.95a3.423 3.423 0 0 0-1.042 2.45V14h7.112zM4.444 5.333c0 .46-.187.9-.52 1.226a1.801 1.801 0 0 1-1.257.508 1.8 1.8 0 0 1-1.257-.508c-.334-.325-.521-.766-.521-1.226s.187-.9.52-1.225.786-.508 1.258-.508c.471 0 .923.183 1.257.508.333.325.52.766.52 1.225zM13.334 14v-2.6a5.074 5.074 0 0 0-.667-2.519 2.738 2.738 0 0 1 2.298.465c.322.243.582.554.761.91.18.356.273.747.274 1.144V14zm-10-5.119a5.076 5.076 0 0 0-.667 2.519V14H0v-2.6c0-.397.093-.789.272-1.145.179-.356.44-.668.761-.911a2.733 2.733 0 0 1 2.3-.462z" fill="currentColor"/></symbol><symbol id="template" viewBox="0 0 16 16"><path d="M1 2a1 1 0 0 1 1-1h12a1 1 0 0 1 1 1v2a1 1 0 0 1-1 1H2a1 1 0 0 1-1-1zm0 6a1 1 0 0 1 1-1h6a1 1 0 0 1 1 1v6a1 1 0 0 1-1 1H2a1 1 0 0 1-1-1zm11-1a1 1 0 0 0-1 1v6a1 1 0 0 0 1 1h2a1 1 0 0 0 1-1V8a1 1 0 0 0-1-1z" fill="currentColor"/></symbol><symbol id="terminal" viewBox="0 0 16 16"><path clip-rule="evenodd" d="M0 3a2 2 0 0 1 2-2h12a2 2 0 0 1 2 2v10a2 2 0 0 1-2 2H2a2 2 0 0 1-2-2zm3.293 1.293a1 1 0 0 1 1.414 0l3 3a1 1 0 0 1 0 1.414l-3 3a1 1 0 0 1-1.414-1.414L5.586 8 3.293 5.707a1 1 0 0 1 0-1.414zM9 10a1 1 0 0 0 0 2h3a1 1 0 0 0 0-2z" fill="currentColor" fill-rule="evenodd"/></symbol><symbol id="thumbs-down" viewBox="0 0 17 16"><path d="M16.002 7.5c0 .829-.691 1.5-1.543 1.5s-1.542-.671-1.542-1.5v-6c0-.828.69-1.5 1.542-1.5.852 0 1.542.672 1.542 1.5zm-4.113.167v-5.43c0-.758-.44-1.45-1.137-1.79L10.7.424A4.208 4.208 0 0 0 8.86 0H3.292c-.98 0-1.824.673-2.016 1.608l-1.234 6C-.212 8.846.761 10 2.06 10h3.66v4c0 1.105.921 2 2.057 2 .568 0 1.028-.447 1.028-1v-.666c0-.866.289-1.708.823-2.4l1.44-1.867a3.928 3.928 0 0 0 .822-2.4z" fill="currentColor"/></symbol><symbol id="thumbs-up" viewBox="0 0 17 16"><path d="M.001 8.5c0-.828.691-1.5 1.543-1.5s1.542.672 1.542 1.5v6c0 .829-.69 1.5-1.542 1.5C.692 16 0 15.33 0 14.5zm4.113-.166v5.43c0 .758.44 1.45 1.137 1.79l.051.024a4.205 4.205 0 0 0 1.84.422h5.568c.98 0 1.825-.673 2.017-1.607l1.234-6C16.215 7.155 15.242 6 13.944 6h-3.66V2c0-1.104-.921-2-2.057-2C7.66 0 7.2.448 7.2 1v.667c0 .866-.289 1.708-.823 2.4l-1.44 1.867a3.928 3.928 0 0 0-.822 2.4z" fill="currentColor"/></symbol><symbol id="transparency" viewBox="0 0 16 16"><path d="M1 8a7 7 0 1 0 14 0A7 7 0 0 0 1 8zm7 5.194V2.806A5.19 5.19 0 0 1 13.194 8 5.19 5.19 0 0 1 8 13.194z" fill="currentColor"/></symbol><symbol id="trend-down" viewBox="0 0 16 16"><path clip-rule="evenodd" d="M10 11a1 1 0 1 0 0 2h5a1 1 0 0 0 1-1V7a1 1 0 1 0-2 0v2.586L9.707 5.293a1 1 0 0 0-1.414 0L6 7.586 1.707 3.293A1 1 0 0 0 .293 4.707l5 5a1 1 0 0 0 1.414 0L9 7.414 12.586 11z" fill="currentColor" fill-rule="evenodd"/></symbol><symbol id="trend-up" viewBox="0 0 16 16"><path clip-rule="evenodd" d="M10 5a1 1 0 1 1 0-2h5a1 1 0 0 1 1 1v5a1 1 0 1 1-2 0V6.414l-4.293 4.293a1 1 0 0 1-1.414 0L6 8.414l-4.293 4.293a1 1 0 0 1-1.414-1.414l5-5a1 1 0 0 1 1.414 0L9 8.586 12.586 5z" fill="currentColor" fill-rule="evenodd"/></symbol><symbol id="truck" viewBox="0 0 16 16"><g fill="currentColor"><path d="M6 13.5a1.5 1.5 0 1 1-3 0 1.5 1.5 0 0 1 3 0zm7 0a1.5 1.5 0 1 1-3 0 1.5 1.5 0 0 1 3 0z"/><path d="M1 1a1 1 0 0 0-1 1v10a1 1 0 0 0 1 1h1.05a2.5 2.5 0 0 1 4.9 0H8a1 1 0 0 0 1-1V2a1 1 0 0 0-1-1zm11 3a1 1 0 0 0-1 1v6.05A2.5 2.5 0 0 1 13.95 13H15a1 1 0 0 0 1-1V7a1 1 0 0 0-.293-.707l-2-2A1 1 0 0 0 13 4z"/></g></symbol><symbol id="tutorial" viewBox="0 0 16 16"><path d="M8.394.08a1 1 0 0 0-.788 0l-7 3a1 1 0 0 0 0 1.84L3.25 6.051a.999.999 0 0 1 .356-.257l4-1.714a1 1 0 1 1 .788 1.838l-2.727 1.17 1.94.831a1 1 0 0 0 .787 0l7-3a1 1 0 0 0 0-1.838zM1.31 7.397 3 8.12v4.102a8.969 8.969 0 0 0-1.05-.174 1 1 0 0 1-.89-.89 11.115 11.115 0 0 1 .25-3.762zm5.99 7.175A9.026 9.026 0 0 0 5 12.935V8.978l1.818.78a3 3 0 0 0 2.364 0l5.508-2.361a11.026 11.026 0 0 1 .25 3.762 1 1 0 0 1-.89.89 8.968 8.968 0 0 0-5.35 2.523 1 1 0 0 1-1.4 0zM4 16a1 1 0 0 0 1-1v-2.065a8.935 8.935 0 0 0-2-.712V15a1 1 0 0 0 1 1z" fill="currentColor"/></symbol><symbol id="unlock" viewBox="0 0 17 16"><path d="M8.001 0a5 5 0 0 0-5 5v2a2 2 0 0 0-2 2v5a2 2 0 0 0 2 2h10a2 2 0 0 0 2-2V9a2 2 0 0 0-2-2h-8V5a3 3 0 0 1 5.906-.75 1 1 0 0 0 1.937-.499A5.002 5.002 0 0 0 8 .001z" fill="currentColor"/></symbol><symbol id="upload" viewBox="0 0 17 16"><path clip-rule="evenodd" d="M1.001 15a1 1 0 0 1 1-1h12a1 1 0 1 1 0 2h-12a1 1 0 0 1-1-1zM4.294 4.707a1 1 0 0 1 0-1.414l3-3a1 1 0 0 1 1.415 0l3 3a1 1 0 0 1-1.415 1.414L9.001 3.415V11a1 1 0 1 1-2 0V3.415L5.71 4.707a1 1 0 0 1-1.415 0z" fill="currentColor" fill-rule="evenodd"/></symbol><symbol id="user" viewBox="0 0 16 16"><path clip-rule="evenodd" d="M8.5 6.4c.852 0 1.67-.337 2.273-.937a3.193 3.193 0 0 0 0-4.526 3.221 3.221 0 0 0-4.546 0 3.193 3.193 0 0 0 0 4.526c.603.6 1.42.937 2.273.937zM1 16a7.438 7.438 0 0 1 2.197-5.28A7.502 7.502 0 0 1 8.5 8.533a7.529 7.529 0 0 1 5.303 2.187A7.464 7.464 0 0 1 16 16z" fill="currentColor" fill-rule="evenodd"/></symbol><symbol id="users" viewBox="0 0 16 16"><path d="M7.111 5.571c0 .682-.28 1.336-.78 1.819a2.724 2.724 0 0 1-1.887.753 2.717 2.717 0 0 1-1.885-.753 2.526 2.526 0 0 1-.781-1.819c0-.682.28-1.336.78-1.818A2.718 2.718 0 0 1 4.445 3c.708 0 1.386.27 1.886.753.5.482.781 1.136.781 1.818zm7.111 0c0 .338-.069.672-.203.984s-.33.596-.578.835-.541.428-.865.557a2.752 2.752 0 0 1-2.04 0 2.675 2.675 0 0 1-.866-.557 2.567 2.567 0 0 1-.578-.835 2.492 2.492 0 0 1-.203-.984c0-.682.28-1.336.78-1.818A2.718 2.718 0 0 1 11.557 3c.707 0 1.385.27 1.885.753.5.482.781 1.136.781 1.818zM10.604 15a5.84 5.84 0 0 0-1.271-4.569 4.572 4.572 0 0 1 2.223-.574c.78 0 1.546.198 2.222.574.675.377 1.236.918 1.627 1.569S16 13.39 16 14.143V15zm-6.16-5.143a4.53 4.53 0 0 1 3.143 1.255 4.21 4.21 0 0 1 1.302 3.03V15H0v-.857a4.21 4.21 0 0 1 1.302-3.03 4.53 4.53 0 0 1 3.142-1.256z" fill="currentColor"/></symbol><symbol id="video-camera" viewBox="0 0 16 16"><path d="M0 4a2 2 0 0 1 2-2h6a2 2 0 0 1 2 2v8a2 2 0 0 1-2 2H2a2 2 0 0 1-2-2zm12.553 1.106A1 1 0 0 0 12 6v4a1 1 0 0 0 .553.894l2 1A1 1 0 0 0 16 11V5a1 1 0 0 0-1.447-.894z" fill="currentColor"/></symbol><symbol id="video-pause" viewBox="0 0 16 16"><path clip-rule="evenodd" d="M3 .8a.81.81 0 0 1 .23-.566A.779.779 0 0 1 3.786 0h1.571a.78.78 0 0 1 .556.234.81.81 0 0 1 .23.566v14.4c0 .212-.083.416-.23.566S5.566 16 5.357 16H3.786c-.209 0-.409-.084-.556-.234S3 15.412 3 15.2zm7.857 0a.81.81 0 0 1 .23-.566.779.779 0 0 1 .556-.234h1.571a.78.78 0 0 1 .556.234A.81.81 0 0 1 14 .8v14.4a.808.808 0 0 1-.23.566.779.779 0 0 1-.556.234h-1.571a.779.779 0 0 1-.556-.234.807.807 0 0 1-.23-.566z" fill="currentColor" fill-rule="evenodd"/></symbol><symbol id="video-play" viewBox="0 0 16 16"><path clip-rule="evenodd" d="M1 1.826C1 .44 2.5-.44 3.726.228l11.321 6.174a1.816 1.816 0 0 1 0 3.196l-11.32 6.174c-1.226.668-2.726-.211-2.726-1.598z" fill="currentColor" fill-rule="evenodd"/></symbol><symbol id="view-as-grid" viewBox="0 0 17 16"><path d="M2.287 0A2.286 2.286 0 0 0 .001 2.286v2.286a2.286 2.286 0 0 0 2.286 2.286h2.286a2.286 2.286 0 0 0 2.286-2.286V2.286A2.286 2.286 0 0 0 4.573 0zm0 9.143A2.286 2.286 0 0 0 .001 11.43v2.286A2.286 2.286 0 0 0 2.287 16h2.286a2.286 2.286 0 0 0 2.286-2.285v-2.286a2.286 2.286 0 0 0-2.286-2.286zm6.857-6.857A2.286 2.286 0 0 1 11.43 0h2.286a2.286 2.286 0 0 1 2.286 2.286v2.286a2.286 2.286 0 0 1-2.286 2.286H11.43a2.286 2.286 0 0 1-2.286-2.286zm0 9.143a2.286 2.286 0 0 1 2.286-2.286h2.286a2.286 2.286 0 0 1 2.286 2.286v2.286A2.286 2.286 0 0 1 13.716 16H11.43a2.285 2.285 0 0 1-2.286-2.285z" fill="currentColor"/></symbol><symbol id="view-as-list" viewBox="0 0 17 16"><path clip-rule="evenodd" d="M.001 1.143A1.143 1.143 0 0 1 1.144 0H14.86a1.143 1.143 0 1 1 0 2.286H1.144A1.143 1.143 0 0 1 .001 1.143zm0 4.572a1.143 1.143 0 0 1 1.143-1.143H14.86a1.143 1.143 0 1 1 0 2.286H1.144A1.143 1.143 0 0 1 .001 5.715zm0 4.571a1.143 1.143 0 0 1 1.143-1.143H14.86a1.143 1.143 0 1 1 0 2.286H1.144a1.143 1.143 0 0 1-1.143-1.143zm0 4.572a1.143 1.143 0 0 1 1.143-1.143H14.86a1.143 1.143 0 1 1 0 2.285H1.144a1.143 1.143 0 0 1-1.143-1.142z" fill="currentColor" fill-rule="evenodd"/></symbol><symbol id="view-as-table-outline" viewBox="0 0 17 16"><path clip-rule="evenodd" d="M.695 1.89C1.156 1.346 1.82 1 2.557 1h10.889c.736 0 1.4.346 1.862.89.458.54.694 1.24.694 1.944v7.333c0 .703-.236 1.404-.694 1.943-.461.545-1.126.89-1.862.89H2.557c-.736 0-1.4-.345-1.862-.89A3.01 3.01 0 0 1 0 11.167V3.834C0 3.131.236 2.43.694 1.89zM2 6.667v1.667h5V6.667zm0-2v-.833c0-.27.093-.501.219-.65.121-.143.248-.184.337-.184h10.889c.09 0 .216.04.337.184.126.149.219.38.219.65v.833zm7 2v1.667h5V6.667zm5 3.667H9V12h4.445c.09 0 .216-.04.337-.184.126-.148.219-.38.219-.649zM7 12v-1.666H2v.833c0 .27.093.501.219.65.121.143.248.183.337.183z" fill="currentColor" fill-rule="evenodd"/></symbol><symbol id="visible" viewBox="0 0 17 16"><path clip-rule="evenodd" d="M8.002 2c-3.755 0-6.932 2.523-8 6 1.068 3.478 4.245 6 8 6 3.754 0 6.931-2.522 8-6-1.069-3.477-4.246-6-8-6zm2.37 8.425A3.468 3.468 0 0 0 11.356 8c0-.909-.353-1.781-.982-2.424a3.317 3.317 0 0 0-2.371-1.004c-.89 0-1.743.361-2.372 1.004A3.468 3.468 0 0 0 4.648 8c0 .91.353 1.782.982 2.425a3.317 3.317 0 0 0 2.372 1.004c.889 0 1.742-.361 2.37-1.004zM8.563 8.56a1.5 1.5 0 1 1-2.122-2.12 1.5 1.5 0 0 1 2.121 2.12z" fill="currentColor" fill-rule="evenodd"/></symbol><symbol id="volume-muted" viewBox="0 0 16 16"><path clip-rule="evenodd" d="M7.884 1.07c.172.071.319.19.422.343s.159.332.158.516v11.143a.92.92 0 0 1-.158.515.952.952 0 0 1-1.447.14l-3.486-3.441H.94a.946.946 0 0 1-.665-.272A.923.923 0 0 1 0 9.357V5.643c0-.246.1-.482.275-.657a.947.947 0 0 1 .665-.272h2.433l3.486-3.442a.944.944 0 0 1 1.025-.201zm2.737 3.916a.947.947 0 0 1 1.33 0l1.216 1.201 1.216-1.2a.942.942 0 0 1 .668-.284.95.95 0 0 1 .673.272.928.928 0 0 1 .276.665.919.919 0 0 1-.287.66l-1.216 1.2 1.216 1.2a.923.923 0 0 1-.012 1.302.946.946 0 0 1-1.318.012l-1.216-1.2-1.216 1.2a.947.947 0 0 1-1.319-.012.922.922 0 0 1-.011-1.301l1.216-1.2-1.216-1.202a.923.923 0 0 1 0-1.313z" fill="currentColor" fill-rule="evenodd"/></symbol><symbol id="volume" viewBox="0 0 16 16"><path clip-rule="evenodd" d="M7.452 2.389A.888.888 0 0 1 8 3.205v10.6a.88.88 0 0 1-.549.817.894.894 0 0 1-.968-.192l-3.295-3.274h-2.3a.892.892 0 0 1-.628-.26.88.88 0 0 1-.26-.624V6.738a.88.88 0 0 1 .26-.624.892.892 0 0 1 .629-.259h2.299L6.483 2.58a.89.89 0 0 1 .969-.191zm4.688-.13a.891.891 0 0 1 1.256 0 8.805 8.805 0 0 1 1.93 2.865A8.763 8.763 0 0 1 16 8.505a8.77 8.77 0 0 1-2.604 6.247.892.892 0 0 1-1.506-.628.88.88 0 0 1 .25-.621 7.004 7.004 0 0 0 2.083-4.998 7.02 7.02 0 0 0-2.083-4.997.88.88 0 0 1 0-1.25zM9.625 4.757a.89.89 0 0 1 .97-.192.89.89 0 0 1 .288.192 5.283 5.283 0 0 1 1.561 3.748 5.257 5.257 0 0 1-1.561 3.749.892.892 0 0 1-1.519-.625.88.88 0 0 1 .26-.625 3.519 3.519 0 0 0 .773-3.851 3.517 3.517 0 0 0-.772-1.146.883.883 0 0 1-.193-.963.883.883 0 0 1 .193-.287z" fill="currentColor" fill-rule="evenodd"/></symbol><symbol id="warning" viewBox="0 0 16 16"><path clip-rule="evenodd" d="M6.161 2.1a2.088 2.088 0 0 1 3.678 0l5.887 10.689C16.517 14.226 15.5 16 13.888 16H2.113C.499 16-.517 14.226.274 12.789zm2.894 10.668c0 .286-.111.56-.309.762s-.466.316-.746.316c-.28 0-.548-.114-.746-.316s-.309-.476-.309-.762.111-.56.309-.762a1.044 1.044 0 0 1 1.492 0c.198.202.309.476.309.762zM8 4.148c-.28 0-.548.113-.746.315a1.09 1.09 0 0 0-.309.762v3.233c0 .286.111.56.309.762.198.202.466.316.746.316.28 0 .548-.114.746-.316a1.09 1.09 0 0 0 .309-.762V5.225c0-.286-.111-.56-.309-.762A1.044 1.044 0 0 0 8 4.148z" fill="currentColor" fill-rule="evenodd"/></symbol><symbol id="wifi" viewBox="0 0 16 16"><path clip-rule="evenodd" d="M14.56 6.476a9.173 9.173 0 0 0-13.12 0 .834.834 0 0 1-1.193 0 .867.867 0 0 1 0-1.212 10.84 10.84 0 0 1 15.506 0c.33.334.33.877 0 1.212a.834.834 0 0 1-1.193 0zM12.175 8.9a5.837 5.837 0 0 0-8.35 0 .834.834 0 0 1-1.192 0 .867.867 0 0 1 0-1.212 7.505 7.505 0 0 1 10.734 0c.33.335.33.877 0 1.212a.834.834 0 0 1-1.192 0zm-2.386 2.425a2.502 2.502 0 0 0-3.578 0 .834.834 0 0 1-1.193 0 .867.867 0 0 1 0-1.213 4.17 4.17 0 0 1 5.964 0c.33.335.33.878 0 1.213a.834.834 0 0 1-1.193 0zm-2.632 1.818A.85.85 0 0 1 8 12.286h.008a.85.85 0 0 1 .844.857.85.85 0 0 1-.844.857H8a.85.85 0 0 1-.843-.857z" fill="currentColor" fill-rule="evenodd"/></symbol><symbol id="zoom-in" viewBox="0 0 17 16"><g fill="currentColor"><path d="M3.001 6a1 1 0 0 1 1-1h1V4a1 1 0 0 1 2 0v1h1a1 1 0 1 1 0 2h-1v1a1 1 0 1 1-2 0V7h-1a1 1 0 0 1-1-1z"/><path clip-rule="evenodd" d="M.001 6a6 6 0 1 1 10.891 3.477l4.817 4.816a1 1 0 0 1-1.415 1.414l-4.816-4.816a6 6 0 0 1-9.477-4.89zm6-4a4 4 0 1 0 0 8 4 4 0 0 0 0-8z" fill-rule="evenodd"/></g></symbol><symbol id="zoom-out" viewBox="0 0 17 16"><g clip-rule="evenodd" fill="currentColor" fill-rule="evenodd"><path d="M6.001 2a4 4 0 1 0 0 8 4 4 0 0 0 0-8zm-6 4a6 6 0 1 1 10.891 3.477l4.817 4.816a1 1 0 0 1-1.415 1.414l-4.816-4.816a6 6 0 0 1-9.477-4.89z"/><path d="M3.001 6a1 1 0 0 1 1-1h4a1 1 0 1 1 0 2h-4a1 1 0 0 1-1-1z"/></g></symbol></svg>