<svg xmlns="http://www.w3.org/2000/svg" fill="none" viewBox="1 1 14 14"><path fill="currentColor" d="M7.733 1.065a.58.58 0 0 1 .534 0A32.6 32.6 0 0 1 14.79 5.52c.165.144.24.37.199.589a.61.61 0 0 1-.402.466A24.6 24.6 0 0 0 8.333 9.72a.58.58 0 0 1-.666 0A25 25 0 0 0 6.01 8.662v-.967c0-.2.092-.38.24-.485a28 28 0 0 1 2.63-1.67.626.626 0 0 0 .24-.835.587.587 0 0 0-.809-.248q-1.42.795-2.74 1.74a1.84 1.84 0 0 0-.754 1.498v.312a24.5 24.5 0 0 0-3.405-1.433.61.61 0 0 1-.402-.466.63.63 0 0 1 .2-.59 32.6 32.6 0 0 1 6.522-4.453ZM4.818 9.391a23 23 0 0 0-1.954-.95 35 35 0 0 0-.31 2.556.62.62 0 0 0 .334.607q.63.316 1.236.673a4.6 4.6 0 0 0 .694-2.442z"/><path fill="currentColor" d="M7.606 14.846a21 21 0 0 0-2.463-1.927 5.9 5.9 0 0 0 .863-2.834q.505.316.994.655c.604.42 1.396.42 2 0a23.6 23.6 0 0 1 4.136-2.3q.202 1.264.31 2.557a.62.62 0 0 1-.333.607 21 21 0 0 0-4.719 3.242.583.583 0 0 1-.788 0m-4.07-1.818q.339-.351.588-.75.52.305 1.019.64a5.7 5.7 0 0 1-.763.981.584.584 0 0 1-.844 0 .63.63 0 0 1 0-.87Z"/></svg>