<svg xmlns="http://www.w3.org/2000/svg" fill="none" viewBox="1 1 14 14"><path fill="currentColor" d="M7.733 1.065a.58.58 0 0 1 .534 0A32.603 32.603 0 0 1 14.79 5.52c.165.144.24.37.199.589a.61.61 0 0 1-.402.466A24.643 24.643 0 0 0 8.333 9.72a.581.581 0 0 1-.666 0A24.943 24.943 0 0 0 6.01 8.662v-.967c0-.2.092-.38.24-.485a28.108 28.108 0 0 1 2.63-1.67.626.626 0 0 0 .24-.835.587.587 0 0 0-.809-.248c-.946.53-1.86 1.11-2.74 1.74a1.835 1.835 0 0 0-.754 1.498v.312a24.461 24.461 0 0 0-3.405-1.433.61.61 0 0 1-.402-.466.627.627 0 0 1 .2-.59 32.6 32.6 0 0 1 6.522-4.453ZM4.818 9.391a23.419 23.419 0 0 0-1.954-.95 34.729 34.729 0 0 0-.31 2.556.62.62 0 0 0 .334.607c.42.21.832.435 1.236.673a4.611 4.611 0 0 0 .694-2.442v-.444Z"/><path fill="currentColor" d="M7.606 14.846a21.251 21.251 0 0 0-2.463-1.927 5.865 5.865 0 0 0 .863-2.834c.337.21.668.429.994.655.604.42 1.396.42 2 0a23.578 23.578 0 0 1 4.136-2.3c.134.842.238 1.695.31 2.557a.62.62 0 0 1-.333.607 21.079 21.079 0 0 0-4.719 3.242.583.583 0 0 1-.788 0Zm-4.07-1.818c.226-.233.422-.485.588-.75.346.203.686.417 1.019.64a5.735 5.735 0 0 1-.763.981.584.584 0 0 1-.844 0 .63.63 0 0 1 0-.87Z"/></svg>