<svg xmlns="http://www.w3.org/2000/svg" fill="none" viewBox="1 1 14 14"><path fill="currentColor" d="M3.333 1A2.333 2.333 0 0 0 1 3.333v1.75a2.333 2.333 0 0 0 2.333 2.334h1.75a2.333 2.333 0 0 0 2.334-2.334v-1.75A2.333 2.333 0 0 0 5.083 1zm7.584 0a2.333 2.333 0 0 0-2.334 2.333v1.75a2.333 2.333 0 0 0 2.334 2.334h1.75A2.333 2.333 0 0 0 15 5.083v-1.75A2.333 2.333 0 0 0 12.667 1zM3.333 8.583A2.333 2.333 0 0 0 1 10.917v1.75A2.333 2.333 0 0 0 3.333 15h1.75a2.333 2.333 0 0 0 2.334-2.333v-1.75a2.333 2.333 0 0 0-2.334-2.334zm9.042.584a.583.583 0 0 0-1.167 0v2.041H9.167a.583.583 0 0 0 0 1.167h2.041v2.042a.583.583 0 0 0 1.167 0v-2.042h2.042a.583.583 0 0 0 0-1.167h-2.042z"/></svg>