<svg xmlns="http://www.w3.org/2000/svg" fill="none" viewBox="0.5 1 15 14"><path fill="currentColor" fill-rule="evenodd" d="M8 1C3.96 1 .5 3.831.5 7.533c0 1.89.917 3.57 2.343 4.746a3.236 3.236 0 0 1-.49 1.64.697.697 0 0 0 .548 1.066 5.62 5.62 0 0 0 3.69-1.034A8.63 8.63 0 0 0 8 14.067c4.04 0 7.5-2.832 7.5-6.534S12.04 1 8 1Zm0 4c.259 0 .469.21.469.469V7.03h1.562a.469.469 0 1 1 0 .938H8.47V9.53a.469.469 0 0 1-.938 0V7.97H5.97a.469.469 0 0 1 0-.938h1.56V5.47c0-.26.21-.469.469-.469Z" clip-rule="evenodd"/></svg>