<svg xmlns="http://www.w3.org/2000/svg" fill="none" viewBox="0 0 16 16"><path fill="currentColor" fill-rule="evenodd" d="M2.25 4.5A2.25 2.25 0 0 0 4.372 3H6.5a.75.75 0 0 1 .75.75v8.5A2.25 2.25 0 0 0 9.5 14.5h2.128a2.251 2.251 0 1 0 0-1.5H9.5a.75.75 0 0 1-.75-.75V8.5h2.878a2.251 2.251 0 1 0 0-1.5H8.75V3.75A2.25 2.25 0 0 0 6.5 1.5H4.372a2.25 2.25 0 1 0-2.122 3Zm0-1.5a.75.75 0 1 0 0-1.5.75.75 0 0 0 0 1.5Zm11.5 11.5a.75.75 0 1 0 0-1.5.75.75 0 0 0 0 1.5Zm.75-6.75a.75.75 0 1 1-1.5 0 .75.75 0 0 1 1.5 0Z" clip-rule="evenodd"/></svg>