<svg xmlns="http://www.w3.org/2000/svg" fill="none" viewBox="0 1.55 16 12"><path fill="currentColor" fill-rule="evenodd" d="M8 2.841q1.621 0 3.203.14a.594.594 0 0 1 .547.511q.166 1.335.222 2.7l-1.5-1.448a.684.684 0 0 0-.943 0 .627.627 0 0 0 0 .909l2.665 2.571c.26.251.683.251.943 0l2.668-2.571a.627.627 0 0 0 0-.91.684.684 0 0 0-.943 0l-1.554 1.499a34 34 0 0 0-.234-2.903c-.11-.877-.838-1.56-1.75-1.64a38 38 0 0 0-6.647 0c-.913.08-1.642.763-1.75 1.64q-.086.687-.143 1.38a.65.65 0 0 0 .611.692.66.66 0 0 0 .718-.59q.056-.668.137-1.329a.594.594 0 0 1 .547-.512A37 37 0 0 1 8 2.841M3.805 6.887a.684.684 0 0 0-.942 0L.195 9.458a.627.627 0 0 0 0 .91c.26.25.683.25.943 0L2.692 8.87q.056 1.467.234 2.902c.11.877.838 1.56 1.75 1.64a38 38 0 0 0 6.647 0c.913-.08 1.642-.763 1.75-1.64q.086-.687.143-1.38a.65.65 0 0 0-.611-.693.66.66 0 0 0-.718.59q-.055.67-.137 1.33a.594.594 0 0 1-.547.512 37 37 0 0 1-6.406 0 .594.594 0 0 1-.547-.512 33 33 0 0 1-.222-2.699l1.5 1.447c.26.251.683.251.943 0a.627.627 0 0 0 0-.909z" clip-rule="evenodd"/></svg>