<svg xmlns="http://www.w3.org/2000/svg" fill="none" viewBox="0 1.55 16 12"><path fill="currentColor" fill-rule="evenodd" d="M8 2.841c1.08 0 2.149.047 3.203.14a.594.594 0 0 1 .547.511c.11.89.185 1.79.222 2.7l-1.5-1.448a.684.684 0 0 0-.943 0 .627.627 0 0 0 0 .909l2.665 2.571c.26.251.683.251.943 0l2.668-2.571a.627.627 0 0 0 0-.91.684.684 0 0 0-.943 0l-1.554 1.499a34.146 34.146 0 0 0-.234-2.903c-.11-.877-.838-1.56-1.75-1.64a38.251 38.251 0 0 0-6.647 0c-.913.08-1.642.763-1.75 1.64-.057.458-.105.918-.143 1.38a.65.65 0 0 0 .611.692.66.66 0 0 0 .718-.59c.037-.445.083-.888.137-1.329a.594.594 0 0 1 .547-.512A36.871 36.871 0 0 1 8 2.841ZM3.805 6.887a.684.684 0 0 0-.942 0L.195 9.458a.627.627 0 0 0 0 .91c.26.25.683.25.943 0L2.692 8.87c.037.978.116 1.945.234 2.902.11.877.838 1.56 1.75 1.64a38.237 38.237 0 0 0 6.647 0c.913-.08 1.642-.763 1.75-1.64.057-.458.105-.918.143-1.38a.65.65 0 0 0-.611-.693.66.66 0 0 0-.718.59c-.037.446-.082.89-.137 1.33a.594.594 0 0 1-.547.512 36.865 36.865 0 0 1-6.406 0 .594.594 0 0 1-.547-.512 32.91 32.91 0 0 1-.222-2.699l1.5 1.447c.26.251.683.251.943 0a.627.627 0 0 0 0-.909L3.805 6.887Z" clip-rule="evenodd"/></svg>