<svg xmlns="http://www.w3.org/2000/svg" fill="none" viewBox="0 2 16 12"><path fill="currentColor" fill-rule="evenodd" d="M5.672 2.188A.67.67 0 0 1 6.137 2h7.89C15.117 2 16 2.863 16 3.929v8.142C16 13.137 15.117 14 14.027 14h-7.89a.67.67 0 0 1-.465-.188L.192 8.455a.633.633 0 0 1 0-.91zm2.683 3.429a.67.67 0 0 0-.93 0 .633.633 0 0 0 0 .909L8.933 8 7.425 9.474a.633.633 0 0 0 0 .91.67.67 0 0 0 .93 0l1.508-1.475 1.508 1.474a.67.67 0 0 0 .93 0 .633.633 0 0 0 0-.909L10.793 8 12.3 6.526a.633.633 0 0 0 0-.91.67.67 0 0 0-.93 0L9.863 7.092z" clip-rule="evenodd"/></svg>