<svg xmlns="http://www.w3.org/2000/svg" fill="none" viewBox="1 1 14 14"><path fill="currentColor" d="M1 3.222C1 1.995 1.98 1 3.188 1h9.624C14.021 1 15 1.995 15 3.222c0 1.228-.98 2.222-2.188 2.222H3.188C1.978 5.444 1 4.45 1 3.222m.656 4.074A.66.66 0 0 0 1 7.963c0 .368.294.667.656.667h12.688A.66.66 0 0 0 15 7.963a.66.66 0 0 0-.656-.667zm0 3.183a.66.66 0 0 0-.656.666c0 .368.294.667.656.667h12.688a.66.66 0 0 0 .656-.667.66.66 0 0 0-.656-.666zm0 3.188a.66.66 0 0 0-.656.666c0 .368.294.667.656.667h12.688a.66.66 0 0 0 .656-.667.66.66 0 0 0-.656-.666z"/></svg>