<svg xmlns="http://www.w3.org/2000/svg" fill="none" viewBox="0 2 16 12"><path fill="currentColor" fill-rule="evenodd" d="M0 2.6c0-.331.298-.6.667-.6h14.666c.368 0 .667.269.667.6s-.299.6-.667.6H.667C.298 3.2 0 2.931 0 2.6m0 3.6c0-.331.298-.6.667-.6h14.666c.368 0 .667.269.667.6s-.299.6-.667.6H.667C.298 6.8 0 6.531 0 6.2m0 3.6c0-.331.298-.6.667-.6h14.666c.368 0 .667.269.667.6s-.299.6-.667.6H.667C.298 10.4 0 10.131 0 9.8m0 3.6c0-.331.298-.6.667-.6h14.666c.368 0 .667.269.667.6s-.299.6-.667.6H.667C.298 14 0 13.731 0 13.4" clip-rule="evenodd"/></svg>