<svg xmlns="http://www.w3.org/2000/svg" fill="none" viewBox="-0.02 -0.02 16.04 16.04"><path fill="currentColor" d="M2 6c0-.26.017-.517.049-.77l7.722 7.723a33.56 33.56 0 0 1-3.722-.01 2 2 0 0 0 3.862.15l1.134 1.134a3.5 3.5 0 0 1-6.53-1.409 32.91 32.91 0 0 1-3.257-.508.75.75 0 0 1-.515-1.076A11.448 11.448 0 0 0 2 6Zm13.266 5.9a.756.756 0 0 1-.068.116L4.389 1.207A6 6 0 0 1 14 6a11.466 11.466 0 0 0 1.258 5.234.75.75 0 0 1 .01.666ZM1.28.22A.75.75 0 1 0 .22 1.28l14.5 14.5a.75.75 0 1 0 1.06-1.06L1.28.22Z"/></svg>