<svg xmlns="http://www.w3.org/2000/svg" fill="none" viewBox="0 0 16 16"><path fill="currentColor" fill-rule="evenodd" d="M2.786 5.538C2.786 2.48 5.12 0 8 0s5.215 2.48 5.215 5.538v.616a6.98 6.98 0 0 0 1.636 4.529.64.64 0 0 1 .132.56.6.6 0 0 1-.362.43 18 18 0 0 1-3.732 1.02q.008.114.008.23C10.897 14.623 9.6 16 8 16s-2.897-1.378-2.897-3.077q0-.116.008-.23a18 18 0 0 1-3.732-1.02.6.6 0 0 1-.362-.43.64.64 0 0 1 .132-.56 6.98 6.98 0 0 0 1.637-4.53zm3.478 7.302-.002.083c0 1.02.778 1.846 1.738 1.846s1.738-.826 1.738-1.846l-.001-.083a18 18 0 0 1-3.473 0" clip-rule="evenodd"/></svg>