<svg xmlns="http://www.w3.org/2000/svg" fill="none" viewBox="1 0 16 16"><path fill="currentColor" d="M15.856 11.745V4.254a2.28 2.28 0 0 0 1.143-1.969A2.286 2.286 0 0 0 14.713 0c-.844 0-1.573.462-1.969 1.142H5.253A2.28 2.28 0 0 0 3.284 0 2.286 2.286 0 0 0 1 2.285c0 .844.462 1.573 1.142 1.969v7.491A2.28 2.28 0 0 0 1 13.714 2.286 2.286 0 0 0 3.284 16c.844 0 1.573-.463 1.969-1.143h7.49A2.28 2.28 0 0 0 14.714 16a2.286 2.286 0 0 0 2.285-2.286c0-.844-.462-1.573-1.142-1.969zm-11.429 0V4.254a2.3 2.3 0 0 0 .826-.826h7.49c.2.342.484.627.827.826v7.491a2.3 2.3 0 0 0-.826.826H5.253a2.3 2.3 0 0 0-.826-.826m10.857-9.46a.572.572 0 1 1-1.144-.001.572.572 0 0 1 1.144.001m-12-.571a.572.572 0 1 1-.001 1.144.572.572 0 0 1 .001-1.144m-.571 12a.572.572 0 1 1 1.144.001.572.572 0 0 1-1.144-.001m12 .571a.572.572 0 1 1 .001-1.144.572.572 0 0 1-.001 1.144"/></svg>