<svg xmlns="http://www.w3.org/2000/svg" fill="none" viewBox="1 1 14 14"><path fill="currentColor" fill-rule="evenodd" d="M4.77 3.154C4.77 1.964 5.733 1 6.922 1h2.154c1.19 0 2.154.964 2.154 2.154V3.3q1.005.091 1.991.24C14.266 3.697 15 4.605 15 5.635v2.178c0 .87-.527 1.688-1.39 1.975-1.764.587-3.65.904-5.61.904a17.8 17.8 0 0 1-5.61-.904C1.527 9.501 1 8.682 1 7.813V5.635c0-1.03.734-1.938 1.778-2.094a35 35 0 0 1 1.991-.24zm5.384 0v.065a36 36 0 0 0-4.308 0v-.065c0-.595.482-1.077 1.077-1.077h2.154c.595 0 1.077.482 1.077 1.077M8 9.077A.538.538 0 1 0 8 8a.538.538 0 0 0 0 1.077" clip-rule="evenodd"/><path fill="currentColor" d="M1.538 12.595v-2.008q.24.133.512.223c1.873.623 3.874.96 5.95.96s4.077-.337 5.95-.96q.27-.09.511-.223v2.008c0 1.042-.751 1.958-1.81 2.099a35.3 35.3 0 0 1-9.301 0c-1.06-.14-1.812-1.057-1.812-2.1Z"/></svg>