<svg xmlns="http://www.w3.org/2000/svg" fill="none" viewBox="0 1 16 13"><path fill="currentColor" fill-rule="evenodd" d="M0 3.167C0 1.97 1.102 1 2.462 1h11.077C14.898 1 16 1.97 16 3.167v8.666C16 13.03 14.898 14 13.539 14H2.462C1.102 14 0 13.03 0 11.833zm14.77 2.166H1.23v6.5c0 .599.552 1.084 1.232 1.084h11.077c.68 0 1.23-.485 1.23-1.084zM2.461 2.625c-.34 0-.616.243-.616.542v.005c0 .3.276.542.616.542h.006c.34 0 .615-.243.615-.542v-.005c0-.3-.275-.542-.615-.542zm1.23.542c0-.3.276-.542.616-.542h.006c.34 0 .615.243.615.542v.005c0 .3-.275.542-.615.542h-.006c-.34 0-.616-.243-.616-.542zm2.462-.542c-.34 0-.616.243-.616.542v.005c0 .3.276.542.616.542h.006c.34 0 .615-.243.615-.542v-.005c0-.3-.275-.542-.615-.542z" clip-rule="evenodd"/></svg>