<svg xmlns="http://www.w3.org/2000/svg" fill="none" viewBox="2 0 12 16"><path fill="currentColor" fill-rule="evenodd" d="M5.64.077c.24.158.323.507.184.78-.133.262-.23.55-.285.855q.06.066.12.128C6.211 1.067 7.055.572 8 .572s1.79.496 2.342 1.27q.062-.061.12-.127a3 3 0 0 0-.286-.857c-.139-.274-.057-.623.184-.781.24-.158.547-.065.686.208.238.468.395.996.45 1.559a.62.62 0 0 1-.126.444 5 5 0 0 1-.527.57 3.85 3.85 0 0 1 .145 1.6c-.071.604-.505.986-.95 1.07q-.182.033-.366.06.153.262.24.566c.88-.123 1.738-.33 2.567-.612q-.067-1.02-.231-2.007c-.052-.31.127-.609.4-.668.272-.059.535.145.587.455q.213 1.276.271 2.604c.011.257-.13.49-.345.57-1.023.382-2.09.652-3.189.8-.05.29-.147.561-.284.8 1.384.16 2.719.513 3.981 1.036.21.086.343.318.33.57a21 21 0 0 1-.796 4.762c-.087.3-.37.463-.634.365s-.407-.422-.32-.722c.372-1.288.618-2.643.72-4.043a14 14 0 0 0-1.02-.347q.069.27.07.569c0 3.014-1.69 5.714-4.02 5.714s-4.018-2.7-4.018-5.714q0-.3.07-.569-.518.154-1.02.347c.102 1.4.348 2.755.72 4.043.087.3-.056.623-.32.722-.263.098-.547-.065-.634-.365a21 21 0 0 1-.796-4.762c-.013-.252.12-.484.33-.57 1.062-.44 2.175-.76 3.325-.945h.006q.323-.053.65-.09a2.5 2.5 0 0 1-.285-.8 14.8 14.8 0 0 1-3.188-.8c-.215-.08-.356-.314-.345-.57q.058-1.33.27-2.605c.052-.31.315-.514.588-.455.272.06.452.358.4.668q-.165.986-.231 2.007 1.244.426 2.566.612.088-.304.241-.565a11 11 0 0 1-.366-.062c-.445-.083-.878-.465-.95-1.069a3.9 3.9 0 0 1 .146-1.602 5 5 0 0 1-.528-.573.62.62 0 0 1-.125-.444 4.4 4.4 0 0 1 .45-1.554C5.092.012 5.4-.08 5.64.077" clip-rule="evenodd"/></svg>