<svg xmlns="http://www.w3.org/2000/svg" fill="none" viewBox="1 1 14 14"><path fill="currentColor" d="M3.844 9.75c0-.362.294-.656.656-.656h.009c.362 0 .656.294.656.656v.009a.656.656 0 0 1-.656.656H4.5a.656.656 0 0 1-.656-.656zm.656 1.094a.656.656 0 0 0-.656.656v.009c0 .362.294.656.656.656h.009a.656.656 0 0 0 .656-.656V11.5a.656.656 0 0 0-.656-.656zM5.594 9.75c0-.362.294-.656.656-.656h.009c.362 0 .656.294.656.656v.009a.656.656 0 0 1-.656.656H6.25a.656.656 0 0 1-.656-.656zm.656 1.094a.656.656 0 0 0-.656.656v.009c0 .362.294.656.656.656h.009a.656.656 0 0 0 .656-.656V11.5a.656.656 0 0 0-.656-.656zM7.344 8c0-.362.294-.656.656-.656h.009c.362 0 .656.294.656.656v.009a.656.656 0 0 1-.656.656H8a.656.656 0 0 1-.656-.656zM8 9.094a.656.656 0 0 0-.656.656v.009c0 .362.294.656.656.656h.009a.656.656 0 0 0 .656-.656V9.75a.656.656 0 0 0-.656-.656zM7.344 11.5c0-.362.294-.656.656-.656h.009c.362 0 .656.294.656.656v.009a.656.656 0 0 1-.656.656H8a.656.656 0 0 1-.656-.656zM9.75 7.344A.656.656 0 0 0 9.094 8v.009c0 .362.294.656.656.656h.009a.656.656 0 0 0 .656-.656V8a.656.656 0 0 0-.656-.656zM9.094 9.75c0-.362.294-.656.656-.656h.009c.362 0 .656.294.656.656v.009a.656.656 0 0 1-.656.656H9.75a.656.656 0 0 1-.656-.656zm.656 1.094a.656.656 0 0 0-.656.656v.009c0 .362.294.656.656.656h.009a.656.656 0 0 0 .656-.656V11.5a.656.656 0 0 0-.656-.656zM10.844 8c0-.362.294-.656.656-.656h.009c.362 0 .656.294.656.656v.009a.656.656 0 0 1-.656.656H11.5a.656.656 0 0 1-.656-.656zm.656 1.094a.656.656 0 0 0-.656.656v.009c0 .362.294.656.656.656h.009a.656.656 0 0 0 .656-.656V9.75a.656.656 0 0 0-.656-.656z"/><path fill="currentColor" fill-rule="evenodd" d="M4.281 1c.363 0 .657.294.657.656V2.75h6.125V1.656a.656.656 0 0 1 1.312 0V2.75h.219A2.406 2.406 0 0 1 15 5.156v7.438A2.406 2.406 0 0 1 12.594 15H3.406A2.406 2.406 0 0 1 1 12.594V5.156A2.406 2.406 0 0 1 3.406 2.75h.219V1.656c0-.362.294-.656.656-.656m-.875 4.813c-.604 0-1.094.49-1.094 1.093v5.688c0 .604.49 1.094 1.094 1.094h9.188c.604 0 1.094-.49 1.094-1.094V6.906c0-.604-.49-1.093-1.094-1.093z" clip-rule="evenodd"/></svg>