<svg xmlns="http://www.w3.org/2000/svg" fill="none" viewBox="0 2 16 12"><path fill="currentColor" d="M8 11.2a2.4 2.4 0 1 0 0-4.8 2.4 2.4 0 0 0 0 4.8"/><path fill="currentColor" fill-rule="evenodd" d="M0 6.286C0 5.339.796 4.57 1.778 4.57h.826c.595 0 1.15-.286 1.48-.763l.722-1.045C5.136 2.286 5.69 2 6.285 2h3.43c.595 0 1.15.286 1.48.763l.722 1.045c.33.477.885.763 1.479.763h.826c.982 0 1.778.768 1.778 1.715v6c0 .947-.796 1.714-1.778 1.714H1.778C.796 14 0 13.232 0 12.286zM11.6 8.8a3.6 3.6 0 1 1-7.2 0 3.6 3.6 0 0 1 7.2 0" clip-rule="evenodd"/></svg>