<svg xmlns="http://www.w3.org/2000/svg" fill="none" viewBox="1 1 14 14"><path fill="currentColor" fill-rule="evenodd" d="M2.969 1A1.97 1.97 0 0 0 1 2.969V13.03C1 14.12 1.881 15 2.969 15H13.03A1.97 1.97 0 0 0 15 13.031V2.97A1.97 1.97 0 0 0 13.031 1H2.97Zm3.526 5.495a.656.656 0 0 0-.928-.928L3.598 7.536a.656.656 0 0 0 0 .928l1.97 1.969a.656.656 0 1 0 .927-.928L4.991 8zm3.938-.928a.656.656 0 0 0-.928.928L11.009 8 9.505 9.505a.656.656 0 0 0 .928.928l1.969-1.969a.656.656 0 0 0 0-.928z" clip-rule="evenodd"/></svg>