<svg xmlns="http://www.w3.org/2000/svg" fill="none" viewBox="0 1 16 14"><path fill="currentColor" fill-rule="evenodd" d="M0 2.167c0-.31.12-.606.335-.825S.84 1 1.143 1h13.714c.303 0 .594.123.808.342.215.218.335.515.335.825s-.12.606-.335.825a1.13 1.13 0 0 1-.808.341H1.143c-.303 0-.594-.123-.808-.341A1.18 1.18 0 0 1 0 2.167M0 8c0-.31.12-.606.335-.825s.505-.342.808-.342h13.714c.303 0 .594.123.808.342a1.18 1.18 0 0 1 0 1.65 1.13 1.13 0 0 1-.808.342H1.143a1.13 1.13 0 0 1-.808-.342A1.18 1.18 0 0 1 0 8m0 5.833c0-.31.12-.606.335-.825s.505-.341.808-.341H8c.303 0 .594.123.808.341a1.18 1.18 0 0 1 0 1.65A1.14 1.14 0 0 1 8 15H1.143c-.303 0-.594-.123-.808-.342S0 14.143 0 13.833" clip-rule="evenodd"/></svg>