<svg xmlns="http://www.w3.org/2000/svg" fill="none" viewBox="1 1 14 14"><path fill="currentColor" d="M12.958 1c-.805 0-1.458.603-1.458 1.346v11.308c0 .743.653 1.346 1.458 1.346h.584c.805 0 1.458-.603 1.458-1.346V2.346C15 1.603 14.347 1 13.542 1zM6.25 5.577c0-.744.653-1.346 1.458-1.346h.584c.805 0 1.458.602 1.458 1.346v8.077c0 .743-.653 1.346-1.458 1.346h-.584c-.805 0-1.458-.603-1.458-1.346zM1 8.808c0-.744.653-1.346 1.458-1.346h.584c.805 0 1.458.602 1.458 1.346v4.846C4.5 14.397 3.847 15 3.042 15h-.584C1.653 15 1 14.397 1 13.654z"/></svg>