<svg xmlns="http://www.w3.org/2000/svg" fill="none" viewBox="0 1 16 14"><path fill="currentColor" fill-rule="evenodd" d="M2.551 1.374A40 40 0 0 1 8.001 1c1.85 0 3.67.128 5.448.374C14.956 1.583 16 2.827 16 4.224v4.321c0 1.397-1.044 2.641-2.551 2.85q-1.31.182-2.648.276a.3.3 0 0 0-.226.122l-2.1 2.967A.58.58 0 0 1 8 15a.58.58 0 0 1-.475-.24l-2.1-2.967a.3.3 0 0 0-.226-.122 40 40 0 0 1-2.648-.276C1.044 11.186 0 9.942 0 8.545v-4.32c0-1.398 1.044-2.642 2.551-2.85ZM4 5.308c0-.298.256-.539.571-.539h6.858c.315 0 .571.241.571.539 0 .297-.256.538-.571.538H4.57c-.315 0-.571-.24-.571-.538Zm.571 1.615c-.315 0-.571.241-.571.539 0 .297.256.538.571.538H8c.316 0 .571-.241.571-.538S8.316 6.923 8 6.923z" clip-rule="evenodd"/></svg>