<svg xmlns="http://www.w3.org/2000/svg" fill="none" viewBox="1 1 14 13"><path fill="currentColor" d="M3.275 1.272a32.8 32.8 0 0 1 8.45 0c1.281.166 2.194 1.24 2.27 2.485a3 3 0 0 0-.688-.141 34 34 0 0 0-5.614 0C6.121 3.746 5 5.076 5 6.572V9.43a2.98 2.98 0 0 0 1.622 2.656l-1.768 1.768A.5.5 0 0 1 4 13.5v-2.686a33 33 0 0 1-.725-.086C1.936 10.554 1 9.388 1 8.075v-4.15c0-1.314.936-2.479 2.275-2.653"/><path fill="currentColor" d="M10.5 4.5q-1.376 0-2.724.113C6.75 4.698 6 5.569 6 6.573v2.856c0 1.005.752 1.877 1.78 1.96q1.244.102 2.512.11l1.854 1.854A.5.5 0 0 0 13 13v-1.593l.22-.018c1.028-.083 1.78-.955 1.78-1.96V6.572c0-1.003-.75-1.874-1.776-1.96A33 33 0 0 0 10.5 4.5"/></svg>