<svg xmlns="http://www.w3.org/2000/svg" fill="none" viewBox="-0.03 -0.04 16.05 16.06"><path fill="currentColor" d="M11.556 4.444H4.444v7.112h7.112V4.444Z"/><path fill="currentColor" fill-rule="evenodd" d="M7.333 1.778V.667a.667.667 0 0 1 1.334 0v1.11H10V.668a.667.667 0 0 1 1.333 0v1.11h.445a2.444 2.444 0 0 1 2.444 2.445v.445h1.111a.667.667 0 1 1 0 1.333h-1.11v1.333h1.11a.667.667 0 1 1 0 1.334h-1.11V10h1.11a.667.667 0 0 1 0 1.333h-1.11v.445a2.444 2.444 0 0 1-2.445 2.444h-.445v1.111a.667.667 0 1 1-1.333 0v-1.11H8.667v1.11a.667.667 0 1 1-1.334 0v-1.11H6v1.11a.667.667 0 1 1-1.333 0v-1.11h-.445a2.444 2.444 0 0 1-2.444-2.445v-.445H.667a.667.667 0 1 1 0-1.333h1.11V8.667H.668a.667.667 0 0 1 0-1.334h1.11V6H.668a.667.667 0 0 1 0-1.333h1.11v-.445a2.444 2.444 0 0 1 2.445-2.444h.445V.667A.667.667 0 1 1 6 .667v1.11h1.333ZM3.111 4.222c0-.613.498-1.11 1.111-1.11h7.556c.613 0 1.11.497 1.11 1.11v7.556a1.11 1.11 0 0 1-1.11 1.11H4.222a1.111 1.111 0 0 1-1.11-1.11V4.222Z" clip-rule="evenodd"/></svg>