<svg xmlns="http://www.w3.org/2000/svg" fill="none" viewBox="-0.15 0 16.31 16"><path fill="currentColor" d="M8.15 2.585v10.808c0 .138.112.25.25.243 1.31-.066 2.555-.652 3.487-1.65.991-1.06 1.548-2.498 1.548-3.997 0-1.5-.557-2.938-1.548-3.998-.932-.997-2.177-1.583-3.487-1.65a.24.24 0 0 0-.25.244Z"/><path fill="currentColor" fill-rule="evenodd" d="M7.999 0a7.998 7.998 0 1 0 0 15.993A7.998 7.998 0 1 0 7.999 0ZM1.5 7.997A6.498 6.498 0 0 1 7.999 1.5a6.498 6.498 0 1 1 0 12.993A6.498 6.498 0 0 1 1.5 7.997Z" clip-rule="evenodd"/></svg>