<svg xmlns="http://www.w3.org/2000/svg" fill="none" viewBox="0.67 0.67 14 14"><path fill="currentColor" fill-rule="evenodd" d="M7.667.667c.263 0 .477.213.477.477v2.864a.477.477 0 1 1-.955 0V1.144c0-.264.214-.477.478-.477M2.666 2.715a.477.477 0 0 1 .675 0L5.3 4.675a.477.477 0 0 1-.675.674L2.665 3.39a.477.477 0 0 1 0-.675Zm10.002 0a.477.477 0 0 1 0 .675l-1.96 1.96a.477.477 0 0 1-.674-.675l1.959-1.96a.477.477 0 0 1 .675 0M.667 7.668c0-.264.213-.478.477-.478h2.864a.477.477 0 0 1 0 .955H1.144a.477.477 0 0 1-.477-.477m10.182 0c0-.264.213-.478.477-.478h2.864a.477.477 0 0 1 0 .955h-2.864a.477.477 0 0 1-.477-.477m-5.55 2.367a.477.477 0 0 1 0 .675l-1.958 1.959a.477.477 0 1 1-.675-.675l1.959-1.96a.477.477 0 0 1 .675 0Zm4.735 0a.477.477 0 0 1 .675 0l1.959 1.959a.477.477 0 1 1-.675.675l-1.96-1.96a.477.477 0 0 1 0-.674Zm-2.367.814c.263 0 .477.214.477.478v2.863a.477.477 0 1 1-.955 0v-2.863c0-.264.214-.478.478-.478" clip-rule="evenodd"/></svg>