<svg xmlns="http://www.w3.org/2000/svg" fill="none" viewBox="1 1 14 14"><path fill="currentColor" d="M2.515 5.455a6.047 6.047 0 0 1 11.35 1.07.477.477 0 1 0 .926-.232A7.003 7.003 0 0 0 1.955 4.47V3.386a.477.477 0 0 0-.955 0v2.387a.636.636 0 0 0 .636.636h2.387a.477.477 0 1 0 0-.954zm-.38 4.02a.477.477 0 0 0-.925.232 7.002 7.002 0 0 0 12.835 1.824v1.083a.477.477 0 1 0 .955 0v-2.387a.636.636 0 0 0-.636-.636h-2.387a.477.477 0 1 0 0 .955h1.508a6.048 6.048 0 0 1-11.35-1.07Z"/><path fill="currentColor" d="M8.9 8.9a1.273 1.273 0 1 1-1.83-1.768A1.273 1.273 0 0 1 8.9 8.9"/><path stroke="currentColor" stroke-width=".25" d="M2.515 5.455a6.047 6.047 0 0 1 11.35 1.07.477.477 0 1 0 .926-.232A7.003 7.003 0 0 0 1.955 4.47V3.386a.477.477 0 0 0-.955 0v2.387a.636.636 0 0 0 .636.636h2.387a.477.477 0 1 0 0-.954zm-.38 4.02a.477.477 0 0 0-.925.232 7.002 7.002 0 0 0 12.835 1.824v1.083a.477.477 0 1 0 .955 0v-2.387a.636.636 0 0 0-.636-.636h-2.387a.477.477 0 1 0 0 .955h1.508a6.048 6.048 0 0 1-11.35-1.07Z"/><path stroke="currentColor" stroke-width=".25" d="M8.9 8.9a1.273 1.273 0 1 1-1.83-1.768A1.273 1.273 0 0 1 8.9 8.9Z"/></svg>