<svg xmlns="http://www.w3.org/2000/svg" fill="none" viewBox="0.5 0.5 15 15"><path fill="currentColor" d="M4.513 2.54A6.48 6.48 0 0 1 14.477 8a6.478 6.478 0 0 1-12.954.162.511.511 0 1 0-1.023.025A7.5 7.5 0 0 0 8 15.5 7.5 7.5 0 1 0 1.523 4.214V3.057a.511.511 0 1 0-1.023 0v2.557a.68.68 0 0 0 .682.681h2.557a.511.511 0 0 0 0-1.022H2.122a6.5 6.5 0 0 1 2.39-2.733Z"/><path fill="currentColor" d="M8.191 4.4c.096.096.15.226.15.361v3.454L10.47 9.43a.512.512 0 0 1-.508.888L7.576 8.955a.51.51 0 0 1-.258-.444v-3.75a.511.511 0 0 1 .873-.361"/><path stroke="currentColor" stroke-width=".5" d="M4.513 2.54A6.48 6.48 0 0 1 14.477 8a6.478 6.478 0 0 1-12.954.162.511.511 0 1 0-1.023.025A7.5 7.5 0 0 0 8 15.5 7.5 7.5 0 1 0 1.523 4.214V3.057a.511.511 0 1 0-1.023 0v2.557a.68.68 0 0 0 .682.681h2.557a.511.511 0 0 0 0-1.022H2.122a6.5 6.5 0 0 1 2.39-2.733Z"/><path stroke="currentColor" stroke-width=".5" d="M8.191 4.4c.096.096.15.226.15.361v3.454L10.47 9.43a.512.512 0 0 1-.508.888L7.576 8.955a.51.51 0 0 1-.258-.444v-3.75a.511.511 0 0 1 .873-.361Z"/></svg>