<svg xmlns="http://www.w3.org/2000/svg" fill="none" viewBox="0 2 16 12"><path fill="currentColor" fill-rule="evenodd" d="M4 14c-2.21 0-4-1.727-4-3.857 0-1.699 1.139-3.14 2.72-3.656a4 4 0 0 1-.053-.63c0-2.13 1.79-3.857 4-3.857A4.03 4.03 0 0 1 10.1 3.876a3.2 3.2 0 0 1 1.011-.162c1.718 0 3.111 1.343 3.111 3a2.9 2.9 0 0 1-.119.824C15.231 8.113 16 9.256 16 10.571 16 12.465 14.408 14 12.444 14zm3.25-2.357a.75.75 0 0 0 1.5 0V7.932l1.599 1.66a.75.75 0 1 0 1.08-1.04l-2.889-3a.75.75 0 0 0-1.08 0l-2.89 3a.75.75 0 1 0 1.081 1.04l1.599-1.66v3.71Z" clip-rule="evenodd"/></svg>