<svg xmlns="http://www.w3.org/2000/svg" fill="none" viewBox="1 2 14 12"><path fill="currentColor" fill-rule="evenodd" d="M5.185 4.415a.559.559 0 0 1 0 .795L2.37 8l2.815 2.79a.559.559 0 0 1 0 .795.571.571 0 0 1-.803 0L1.166 8.398a.559.559 0 0 1 0-.796l3.216-3.187a.571.571 0 0 1 .803 0Zm5.63 0a.571.571 0 0 1 .803 0l3.216 3.187a.559.559 0 0 1 0 .796l-3.216 3.187a.571.571 0 0 1-.803 0 .559.559 0 0 1 0-.795L13.63 8l-2.815-2.79a.559.559 0 0 1 0-.795ZM9.042 2.008a.563.563 0 0 1 .463.65L7.613 13.533a.567.567 0 0 1-1.118-.191L8.387 2.467a.567.567 0 0 1 .655-.459Z" clip-rule="evenodd"/></svg>