<svg xmlns="http://www.w3.org/2000/svg" fill="none" viewBox="2 0.5 12.83 15.16"><path fill="currentColor" d="M5.655 3.417a.762.762 0 0 1 .214-.54.736.736 0 0 1 .536-.223.726.726 0 0 1 .525.238l.846.87V1.25c0-.197.076-.387.213-.528a.73.73 0 0 1 1.046 0 .757.757 0 0 1 .214.528v2.511l.854-.878a.73.73 0 0 1 1.028.018.757.757 0 0 1 .018 1.037l-.006.006-2.108 2.167a.73.73 0 0 1-1.046 0L5.884 3.947a.75.75 0 0 1-.229-.53ZM2.75 7.251a.75.75 0 0 0 0 1.5h.667a.75.75 0 0 0 0-1.5H2.75Zm2.667 0a.75.75 0 1 0 0 1.5h.666a.75.75 0 1 0 0-1.5h-.666Zm2.666 0a.75.75 0 0 0 0 1.5h.667a.75.75 0 1 0 0-1.5h-.667Zm2.667 0a.75.75 0 1 0 0 1.5h.667a.75.75 0 0 0 0-1.5h-.667Zm2.667 0a.75.75 0 0 0 0 1.5h.666a.75.75 0 0 0 0-1.5h-.666ZM5.655 12.75a.763.763 0 0 0 .214.54.737.737 0 0 0 .536.222.727.727 0 0 0 .525-.237l.846-.87v2.512c0 .196.076.386.213.528a.73.73 0 0 0 1.046 0 .757.757 0 0 0 .214-.528v-2.512l.848.873.007.006a.73.73 0 0 0 1.027-.019.757.757 0 0 0 .018-1.036l-2.114-2.173a.73.73 0 0 0-1.046 0L5.884 12.22a.75.75 0 0 0-.229.53Z"/></svg>