<svg xmlns="http://www.w3.org/2000/svg" fill="none" viewBox="0 0 16 16"><path fill="currentColor" d="M2.242 3.99c2.064-2.75 6.34-3.55 9.384-1.658 3.005 1.868 4.11 5.461 2.879 8.832-1.162 3.183-4.224 4.443-6.431 2.842-.827-.6-1.148-1.351-1.302-2.573l-.075-.693-.031-.28c-.087-.655-.219-.948-.495-1.103-.376-.21-.627-.214-1.12-.023l-.247.102-.125.055c-.712.31-1.186.418-1.785.292l-.14-.033-.115-.033C.68 9.111.39 6.454 2.242 3.99m9.078 3.315a.878.878 0 1 0 1.697-.454.878.878 0 0 0-1.697.454m.347 2.45a.88.88 0 0 0 1.392.487.875.875 0 0 0 .303-.942.877.877 0 0 0-1.695.455M9.93 5.197a.878.878 0 1 0 1.696-.455.878.878 0 0 0-1.696.455m-.02 6.318a.876.876 0 0 0 1.383.47.878.878 0 1 0-1.383-.47m-2.455-7a.878.878 0 1 0 1.7-.44.878.878 0 0 0-1.7.44"/></svg>