<svg xmlns="http://www.w3.org/2000/svg" fill="none" viewBox="1 1 14 14"><path fill="currentColor" fill-rule="evenodd" d="M1 2.969C1 1.88 1.881 1 2.969 1H13.03C14.12 1 15 1.881 15 2.969v7.437a1.97 1.97 0 0 1-1.969 1.969h-2.717c.172.58.512 1.086.963 1.467A.656.656 0 0 1 10.854 15H5.146a.656.656 0 0 1-.423-1.158c.452-.38.79-.888.963-1.467H2.969A1.97 1.97 0 0 1 1 10.406V2.97Zm1.313 0c0-.363.293-.656.656-.656H13.03c.363 0 .656.293.656.656V9.53a.656.656 0 0 1-.656.656H2.97a.656.656 0 0 1-.656-.656V2.97Z" clip-rule="evenodd"/></svg>