<svg xmlns="http://www.w3.org/2000/svg" fill="none" viewBox="0.75 0.75 15.17 14.51"><path fill="currentColor" fill-rule="evenodd" d="M4.876 4.876c-.272.27-.601.471-.96.588v5.37a1.25 1.25 0 0 0 1.25 1.25h2.106l-.385-.386a.75.75 0 1 1 1.061-1.06l1.666 1.665a.75.75 0 0 1 0 1.06L7.946 15.03a.75.75 0 0 1-1.06-1.06l.386-.387H5.167a2.75 2.75 0 0 1-2.75-2.75V5.464a2.416 2.416 0 1 1 2.459-.588ZM2.518 2.518a.917.917 0 1 1 1.297 1.297.917.917 0 0 1-1.297-1.297Zm9.273 8.606c.271-.27.6-.471.959-.588v-5.37a1.25 1.25 0 0 0-1.25-1.25H9.394l.39.39a.75.75 0 0 1-1.061 1.06l-.003-.003-1.667-1.666a.75.75 0 0 1 0-1.06L8.72.97a.75.75 0 0 1 1.06 1.06l-.386.387H11.5a2.75 2.75 0 0 1 2.75 2.75v5.369a2.415 2.415 0 0 1 .959 4.006 2.417 2.417 0 1 1-3.418-3.418Zm1.06 1.061a.916.916 0 1 1 1.297 1.296.916.916 0 0 1-1.296-1.296Z" clip-rule="evenodd"/></svg>