<svg xmlns="http://www.w3.org/2000/svg" fill="none" viewBox="1.08 1.08 13.83 13.83"><path fill="currentColor" fill-rule="evenodd" d="M1.833 1.083a.75.75 0 0 0 0 1.5h3.584v2.598a2.918 2.918 0 0 0 0 5.638v2.598H1.833a.75.75 0 0 0 0 1.5H5.5c.782 0 1.417-.635 1.417-1.417v-2.68a2.92 2.92 0 0 0 2.069-2.07h3.27l-.933.867a.75.75 0 0 0 1.02 1.1l2.334-2.167a.75.75 0 0 0 0-1.1l-2.333-2.166a.75.75 0 1 0-1.021 1.099l.934.867H8.986a2.92 2.92 0 0 0-2.07-2.07V2.5c0-.782-.634-1.417-1.416-1.417zM4.75 8a1.417 1.417 0 1 1 2.833 0A1.417 1.417 0 0 1 4.75 8" clip-rule="evenodd"/></svg>