<svg xmlns="http://www.w3.org/2000/svg" fill="none" viewBox="0.75 0.75 14.5 14.5"><path fill="currentColor" fill-rule="evenodd" d="M8 .75a.727.727 0 0 0-.727.727v1.231a5.344 5.344 0 0 0-4.565 4.565h-1.23a.727.727 0 0 0 0 1.454h1.23a5.344 5.344 0 0 0 4.565 4.565v1.23a.727.727 0 1 0 1.454 0v-1.23a5.344 5.344 0 0 0 4.565-4.565h1.23a.727.727 0 1 0 0-1.454h-1.23a5.344 5.344 0 0 0-4.565-4.565v-1.23A.727.727 0 0 0 8 .75ZM6.34 8a.727.727 0 0 0-.726-.727H4.182a3.89 3.89 0 0 1 3.09-3.091v1.432a.727.727 0 0 0 1.455 0V4.182a3.89 3.89 0 0 1 3.091 3.09h-1.432a.727.727 0 1 0 0 1.455h1.433a3.891 3.891 0 0 1-3.092 3.091v-1.432a.727.727 0 1 0-1.454 0v1.433a3.89 3.89 0 0 1-3.091-3.092h1.432A.727.727 0 0 0 6.34 8Z" clip-rule="evenodd"/></svg>