<svg xmlns="http://www.w3.org/2000/svg" fill="none" viewBox="2 0 12 16"><path fill="currentColor" d="M14 8V6.38c-.34.329-.722.612-1.12.847-1.313.778-3.04 1.217-4.88 1.217s-3.567-.439-4.88-1.217A6 6 0 0 1 2 6.38v1.625c.005 1.962 2.69 3.55 6 3.55 3.314 0 6-1.591 6-3.555"/><path fill="currentColor" d="M14 10.825c-.34.328-.722.611-1.12.847-1.313.778-3.04 1.217-4.88 1.217s-3.567-.439-4.88-1.217A6 6 0 0 1 2 10.825v1.62C2 14.407 4.686 16 8 16s6-1.592 6-3.555zM8 0c3.314 0 6 1.592 6 3.555s-2.686 3.556-6 3.556c-3.31 0-5.995-1.589-6-3.55v-.005C2 1.592 4.686 0 8 0"/></svg>