<svg xmlns="http://www.w3.org/2000/svg" fill="none" viewBox="1.08 1.08 13.85 13.83"><path fill="currentColor" fill-rule="evenodd" d="M1.833 1.083a.75.75 0 0 0 0 1.5h3.584v2.598a2.918 2.918 0 0 0 0 5.638v2.598H1.833a.75.75 0 0 0 0 1.5H5.5c.782 0 1.417-.635 1.417-1.417v-2.68a2.918 2.918 0 0 0 0-5.64V2.5c0-.782-.635-1.417-1.417-1.417zM4.75 8a1.417 1.417 0 1 1 2.833 0A1.417 1.417 0 0 1 4.75 8" clip-rule="evenodd"/><path fill="currentColor" d="M10.364 5.303a.75.75 0 0 0-1.061 1.06L10.939 8 9.303 9.636a.75.75 0 1 0 1.06 1.06L12 9.062l1.636 1.636a.75.75 0 1 0 1.06-1.06L13.062 8l1.636-1.636a.75.75 0 0 0-1.06-1.061L12 6.939z"/></svg>