<svg xmlns="http://www.w3.org/2000/svg" fill="none" viewBox="2 1 12 14"><path fill="currentColor" fill-rule="evenodd" d="M11 2.985v.152a32.545 32.545 0 0 1 2.585.341.5.5 0 1 1-.17.986 32.612 32.612 0 0 0-.14-.024l-.67 8.713A2 2 0 0 1 10.611 15H5.389a2 2 0 0 1-1.994-1.847l-.67-8.713a33.45 33.45 0 0 0-.14.024.5.5 0 1 1-.17-.986A32.347 32.347 0 0 1 5 3.137v-.152c0-1.043.808-1.933 1.877-1.967a35.12 35.12 0 0 1 2.246 0C10.192 1.052 11 1.942 11 2.985Zm-4.09-.968a34.119 34.119 0 0 1 2.182 0 .953.953 0 0 1 .91.968v.076a32.998 32.998 0 0 0-4 0v-.076c0-.529.405-.951.908-.968Zm-.237 3.964a.5.5 0 1 0-.999.038l.231 6a.5.5 0 1 0 1-.038l-.232-6Zm3.654.038a.5.5 0 1 0-.999-.038l-.23 6a.5.5 0 1 0 .999.038l.23-6Z" clip-rule="evenodd"/></svg>