<svg xmlns="http://www.w3.org/2000/svg" fill="none" viewBox="0 0 15 12"><path fill="currentColor" fill-rule="evenodd" d="M2.184 10.433h10a.4.4 0 0 0 .283-.115.4.4 0 0 0 .117-.277V1.959a.397.397 0 0 0-.4-.392h-10a.4.4 0 0 0-.283.115.4.4 0 0 0-.117.277v8.082c0 .104.042.203.117.277a.4.4 0 0 0 .283.115m10 1.567h-10c-.53 0-1.04-.206-1.414-.574a1.94 1.94 0 0 1-.586-1.385V1.959c0-.52.21-1.018.586-1.385A2.02 2.02 0 0 1 2.184 0h10c.53 0 1.04.206 1.414.574.375.367.586.866.586 1.385v8.082c0 .52-.21 1.018-.586 1.385a2.02 2.02 0 0 1-1.414.574" clip-rule="evenodd"/></svg>