<svg xmlns="http://www.w3.org/2000/svg" fill="none" viewBox="0 0 15 12"><path fill="currentColor" fill-rule="evenodd" d="M2.184 10.53h10c.133 0 .26-.051.354-.143a.5.5 0 0 0 .146-.346V1.959a.5.5 0 0 0-.146-.346.5.5 0 0 0-.354-.144h-10a.5.5 0 0 0-.353.144.5.5 0 0 0-.147.346v8.082c0 .13.053.254.147.346.093.092.22.144.353.144Zm10 1.47h-10c-.53 0-1.04-.206-1.414-.574a1.94 1.94 0 0 1-.586-1.385V1.959c0-.52.21-1.018.586-1.385A2.02 2.02 0 0 1 2.184 0h10c.53 0 1.04.206 1.414.574.375.367.586.866.586 1.385v8.082c0 .52-.21 1.018-.586 1.385a2.02 2.02 0 0 1-1.414.574m-8.25-3.673a.76.76 0 0 1-.53-.216.727.727 0 0 1 0-1.039.76.76 0 0 1 .53-.215h6.5a.76.76 0 0 1 .53.215.727.727 0 0 1 0 1.04.76.76 0 0 1-.53.215z" clip-rule="evenodd"/></svg>