<svg xmlns="http://www.w3.org/2000/svg" fill="none" viewBox="0 0 12 15"><path fill="currentColor" fill-rule="evenodd" d="M1.364 0C.61 0 0 .6 0 1.34v12.32C0 14.4.61 15 1.364 15h9.272C11.39 15 12 14.4 12 13.66V8.037c0-1.48-1.221-2.679-2.727-2.679H7.909c-.753 0-1.364-.6-1.364-1.34V2.68C6.545 1.199 5.325 0 3.818 0zm1.363 9.643a.54.54 0 0 1 .546-.536h5.454a.54.54 0 0 1 .546.536.54.54 0 0 1-.546.536H3.273a.54.54 0 0 1-.546-.536m.546 1.607a.54.54 0 0 0-.546.536.54.54 0 0 0 .546.535H6a.54.54 0 0 0 .545-.535A.54.54 0 0 0 6 11.25z" clip-rule="evenodd"/><path fill="currentColor" d="M6.706.226c.58.657.93 1.515.93 2.453v1.339a.27.27 0 0 0 .273.268h1.364c.955 0 1.828.344 2.497.913C11.124 2.771 9.178.86 6.706.226"/></svg>