<svg xmlns="http://www.w3.org/2000/svg" fill="none" viewBox="0 0 16 16"><path fill="currentColor" fill-rule="evenodd" d="M11.775 1.232c.15.012.3.025.449.04C13.25 1.368 14 2.363 14 3.51v7.346c0 1.263-.895 2.286-2 2.286v-1.714c0-4.512-3.05-8.21-6.923-8.547.216-.862.867-1.532 1.699-1.61.15-.015.299-.028.449-.04C7.558.5 8.228 0 9 0h1c.772 0 1.442.5 1.775 1.232ZM8 2.287c0-.631.448-1.143 1-1.143h1c.552 0 1 .512 1 1.143H8Z" clip-rule="evenodd"/><path fill="currentColor" d="M2 5.429C2 4.639 2.56 4 3.25 4h.25C4.88 4 6 5.28 6 6.857v1.429c0 .789.56 1.428 1.25 1.428H8.5c1.38 0 2.5 1.28 2.5 2.857v2c0 .79-.56 1.429-1.25 1.429h-6.5C2.56 16 2 15.36 2 14.571V5.43Z"/><path fill="currentColor" d="M7 6.857c0-1-.321-1.915-.853-2.616 2.266.676 4.05 2.715 4.642 5.305-.613-.607-1.414-.975-2.289-.975H7.25c-.138 0-.25-.127-.25-.285V6.857Z"/></svg>