<svg xmlns="http://www.w3.org/2000/svg" fill="none" viewBox="0 0 16 16"><path fill="currentColor" fill-rule="evenodd" d="M9.867 2.37a3.112 3.112 0 1 1 3.785 3.758l-.319.085V8c0 .177-.07.346-.195.471l-.222.223a.667.667 0 0 1-.943 0l-.75-.751-5.694 5.693a2 2 0 0 1-1.415.586h-.45a.67.67 0 0 0-.472.196l-1.387 1.387a.667.667 0 0 1-.943 0l-.667-.667a.667.667 0 0 1 0-.943l1.388-1.387a.67.67 0 0 0 .195-.471v-.451a2 2 0 0 1 .586-1.415l5.693-5.693-.75-.751a.667.667 0 0 1 0-.943l.222-.222A.67.67 0 0 1 8 2.667h1.787zm-6.56 9.044L9 5.721 10.28 7l-5.694 5.694a.67.67 0 0 1-.472.195h-.45a2 2 0 0 0-.667.114 2 2 0 0 0 .114-.666v-.451c0-.177.07-.347.195-.472Z" clip-rule="evenodd"/></svg>