<svg xmlns="http://www.w3.org/2000/svg" fill="none" viewBox="1 1 14 14"><path fill="currentColor" d="M2.969 1A1.969 1.969 0 0 0 1 2.969v5.687c0 1.088.881 1.969 1.969 1.969h1.094V7.344a3.281 3.281 0 0 1 3.28-3.282h3.282V2.97A1.969 1.969 0 0 0 8.656 1H2.97Z"/><path fill="currentColor" fill-rule="evenodd" d="M5.375 7.344c0-1.088.881-1.969 1.969-1.969h5.687c1.088 0 1.969.881 1.969 1.969v5.687A1.969 1.969 0 0 1 13.031 15H7.344a1.969 1.969 0 0 1-1.969-1.969V7.344Zm4.813.218c.271 0 .492.22.492.493v1.64h1.64a.492.492 0 0 1 0 .985h-1.64v1.64a.492.492 0 0 1-.985 0v-1.64h-1.64a.492.492 0 0 1 0-.985h1.64v-1.64c0-.272.22-.492.492-.492Z" clip-rule="evenodd"/></svg>