<svg xmlns="http://www.w3.org/2000/svg" fill="none" viewBox="0 1 16 15"><path fill="currentColor" fill-rule="evenodd" d="M6.161 2.1a2.088 2.088 0 0 1 3.678 0l5.887 10.689C16.517 14.226 15.5 16 13.888 16H2.113C.499 16-.517 14.226.274 12.789zm2.894 10.668c0 .286-.111.56-.309.762s-.466.316-.746.316-.548-.114-.746-.316-.309-.476-.309-.762.111-.56.309-.762a1.044 1.044 0 0 1 1.492 0c.198.202.309.476.309.762M8 4.148c-.28 0-.548.113-.746.315a1.1 1.1 0 0 0-.309.762v3.233c0 .286.111.56.309.762s.466.316.746.316.548-.114.746-.316a1.1 1.1 0 0 0 .309-.762V5.225c0-.286-.111-.56-.309-.762A1.04 1.04 0 0 0 8 4.148" clip-rule="evenodd"/></svg>