<svg xmlns="http://www.w3.org/2000/svg" fill="none" viewBox="1.58 0.42 12.83 15.17"><path fill="currentColor" d="M8 .417a.75.75 0 0 0-.53.22L5.303 2.802l-.006.007a.75.75 0 0 0 1.06 1.06l.893-.893V5.5a.75.75 0 0 0 1.5 0V2.977l.886.887.007.006a.75.75 0 0 0 1.06-1.06L8.53.635A.75.75 0 0 0 8 .417M2.333 7.25a.75.75 0 1 0 0 1.5H3a.75.75 0 0 0 0-1.5zM5 7.25a.75.75 0 1 0 0 1.5h.667a.75.75 0 0 0 0-1.5zm2.667 0a.75.75 0 1 0 0 1.5h.666a.75.75 0 0 0 0-1.5zm2.666 0a.75.75 0 1 0 0 1.5H11a.75.75 0 1 0 0-1.5zm2.667 0a.75.75 0 1 0 0 1.5h.667a.75.75 0 1 0 0-1.5zm-5 2.5a.75.75 0 0 0-.75.75v2.523l-.884-.884a.75.75 0 1 0-1.06 1.06l2.164 2.164a.75.75 0 0 0 1.06 0l2.164-2.163a.75.75 0 1 0-1.06-1.06l-.884.883V10.5A.75.75 0 0 0 8 9.75"/></svg>