<svg xmlns="http://www.w3.org/2000/svg" fill="none" viewBox="1 1 14 14"><path fill="currentColor" fill-rule="evenodd" d="M12.56 1.07a.656.656 0 0 1 .88.293A14.8 14.8 0 0 1 15 8c0 2.384-.562 4.638-1.56 6.637a.656.656 0 0 1-1.174-.587A13.5 13.5 0 0 0 13.687 8a13.5 13.5 0 0 0-1.42-6.05.656.656 0 0 1 .293-.88m-9.12 0a.656.656 0 0 1 .293.88A13.5 13.5 0 0 0 2.313 8a13.5 13.5 0 0 0 1.42 6.05.656.656 0 0 1-1.174.587A14.8 14.8 0 0 1 1 8c0-2.384.561-4.638 1.56-6.637a.656.656 0 0 1 .88-.294Zm1.999 3.11a1.312 1.312 0 0 1 1.941.592l.75 1.82 1.002-1.55a1.97 1.97 0 0 1 2.745-.569l.205.137a.656.656 0 1 1-.728 1.092l-.205-.137a.656.656 0 0 0-.915.19L8.738 8.068l1.095 2.66.646-.43a.656.656 0 1 1 .729 1.092l-.647.43a1.312 1.312 0 0 1-1.942-.592l-.749-1.82-1.003 1.55a1.97 1.97 0 0 1-2.744.569l-.206-.137a.656.656 0 1 1 .728-1.092l.206.137a.656.656 0 0 0 .915-.19l1.496-2.313-1.095-2.66-.647.43a.656.656 0 0 1-.728-1.092z" clip-rule="evenodd"/></svg>