<svg xmlns="http://www.w3.org/2000/svg" fill="none" viewBox="0 0 16 14"><path fill="currentColor" fill-rule="evenodd" d="M2.309.192a.621.621 0 0 0-.898 0 .672.672 0 0 0 0 .928l12.28 12.688a.623.623 0 0 0 .9 0 .672.672 0 0 0 0-.928l-1.479-1.527a8.753 8.753 0 0 0 2.794-3.832 1.49 1.49 0 0 0 0-1.038C14.686 3.203 11.607.875 8 .875A8.22 8.22 0 0 0 3.982 1.92L2.309.192Zm3.787 3.913.925.955c.293-.158.626-.247.98-.247 1.169 0 2.117.979 2.117 2.187 0 .365-.087.71-.24 1.012l.925.955A3.56 3.56 0 0 0 11.389 7c0-1.933-1.517-3.5-3.388-3.5-.706 0-1.362.223-1.905.605Z" clip-rule="evenodd"/><path fill="currentColor" d="m8.634 10.439 2.137 2.207c-.868.31-1.8.479-2.77.479-3.606 0-6.686-2.328-7.908-5.608a1.49 1.49 0 0 1 0-1.038 8.795 8.795 0 0 1 1.841-2.962l2.738 2.828c-.039.213-.06.431-.06.655 0 1.933 1.518 3.5 3.389 3.5.216 0 .428-.021.633-.061Z"/></svg>