<svg xmlns="http://www.w3.org/2000/svg" fill="none" viewBox="0 2 16 12"><path fill="currentColor" d="M8 10.143c1.17 0 2.118-.96 2.118-2.143S9.17 5.857 8 5.857 5.883 6.817 5.883 8 6.831 10.143 8 10.143"/><path fill="currentColor" fill-rule="evenodd" d="M.093 8.506a1.43 1.43 0 0 1 0-1.017C1.318 4.28 4.396 2 8 2c3.606 0 6.686 2.28 7.908 5.494.124.327.124.69 0 1.017C14.682 11.72 11.604 14 8 14S1.315 11.72.093 8.506M11.39 8c0 1.894-1.517 3.429-3.388 3.429S4.613 9.894 4.613 8 6.13 4.571 8 4.571 11.388 6.106 11.388 8Z" clip-rule="evenodd"/></svg>