<svg xmlns="http://www.w3.org/2000/svg" fill="none" viewBox="1.33 0.33 13.33 15"><path fill="currentColor" d="M7.462.43a.5.5 0 0 0-.795.403v1.3a6.667 6.667 0 1 0 6.047 1.82.5.5 0 1 0-.707.707 5.667 5.667 0 1 1-5.34-1.502V4.5a.5.5 0 0 0 .795.403l2.5-1.833a.5.5 0 0 0 0-.807z"/><path fill="currentColor" d="M6.5 6.5a.5.5 0 0 0-.743-.437l-1.5.833a.5.5 0 0 0 .486.874l.757-.42v4.15a.5.5 0 0 0 1 0z"/><path fill="currentColor" fill-rule="evenodd" d="M11.667 9c0 1.657-.729 3-2.167 3s-2.167-1.343-2.167-3 .73-3 2.167-3c1.438 0 2.167 1.343 2.167 3m-1 0c0 .7-.157 1.238-.377 1.567-.193.29-.435.433-.79.433s-.597-.143-.79-.433c-.22-.33-.377-.867-.377-1.567s.157-1.237.377-1.567c.193-.29.435-.433.79-.433s.597.143.79.433c.22.33.377.867.377 1.567" clip-rule="evenodd"/></svg>