<svg xmlns="http://www.w3.org/2000/svg" fill="none" viewBox="0 0 16 16"><path fill="currentColor" fill-rule="evenodd" d="M1.03 1c.294 0 .531.241.531.538v.388l1.301-.33a6.8 6.8 0 0 1 4.758.53l.077.038a5.76 5.76 0 0 0 3.947.468l2.2-.525a.53.53 0 0 1 .473.12.54.54 0 0 1 .177.462 34.8 34.8 0 0 0 .003 7.421.54.54 0 0 1-.406.583l-2.204.526a6.8 6.8 0 0 1-4.665-.553l-.076-.039a5.76 5.76 0 0 0-4.027-.448l-1.558.395v3.887a.535.535 0 0 1-.53.539.535.535 0 0 1-.531-.539V1.538C.5 1.241.738 1 1.03 1" clip-rule="evenodd"/></svg>