<svg xmlns="http://www.w3.org/2000/svg" fill="none" viewBox="0.5 0 15 16"><path fill="currentColor" fill-rule="evenodd" d="M6.098.715A.88.88 0 0 1 6.96 0h2.078c.42 0 .781.3.863.715l.291 1.468c.62.239 1.193.576 1.698.992l1.407-.481a.88.88 0 0 1 1.045.397l1.039 1.818a.895.895 0 0 1-.181 1.112l-1.116.99a6.3 6.3 0 0 1 0 1.979l1.116.99c.315.28.39.745.181 1.111l-1.04 1.818a.88.88 0 0 1-1.044.397l-1.407-.48a6.1 6.1 0 0 1-1.698.99l-.29 1.47a.88.88 0 0 1-.864.714H6.961c-.42 0-.781-.3-.863-.715l-.291-1.468a6.1 6.1 0 0 1-1.698-.992l-1.407.481a.88.88 0 0 1-1.045-.397L.618 11.09a.895.895 0 0 1 .181-1.11l1.116-.99a6.3 6.3 0 0 1 0-1.979L.799 6.02a.895.895 0 0 1-.181-1.11l1.04-1.818a.88.88 0 0 1 1.044-.397l1.407.48a6.1 6.1 0 0 1 1.698-.99zM8 10.667c1.459 0 2.641-1.194 2.641-2.667S9.459 5.333 8 5.333 5.359 6.527 5.359 8 6.541 10.667 8 10.667" clip-rule="evenodd"/></svg>