<svg xmlns="http://www.w3.org/2000/svg" fill="none" viewBox="0 0 16 16"><path fill="currentColor" fill-rule="evenodd" d="M16 8A8 8 0 1 1 0 8a8 8 0 0 1 16 0Zm-1.5 0a6.5 6.5 0 1 1-11-4.69v.447a3.5 3.5 0 0 0 1.025 2.475L6.293 8 6 8.293a1 1 0 0 0 0 1.414l1.06 1.06a1.5 1.5 0 0 1 .44 1.061v.363a1 1 0 0 0 .553.894l.276.139a1 1 0 0 0 1.342-.448l1.454-2.908a1.5 1.5 0 0 0-.281-1.731l-.772-.772a1 1 0 0 0-1.023-.242l-.384.128a.5.5 0 0 1-.606-.25l-.296-.592a.481.481 0 0 1 .646-.646l.262.131A1 1 0 0 0 9.118 6h.188a1 1 0 0 0 .949-1.316l-.068-.204a.5.5 0 0 1 .149-.538l1.44-1.234A6.492 6.492 0 0 1 14.5 8Z" clip-rule="evenodd"/></svg>