<svg xmlns="http://www.w3.org/2000/svg" fill="none" viewBox="0 0 18 18"><path stroke="currentColor" stroke-linecap="round" stroke-linejoin="round" stroke-width="1.5" d="M9 17a8 8 0 0 0 7.747-5.997M9 17a8 8 0 0 1-7.747-5.997M9 17c2.21 0 4-3.582 4-8s-1.79-8-4-8m0 16c-2.21 0-4-3.582-4-8s1.79-8 4-8m0 0c2.991 0 5.6 1.642 6.972 4.073M9 1a8 8 0 0 0-6.972 4.073m13.944 0A10.63 10.63 0 0 1 9 7.667c-2.665 0-5.102-.978-6.972-2.594m13.944 0A7.96 7.96 0 0 1 17 9c0 .692-.088 1.363-.253 2.003m0 0A15.9 15.9 0 0 1 9 13c-2.81 0-5.452-.725-7.747-1.997m0 0A8 8 0 0 1 1 9c0-1.427.374-2.767 1.028-3.927"/></svg>