<svg xmlns="http://www.w3.org/2000/svg" fill="none" viewBox="1 1.5 14 13"><path fill="currentColor" fill-rule="evenodd" d="M5.5 4.1c0-1.436 1.12-2.6 2.5-2.6s2.5 1.164 2.5 2.6c0 1.436-1.12 2.6-2.5 2.6S5.5 5.536 5.5 4.1Zm5 2.08c0-1.149.895-2.08 2-2.08s2 .931 2 2.08-.895 2.08-2 2.08-2-.931-2-2.08Zm-9 0c0-1.149.895-2.08 2-2.08s2 .931 2 2.08-.895 2.08-2 2.08-2-.931-2-2.08Zm2.707 3.721C5.005 8.603 6.406 7.74 8 7.74c1.595 0 2.995.863 3.794 2.162.552.898.79 1.98.679 3.037a.522.522 0 0 1-.248.393A8.214 8.214 0 0 1 8 14.5a8.214 8.214 0 0 1-4.224-1.168.522.522 0 0 1-.249-.393 4.856 4.856 0 0 1 .68-3.038Z" clip-rule="evenodd"/><path fill="currentColor" d="M3.388 9.303a5.925 5.925 0 0 0-.872 3.56 6.252 6.252 0 0 1-1.176-.305l-.076-.028a.388.388 0 0 1-.25-.337l-.006-.085A2.733 2.733 0 0 1 1 11.9c0-1.397 1.06-2.537 2.388-2.597Zm10.096 3.56a5.925 5.925 0 0 0-.872-3.56c1.329.06 2.388 1.2 2.388 2.597 0 .07-.003.14-.008.208l-.006.085a.388.388 0 0 1-.25.337l-.076.028a6.25 6.25 0 0 1-1.176.305Z"/></svg>