<svg xmlns="http://www.w3.org/2000/svg" fill="none" viewBox="0 0 16.01 16.01"><path fill="currentColor" fill-rule="evenodd" d="M10.214 5.786V2.925c.468-.272.786-.773.786-1.354A1.565 1.565 0 0 0 8.075.786h-5.15A1.56 1.56 0 0 0 1.57 0a1.565 1.565 0 0 0-.784 2.925v5.15A1.57 1.57 0 0 0 0 9.429a1.565 1.565 0 0 0 2.925.785h2.86v2.86A1.57 1.57 0 0 0 5 14.43a1.565 1.565 0 0 0 2.925.784h5.15c.272.468.773.786 1.353.786a1.565 1.565 0 0 0 .786-2.925v-5.15c.468-.272.786-.773.786-1.354a1.565 1.565 0 0 0-2.925-.785zm0 1.571v.718c.468.272.786.773.786 1.354C11 10.297 10.296 11 9.428 11c-.58 0-1.08-.318-1.353-.786h-.718v2.861c.235.137.431.332.568.568h5.15c.137-.236.332-.431.568-.568v-5.15a1.57 1.57 0 0 1-.568-.568zm-1.571 0v.718a1.57 1.57 0 0 0-.568.568h-.718v-.718c.235-.137.431-.333.568-.568zm0-1.571h-.718A1.56 1.56 0 0 0 6.57 5a1.565 1.565 0 0 0-.784 2.925v.718H2.925a1.57 1.57 0 0 0-.568-.568v-5.15c.235-.137.431-.333.568-.568h5.15c.137.235.332.431.568.568zm.786-3.822a.393.393 0 1 0-.001-.786.393.393 0 0 0 0 .786zm-7.465-.393a.393.393 0 1 0-.786.001.393.393 0 0 0 .786 0zm-.393 7.465a.393.393 0 1 0 .001.786.393.393 0 0 0 0-.786zm7.465.393a.393.393 0 1 0 .786-.001.393.393 0 0 0-.786 0zm5.393-2.465a.393.393 0 1 0-.002-.786.393.393 0 0 0 .002.786m-7.465-.393a.393.393 0 1 0-.786.001.393.393 0 0 0 .786 0zm-.393 7.465a.393.393 0 1 0 .002.786.393.393 0 0 0-.002-.786m7.465.393a.393.393 0 1 0 .786-.002.393.393 0 0 0-.786.002" clip-rule="evenodd"/></svg>