<svg xmlns="http://www.w3.org/2000/svg" fill="none" viewBox="2 0 12 16"><path fill="currentColor" d="M7.025.8c0-.442.338-.8.754-.8.417 0 .754.358.754.8v5.845a5 5 0 0 1 1.005.468V1.867c0-.442.338-.8.754-.8s.754.358.754.8v7.777c-.95.17-1.75.81-2.178 1.688a5.7 5.7 0 0 1 2.68-.665c.278 0 .503-.24.503-.534V8.522c.003-.61.223-1.22.662-1.686a.723.723 0 0 1 1.066 0 .835.835 0 0 1 0 1.132.82.82 0 0 0-.22.561v2.138h-.004a4.4 4.4 0 0 1-1.174 2.85l-1.163 1.233A3.9 3.9 0 0 1 8.375 16h-1.35C4.25 16 2 13.612 2 10.667V4c0-.442.337-.8.754-.8.416 0 .754.358.754.8v3.925a5 5 0 0 1 1.005-.812V1.867c0-.442.337-.8.754-.8.416 0 .753.358.753.8v4.64A4.8 4.8 0 0 1 7.025 6.4z"/></svg>