<svg xmlns="http://www.w3.org/2000/svg" fill="none" viewBox="2.75 0.75 11.5 14.5"><path fill="currentColor" d="M10.976 4.848c.118-.218.18-.463.18-.71V3.55H5.844v.59a1.48 1.48 0 0 0 .676 1.243l1.405.903a1.08 1.08 0 0 0 1.15 0l1.405-.903c.208-.133.378-.317.496-.535m-1.901 5.903a1.08 1.08 0 0 0-1.15 0l-1.405.903a1.5 1.5 0 0 0-.496.536c-.118.216-.18.46-.18.707v.253h5.313v-.25a1.5 1.5 0 0 0-.18-.71 1.5 1.5 0 0 0-.497-.536z"/><path fill="currentColor" fill-rule="evenodd" d="M3.516.75a.76.76 0 0 0-.543.229.78.78 0 0 0 0 1.092.76.76 0 0 0 .543.229h.265v1.837c0 .603.15 1.197.436 1.725s.7.975 1.202 1.298L6.727 8l-1.308.84c-.502.323-.915.77-1.202 1.298a3.6 3.6 0 0 0-.436 1.725V13.7h-.265a.76.76 0 0 0-.543.229.78.78 0 0 0 0 1.092.76.76 0 0 0 .543.229h9.968a.76.76 0 0 0 .543-.229.78.78 0 0 0 0-1.092.76.76 0 0 0-.543-.229h-.265v-1.837c0-.603-.15-1.197-.436-1.725A3.55 3.55 0 0 0 11.58 8.84L10.273 8l1.308-.84c.502-.323.915-.77 1.202-1.298a3.6 3.6 0 0 0 .436-1.725V2.3h.265a.76.76 0 0 0 .543-.229.78.78 0 0 0 0-1.092.76.76 0 0 0-.543-.229zM5.56 5.117a2.06 2.06 0 0 1-.247-.98V2.3h6.375v1.837c0 .343-.086.68-.248.98-.163.3-.397.552-.68.734l-1.405.903a1.5 1.5 0 0 0-.496.535 1.493 1.493 0 0 0 .496 1.957l1.405.903c.283.182.517.435.68.734.162.3.247.637.248.98V13.7H5.311v-1.837c0-.343.086-.68.248-.98.163-.3.397-.552.68-.734l1.405-.903c.208-.133.378-.318.496-.535a1.493 1.493 0 0 0-.496-1.957L6.24 5.85a2 2 0 0 1-.68-.734Z" clip-rule="evenodd"/></svg>