<svg xmlns="http://www.w3.org/2000/svg" fill="none" viewBox="0 2 16 12"><path fill="currentColor" fill-rule="evenodd" d="M0 4.571C0 3.151 1.194 2 2.667 2h10.666C14.806 2 16 3.151 16 4.571v6.858C16 12.849 14.806 14 13.333 14H2.667C1.194 14 0 12.849 0 11.429zm3.556 1.286c0-.947.795-1.714 1.777-1.714s1.778.767 1.778 1.714-.796 1.714-1.778 1.714-1.777-.767-1.777-1.714M5.333 8.43c-1.457 0-2.708.845-3.257 2.052a.62.62 0 0 0-.005.505c.07.162.205.29.374.353a8.2 8.2 0 0 0 2.888.518 8.2 8.2 0 0 0 2.888-.518.66.66 0 0 0 .375-.353.62.62 0 0 0-.005-.505C8.04 9.274 6.79 8.43 5.333 8.43m4.445-3.215c0-.355.298-.643.666-.643h2.223c.368 0 .666.288.666.643a.655.655 0 0 1-.666.643h-2.223a.655.655 0 0 1-.666-.643m0 5.572c0-.355.298-.643.666-.643h2.223c.368 0 .666.288.666.643a.655.655 0 0 1-.666.643h-2.223a.655.655 0 0 1-.666-.643m.666-3.429A.655.655 0 0 0 9.778 8c0 .355.298.643.666.643h2.223A.655.655 0 0 0 13.333 8a.655.655 0 0 0-.666-.643z" clip-rule="evenodd"/></svg>