<svg xmlns="http://www.w3.org/2000/svg" fill="none" viewBox="0 2 16 12"><path fill="currentColor" fill-rule="evenodd" d="M0 3.929C0 2.863.895 2 2 2h12c1.105 0 2 .863 2 1.929v8.142C16 13.137 15.105 14 14 14H2c-1.105 0-2-.864-2-1.929zm1.333 4.98v3.162c0 .356.299.643.667.643h12a.655.655 0 0 0 .667-.643V9.766l-1.973-1.902a.684.684 0 0 0-.943 0L10.054 9.5l.417.403c.26.25.26.658 0 .909a.684.684 0 0 1-.942 0L4.916 6.364a.684.684 0 0 0-.943 0zm8.445-3.48c0 .473-.398.857-.89.857-.49 0-.888-.384-.888-.857 0-.474.398-.858.889-.858.49 0 .889.384.889.858" clip-rule="evenodd"/></svg>