<svg xmlns="http://www.w3.org/2000/svg" fill="none" viewBox="0 2 16 12"><path fill="currentColor" fill-rule="evenodd" d="M0 9.09q0-.32.088-.628L1.442 3.73C1.734 2.708 2.699 2 3.798 2h8.404c1.1 0 2.064.708 2.356 1.73l1.354 4.732q.087.308.088.627v3.197c0 .947-.796 1.714-1.778 1.714H1.778C.796 14 0 13.232 0 12.286zm2.727-5.018a1.11 1.11 0 0 1 1.071-.786h8.404c.5 0 .938.322 1.07.786l1.355 4.732q.008.027.013.053h-3.084a.9.9 0 0 0-.765.42l-.539.875c-.16.26-.45.42-.764.42H6.432a.89.89 0 0 1-.795-.474l-.398-.767a.89.89 0 0 0-.795-.474H1.36l.013-.053z" clip-rule="evenodd"/></svg>