<svg xmlns="http://www.w3.org/2000/svg" fill="none" viewBox="0 0 16 16"><path fill="currentColor" d="M13.184.5c.988 0 1.788.819 1.788 1.83v3.634a.775.775 0 0 1-.766.784.775.775 0 0 1-.766-.784V2.329a.26.26 0 0 0-.255-.261H2.457a.26.26 0 0 0-.255.261v10.904c0 .144.114.261.255.261H5.89c.423 0 .766.351.766.784a.775.775 0 0 1-.766.784H2.457c-.987 0-1.788-.82-1.788-1.83V2.33C.67 1.32 1.47.5 2.457.5z"/><path fill="currentColor" d="M7.596 7.128c-.355-.14-.704.216-.569.582l2.763 7.497c.144.39.681.391.825.002l1.172-3.172 3.097-1.187c.38-.146.38-.697.001-.847z"/></svg>