<svg xmlns="http://www.w3.org/2000/svg" fill="currentColor" viewBox="0 0 17 13"><path d="M3.624 2.98a.456.456 0 0 0-.452.462v.676c0 .252.199.462.452.462h.656c.253 0 .451-.21.451-.462v-.676a.456.456 0 0 0-.45-.462zm2.461 0a.457.457 0 0 0-.451.462v.676c0 .252.198.462.451.462h.657c.252 0 .45-.21.45-.462v-.676a.456.456 0 0 0-.45-.462zm2.462 0a.457.457 0 0 0-.451.462v.676c0 .252.198.462.45.462h.657c.253 0 .451-.21.451-.462v-.676a.457.457 0 0 0-.45-.462zm2.461 0a.456.456 0 0 0-.45.462v.676c0 .252.198.462.45.462h.657c.253 0 .451-.21.451-.462v-.676a.456.456 0 0 0-.451-.462zm2.462 0a.456.456 0 0 0-.451.462v.676c0 .252.198.462.45.462h.657c.253 0 .452-.21.452-.462v-.676a.456.456 0 0 0-.452-.462zM3.624 5.688a.457.457 0 0 0-.452.461v.677c0 .251.199.462.452.462h.656c.253 0 .451-.21.451-.462V6.15a.457.457 0 0 0-.45-.461h-.657Zm2.461 0a.457.457 0 0 0-.451.461v.677c0 .251.198.462.451.462h.657c.252 0 .45-.21.45-.462V6.15a.457.457 0 0 0-.45-.461h-.657Zm2.462 0a.457.457 0 0 0-.451.461v.677c0 .251.198.462.45.462h.657c.253 0 .451-.21.451-.462V6.15a.457.457 0 0 0-.45-.461h-.657Zm2.461 0a.456.456 0 0 0-.45.461v.677c0 .251.198.462.45.462h.657c.253 0 .451-.21.451-.462V6.15a.457.457 0 0 0-.451-.461h-.657Zm2.462 0a.457.457 0 0 0-.451.461v.677c0 .251.198.462.45.462h.657c.253 0 .452-.21.452-.462V6.15a.457.457 0 0 0-.452-.461h-.656ZM3.624 8.395a.457.457 0 0 0-.452.462v.677c0 .251.199.461.452.461h.656c.253 0 .451-.21.451-.461v-.677a.457.457 0 0 0-.45-.462zm2.297 0a.457.457 0 0 0-.451.462v.677c0 .251.198.461.451.461h5.908c.253 0 .451-.21.451-.461v-.677a.457.457 0 0 0-.451-.462H5.92Zm7.549 0a.457.457 0 0 0-.451.462v.677c0 .251.198.461.45.461h.657c.253 0 .452-.21.452-.461v-.677a.457.457 0 0 0-.452-.462z"/><path fill-rule="evenodd" d="M2.803.95C1.735.95.875 1.84.875 2.933v7.107c0 1.093.86 1.985 1.928 1.985h12.144c1.068 0 1.928-.892 1.928-1.985V2.934c0-1.093-.86-1.985-1.928-1.985zm-.697 1.984a.71.71 0 0 1 .697-.723h12.144a.71.71 0 0 1 .697.723v7.107a.71.71 0 0 1-.697.724H2.803a.71.71 0 0 1-.697-.724z" clip-rule="evenodd"/></svg>