<svg xmlns="http://www.w3.org/2000/svg" fill="none" viewBox="1 2 14 12"><path fill="currentColor" d="M3.188 11.429a.433.433 0 0 0-.438.428c0 .237.196.429.438.429h2.624a.433.433 0 0 0 .438-.429.433.433 0 0 0-.438-.428H3.188Z"/><path fill="currentColor" fill-rule="evenodd" d="M2.604 4.143C1.718 4.143 1 4.846 1 5.714v6.715C1 13.296 1.718 14 2.604 14h3.792C7.282 14 8 13.296 8 12.429V5.714c0-.868-.718-1.571-1.604-1.571H2.604Zm-.729 1.571c0-.394.326-.714.73-.714h.728v.286c0 .315.261.571.584.571h1.166a.577.577 0 0 0 .584-.571V5h.729c.403 0 .729.32.729.714v6.715a.722.722 0 0 1-.73.714h-3.79a.722.722 0 0 1-.73-.714V5.714Z" clip-rule="evenodd"/><path fill="currentColor" d="M3.77 2a1.01 1.01 0 0 0-1.02 1c0 .237.196.429.438.429A.433.433 0 0 0 3.624 3c0-.079.065-.143.146-.143h8.458c.08 0 .146.064.146.143v6.714a.144.144 0 0 1-.146.143H9.46a.289.289 0 0 0-.292.286v.714c0 .158.13.286.291.286h4.886A.65.65 0 0 0 15 10.5a.65.65 0 0 0-.656-.643H13.24a.99.99 0 0 0 .01-.143V3c0-.552-.457-1-1.02-1H3.77Z"/><path stroke="currentColor" stroke-width=".5" d="M3.188 11.429a.433.433 0 0 0-.438.428c0 .237.196.429.438.429h2.624a.433.433 0 0 0 .438-.429.433.433 0 0 0-.438-.428H3.188Z"/><path stroke="currentColor" stroke-width=".5" d="M2.604 4.143C1.718 4.143 1 4.846 1 5.714v6.715C1 13.296 1.718 14 2.604 14h3.792C7.282 14 8 13.296 8 12.429V5.714c0-.868-.718-1.571-1.604-1.571H2.604Zm-.729 1.571c0-.394.326-.714.73-.714h.728v.286c0 .315.261.571.584.571h1.166a.577.577 0 0 0 .584-.571V5h.729c.403 0 .729.32.729.714v6.715a.722.722 0 0 1-.73.714h-3.79a.722.722 0 0 1-.73-.714V5.714Z" clip-rule="evenodd"/><path stroke="currentColor" stroke-width=".5" d="M3.77 2a1.01 1.01 0 0 0-1.02 1c0 .237.196.429.438.429A.433.433 0 0 0 3.624 3c0-.079.065-.143.146-.143h8.458c.08 0 .146.064.146.143v6.714a.144.144 0 0 1-.146.143H9.46a.289.289 0 0 0-.292.286v.714c0 .158.13.286.291.286h4.886A.65.65 0 0 0 15 10.5a.65.65 0 0 0-.656-.643H13.24a.99.99 0 0 0 .01-.143V3c0-.552-.457-1-1.02-1H3.77Z"/></svg>