<svg xmlns="http://www.w3.org/2000/svg" fill="none" viewBox="1 0 14 16"><path fill="currentColor" d="m2.046 10.55-.722.43a.67.67 0 0 0-.324.576.67.67 0 0 0 .324.575l6.344 3.777a.65.65 0 0 0 .664 0l6.344-3.777a.67.67 0 0 0 .324-.575.67.67 0 0 0-.324-.576l-.722-.43-4.958 2.953a1.94 1.94 0 0 1-1.992 0z"/><path fill="currentColor" d="m2.046 6.995-.722.43A.67.67 0 0 0 1 8c0 .237.123.455.324.575l6.344 3.778a.65.65 0 0 0 .664 0l6.344-3.778A.67.67 0 0 0 15 8a.67.67 0 0 0-.324-.575l-.722-.43-4.958 2.953a1.94 1.94 0 0 1-1.992 0z"/><path fill="currentColor" d="M8.332.092a.65.65 0 0 0-.664 0L1.324 3.869A.67.67 0 0 0 1 4.444a.67.67 0 0 0 .324.576l6.344 3.777a.65.65 0 0 0 .664 0l6.344-3.777A.67.67 0 0 0 15 4.444a.67.67 0 0 0-.324-.575z"/></svg>