<svg xmlns="http://www.w3.org/2000/svg" fill="none" viewBox="1 0 14 16"><path fill="currentColor" d="m2.046 10.55-.722.43a.669.669 0 0 0-.324.576.67.67 0 0 0 .324.575l6.344 3.777a.648.648 0 0 0 .664 0l6.344-3.777a.669.669 0 0 0 .324-.575.669.669 0 0 0-.324-.576l-.722-.43-4.958 2.953a1.942 1.942 0 0 1-1.992 0L2.046 10.55Z"/><path fill="currentColor" d="m2.046 6.995-.722.43A.669.669 0 0 0 1 8c0 .237.123.455.324.575l6.344 3.778a.647.647 0 0 0 .664 0l6.344-3.778A.669.669 0 0 0 15 8a.669.669 0 0 0-.324-.575l-.722-.43-4.958 2.953a1.942 1.942 0 0 1-1.992 0L2.046 6.995Z"/><path fill="currentColor" d="M8.332.092a.647.647 0 0 0-.664 0L1.324 3.869A.669.669 0 0 0 1 4.444a.67.67 0 0 0 .324.576l6.344 3.777a.647.647 0 0 0 .664 0l6.344-3.777A.669.669 0 0 0 15 4.444a.669.669 0 0 0-.324-.575L8.332.092Z"/></svg>