<svg xmlns="http://www.w3.org/2000/svg" fill="none" viewBox="0 0 24 24"><path fill="currentColor" d="M12 0C7.03 0 3 3.94 3 8.8c0 3.254 1.807 6.095 4.49 7.616.747.425 1.215 1.076 1.236 1.73.012.362.27.67.63.754q.575.133 1.17.208a.583.583 0 0 0 .656-.58v-4.972a7 7 0 0 1-1.022-.183.8.8 0 0 1-.589-.974.82.82 0 0 1 .997-.575q.688.174 1.432.176.746-.002 1.433-.176a.82.82 0 0 1 .996.575.8.8 0 0 1-.588.974 7.5 7.5 0 0 1-1.023.183v4.972c0 .348.303.625.656.58q.595-.076 1.17-.208a.805.805 0 0 0 .63-.753c.02-.655.489-1.306 1.237-1.73C19.193 14.894 21 12.053 21 8.8 21 3.94 16.97 0 12 0"/><path fill="currentColor" fill-rule="evenodd" d="M8.742 20.426a.817.817 0 0 1 .956-.637 12.6 12.6 0 0 0 4.604 0 .817.817 0 0 1 .956.637.8.8 0 0 1-.651.935 14.3 14.3 0 0 1-5.214 0 .8.8 0 0 1-.651-.935m.808 2.608a.814.814 0 0 1 .899-.713 15.2 15.2 0 0 0 3.102 0 .814.814 0 0 1 .9.713.805.805 0 0 1-.73.879 17 17 0 0 1-3.443 0 .805.805 0 0 1-.728-.88Z" clip-rule="evenodd"/></svg>