<svg xmlns="http://www.w3.org/2000/svg" fill="none" viewBox="0 0 24 24"><path fill="currentColor" d="M12 0C7.03 0 3 3.94 3 8.8c0 3.254 1.807 6.095 4.49 7.616.747.425 1.215 1.076 1.236 1.73.012.362.27.67.63.754.383.089.774.158 1.17.208a.583.583 0 0 0 .656-.58v-4.972a7.33 7.33 0 0 1-1.022-.183.799.799 0 0 1-.589-.974.82.82 0 0 1 .997-.575c.457.115.937.176 1.432.176.496 0 .976-.061 1.433-.176a.82.82 0 0 1 .996.575.799.799 0 0 1-.588.974 7.486 7.486 0 0 1-1.023.183v4.972c0 .348.303.625.656.58.396-.05.787-.12 1.17-.208a.805.805 0 0 0 .63-.753c.02-.655.489-1.306 1.237-1.73C19.193 14.894 21 12.053 21 8.8 21 3.94 16.97 0 12 0Z"/><path fill="currentColor" fill-rule="evenodd" d="M8.742 20.426a.817.817 0 0 1 .956-.637 12.615 12.615 0 0 0 4.604 0 .817.817 0 0 1 .956.637.801.801 0 0 1-.651.935 14.291 14.291 0 0 1-5.214 0 .801.801 0 0 1-.651-.935Zm.808 2.608a.814.814 0 0 1 .899-.713 15.217 15.217 0 0 0 3.102 0 .814.814 0 0 1 .9.713.805.805 0 0 1-.73.879 16.943 16.943 0 0 1-3.443 0 .805.805 0 0 1-.728-.88Z" clip-rule="evenodd"/></svg>