<svg xmlns="http://www.w3.org/2000/svg" fill="none" viewBox="0 0 16 12"><path fill="currentColor" fill-rule="evenodd" d="M2.503.5A.5.5 0 0 0 1.78.053l-1.003.5a.5.5 0 0 0 .446.895l.28-.14V4H1a.5.5 0 0 0 0 1h2.006a.5.5 0 1 0 0-1h-.503zm2.997.75A.75.75 0 0 1 6.25.5h8.5a.75.75 0 0 1 0 1.5h-8.5a.75.75 0 0 1-.75-.75m0 5a.75.75 0 0 1 .75-.75h8.5a.75.75 0 0 1 0 1.5h-8.5a.75.75 0 0 1-.75-.75m0 5a.75.75 0 0 1 .75-.75h8.5a.75.75 0 0 1 0 1.5h-8.5a.75.75 0 0 1-.75-.75M1.424 8.32l.003-.004a1 1 0 0 1 .144-.153A.66.66 0 0 1 2 8c.195 0 .306.068.374.146a.57.57 0 0 1 .128.376c0 .453-.269.682-.8 1.078l-.035.025C1.192 9.98.5 10.495.5 11.5a.5.5 0 0 0 .5.5h2.003a.5.5 0 0 0 0-1H1.646c.132-.197.351-.372.654-.597l.047-.035c.47-.35 1.156-.858 1.156-1.845 0-.365-.118-.744-.377-1.038-.268-.303-.658-.484-1.126-.484-.48 0-.84.202-1.068.392a2 2 0 0 0-.348.384l-.007.011-.002.004-.001.002-.001.001a.5.5 0 0 0 .851.525M1 8.055l-.427-.26z" clip-rule="evenodd"/></svg>