<svg xmlns="http://www.w3.org/2000/svg" fill="none" viewBox="2 0.5 12 15"><path fill="currentColor" fill-rule="evenodd" d="M7.665 15.39q.034.021.052.03l.02.012c.162.09.363.09.525 0l.021-.011.052-.03a12 12 0 0 0 .832-.55 14.3 14.3 0 0 0 1.95-1.69C12.531 11.676 14 9.46 14 6.61 14 3.237 11.314.5 8 .5S2 3.236 2 6.612c0 2.849 1.469 5.064 2.883 6.539a14.3 14.3 0 0 0 2.597 2.127zM8 8.835c1.205 0 2.182-.995 2.182-2.222 0-1.228-.977-2.223-2.182-2.223s-2.182.995-2.182 2.223S6.795 8.835 8 8.835" clip-rule="evenodd"/></svg>