<svg xmlns="http://www.w3.org/2000/svg" fill="none" viewBox="1 1.06 14 14"><path fill="currentColor" fill-rule="evenodd" d="M6.387 1.162a1.303 1.303 0 0 0-1.003 0L1.81 2.652c-.49.205-.81.687-.81 1.222v9.591c0 .943.95 1.583 1.814 1.222l3.071-1.28 3.728 1.554c.321.134.682.134 1.003 0l3.573-1.49c.491-.204.811-.687.811-1.222V2.658c0-.943-.95-1.583-1.814-1.222l-3.071 1.28-3.728-1.554Zm-.504 2.49a.66.66 0 0 1 .656.662v5.732a.659.659 0 0 1-.656.66.659.659 0 0 1-.657-.66V4.314c0-.365.294-.661.657-.661Zm4.89 2.425a.659.659 0 0 0-.656-.66.659.659 0 0 0-.656.66v5.732a.66.66 0 0 0 .656.662.659.659 0 0 0 .657-.662V6.078Z" clip-rule="evenodd"/></svg>