<svg xmlns="http://www.w3.org/2000/svg" fill="none" viewBox="1 1 14 14"><path fill="currentColor" fill-rule="evenodd" d="M10.333 1.583c0-.322.261-.583.584-.583h3.5c.322 0 .583.261.583.583v3.5a.583.583 0 0 1-1.167 0V2.992l-3.087 3.087a.583.583 0 0 1-.825-.825l3.087-3.087h-2.091a.583.583 0 0 1-.584-.584ZM1 1.583C1 1.261 1.261 1 1.583 1h3.5a.583.583 0 1 1 0 1.167H2.992l3.087 3.087a.583.583 0 0 1-.825.825L2.167 2.992v2.091a.583.583 0 1 1-1.167 0v-3.5Zm8.92 9.163a.583.583 0 0 1 .826-.825l3.087 3.087v-2.091a.583.583 0 0 1 1.167 0v3.5a.583.583 0 0 1-.583.583h-3.5a.583.583 0 1 1 0-1.167h2.091l-3.087-3.087ZM6.08 9.92a.583.583 0 0 1 0 .825l-3.088 3.087h2.091a.583.583 0 0 1 0 1.167h-3.5A.583.583 0 0 1 1 14.417v-3.5a.583.583 0 1 1 1.167 0v2.091l3.087-3.087a.583.583 0 0 1 .825 0Z" clip-rule="evenodd"/></svg>