<svg xmlns="http://www.w3.org/2000/svg" fill="none" viewBox="1 1 14 14"><path fill="currentColor" d="M11.504 2.531A16.4 16.4 0 0 1 5.308 3.74h-.539C2.688 3.74 1 5.457 1 7.575c0 1.9 1.357 3.476 3.137 3.782.24 1 .573 1.963.99 2.879a1.302 1.302 0 0 0 1.854.581l.47-.277c.633-.37.838-1.163.555-1.803a13 13 0 0 1-.45-1.174c1.376.189 2.7.548 3.948 1.056.521-1.585.804-3.28.804-5.044s-.283-3.46-.804-5.044m.991-.441c.577 1.72.89 3.565.89 5.485a17.2 17.2 0 0 1-1.013 5.839.55.55 0 0 0 .321.703.536.536 0 0 0 .69-.326A18.3 18.3 0 0 0 14.4 9.094c.372-.394.601-.93.601-1.519 0-.59-.23-1.124-.6-1.518a18.3 18.3 0 0 0-1.016-4.697.536.536 0 0 0-.691-.326.55.55 0 0 0-.32.702q.063.176.122.353Z"/></svg>