<svg xmlns="http://www.w3.org/2000/svg" fill="none" viewBox="1 1 14 14"><path fill="currentColor" fill-rule="evenodd" d="M1.17 1.17a.583.583 0 0 1 .826 0l3.087 3.088V2.167a.583.583 0 1 1 1.167 0v3.5a.583.583 0 0 1-.583.583h-3.5a.583.583 0 1 1 0-1.167h2.091L1.171 1.996a.583.583 0 0 1 0-.825Zm13.66 0a.583.583 0 0 1 0 .826l-3.088 3.087h2.091a.583.583 0 1 1 0 1.167h-3.5a.583.583 0 0 1-.583-.583v-3.5a.583.583 0 0 1 1.167 0v2.091l3.087-3.087a.583.583 0 0 1 .825 0ZM1.582 10.334c0-.322.262-.583.584-.583h3.5c.322 0 .583.261.583.583v3.5a.583.583 0 1 1-1.167 0v-2.091L1.995 14.83a.583.583 0 1 1-.825-.825l3.087-3.087h-2.09a.583.583 0 0 1-.584-.584Zm8.167 0c0-.322.261-.583.583-.583h3.5a.583.583 0 1 1 0 1.167h-2.091l3.087 3.087a.583.583 0 1 1-.825.825l-3.087-3.087v2.091a.583.583 0 0 1-1.167 0v-3.5Z" clip-rule="evenodd"/></svg>