<svg xmlns="http://www.w3.org/2000/svg" fill="none" viewBox="0 0 16 12"><path fill="currentColor" fill-rule="evenodd" d="M1.25.5a.75.75 0 1 0 0 1.5h6.502a.75.75 0 1 0 0-1.5zm4.002 5a.75.75 0 1 0 0 1.5h7.502a.75.75 0 1 0 0-1.5zm0 5a.75.75 0 1 0 0 1.5h7.502a.75.75 0 1 0 0-1.5zM2.5 6a1 1 0 1 1-2 0 1 1 0 0 1 2 0m-1 6a1 1 0 1 0 0-2 1 1 0 0 0 0 2" clip-rule="evenodd"/><path fill="currentColor" d="M12.818 2.918 10.573.417A.25.25 0 0 1 10.759 0h4.49a.25.25 0 0 1 .186.417l-2.245 2.5a.25.25 0 0 1-.372 0Z"/></svg>