<svg xmlns="http://www.w3.org/2000/svg" fill="none" viewBox="2 0 12 16"><path fill="currentColor" fill-rule="evenodd" d="M13.792.114A.59.59 0 0 1 14 .567v10.624c0 1.012-.618 1.902-1.514 2.18l-.918.286c-1.134.352-2.264-.574-2.264-1.856 0-.862.526-1.619 1.288-1.856l1.608-.499c.448-.139.756-.584.756-1.09V4.154l-6.26 1.944v7.36c0 1.013-.618 1.903-1.514 2.181l-.918.286C3.129 16.277 2 15.35 2 14.069c0-.862.526-1.62 1.288-1.856l1.607-.499c.448-.139.757-.584.757-1.09V2.835c0-.253.155-.476.379-.545L13.335.022a.49.49 0 0 1 .457.092" clip-rule="evenodd"/></svg>