<svg xmlns="http://www.w3.org/2000/svg" fill="none" viewBox="1 1 14 14"><path fill="currentColor" fill-rule="evenodd" d="M2.346 1C1.603 1 1 1.653 1 2.458v10.209C1 13.955 1.964 15 3.154 15h10.77c-1.19 0-2.155-1.045-2.155-2.333V2.458c0-.805-.603-1.458-1.346-1.458H2.346ZM8 6.25c-.297 0-.538.261-.538.583 0 .322.24.584.538.584h1.077c.297 0 .538-.261.538-.584 0-.322-.24-.583-.538-.583H8ZM7.462 4.5c0-.322.24-.583.538-.583h1.077c.297 0 .538.26.538.583 0 .322-.24.583-.538.583H8c-.297 0-.538-.26-.538-.583Zm-3.77 4.083c-.297 0-.538.261-.538.584 0 .322.24.583.538.583h5.385c.297 0 .538-.261.538-.583 0-.322-.24-.584-.538-.584H3.692ZM3.154 11.5c0-.322.24-.583.538-.583h5.385c.297 0 .538.26.538.583 0 .322-.24.583-.538.583H3.692c-.297 0-.538-.26-.538-.583Zm.538-7.583c-.297 0-.538.26-.538.583v2.333c0 .322.24.584.538.584h2.154c.298 0 .539-.261.539-.584V4.5c0-.322-.241-.583-.539-.583H3.692Z" clip-rule="evenodd"/><path fill="currentColor" d="M12.846 3.917h1.346c.446 0 .808.391.808.875v7.875c0 .644-.482 1.166-1.077 1.166s-1.077-.522-1.077-1.166v-8.75Z"/></svg>