<svg xmlns="http://www.w3.org/2000/svg" fill="none" viewBox="2.99 0 11.51 16"><path fill="currentColor" fill-rule="evenodd" d="M5.604.089A.75.75 0 0 1 6 .75v4.77h.711a.75.75 0 0 1 0 1.5H3.759a.75.75 0 0 1 0-1.5h.74V2.15l-.333.223a.75.75 0 0 1-.832-1.248l1.5-1a.75.75 0 0 1 .77-.037ZM9 4.75A.75.75 0 0 1 9.75 4h4a.75.75 0 0 1 .53 1.28l-1.89 1.892c.312.076.604.18.867.319.742.391 1.244 1.063 1.244 2.005 0 .653-.231 1.208-.629 1.627-.386.408-.894.653-1.408.777-1.011.243-2.225.063-3.124-.527a.75.75 0 0 1 .822-1.254c.534.35 1.32.474 1.95.322.307-.073.531-.201.67-.349.13-.136.219-.32.219-.596 0-.308-.123-.509-.444-.678-.373-.197-.98-.318-1.806-.318a.75.75 0 0 1-.53-1.28l1.72-1.72H9.75A.75.75 0 0 1 9 4.75m-3.587 5.763c-.35-.05-.77.113-.983.572a.75.75 0 1 1-1.36-.632c.508-1.094 1.589-1.565 2.558-1.425 1 .145 1.872.945 1.872 2.222 0 1.433-1.088 2.192-1.79 2.681-.308.216-.571.397-.772.573H7a.75.75 0 0 1 0 1.5H3.75a.75.75 0 0 1-.75-.75c0-.69.3-1.211.67-1.61.348-.372.8-.676 1.15-.92.8-.56 1.18-.904 1.18-1.474 0-.473-.267-.69-.587-.737" clip-rule="evenodd"/></svg>