<svg xmlns="http://www.w3.org/2000/svg" fill="none" viewBox="2 1 12 14"><path fill="currentColor" fill-rule="evenodd" d="M2.857 13.688V2.312h-.214A.65.65 0 0 1 2 1.656.65.65 0 0 1 2.643 1h10.714a.65.65 0 0 1 .643.656.65.65 0 0 1-.643.657h-.214v11.374h.214a.65.65 0 0 1 .643.657.65.65 0 0 1-.643.656h-3a.65.65 0 0 1-.643-.656v-2.188a.65.65 0 0 0-.643-.656H6.93a.65.65 0 0 0-.643.656v2.188a.65.65 0 0 1-.643.656h-3A.65.65 0 0 1 2 14.344a.65.65 0 0 1 .643-.656zM5.43 4.062c0-.241.191-.437.428-.437h.857c.237 0 .429.196.429.438v.875a.433.433 0 0 1-.429.437h-.857a.433.433 0 0 1-.428-.438zm.428 3.063a.433.433 0 0 0-.428.438v.875c0 .241.191.437.428.437h.857a.433.433 0 0 0 .429-.438v-.874a.433.433 0 0 0-.429-.438zm3-3.063c0-.241.192-.437.429-.437h.857c.237 0 .428.196.428.438v.875a.433.433 0 0 1-.428.437h-.857a.433.433 0 0 1-.429-.438zm.429 3.063a.433.433 0 0 0-.429.438v.875c0 .241.192.437.429.437h.857a.433.433 0 0 0 .428-.438v-.874a.433.433 0 0 0-.428-.438z" clip-rule="evenodd"/></svg>