<svg xmlns="http://www.w3.org/2000/svg" fill="none" viewBox="1 1 14 14"><path fill="currentColor" fill-rule="evenodd" d="M12.919 3.081a2.625 2.625 0 0 0-3.713 0L3.081 9.206a2.625 2.625 0 0 0 3.712 3.713l.435-.438a.656.656 0 1 1 .931.925l-.436.44h-.001a3.937 3.937 0 1 1-5.569-5.568l6.125-6.125a3.937 3.937 0 0 1 5.572 5.565l-3.023 3.11a2.297 2.297 0 1 1-3.247-3.25l3.02-3.02a.656.656 0 1 1 .928.929l-3.02 3.02a.984.984 0 0 0 1.39 1.394l3.022-3.108a2.625 2.625 0 0 0 0-3.713Z" clip-rule="evenodd"/></svg>