<svg xmlns="http://www.w3.org/2000/svg" fill="none" viewBox="1 1 14 14"><path fill="currentColor" d="M14.469 1.532a1.815 1.815 0 0 0-2.567 0l-.8.8 2.566 2.566.8-.8a1.815 1.815 0 0 0 0-2.566Zm-1.534 4.099L10.37 3.065 4.56 8.873a3.6 3.6 0 0 0-.912 1.53l-.553 1.856a.518.518 0 0 0 .645.645l1.856-.553a3.6 3.6 0 0 0 1.53-.912z"/><path fill="currentColor" d="M3.074 3.593A2.074 2.074 0 0 0 1 5.667v7.259C1 14.07 1.929 15 3.074 15h7.26a2.074 2.074 0 0 0 2.073-2.074v-3.63a.518.518 0 1 0-1.037 0v3.63c0 .573-.464 1.037-1.037 1.037H3.074a1.037 1.037 0 0 1-1.037-1.037v-7.26c0-.572.464-1.036 1.037-1.036h3.63a.519.519 0 1 0 0-1.037z"/></svg>