<svg xmlns="http://www.w3.org/2000/svg" fill="none" viewBox="0 1 16 14"><path fill="currentColor" d="M5.378 6.25c1.495 0 2.706-1.175 2.706-2.625S6.873 1 5.378 1 2.672 2.175 2.672 3.625 3.884 6.25 5.378 6.25m6.765.875c1.245 0 2.255-.98 2.255-2.188s-1.01-2.187-2.255-2.187-2.255.98-2.255 2.188 1.01 2.187 2.255 2.187M.521 13.624a1.06 1.06 0 0 1-.513-1.028C.34 10.006 2.618 8 5.378 8s5.038 2.005 5.37 4.596c.053.41-.155.805-.513 1.028A9.2 9.2 0 0 1 5.378 15a9.2 9.2 0 0 1-4.857-1.376m11.622-.374h-.095c.062-.26.079-.535.043-.816a6.44 6.44 0 0 0-1.433-3.286 4.2 4.2 0 0 1 1.487-.273c1.75 0 3.241 1.074 3.811 2.58.123.323-.02.679-.325.857a6.9 6.9 0 0 1-3.488.938"/></svg>