<svg xmlns="http://www.w3.org/2000/svg" fill="none" viewBox="3 0 10 16"><path fill="currentColor" d="M6.889 12.8a.545.545 0 0 0-.556.533c0 .295.25.534.556.534H9.11a.545.545 0 0 0 .556-.534.545.545 0 0 0-.556-.533H6.89Z"/><path fill="currentColor" fill-rule="evenodd" d="M5.5 0C4.12 0 3 1.075 3 2.4v11.2C3 14.925 4.12 16 5.5 16h5c1.38 0 2.5-1.075 2.5-2.4V2.4C13 1.075 11.88 0 10.5 0h-5Zm-.833 2.4c0-.442.373-.8.833-.8h.833v.267c0 .441.373.8.834.8h1.666c.46 0 .834-.359.834-.8V1.6h.833c.46 0 .833.358.833.8v11.2c0 .442-.373.8-.833.8h-5c-.46 0-.833-.358-.833-.8V2.4Z" clip-rule="evenodd"/></svg>