<svg xmlns="http://www.w3.org/2000/svg" fill="none" viewBox="2 1 12 14"><path fill="currentColor" d="M2.002 2.856c0-1.044.874-1.957 2.002-1.847a14.83 14.83 0 0 1 9.539 4.764c.759.833.523 2.069-.34 2.684l-.3.214-.258-.377-.006-.007A12.52 12.52 0 0 0 2.534 3.209h-.532zm9.77 6.037.268.393-2.8 2-.144.104v1.467a.7.7 0 0 1-.208.494.716.716 0 0 1-1.003 0 .7.7 0 0 1-.208-.494v-.042a.35.35 0 0 0-.126-.224.36.36 0 0 0-.484.028.35.35 0 0 0-.097.238v1.048c0 .179-.07.35-.195.48a.714.714 0 0 1-1.22-.41l-1.022.725c-1.057.75-2.534.008-2.533-1.274l.002-9.17h.532c3.8 0 7.165 1.826 9.238 4.637m-6.93-1.62a.72.72 0 0 0 .501-.203.69.69 0 0 0 0-.987.716.716 0 0 0-1.003 0 .69.69 0 0 0 0 .987c.133.13.313.204.501.204ZM7.68 9.367a.72.72 0 0 0 .502-.204.69.69 0 0 0 0-.987.716.716 0 0 0-1.004 0 .69.69 0 0 0 0 .987.72.72 0 0 0 .502.204M4.84 11.46a.72.72 0 0 0 .502-.205.69.69 0 0 0 0-.987.716.716 0 0 0-1.003 0 .69.69 0 0 0 0 .987.7.7 0 0 0 .501.205"/></svg>