<svg xmlns="http://www.w3.org/2000/svg" fill="none" viewBox="0 0 16 16"><path fill="currentColor" fill-opacity=".1" stroke="currentColor" stroke-dasharray="10 4" d="M8 15.5a7.46 7.46 0 0 1-3.99-1.148l-.267.423a8.04 8.04 0 0 1-2.518-2.518l.423-.267A7.46 7.46 0 0 1 .5 8c0-1.467.42-2.835 1.148-3.99l-.423-.267a8.04 8.04 0 0 1 2.518-2.518l.267.423A7.46 7.46 0 0 1 8 .5c1.467 0 2.835.42 3.99 1.148l.267-.423a8.04 8.04 0 0 1 2.518 2.518l-.423.267A7.46 7.46 0 0 1 15.5 8c0 1.467-.42 2.835-1.148 3.99l.423.267a8.04 8.04 0 0 1-2.518 2.518l-.267-.423A7.46 7.46 0 0 1 8 15.5Z"/></svg>