<svg xmlns="http://www.w3.org/2000/svg" fill="none" viewBox="1 1 14 14"><path fill="currentColor" fill-rule="evenodd" d="M1 1.618C1 1.277 1.261 1 1.583 1h12.834c.322 0 .583.277.583.618 0 .34-.261.617-.583.617h-.195v7.206c0 1.25-.957 2.265-2.139 2.265h-.834l.621 2.52c.082.33-.105.668-.417.754-.312.086-.63-.112-.712-.442l-.089-.362H5.348l-.089.362c-.081.33-.4.528-.712.442-.311-.086-.498-.424-.417-.754l.621-2.52h-.834c-1.182 0-2.14-1.014-2.14-2.265V2.235h-.194C1.261 2.235 1 1.96 1 1.618Zm4.957 10.088-.304 1.235h4.695l-.305-1.235H5.957Zm4.57-8.367a.75.75 0 0 1 .75.75v4.529a.75.75 0 0 1-1.5 0v-4.53a.75.75 0 0 1 .75-.75ZM5.473 6.633a.75.75 0 0 1 .75.75v1.235a.75.75 0 0 1-1.5 0V7.383a.75.75 0 0 1 .75-.75Zm3.278-.897a.75.75 0 0 0-1.5 0v2.882a.75.75 0 1 0 1.5 0V5.736Z" clip-rule="evenodd"/></svg>