<svg xmlns="http://www.w3.org/2000/svg" fill="none" viewBox="1 1 14.01 14"><path fill="currentColor" fill-rule="evenodd" d="M10.72 1.227a.75.75 0 0 1 1.06 0l.97.97.97-.97a.75.75 0 1 1 1.06 1.061l-.97.97.97.97a.75.75 0 0 1-1.06 1.06l-.97-.97-.97.97a.75.75 0 1 1-1.06-1.06l.97-.97-.97-.97a.75.75 0 0 1 0-1.06ZM12.75 6.5a.75.75 0 0 0-.75.75v3.378a2.251 2.251 0 1 0 1.5 0V7.25a.75.75 0 0 0-.75-.75m0 5.5a.75.75 0 1 0 0 1.5.75.75 0 0 0 0-1.5M2.5 3.25a.75.75 0 1 1 1.5 0 .75.75 0 0 1-1.5 0M3.25 1a2.25 2.25 0 0 0-.75 4.372v5.256a2.251 2.251 0 1 0 1.5 0V5.372A2.25 2.25 0 0 0 3.25 1m0 11a.75.75 0 1 0 0 1.5.75.75 0 0 0 0-1.5" clip-rule="evenodd"/></svg>