<svg xmlns="http://www.w3.org/2000/svg" fill="none" viewBox="1 1 14 14"><path fill="currentColor" fill-rule="evenodd" d="M2.5 3.25a.75.75 0 1 1 1.5 0 .75.75 0 0 1-1.5 0M3.25 1a2.25 2.25 0 0 0-.75 4.372v5.256a2.251 2.251 0 1 0 1.5 0V5.372A2.25 2.25 0 0 0 3.25 1m0 11a.75.75 0 1 0 0 1.5.75.75 0 0 0 0-1.5m9.5 3a2.25 2.25 0 1 0 0-4.5 2.25 2.25 0 0 0 0 4.5m0-3a.75.75 0 1 0 0 1.5.75.75 0 0 0 0-1.5" clip-rule="evenodd"/><path fill="currentColor" d="M14 7.5a1.25 1.25 0 1 1-2.5 0 1.25 1.25 0 0 1 2.5 0m0-4.25a1.25 1.25 0 1 1-2.5 0 1.25 1.25 0 0 1 2.5 0"/></svg>