<svg xmlns="http://www.w3.org/2000/svg" fill="none" viewBox="0.75 0.75 14.5 14.5"><path fill="currentColor" fill-rule="evenodd" d="M3.167.75a2.417 2.417 0 0 0-.75 4.714v5.072a2.416 2.416 0 1 0 1.5 0V5.464A2.416 2.416 0 0 0 3.167.75Zm-.351 1.57a.917.917 0 1 1 .701 1.694.917.917 0 0 1-.701-1.694ZM2.25 12.833a.916.916 0 1 1 1.833 0 .916.916 0 0 1-1.833 0ZM8.583.75a.75.75 0 0 0-.53.22L6.386 2.637a.75.75 0 0 0 0 1.06l1.667 1.666.003.003a.75.75 0 0 0 1.061-1.06l-.39-.39h2.106a1.25 1.25 0 0 1 1.25 1.25v5.37a2.416 2.416 0 1 0 1.5 0v-5.37a2.75 2.75 0 0 0-2.75-2.75H8.727l.387-.386a.75.75 0 0 0-.53-1.28Zm3.602 11.435a.916.916 0 1 1 1.296 1.295.916.916 0 0 1-1.296-1.295Z" clip-rule="evenodd"/></svg>