<svg xmlns="http://www.w3.org/2000/svg" fill="none" viewBox="1 1 14 14"><path fill="currentColor" d="M7.742 3.655c0-.246-.129-.468-.277-.663a1.14 1.14 0 0 1-.242-.694C7.223 1.58 7.92 1 8.78 1s1.556.58 1.556 1.298c0 .255-.088.493-.241.694-.149.195-.277.417-.277.663 0 .23.192.414.421.4a33 33 0 0 0 3.895-.468.52.52 0 0 1 .607.447 34 34 0 0 1 .26 3.773.454.454 0 0 1-.456.46c-.245 0-.467-.13-.663-.278a1.14 1.14 0 0 0-.693-.242c-.716 0-1.297.697-1.297 1.557s.58 1.557 1.297 1.557c.255 0 .493-.088.693-.241.196-.149.418-.278.663-.278a.37.37 0 0 1 .37.396 34 34 0 0 1-.412 3.352.52.52 0 0 1-.422.423q-1.888.33-3.84.444a.4.4 0 0 1-.423-.402c0-.246.128-.468.277-.664.153-.2.241-.439.241-.694 0-.717-.696-1.298-1.556-1.298-.859 0-1.556.581-1.556 1.298 0 .255.089.493.242.694.148.196.277.418.277.664 0 .25-.205.452-.455.445a34 34 0 0 1-3.255-.25.52.52 0 0 1-.446-.607 33 33 0 0 0 .434-3.407.367.367 0 0 0-.367-.394c-.245 0-.467.13-.663.278-.2.153-.438.241-.693.241C1.58 10.861 1 10.164 1 9.304s.58-1.557 1.297-1.557c.255 0 .493.089.693.242.196.148.418.277.663.277a.454.454 0 0 0 .456-.459 33 33 0 0 0-.215-3.336.52.52 0 0 1 .575-.575q1.392.162 2.819.204a.443.443 0 0 0 .454-.445"/></svg>