<svg xmlns="http://www.w3.org/2000/svg" fill="none" viewBox="0 2 16 12"><path fill="currentColor" fill-rule="evenodd" d="M7.75 14A1.75 1.75 0 0 1 6 12.25v-8.5C6 2.784 6.784 2 7.75 2h6.5c.966 0 1.75.784 1.75 1.75v8.5A1.75 1.75 0 0 1 14.25 14h-6.5ZM4.9 3.508a.75.75 0 0 1-.274 1.025.25.25 0 0 0-.126.217v6.5a.25.25 0 0 0 .126.217.75.75 0 0 1-.752 1.298A1.75 1.75 0 0 1 3 11.25v-6.5c0-.649.353-1.214.874-1.516a.75.75 0 0 1 1.025.274ZM1.625 5.533a.75.75 0 1 0-.752-1.299A1.75 1.75 0 0 0 0 5.75v4.5c0 .649.353 1.214.874 1.515a.75.75 0 1 0 .752-1.298.25.25 0 0 1-.126-.217v-4.5a.25.25 0 0 1 .126-.217Z" clip-rule="evenodd"/></svg>