<svg xmlns="http://www.w3.org/2000/svg" fill="none" viewBox="0 2 16 12"><path fill="currentColor" d="M1.333 2C.597 2 0 2.576 0 3.286v3.428C0 7.424.597 8 1.333 8h5.334C7.403 8 8 7.424 8 6.714V3.286C8 2.576 7.403 2 6.667 2H1.333Zm9.778 1.714c-.736 0-1.333.576-1.333 1.286v6c0 .71.597 1.286 1.333 1.286h3.556C15.403 12.286 16 11.71 16 11V5c0-.71-.597-1.286-1.333-1.286H11.11Zm-8.889 6C1.486 9.714.89 10.29.89 11v1.714c0 .71.597 1.286 1.333 1.286h5.334c.736 0 1.333-.576 1.333-1.286V11c0-.71-.597-1.286-1.333-1.286H2.222Z"/></svg>