<svg xmlns="http://www.w3.org/2000/svg" fill="none" viewBox="2 1 12 14"><path fill="currentColor" fill-rule="evenodd" d="M12.696 9.274c-.695 2.626-3.36 4.185-5.954 3.48a4.8 4.8 0 0 1-2.18-1.272l-.276-.279h2.151c.367 0 .663-.3.663-.672a.667.667 0 0 0-.663-.67H2.686a.66.66 0 0 0-.469.197.68.68 0 0 0-.194.474v3.797c0 .37.298.671.664.671s.663-.3.663-.671v-2.176l.273.277a6.15 6.15 0 0 0 2.775 1.622c3.302.895 6.695-1.088 7.58-4.43a.67.67 0 0 0-.47-.823.66.66 0 0 0-.812.475m1.087-3.331a.68.68 0 0 0 .194-.475V1.67a.667.667 0 0 0-.665-.67c-.366 0-.663.3-.663.671v2.176l-.273-.277a6.15 6.15 0 0 0-2.775-1.622c-3.302-.895-6.695 1.088-7.58 4.43a.67.67 0 0 0 .47.823.66.66 0 0 0 .812-.475c.695-2.626 3.36-4.184 5.954-3.48a4.8 4.8 0 0 1 2.18 1.272l.275.279h-2.15c-.366 0-.663.3-.663.67 0 .372.297.672.663.672h3.75a.66.66 0 0 0 .47-.196Z" clip-rule="evenodd"/></svg>