<svg xmlns="http://www.w3.org/2000/svg" fill="none" viewBox="1.33 0.33 13.33 15"><path fill="currentColor" d="M9.06.387a.5.5 0 0 0-.522.043l-2.5 1.833a.5.5 0 0 0 0 .807l2.5 1.833a.5.5 0 0 0 .795-.403V3.158a5.667 5.667 0 1 1-5.34 1.502.5.5 0 0 0-.707-.707 6.667 6.667 0 1 0 6.047-1.82v-1.3A.5.5 0 0 0 9.06.387"/><path fill="currentColor" fill-rule="evenodd" d="M6.254 6.07a.5.5 0 0 1 .246.43v5a.5.5 0 0 1-1 0V7.35l-.757.42a.5.5 0 1 1-.486-.874l1.5-.833a.5.5 0 0 1 .497.006Zm4.036 4.497c.22-.33.377-.867.377-1.567s-.157-1.237-.377-1.567C10.098 7.143 9.855 7 9.5 7s-.597.143-.79.433c-.22.33-.377.867-.377 1.567s.157 1.238.377 1.567c.193.29.435.433.79.433s.597-.143.79-.433M9.5 12c1.438 0 2.167-1.343 2.167-3S10.938 6 9.5 6 7.333 7.343 7.333 9s.73 3 2.167 3" clip-rule="evenodd"/></svg>