<svg xmlns="http://www.w3.org/2000/svg" fill="none" viewBox="0 0 16 16"><path fill="currentColor" fill-rule="evenodd" d="M3.205 10.64a.667.667 0 0 1-.119.934 2.22 2.22 0 0 0-.827 2.167 2.22 2.22 0 0 0 2.166-.827.667.667 0 0 1 1.055.816 3.55 3.55 0 0 1-3.984 1.184.67.67 0 0 1-.41-.41A3.55 3.55 0 0 1 2.27 10.52a.667.667 0 0 1 .935.12" clip-rule="evenodd"/><path fill="currentColor" fill-rule="evenodd" d="M4.224 9.778a11.6 11.6 0 0 0 1.998 1.998v3.557c0 .368.299.667.667.667a4.444 4.444 0 0 0 4.264-5.701A11.54 11.54 0 0 0 15.998.656a.667.667 0 0 0-.654-.654 11.54 11.54 0 0 0-9.643 4.845A4.444 4.444 0 0 0 0 9.111c0 .368.298.667.667.667zm6.443-2.667a1.778 1.778 0 1 0 0-3.555 1.778 1.778 0 0 0 0 3.555" clip-rule="evenodd"/></svg>