<svg xmlns="http://www.w3.org/2000/svg" fill="none" viewBox="0 0 12 12"><path fill="currentColor" fill-rule="evenodd" d="M6 1.161a4.839 4.839 0 1 0 0 9.678A4.839 4.839 0 0 0 6 1.16Zm-4.243.596a6 6 0 1 1 8.486 8.486 6 6 0 0 1-8.486-8.486" clip-rule="evenodd" opacity=".45"/><path fill="currentColor" fill-rule="evenodd" d="M5.42.58C5.42.26 5.68 0 6 0a6 6 0 0 1 6 6 .58.58 0 1 1-1.161 0A4.84 4.84 0 0 0 6 1.16a.58.58 0 0 1-.58-.58M6 3.677a2.322 2.322 0 1 0 0 4.645 2.322 2.322 0 0 0 0-4.645" clip-rule="evenodd"/></svg>