<svg xmlns="http://www.w3.org/2000/svg" fill="none" viewBox="1 1 14 14"><path fill="currentColor" fill-rule="evenodd" d="M8.002 1c.362 0 .656.294.656.656v.227a29 29 0 0 1 5.836.725.656.656 0 1 1-.294 1.28q-.48-.111-.965-.204l1.49 6.604a.656.656 0 0 1-.34.727 4.36 4.36 0 0 1-2.007.488 4.36 4.36 0 0 1-2.008-.488.656.656 0 0 1-.339-.727l1.55-6.87q-1.44-.187-2.923-.222v10.07c1.133.04 2.24.19 3.308.438a.656.656 0 0 1-.296 1.279 16.2 16.2 0 0 0-3.668-.417c-1.262 0-2.49.144-3.668.417a.656.656 0 1 1-.296-1.279 17.5 17.5 0 0 1 3.307-.439V3.195a28 28 0 0 0-2.922.223l1.55 6.87a.656.656 0 0 1-.34.727 4.36 4.36 0 0 1-2.007.488 4.36 4.36 0 0 1-2.008-.488.656.656 0 0 1-.339-.727l1.49-6.604q-.486.093-.965.203a.656.656 0 1 1-.294-1.279 28.8 28.8 0 0 1 5.835-.725v-.227c0-.362.294-.656.657-.656M3.626 5.851l-.946 4.19a3.06 3.06 0 0 0 1.891 0zm8.752 0-.945 4.19a3.06 3.06 0 0 0 1.89 0z" clip-rule="evenodd"/></svg>