<svg xmlns="http://www.w3.org/2000/svg" fill="none" viewBox="0 1 16 14"><path fill="currentColor" fill-rule="evenodd" d="M.42 2.532C-.444 3.996.068 5.869 1.566 6.715a3.181 3.181 0 0 0 3.878-.588l.79.446c.022.081.13.102.186.039.136-.154.286-.296.448-.424.256-.2.268-.62-.016-.78l-.738-.418a3.034 3.034 0 0 0-1.418-3.58C3.199.566 1.284 1.068.42 2.533Zm1.816 3.046a1.73 1.73 0 0 1-.654-2.39 1.809 1.809 0 0 1 2.443-.64 1.73 1.73 0 0 1 .655 2.39c-.494.837-1.588 1.123-2.444.64Zm5.774.954a2.42 2.42 0 0 0-1.42 1.594l-.356 1.3-.79.447a3.181 3.181 0 0 0-3.878-.588c-1.498.846-2.01 2.719-1.146 4.183.864 1.465 2.779 1.967 4.276 1.121a3.034 3.034 0 0 0 1.418-3.58l9.55-5.394a.652.652 0 0 0-.161-1.202l-.629-.165a2.51 2.51 0 0 0-1.593.108L8.01 6.532Zm-6.428 6.28a1.73 1.73 0 0 1 .654-2.39c.856-.483 1.95-.197 2.444.64a1.73 1.73 0 0 1-.655 2.39c-.856.484-1.95.197-2.443-.64Z" clip-rule="evenodd"/><path fill="currentColor" d="M10.303 9.654c-.32.18-.29.641.05.782l2.928 1.208a2.51 2.51 0 0 0 1.593.108l.629-.165a.661.661 0 0 0 .491-.548.652.652 0 0 0-.33-.654L12.56 8.63a.456.456 0 0 0-.447 0l-1.81 1.023Z"/></svg>