<svg xmlns="http://www.w3.org/2000/svg" fill="none" viewBox="1 1 14 14"><path fill="currentColor" d="M3.156 2.084C3.442 1.424 4.062 1 4.745 1h6.51c.683 0 1.303.423 1.59 1.084l1.009 2.334c.058.135.1.272.127.409a2.887 2.887 0 0 0-.731-.094H2.75c-.252 0-.497.033-.731.094.027-.137.069-.274.127-.41l1.01-2.333Z"/><path fill="currentColor" fill-rule="evenodd" d="M1 8c0-1.03.784-1.867 1.75-1.867h10.5C14.216 6.133 15 6.97 15 8s-.784 1.867-1.75 1.867H2.75C1.784 9.867 1 9.03 1 8Zm11.585 0c0-.387.294-.7.656-.7h.01c.362 0 .655.313.655.7v.01c0 .386-.293.7-.656.7h-.008c-.363 0-.657-.314-.657-.7V8Zm-1.969-.7c-.362 0-.656.313-.656.7v.01c0 .386.294.7.656.7h.01c.362 0 .655-.314.655-.7V8c0-.387-.293-.7-.656-.7h-.008ZM1 13.133c0-1.03.784-1.866 1.75-1.866h10.5c.966 0 1.75.835 1.75 1.866C15 14.164 14.216 15 13.25 15H2.75C1.784 15 1 14.164 1 13.133Zm11.585 0c0-.386.294-.7.656-.7h.01c.362 0 .655.314.655.7v.01c0 .386-.293.7-.656.7h-.008c-.363 0-.657-.314-.657-.7v-.01Zm-1.969-.7c-.362 0-.656.314-.656.7v.01c0 .386.294.7.656.7h.01c.362 0 .655-.314.655-.7v-.01c0-.386-.293-.7-.656-.7h-.008Z" clip-rule="evenodd"/></svg>