<svg xmlns="http://www.w3.org/2000/svg" fill="none" viewBox="0 1 16 14"><path fill="currentColor" d="M2.632 2.431C2.848 1.591 3.652 1 4.577 1h6.846c.925 0 1.73.592 1.945 1.431l1.976 7.685A3.705 3.705 0 0 0 14 9.866H2c-.476 0-.93.09-1.344.25l1.976-7.685Z"/><path fill="currentColor" fill-rule="evenodd" d="M2 11.267c-1.105 0-2 .835-2 1.866C0 14.164.895 15 2 15h12c1.105 0 2-.836 2-1.867 0-1.03-.895-1.866-2-1.866H2Zm11.24 1.866c0-.386.336-.7.75-.7H14c.414 0 .75.314.75.7v.01c0 .386-.336.7-.75.7h-.01c-.414 0-.75-.314-.75-.7v-.01Zm-2.25-.7c-.414 0-.75.314-.75.7v.01c0 .386.336.7.75.7H11c.414 0 .75-.314.75-.7v-.01c0-.386-.336-.7-.75-.7h-.01Z" clip-rule="evenodd"/></svg>