<svg xmlns="http://www.w3.org/2000/svg" fill="none" viewBox="0 1 16 14"><path fill="currentColor" d="M1.084 1.192a.674.674 0 0 1 .943 0l6.029 5.935a.88.88 0 0 1 .831.818l6.029 5.935a.65.65 0 0 1 0 .928.674.674 0 0 1-.943 0L7.944 8.873a.88.88 0 0 1-.831-.818L1.084 2.12a.65.65 0 0 1 0-.928m1.259 12.377a7.786 7.786 0 0 1-1.236-9.57l.98.965a6.49 6.49 0 0 0 1.199 7.676.65.65 0 0 1 0 .928.674.674 0 0 1-.943 0Zm2.514-2.475A4.33 4.33 0 0 1 3.78 6.629L4.9 7.733c-.077.87.223 1.767.9 2.433a.65.65 0 0 1 0 .928.674.674 0 0 1-.944 0Zm8.8-8.662A7.786 7.786 0 0 1 14.893 12l-.98-.965a6.49 6.49 0 0 0-1.199-7.676.65.65 0 0 1 0-.928.674.674 0 0 1 .943 0Zm-2.514 2.474a4.33 4.33 0 0 1 1.079 4.465l-1.123-1.104a3.03 3.03 0 0 0-.9-2.432.65.65 0 0 1 0-.929.674.674 0 0 1 .944 0"/></svg>