<svg xmlns="http://www.w3.org/2000/svg" fill="none" viewBox="0 2 16 12"><path fill="currentColor" d="M13.657 2.2a.655.655 0 0 0-.943 0c-.26.267-.26.7 0 .967 2.604 2.67 2.604 6.997 0 9.666-.26.267-.26.7 0 .967s.682.267.943 0c3.124-3.203 3.124-8.397 0-11.6m-10.371.967c.26-.267.26-.7 0-.967a.655.655 0 0 0-.943 0c-3.124 3.203-3.124 8.397 0 11.6.26.267.683.267.943 0s.26-.7 0-.967c-2.604-2.67-2.604-6.997 0-9.666"/><path fill="currentColor" d="M10.2 4.778a.655.655 0 0 1 .943 0c1.735 1.78 1.735 4.665 0 6.444a.655.655 0 0 1-.943 0 .696.696 0 0 1 0-.966 3.247 3.247 0 0 0 0-4.511.696.696 0 0 1 0-.967m-4.4 0c.26.267.26.7 0 .967a3.247 3.247 0 0 0 0 4.51c.26.267.26.7 0 .967a.655.655 0 0 1-.943 0c-1.735-1.78-1.735-4.665 0-6.444a.655.655 0 0 1 .943 0M8.889 8A.9.9 0 0 1 8 8.911.9.9 0 0 1 7.111 8 .9.9 0 0 1 8 7.089.9.9 0 0 1 8.889 8"/></svg>