<svg xmlns="http://www.w3.org/2000/svg" fill="none" viewBox="0 0 16 16"><path stroke="currentColor" stroke-linecap="round" stroke-linejoin="round" stroke-width="1.5" d="M7.603 1.278a.423.423 0 0 1 .794 0l1.625 4.095a.43.43 0 0 0 .363.277l4.219.354c.381.032.536.53.245.792l-3.214 2.886a.46.46 0 0 0-.139.446l.982 4.315c.09.39-.316.699-.642.49L8.224 12.62a.41.41 0 0 0-.448 0l-3.612 2.313c-.326.209-.731-.1-.642-.49l.982-4.315a.46.46 0 0 0-.139-.446L1.151 6.796c-.29-.261-.136-.76.245-.792l4.219-.354c.16-.014.3-.12.363-.277z"/></svg>