<svg xmlns="http://www.w3.org/2000/svg" fill="none" viewBox="0 2 16 12"><path fill="currentColor" fill-rule="evenodd" d="M3.6 2.264a.91.91 0 0 1 0 1.275c-2.43 2.464-2.43 6.458 0 8.922.347.352.347.923 0 1.275s-.91.352-1.257 0c-3.124-3.168-3.124-8.304 0-11.472a.88.88 0 0 1 1.257 0m8.8 0a.88.88 0 0 1 1.257 0c3.124 3.168 3.124 8.304 0 11.472a.88.88 0 0 1-1.257 0 .91.91 0 0 1 0-1.275c2.43-2.464 2.43-6.458 0-8.922a.91.91 0 0 1 0-1.275m-6.286 2.55a.91.91 0 0 1 0 1.274 2.73 2.73 0 0 0 0 3.824c.348.352.348.922 0 1.274s-.91.353-1.257 0a4.55 4.55 0 0 1 0-6.373.88.88 0 0 1 1.257 0zm3.772 0a.88.88 0 0 1 1.257 0 4.55 4.55 0 0 1 0 6.373.88.88 0 0 1-1.257 0 .91.91 0 0 1 0-1.275 2.73 2.73 0 0 0 0-3.824.91.91 0 0 1 0-1.275zM8 7.098c.49 0 .889.403.889.901v.01c0 .497-.398.9-.889.9s-.889-.403-.889-.9V8c0-.498.398-.901.889-.901z" clip-rule="evenodd"/></svg>