<svg xmlns="http://www.w3.org/2000/svg" fill="none" viewBox="0 1 16 14"><path fill="currentColor" d="M2.406 1.256a.9.9 0 0 0-1.257 0 .865.865 0 0 0 0 1.238L7.301 8.55a1 1 0 0 0 .15.146l6.143 6.048a.9.9 0 0 0 1.257 0 .865.865 0 0 0 0-1.238l-.6-.59a7.786 7.786 0 0 0-.594-10.484.9.9 0 0 0-1.257 0 .865.865 0 0 0 0 1.237 6.055 6.055 0 0 1 .584 8l-1.276-1.256a4.326 4.326 0 0 0-.565-5.507c-.348-.341-.91-.341-1.257 0s-.348.896 0 1.238c.82.808.994 2.012.52 2.988l-1.77-1.743-.016-.016zm-.417 5.157a.874.874 0 0 0-.63-1.07.89.89 0 0 0-1.088.619 7.79 7.79 0 0 0 2.072 7.606.9.9 0 0 0 1.257 0 .865.865 0 0 0 0-1.237 6.06 6.06 0 0 1-1.61-5.918zM5.69 9.312a.897.897 0 0 0-1.215-.32.87.87 0 0 0-.325 1.196c.19.324.427.63.707.905a.9.9 0 0 0 1.257 0 .865.865 0 0 0 0-1.237 2.6 2.6 0 0 1-.425-.544z"/></svg>