<svg xmlns="http://www.w3.org/2000/svg" fill="none" viewBox="0 0 16 16"><path fill="currentColor" fill-rule="evenodd" d="M8 12a4 4 0 1 0 0-8 4 4 0 0 0 0 8M8 0a.75.75 0 0 1 .75.75v1.5a.75.75 0 0 1-1.5 0V.75A.75.75 0 0 1 8 0m0 13a.75.75 0 0 1 .75.75v1.5a.75.75 0 0 1-1.5 0v-1.5A.75.75 0 0 1 8 13M2.343 2.343a.75.75 0 0 1 1.061 0l1.06 1.061a.75.75 0 1 1-1.06 1.06l-1.06-1.06a.75.75 0 0 1 0-1.06Zm9.193 9.193a.75.75 0 0 1 1.06 0l1.061 1.06a.75.75 0 0 1-1.06 1.061l-1.061-1.06a.75.75 0 0 1 0-1.061M16 8a.75.75 0 0 1-.75.75h-1.5a.75.75 0 0 1 0-1.5h1.5A.75.75 0 0 1 16 8M3 8a.75.75 0 0 1-.75.75H.75a.75.75 0 0 1 0-1.5h1.5A.75.75 0 0 1 3 8m10.657-5.657a.75.75 0 0 1 0 1.061l-1.06 1.06a.75.75 0 0 1-1.062-1.06l1.061-1.06a.75.75 0 0 1 1.06 0Zm-9.193 9.193a.75.75 0 0 1 0 1.06l-1.06 1.061a.75.75 0 1 1-1.061-1.06l1.06-1.061a.75.75 0 0 1 1.061 0" clip-rule="evenodd"/></svg>