<svg xmlns="http://www.w3.org/2000/svg" fill="none" viewBox="1 1 14 14"><path fill="currentColor" fill-rule="evenodd" d="M2.5 1A1.5 1.5 0 0 0 1 2.5v9.875a2.625 2.625 0 1 0 5.25 0V2.5A1.5 1.5 0 0 0 4.75 1H2.5Zm1.125 12.25a.875.875 0 1 0 0-1.75.875.875 0 0 0 0 1.75Z" clip-rule="evenodd"/><path fill="currentColor" d="M12.464 7.248 7.562 12.15V4.725l1.19-1.189a1.5 1.5 0 0 1 2.12 0l1.592 1.591a1.5 1.5 0 0 1 0 2.121ZM6.568 15H13.5a1.5 1.5 0 0 0 1.5-1.5v-2.25a1.5 1.5 0 0 0-1.5-1.5h-1.681L6.569 15Z"/></svg>