<svg xmlns="http://www.w3.org/2000/svg" fill="none" viewBox="1 1 14.04 14"><path fill="currentColor" d="M8 11.889A1.556 1.556 0 1 1 8 15a1.556 1.556 0 0 1 0-3.111m5.444 0a1.556 1.556 0 1 1 0 3.111 1.556 1.556 0 0 1 0-3.111m-10.888 0a1.556 1.556 0 1 1 0 3.111 1.556 1.556 0 0 1 0-3.111M8 6.444a1.556 1.556 0 1 1 0 3.111 1.556 1.556 0 0 1 0-3.11Zm5.444 0a1.556 1.556 0 1 1 0 3.112 1.556 1.556 0 0 1 0-3.112m-10.888 0a1.556 1.556 0 1 1 0 3.112 1.556 1.556 0 0 1 0-3.112M8 1a1.556 1.556 0 1 1 0 3.111A1.556 1.556 0 0 1 8 1m5.444 0a1.556 1.556 0 1 1 0 3.111 1.556 1.556 0 0 1 0-3.111M2.556 1a1.556 1.556 0 1 1 0 3.111 1.556 1.556 0 0 1 0-3.111"/></svg>