<svg xmlns="http://www.w3.org/2000/svg" fill="none" viewBox="0 2 16 12"><path fill="currentColor" fill-rule="evenodd" d="M0 3.364C0 2.61.64 2 1.429 2H14.57c.791 0 1.43.61 1.43 1.364v9.272C16 13.39 15.36 14 14.571 14H1.43C.639 14 0 13.39 0 12.636zM14.857 6.09a.28.28 0 0 0-.286-.273H8.857a.28.28 0 0 0-.286.273v1.09a.28.28 0 0 0 .286.274h5.714a.28.28 0 0 0 .286-.273zm0 2.727a.28.28 0 0 0-.286-.273H8.857a.28.28 0 0 0-.286.273V9.91c0 .15.128.273.286.273h5.714a.28.28 0 0 0 .286-.273V8.82Zm0 2.728a.28.28 0 0 0-.286-.273H8.857a.28.28 0 0 0-.286.273v1.09a.28.28 0 0 0 .286.273h5.714a.28.28 0 0 0 .286-.273zm-7.714 1.363a.28.28 0 0 0 .286-.273v-1.09a.28.28 0 0 0-.286-.273H1.429a.28.28 0 0 0-.286.273v1.09a.28.28 0 0 0 .286.273zm-5.714-2.727h5.714a.28.28 0 0 0 .286-.273V8.82a.28.28 0 0 0-.286-.274H1.429a.28.28 0 0 0-.286.273V9.91c0 .15.128.273.286.273Zm0-2.727h5.714a.28.28 0 0 0 .286-.273V6.09a.28.28 0 0 0-.286-.273H1.429a.28.28 0 0 0-.286.273v1.09a.28.28 0 0 0 .286.274" clip-rule="evenodd"/></svg>