<svg xmlns="http://www.w3.org/2000/svg" fill="none" viewBox="1 1 14 14"><path fill="currentColor" d="M11.417 14.312a.456.456 0 0 0 .138-.63L9.106 9.89a.46.46 0 0 0-.576-.169l-1.683.76a.46.46 0 0 0-.195.166l-1.99 3.033a.453.453 0 0 0 .14.62.46.46 0 0 0 .63-.122l1.916-2.922.312-.14v3.428a.455.455 0 0 0 .46.456.46.46 0 0 0 .459-.456v-3.781l2.204 3.412a.46.46 0 0 0 .634.137"/><path fill="currentColor" fill-rule="evenodd" d="M1.164 9.607a1.21 1.21 0 0 1 .361-1.606l9.82-6.783a1.23 1.23 0 0 1 1.745.366l1.731 2.823a1.21 1.21 0 0 1-.52 1.73L3.425 11.263a1.23 1.23 0 0 1-1.585-.49l-.677-1.165Zm3.222-2.472 1.217 2.091-.833.393-1.14-1.961zM9.187 3.82l1.75 2.894.833-.393-1.827-3.023z" clip-rule="evenodd"/></svg>