<svg xmlns="http://www.w3.org/2000/svg" fill="none" viewBox="0.5 0.5 15.5 14.5"><path fill="currentColor" fill-rule="evenodd" d="M8.577 1.792C8.577 1.082 9.15.5 9.865.5a2.37 2.37 0 0 1 2.366 2.375c0 .888-.188 1.735-.525 2.5h2.02c1.054 0 2.096.727 2.221 1.91.035.33.053.667.053 1.007a9.412 9.412 0 0 1-2.066 5.9c-.44.55-1.1.808-1.738.808H9.313c-.429 0-.854-.07-1.26-.206l-2.236-.75a2.464 2.464 0 0 0-.784-.127h-.179C4.8 14.477 4.374 15 3.692 15H3.04c-.915 0-1.837-.542-2.134-1.52A9.464 9.464 0 0 1 .5 10.73c0-1.217.23-2.381.649-3.45.348-.89 1.218-1.363 2.075-1.363h.756c.375 0 .68.172.881.408.143-.082.28-.201.403-.358a7.25 7.25 0 0 1 2.291-1.933c.415-.222.71-.519.844-.855.117-.296.178-.611.178-.93v-.457ZM3.449 7.417h-.225c-.338 0-.59.18-.679.41A7.94 7.94 0 0 0 2 10.728c0 .807.12 1.584.341 2.315.076.25.337.456.699.456h.16a7.265 7.265 0 0 1-.546-2.77c0-1.193.287-2.32.795-3.313Zm1.44.489c.647-.14 1.187-.542 1.557-1.017a5.75 5.75 0 0 1 1.818-1.533c.622-.333 1.226-.862 1.529-1.623.188-.472.284-.976.284-1.484v-.223a.873.873 0 0 1 .654.849c0 .719-.161 1.397-.448 2.003-.076.162-.118.33-.13.497h-.288a.75.75 0 1 0 0 1.5h3.861c.421 0 .698.275.73.567.029.28.044.563.044.85 0 1.88-.65 3.605-1.737 4.963-.117.146-.318.245-.567.245H9.313c-.266 0-.53-.043-.783-.128l-2.236-.75a3.961 3.961 0 0 0-1.26-.205h-.63a5.785 5.785 0 0 1-.25-1.688c0-1.027.267-1.99.734-2.823Z" clip-rule="evenodd"/></svg>