<svg xmlns="http://www.w3.org/2000/svg" fill="none" viewBox="0 0 16 16"><path fill="currentColor" fill-rule="evenodd" d="M7.638.083a.84.84 0 0 1 .724 0l2 .98c.363.179.495.584.295.907-.2.322-.657.44-1.02.261L8 1.428l-1.638.803c-.362.178-.819.06-1.019-.261-.2-.323-.068-.728.295-.906zM3.403 2.92c.2.323.068.728-.295.906l-.805.395.805.395c.363.178.495.584.295.906s-.657.44-1.02.262L1.5 5.35V6c0 .368-.336.667-.75.667S0 6.368 0 6V4.222a.66.66 0 0 1 .388-.584l1.996-.978c.362-.178.818-.061 1.019.261Zm9.194 0c.2-.322.657-.44 1.02-.261l1.995.978a.66.66 0 0 1 .388.584V6c0 .368-.336.667-.75.667S14.5 6.368 14.5 6v-.649l-.884.434c-.362.178-.819.06-1.019-.262s-.068-.728.295-.906l.806-.395-.806-.395c-.363-.178-.495-.583-.295-.906ZM5.343 6.475c.2-.322.657-.44 1.02-.262L8 7.016l1.638-.803c.362-.178.819-.06 1.019.262s.068.728-.295.906l-1.612.79v1.385c0 .368-.336.666-.75.666s-.75-.298-.75-.666V8.17l-1.612-.79c-.363-.178-.495-.584-.295-.906ZM.75 9.333c.414 0 .75.299.75.667v1.384l1.608.789c.363.178.495.583.295.906-.2.322-.657.44-1.02.261l-1.995-.979A.66.66 0 0 1 0 11.778V10c0-.368.336-.667.75-.667m14.5 0c.414 0 .75.299.75.667v1.778a.66.66 0 0 1-.388.583l-1.996.98c-.362.177-.819.06-1.019-.262-.2-.323-.068-.728.295-.906l1.608-.789V10c0-.368.336-.667.75-.667M8 12.89c.414 0 .75.298.75.667v.648l.888-.435c.362-.178.819-.06 1.019.261.2.323.068.728-.295.906l-2 .981a.84.84 0 0 1-.724 0l-2-.98c-.363-.179-.495-.584-.295-.907.2-.322.657-.44 1.02-.261l.887.435v-.648c0-.369.336-.667.75-.667" clip-rule="evenodd"/></svg>