<svg xmlns="http://www.w3.org/2000/svg" fill="none" viewBox="3 2 13 12"><path fill="currentColor" d="M4.503 2c-1.052 0-2.095.032-3.127.094C.59 2.14 0 2.668 0 3.285V8h9.006V3.285c0-.617-.59-1.144-1.376-1.191A51.984 51.984 0 0 0 4.503 2ZM0 9.2v2c0 .663.672 1.2 1.501 1.2h.042c.238-1.135 1.473-2 2.96-2 1.488 0 2.722.865 2.96 2h.793c.414 0 .75-.269.75-.6V9.2H0Z"/><path fill="currentColor" d="M4.503 14c.83 0 1.501-.537 1.501-1.2 0-.663-.672-1.2-1.5-1.2-.83 0-1.502.537-1.502 1.2 0 .663.672 1.2 1.501 1.2Zm6.755-10.4c-.415 0-.75.269-.75.6v6.811c.53-.38 1.232-.611 2-.611 1.383 0 2.547.747 2.896 1.764.37-.22.61-.576.595-.982-.091-2.41-.717-4.715-1.785-6.84-.23-.456-.784-.742-1.382-.742h-1.574ZM12.509 14c.829 0 1.5-.537 1.5-1.2 0-.663-.671-1.2-1.5-1.2-.83 0-1.501.537-1.501 1.2 0 .663.672 1.2 1.5 1.2Z"/></svg>