<svg xmlns="http://www.w3.org/2000/svg" fill="none" viewBox="1 1 14 14"><path fill="currentColor" d="M2.969 1A1.97 1.97 0 0 0 1 2.969v2.187c0 1.088.881 1.969 1.969 1.969h2.187a1.97 1.97 0 0 0 1.969-1.969V2.97A1.97 1.97 0 0 0 5.156 1H2.97Zm0 7.875A1.97 1.97 0 0 0 1 10.844v2.187C1 14.12 1.881 15 2.969 15h2.187a1.97 1.97 0 0 0 1.969-1.969v-2.187a1.97 1.97 0 0 0-1.969-1.969H2.97ZM10.844 1a1.97 1.97 0 0 0-1.969 1.969v2.187c0 1.088.881 1.969 1.969 1.969h2.187A1.97 1.97 0 0 0 15 5.156V2.97A1.97 1.97 0 0 0 13.031 1zm0 7.875a1.97 1.97 0 0 0-1.969 1.969v2.187c0 1.088.881 1.969 1.969 1.969h2.187A1.97 1.97 0 0 0 15 13.031v-2.187a1.97 1.97 0 0 0-1.969-1.969z"/></svg>