<svg xmlns="http://www.w3.org/2000/svg" fill="none" viewBox="0 2 16 12"><path fill="currentColor" fill-rule="evenodd" d="M7.563 2.069A.75.75 0 0 1 8 2.75v10.5a.75.75 0 0 1-1.238.57L3.472 11H1.75A1.75 1.75 0 0 1 0 9.25v-2.5C0 5.784.784 5 1.75 5h1.723l3.289-2.82a.75.75 0 0 1 .801-.111m5.033.273a.75.75 0 0 1 1.06 0 8 8 0 0 1 0 11.314.75.75 0 0 1-1.06-1.06 6.5 6.5 0 0 0 0-9.193.75.75 0 0 1 0-1.061m-1.06 2.121a.75.75 0 1 0-1.061 1.061 3.5 3.5 0 0 1 0 4.95.75.75 0 1 0 1.06 1.06 5 5 0 0 0 0-7.07z" clip-rule="evenodd"/></svg>