<svg xmlns="http://www.w3.org/2000/svg" fill="none" viewBox="0 2 16 12"><path fill="currentColor" d="M7.872 2.345a.75.75 0 0 1 .119.405v10.5a.75.75 0 0 1-1.237.57L3.47 11H1.748A1.75 1.75 0 0 1 0 9.25v-2.5A1.75 1.75 0 0 1 1.748 5h1.72l3.286-2.82a.75.75 0 0 1 1.118.165m3.152 2.701a.8.8 0 0 1 .243.174l1.718 1.72 1.718-1.72a.749.749 0 0 1 1.059 1.06L14.044 8l1.718 1.72a.75.75 0 0 1-.816 1.234.8.8 0 0 1-.243-.174l-1.718-1.72-1.718 1.72a.75.75 0 1 1-1.059-1.06L11.926 8l-1.718-1.72a.75.75 0 0 1-.019-1.079.75.75 0 0 1 .835-.155"/></svg>