<svg xmlns="http://www.w3.org/2000/svg" fill="none" viewBox="0 2 16 12"><path fill="currentColor" fill-rule="evenodd" d="M.178 5.378C2.158 3.295 4.932 2 8 2s5.841 1.295 7.822 3.378a.653.653 0 0 1-.006.903l-.297.303a.62.62 0 0 1-.896-.007C12.945 4.811 10.598 3.714 8 3.714S3.055 4.811 1.377 6.577a.623.623 0 0 1-.896.007L.184 6.28a.653.653 0 0 1-.006-.903Zm2.37 2.428A7.46 7.46 0 0 1 8 5.43c2.143 0 4.078.913 5.452 2.377a.653.653 0 0 1-.01.9l-.296.303a.62.62 0 0 1-.9-.01A5.8 5.8 0 0 0 8 7.142c-1.67 0-3.176.711-4.246 1.855a.623.623 0 0 1-.9.01l-.297-.303a.653.653 0 0 1-.009-.899Zm2.365 2.435A4.14 4.14 0 0 1 8 8.857c1.221 0 2.321.534 3.087 1.384a.653.653 0 0 1-.018.89l-.297.303a.62.62 0 0 1-.91-.022A2.5 2.5 0 0 0 8 10.572c-.738 0-1.4.323-1.862.84a.623.623 0 0 1-.91.022l-.297-.303a.653.653 0 0 1-.018-.89M7.258 12.6a1.036 1.036 0 0 1 1.484 0 .653.653 0 0 1 0 .909l-.297.303a.62.62 0 0 1-.89 0l-.296-.303a.653.653 0 0 1 0-.91Z" clip-rule="evenodd"/></svg>