<svg xmlns="http://www.w3.org/2000/svg" fill="none" viewBox="1 1 14 14"><path fill="currentColor" fill-rule="evenodd" d="M15 4.5a3.5 3.5 0 0 1-3.726 3.493c-.68-.044-1.406.099-1.842.622l-4.686 5.623a2.119 2.119 0 1 1-2.984-2.984l5.623-4.686c.523-.436.666-1.163.622-1.841a3.5 3.5 0 0 1 4.568-3.558c.252.08.304.396.117.584l-2.094 2.094a.35.35 0 0 0-.086.384c.236.567.69 1.021 1.258 1.257a.35.35 0 0 0 .383-.086l2.095-2.094c.187-.187.503-.135.584.117.109.339.168.7.168 1.075M3.333 13.444a.778.778 0 1 0 0-1.555.778.778 0 0 0 0 1.555" clip-rule="evenodd"/></svg>