<svg xmlns="http://www.w3.org/2000/svg" fill="none" viewBox="1 1 14 14"><path fill="currentColor" d="M7.125 4.5c.362 0 .656.294.656.656V6.47h1.313a.656.656 0 1 1 0 1.312H7.78v1.313a.656.656 0 1 1-1.312 0V7.78H5.156a.656.656 0 1 1 0-1.312H6.47V5.156c0-.362.294-.656.656-.656Z"/><path fill="currentColor" fill-rule="evenodd" d="M1 7.125a6.125 6.125 0 1 1 10.895 3.842l2.913 2.913a.656.656 0 1 1-.928.928l-2.913-2.913A6.125 6.125 0 0 1 1 7.125m6.125-4.813a4.813 4.813 0 1 0 0 9.626 4.813 4.813 0 0 0 0-9.626" clip-rule="evenodd"/></svg>