<svg xmlns="http://www.w3.org/2000/svg" xmlns:xlink="http://www.w3.org/1999/xlink">
  <symbol id="arrow" viewBox="0 0 16 16">
    <path fill-rule="evenodd" clip-rule="evenodd" d="M10.064 3.77a.9.9 0 0 1 1.272 0l3.6 3.6a.9.9 0 0 1 0 1.272l-3.6 3.6a.9.9 0 0 1-1.272-1.273l2.063-2.064H1.7a.9.9 0 0 1 0-1.8h10.427l-2.063-2.063a.9.9 0 0 1 0-1.273z" />
  </symbol>

  <symbol id="back" viewBox="0 0 16 16" >
    <g transform="translate(16), scale(-1,1)">
      <path fill-rule="evenodd"  clip-rule="evenodd" d="M10.064 3.77a.9.9 0 0 1 1.272 0l3.6 3.6a.9.9 0 0 1 0 1.272l-3.6 3.6a.9.9 0 0 1-1.272-1.273l2.063-2.064H1.7a.9.9 0 0 1 0-1.8h10.427l-2.063-2.063a.9.9 0 0 1 0-1.273z" />
    </g>
   </symbol>

  <symbol id="calendar" viewBox="0 0 16 16">
    <path fill-rule="evenodd" clip-rule="evenodd" d="M4.8 1.6a.8.8 0 0 0-.8.8v.8h-.8a1.6 1.6 0 0 0-1.6 1.6v8a1.6 1.6 0 0 0 1.6 1.6h9.6a1.6 1.6 0 0 0 1.6-1.6v-8a1.6 1.6 0 0 0-1.6-1.6H12v-.8a.8.8 0 0 0-1.6 0v.8H5.6v-.8a.8.8 0 0 0-.8-.8Zm0 4a.8.8 0 1 0 0 1.6h6.4a.8.8 0 0 0 0-1.6z" />
  </symbol>

  <symbol id="copy" viewBox="0 0 16 16">
    <g>
      <path d="M5.6 7.2a1.6 1.6 0 0 1 1.6-1.6H12a1.6 1.6 0 0 1 1.6 1.6V12a1.6 1.6 0 0 1-1.6 1.6H7.2A1.6 1.6 0 0 1 5.6 12Z" />
      <path d="M4 2.4A1.6 1.6 0 0 0 2.4 4v4.8A1.6 1.6 0 0 0 4 10.4V4h6.4a1.6 1.6 0 0 0-1.6-1.6Z" />
    </g>
  </symbol>

  <symbol id="pin" viewBox="0 0 16 16">
    <path fill-rule="evenodd" clip-rule="evenodd" d="M4.04 2.88a5.6 5.6 0 1 1 7.92 7.92L8 14.76 4.04 10.8a5.6 5.6 0 0 1 0-7.92zM8 8.44a1.6 1.6 0 1 0 0-3.2 1.6 1.6 0 0 0 0 3.2z" />
  </symbol>
</svg>