<svg width="20" height="20" viewBox="0 0 20 20" fill="none" xmlns="http://www.w3.org/2000/svg">
<path d="M8.61914 1.781C8.91076 1.7324 9.16667 1.96472 9.16667 2.26036V10.8333H17.7396C18.0353 10.8333 18.2676 11.0892 18.219 11.3809C17.5616 15.3259 14.1317 18.3333 10 18.3333C5.39751 18.3333 1.66667 14.6025 1.66667 10C1.66667 5.86833 4.67415 2.43843 8.61914 1.781ZM10.8333 2.26124C10.8333 1.96528 11.0894 1.73284 11.3812 1.78195C13.0855 2.06873 14.6636 2.87937 15.8921 4.10787C17.1206 5.33636 17.9313 6.91448 18.2181 8.61877C18.2672 8.91063 18.0347 9.16667 17.7388 9.16667H10.8333V2.26124Z" fill="#B1B5C3"/>
</svg>
