<svg fill="none" height="16" viewBox="0 0 17 16" width="17" xmlns="http://www.w3.org/2000/svg"><path clip-rule="evenodd" d="m.587312 1.58617c.375073-.37507.883778-.58579 1.414218-.58579h11.99997c.5305 0 1.0392.21072 1.4142.58579.3751.37507.5858.88378.5858 1.41421s-.2107 1.03914-.5858 1.41422c-.375.37507-.8837.58578-1.4142.58578h-11.99997c-.53044 0-1.039145-.21071-1.414218-.58578-.375073-.37508-.58578612-.88379-.58578612-1.41422s.21071312-1.03914.58578612-1.41421zm14.414188 4.41421h-13.99997v7.00002c0 .5304.21071 1.0391.58578 1.4142s.88378.5858 1.41422.5858h9.99997c.5305 0 1.0392-.2107 1.4142-.5858.3751-.3751.5858-.8838.5858-1.4142zm-8.70708 2.29289c-.18754.18754-.29289.44189-.29289.70711s.10535.51957.29289.70711c.18754.18753.44189.29291.70711.29291h2c.26521 0 .51957-.10538.7071-.29291.18754-.18754.29287-.44189.29287-.70711s-.10533-.51957-.29287-.70711c-.18753-.18753-.44189-.29289-.7071-.29289h-2c-.26522 0-.51957.10536-.70711.29289z" fill="currentColor" fill-rule="evenodd"/></svg>