<svg fill="none" height="16" viewBox="0 0 17 16" width="17" xmlns="http://www.w3.org/2000/svg"><path clip-rule="evenodd" d="m3.29462 5.70724c-.18771-.18753-.29315-.44184-.29315-.70701 0-.26516.10544-.51947.29315-.707l4.00501-4.000058c.18776-.187474.44238-.29279047.70788-.29279047s.52012.10531647.70788.29279047l4.00501 4.000058c.1824.1886.2833.44121.281.70341s-.1076.51301-.2932.69842-.4368.29058-.6993.29286-.5154-.09852-.7043-.28068l-2.29584-2.29303v11.58619c0 .2652-.10549.5195-.29326.7071-.18777.1875-.44244.2929-.70799.2929s-.52022-.1054-.70799-.2929c-.18777-.1876-.29326-.4419-.29326-.7071v-11.58619l-2.29587 2.29303c-.18776.18748-.44239.29279-.70789.29279-.26549 0-.52012-.10531-.70788-.29279z" fill="currentColor" fill-rule="evenodd"/></svg>