<svg fill="none" height="16" viewBox="0 0 16 16" width="16" xmlns="http://www.w3.org/2000/svg"><path clip-rule="evenodd" d="m16 11v-8c0-.53043-.2107-1.03914-.5858-1.41421-.3751-.37508-.8838-.58579-1.4142-.58579h-12c-.53043 0-1.039141.21071-1.414214.58579-.375072.37507-.585786.88378-.585786 1.41421v8c0 .5304.210714 1.0391.585786 1.4142.375073.3751.883784.5858 1.414214.5858h3l3 3 3-3h3c.5304 0 1.0391-.2107 1.4142-.5858s.5858-.8838.5858-1.4142zm-13-6c0-.26522.10536-.51957.29289-.70711.18754-.18753.44189-.29289.70711-.29289h8c.2652 0 .5196.10536.7071.29289.1875.18754.2929.44189.2929.70711s-.1054.51957-.2929.70711c-.1875.18753-.4419.29289-.7071.29289h-8c-.26522 0-.51957-.10536-.70711-.29289-.18753-.18754-.29289-.44189-.29289-.70711zm1 3c-.26522 0-.51957.10536-.70711.29289-.18753.18754-.29289.44189-.29289.70711s.10536.51957.29289.70711c.18754.18753.44189.29289.70711.29289h3c.26522 0 .51957-.10536.70711-.29289.18753-.18754.29289-.44189.29289-.70711s-.10536-.51957-.29289-.70711c-.18754-.18753-.44189-.29289-.70711-.29289z" fill="currentColor" fill-rule="evenodd"/></svg>