<svg fill="none" height="16" viewBox="0 0 16 16" width="16" xmlns="http://www.w3.org/2000/svg"><path clip-rule="evenodd" d="m5.06515 0c-.39568 0-.7524.243642-.90382.617317-.15142.373674-.06772.803793.21207 1.089793l.69175.7071v3.75736c0 .26522-.10307.51957-.28653.70711l-3.913138 4.00002c-1.848852 1.8899-.539423 5.1213 2.075248 5.1213h10.11857c2.6146 0 3.9241-3.2314 2.0752-5.1213l-3.9131-4.00002c-.1835-.18754-.2865-.44189-.2865-.70711v-3.75736l.6917-.7071c.2798-.286.3635-.716119.2121-1.089793-.1515-.373675-.5082-.617317-.9038-.617317zm1.95657 6.17157v-4.17157h1.95656v4.17157c0 .79565.30921 1.55871.8596 2.12132l1.00522 1.02756c-.7013-.16676-1.43651-.13301-2.12403.10125l-.45996.15672c-.80324.27369-1.67165.27369-2.47489 0l-.55023-.18748c-.03726-.01269-.07471-.02419-.11232-.0345l1.04045-1.06355c.55039-.56261.8596-1.32567.8596-2.12132z" fill="currentColor" fill-rule="evenodd"/></svg>