<svg fill="none" height="16" viewBox="0 0 17 16" width="17" xmlns="http://www.w3.org/2000/svg"><g clip-rule="evenodd" fill="currentColor" fill-rule="evenodd"><path d="m4.13545.00038147c.30076 0 .58919.12040753.80186.33473553.21266.214327.33213.505017.33213.808123v13.71426c0 .3031-.11947.5938-.33213.8081-.21267.2144-.5011.3348-.80186.3348-.30075 0-.58918-.1204-.80185-.3348-.21266-.2143-.33214-.505-.33214-.8081v-13.71426c0-.303106.11948-.593796.33214-.808123.21267-.214328.5011-.33473553.80185-.33473553z"/><path d="m13.6693 2.38414c.4429.44631.4429 1.16993 0 1.61624l-3.73408 3.76331 3.73408 3.76331c.4429.4463.4429 1.1699 0 1.6162-.4428.4464-1.1608.4464-1.6037 0l-4.53594-4.57139c-.44285-.44631-.44285-1.16993 0-1.61624l4.53594-4.57143c.4429-.44632 1.1609-.44632 1.6037 0z"/></g></svg>