<svg fill="none" height="16" viewBox="0 0 16 16" width="16" xmlns="http://www.w3.org/2000/svg"><path clip-rule="evenodd" d="m2 3c-1.104569 0-2 .89543-2 2v8c0 1.1046.895431 2 2 2h12c1.1046 0 2-.8954 2-2v-8c0-1.10457-.8954-2-2-2h-1.5858c-.2652 0-.5196-.10536-.7071-.29289l-1.1213-1.12132c-.3751-.37508-.88379-.58579-1.41423-.58579h-2.34314c-.53044 0-1.03914.21071-1.41422.58579l-1.12132 1.12132c-.18753.18753-.44189.29289-.7071.29289zm6 9c1.65685 0 3-1.3431 3-3 0-1.65685-1.34315-3-3-3s-3 1.34315-3 3c0 1.6569 1.34315 3 3 3z" fill="currentColor" fill-rule="evenodd"/></svg>