<svg fill="none" height="16" viewBox="0 0 16 16" width="16" xmlns="http://www.w3.org/2000/svg"><path clip-rule="evenodd" d="m15.531 3.48801c-.3005-.31247-.7079-.48801-1.1327-.48801s-.8322.17554-1.1326.48801l-5.27537 5.48873-5.2754-5.48873c-.30214-.30362-.70681-.47162-1.12685-.46782s-.821839.17909-1.118864.48813c-.297024.30903-.46550541.72708-.46915544 1.16411-.00365003.43702.15782344.85806.44964144 1.17242l6.408008 6.66715c.30042.3125.70782.488 1.13262.488.42479 0 .83219-.1755 1.13261-.488l6.40806-6.66715c.3003-.31257.469-.73645.469-1.17842s-.1687-.86585-.469-1.17842z" fill="currentColor" fill-rule="evenodd"/></svg>