<svg fill="none" height="16" viewBox="0 0 16 16" width="16" xmlns="http://www.w3.org/2000/svg"><path clip-rule="evenodd" d="m12.512 15.531c.3125-.3005.488-.7079.488-1.1327s-.1755-.8322-.488-1.1326l-5.48874-5.27537 5.48874-5.2754c.3036-.30214.4716-.70681.4678-1.12685s-.1791-.821839-.4881-1.118864c-.3091-.297024-.7271-.46550541-1.1641-.46915544-.4371-.00365003-.8581.15782344-1.1724.44964144l-6.66719 6.408008c-.31247.30042-.48801.70782-.48801 1.13262 0 .42479.17554.83219.48801 1.13261l6.66719 6.40806c.3125.3003.7364.469 1.1784.469.4419 0 .8658-.1687 1.1784-.469z" fill="currentColor" fill-rule="evenodd"/></svg>