<svg fill="none" height="16" viewBox="0 0 16 16" width="16" xmlns="http://www.w3.org/2000/svg"><path clip-rule="evenodd" d="m1 3c0-1.10457.89543-2 2-2h10c1.1046 0 2 .89543 2 2v8c0 1.1046-.8954 2-2 2h-2.2192l.1222.4887.8041.8042c.286.286.3716.7161.2168 1.0898-.1548.3736-.5194.6173-.9239.6173h-5.99997c-.40446 0-.7691-.2437-.92388-.6173-.15478-.3737-.06923-.8038.21677-1.0898l.80414-.8042.12219-.4887h-2.21925c-1.10457 0-2-.8954-2-2zm5.7713 7c-.01473-.00033-.02941-.00033-.04405 0h-3.72725v-7h10v7h-3.72719c-.01464-.00033-.02933-.00033-.04405 0z" fill="currentColor" fill-rule="evenodd"/></svg>