<svg fill="none" height="16" viewBox="0 0 17 16" width="17" xmlns="http://www.w3.org/2000/svg"><path clip-rule="evenodd" d="m.645891.644746c.412579-.41258.972159-.64436453 1.555639-.64436453h6.6c.58347 0 1.14305.23178453 1.55567.64436453.4125.412584.6443.972164.6443 1.555634h-8.79997v8.80002c-.58348 0-1.14306-.2318-1.555639-.6444-.41258-.41256-.64436512-.97214-.64436512-1.55562v-6.6c0-.58347.23178512-1.14305.64436512-1.555634zm4.999999 5.000004c-.41258.41258-.64436.97216-.64436 1.55563v6.60002c0 .5835.23178 1.143.64436 1.5556s.97216.6444 1.55564.6444h6.59997c.5835 0 1.1431-.2318 1.5557-.6444.4125-.4126.6443-.9721.6443-1.5556v-6.60002c0-.58347-.2318-1.14305-.6443-1.55563-.4126-.41258-.9722-.64437-1.5557-.64437h-6.59997c-.58348 0-1.14306.23179-1.55564.64437z" fill="currentColor" fill-rule="evenodd"/></svg>