<svg fill="none" height="16" viewBox="0 0 16 16" width="16" xmlns="http://www.w3.org/2000/svg"><path d="m16 11.0761c-1.5501.7011-3.277.9133-4.9507.6082-1.67368-.3051-3.21467-1.113-4.41765-2.31595-1.20298-1.20298-2.01083-2.74397-2.31592-4.41766-.3051-1.67369-.09295-3.40061.60818-4.95069-1.23404.557688-2.31437 1.40643-3.1483 2.4734-.833933 1.06698-1.396571 2.32033-1.639646 3.65255-.243075 1.33221-.159331 2.7035.244048 3.99625.403379 1.2927 1.114348 2.4683 2.071918 3.4259.95757.9575 2.13315 1.6685 3.42588 2.0719 1.29274.4034 2.66403.4871 3.99625.244 1.33224-.243 2.58554-.8057 3.65254-1.6396s1.9157-1.9143 2.4734-3.1483z" fill="currentColor"/></svg>