<svg fill="none" height="16" viewBox="0 0 16 16" width="16" xmlns="http://www.w3.org/2000/svg"><path d="m13.3182 10c.2761 0 .5.2239.5.5v1.75h1.6818c.2761 0 .5.2239.5.5v.5c0 .2761-.2239.5-.5.5h-1.6818v1.75c0 .2761-.2239.5-.5.5h-.4546c-.2761 0-.5-.2239-.5-.5v-1.75h-1.6818c-.2761 0-.5-.2239-.5-.5v-.5c0-.2761.2239-.5.5-.5h1.6818v-1.75c0-.2761.2239-.5.5-.5zm.5058-9c.3985 0 .7215.33375.7215.74475v7.01175c-.4672-.17018-.9591-.25692-1.4546-.2565v-6h-11.63635l.00072 10.5 6.75782-6.96975c.12506-.12939.29165-.2072.46844-.2188.1768-.01161.35161.0438.49156.1558l.06764.06375 2.57887 2.6625c-.5639.1772-1.0871.47033-1.5382.86172-.45105.39139-.82059.87288-1.08631 1.41558s-.42212 1.1352-.45978 1.7419c-.03765.6066.04422 1.2149.24069 1.788l-8.254545-.0007c-.191409-.0002-.374912-.0788-.51019-.2184-.1352781-.1396-.2112651-.329-.211265-.5264v-12.01045c.00133094-.19697.0777457-.38549.212737-.52484.134991-.13935.317721-.21834.508718-.21991zm-9.46036 3c.38577 0 .75574.15804 1.02852.43934s.42602.66284.42602 1.06066-.15324.77936-.42602 1.06066-.64275.43934-1.02852.43934-.75574-.15804-1.02852-.43934-.42603-.66284-.42603-1.06066.15325-.77936.42603-1.06066.64275-.43934 1.02852-.43934z" fill="currentColor"/></svg>