<svg fill="none" height="16" viewBox="0 0 16 16" width="16" xmlns="http://www.w3.org/2000/svg"><path clip-rule="evenodd" d="m4 0c-.26522 0-.51957.105357-.70711.292893-.18753.187537-.29289.441891-.29289.707107v1h-1c-.53043 0-1.039141.21071-1.414214.58579-.375072.37507-.585786.88378-.585786 1.41421v10c0 .5304.210714 1.0391.585786 1.4142.375073.3751.883784.5858 1.414214.5858h12c.5304 0 1.0391-.2107 1.4142-.5858s.5858-.8838.5858-1.4142v-10c0-.53043-.2107-1.03914-.5858-1.41421-.3751-.37508-.8838-.58579-1.4142-.58579h-1v-1c0-.265216-.1054-.51957-.2929-.707107-.1875-.187536-.4419-.292893-.7071-.292893s-.5196.105357-.7071.292893c-.1875.187537-.2929.441891-.2929.707107v1h-6v-1c0-.265216-.10536-.51957-.29289-.707107-.18754-.187536-.44189-.292893-.70711-.292893zm0 5c-.26522 0-.51957.10536-.70711.29289-.18753.18754-.29289.44189-.29289.70711s.10536.51957.29289.70711c.18754.18753.44189.29289.70711.29289h8c.2652 0 .5196-.10536.7071-.29289.1875-.18754.2929-.44189.2929-.70711s-.1054-.51957-.2929-.70711c-.1875-.18753-.4419-.29289-.7071-.29289z" fill="currentColor" fill-rule="evenodd"/></svg>