<svg width="20" height="20" viewBox="0 0 20 20" fill="none" xmlns="http://www.w3.org/2000/svg">
<path d="M5.04667 6.91666C5.0998 6.83193 5.1551 6.74856 5.21251 6.66666H14.7875C14.845 6.74833 14.9 6.8325 14.9533 6.91666L16.2037 6.19493C16.4428 6.05689 16.7486 6.13883 16.8867 6.37796L17.22 6.95536C17.3581 7.19449 17.2762 7.50027 17.0371 7.63835L15.6258 8.45333C15.7608 8.945 15.8333 9.46416 15.8333 10V10.8333H17.8333C18.1095 10.8333 18.3333 11.0572 18.3333 11.3333V12C18.3333 12.2761 18.1095 12.5 17.8333 12.5H15.8333C15.8333 13.2942 15.675 14.0517 15.3867 14.7417L17.0371 15.695C17.2762 15.8331 17.3581 16.1388 17.22 16.3779L16.8866 16.9554C16.7486 17.1945 16.4428 17.2764 16.2037 17.1384L14.5317 16.1733C13.7293 17.1644 12.6275 17.8607 11.3996 18.1638C11.104 18.2368 10.8333 18.0015 10.8333 17.697V11.6667H9.16667V17.6978C9.16667 18.0023 8.89597 18.2376 8.60034 18.1645C7.37233 17.8612 6.27063 17.1647 5.46834 16.1733L3.79632 17.1384C3.55718 17.2764 3.25143 17.1945 3.11336 16.9554L2.78004 16.3781C2.64196 16.1389 2.72392 15.8331 2.9631 15.695L4.61334 14.7425C4.31753 14.0319 4.1657 13.2697 4.16667 12.5H2.16667C1.89053 12.5 1.66667 12.2761 1.66667 12V11.3333C1.66667 11.0572 1.89053 10.8333 2.16667 10.8333H4.16667V10C4.16667 9.46416 4.23917 8.94583 4.37417 8.45333L2.96295 7.63835C2.72383 7.50027 2.64192 7.19449 2.77999 6.95536L3.11336 6.37796C3.25142 6.13883 3.55719 6.05689 3.79633 6.19493L5.04667 6.91666ZM6.66667 5C6.66667 4.11594 7.01786 3.2681 7.64298 2.64297C8.2681 2.01785 9.11595 1.66666 10 1.66666C10.8841 1.66666 11.7319 2.01785 12.357 2.64297C12.9822 3.2681 13.3333 4.11594 13.3333 5H6.66667Z" fill="#B1B5C3"/>
</svg>
