<svg fill="none" height="16" viewBox="0 0 17 16" width="17" xmlns="http://www.w3.org/2000/svg"><path clip-rule="evenodd" d="m7.00153.00038147c-.18567.00009915-.36763.05188313-.52553.14955253-.1579.097669-.28548.237367-.36847.403447l-.724 1.446999h-3.382c-.26522 0-.51957.10536-.70711.29289-.18754.18754-.29289.44189-.29289.70711s.10535.51957.29289.70711c.18754.18753.44189.29289.70711.29289v10.00002c0 .5304.21071 1.0391.58578 1.4142s.88378.5858 1.41422.5858h7.99997c.5305 0 1.0392-.2107 1.4142-.5858.3751-.3751.5858-.8838.5858-1.4142v-10.00002c.2652 0 .5196-.10536.7071-.29289.1876-.18754.2929-.44189.2929-.70711s-.1053-.51957-.2929-.70711c-.1875-.18753-.4419-.29289-.7071-.29289h-3.382l-.72397-1.446999c-.08299-.16608-.21058-.305778-.36848-.403447-.15789-.0976694-.33986-.14945338-.52552-.14955253zm-2 5.99999853c0-.26522.10535-.51957.29289-.70711.18754-.18753.44189-.29289.70711-.29289.26521 0 .51957.10536.7071.29289.18754.18754.2929.44189.2929.70711v6.00002c0 .2652-.10536.5196-.2929.7071-.18753.1875-.44189.2929-.7071.2929-.26522 0-.51957-.1054-.70711-.2929s-.29289-.4419-.29289-.7071zm4.99997-1c-.26519 0-.51954.10536-.70708.29289-.18754.18754-.29289.44189-.29289.70711v6.00002c0 .2652.10535.5196.29289.7071s.44189.2929.70708.2929c.2652 0 .5196-.1054.7071-.2929.1876-.1875.2929-.4419.2929-.7071v-6.00002c0-.26522-.1053-.51957-.2929-.70711-.1875-.18753-.4419-.29289-.7071-.29289z" fill="currentColor" fill-rule="evenodd"/></svg>