<svg fill="none" height="16" viewBox="0 0 16 16" width="16" xmlns="http://www.w3.org/2000/svg" xmlns:xlink="http://www.w3.org/1999/xlink"><clipPath id="a"><path d="m0 0h16v16h-16z"/></clipPath><g clip-path="url(#a)"><path clip-rule="evenodd" d="m2.083 7h1.946c.089-1.546.383-2.97.837-4.118-.73099.44792-1.35758 1.04719-1.83762 1.7575-.48004.71032-.8024 1.5152-.94538 2.3605zm5.917-7c-2.12173 0-4.15656.842855-5.65685 2.34315-1.500295 1.50029-2.34315 3.53512-2.34315 5.65685 0 2.1217.842855 4.1566 2.34315 5.6569 1.50029 1.5002 3.53512 2.3431 5.65685 2.3431 2.1217 0 4.1566-.8429 5.6569-2.3431 1.5002-1.5003 2.3431-3.5352 2.3431-5.6569 0-2.12173-.8429-4.15656-2.3431-5.65685-1.5003-1.500295-3.5352-2.34315-5.6569-2.34315zm0 2c-.076 0-.232.032-.465.262-.238.234-.497.623-.737 1.182-.389.907-.673 2.142-.766 3.556h3.936c-.093-1.414-.377-2.649-.766-3.556-.24-.56-.5-.948-.737-1.182-.233-.23-.389-.262-.465-.262zm3.971 5c-.089-1.546-.383-2.97-.837-4.118.731.44792 1.3576 1.04719 1.8376 1.7575.4801.71032.8024 1.5152.9454 2.3605zm-2.003 2h-3.936c.093 1.414.377 2.649.766 3.556.24.56.5.948.737 1.182.233.23.389.262.465.262s.232-.032.465-.262c.238-.234.498-.623.737-1.182.389-.907.673-2.142.766-3.556zm1.166 4.118c.454-1.147.748-2.572.837-4.118h1.946c-.143.8453-.4653 1.6502-.9454 2.3605-.48.7103-1.1066 1.3096-1.8376 1.7575zm-6.268 0c-.454-1.148-.748-2.572-.836-4.118h-1.947c.14298.8453.46534 1.6502.94538 2.3605s1.10663 1.3096 1.83762 1.7575z" fill="currentColor" fill-rule="evenodd"/></g></svg>