<svg fill="none" height="16" viewBox="0 0 17 16" width="17" xmlns="http://www.w3.org/2000/svg"><path clip-rule="evenodd" d="m2.29456 13.7072c-.18767-.1876-.2931-.4419-.2931-.707 0-.2652.10543-.5195.2931-.707l5.00521-5.00003c.18772-.18747.4423-.29279.70774-.29279s.52001.10532.70774.29279l5.00525 5.00003c.1823.1886.2832.4412.2809.7034s-.1075.513-.2931.6984-.4367.2906-.6992.2928c-.2625.0023-.5153-.0985-.7041-.2806l-4.29749-4.29303-4.29748 4.29303c-.18772.1874-.4423.2928-.70774.2928s-.52001-.1054-.70773-.2928zm0-6.00003c-.18767-.18753-.2931-.44184-.2931-.707 0-.26517.10543-.51947.2931-.707l5.00521-5c.18772-.18747.4423-.29279.70774-.29279s.52001.10532.70774.29279l5.00525 5c.1823.1886.2832.4412.2809.7034s-.1075.51301-.2931.69842c-.1856.1854-.4367.29057-.6992.29285s-.5153-.09851-.7041-.28067l-4.29749-4.293-4.29748 4.293c-.18772.18747-.4423.29278-.70774.29278s-.52001-.10531-.70773-.29278z" fill="currentColor" fill-rule="evenodd"/></svg>