<svg fill="none" height="16" viewBox="0 0 17 16" width="17" xmlns="http://www.w3.org/2000/svg"><path clip-rule="evenodd" d="m1.00146 15.0004c0-.2652.10536-.5196.2929-.7071.18753-.1876.44189-.2929.7071-.2929h12.00004c.2652 0 .5195.1053.7071.2929.1875.1875.2929.4419.2929.7071s-.1054.5196-.2929.7071c-.1876.1875-.4419.2929-.7071.2929h-12.00004c-.26521 0-.51957-.1054-.7071-.2929-.18754-.1875-.2929-.4419-.2929-.7071zm3.29301-7.70702c.18752-.18747.44183-.29278.70699-.29278.26517 0 .51948.10531.707.29278l1.293 1.293v-7.586c0-.265215.10536-.519569.2929-.707105.18753-.187537.44189-.29289353.7071-.29289353.26522 0 .51958.10535653.70711.29289353.18754.187536.29289.44189.29289.707105v7.586l1.29304-1.293c.0922-.09551.2026-.17169.3246-.2241s.2532-.08.386-.08115c.1327-.00115.2644.02415.3873.07443s.2346.12453.3285.21843c.0939.09389.1681.20554.2184.32844.0503.12289.0756.25457.0744.38735-.0011.13278-.0287.264-.0811.38601-.0524.122-.1286.23234-.2241.32459l-3.00004 3.00002c-.18752.1875-.44183.2928-.707.2928-.26516 0-.51947-.1053-.70699-.2928l-3-3.00002c-.18748-.18753-.29279-.44183-.29279-.707 0-.26516.10531-.51947.29279-.707z" fill="currentColor" fill-rule="evenodd"/></svg>