<svg fill="none" height="16" viewBox="0 0 17 16" width="17" xmlns="http://www.w3.org/2000/svg"><path d="m11.3348 11.667c.442 0 .8659.1756 1.1785.4882s.4882.7365.4882 1.1785-.1756.866-.4882 1.1785c-.3126.3126-.7365.4882-1.1785.4882s-.866-.1756-1.1785-.4882c-.31257-.3125-.48817-.7365-.48817-1.1785s.1756-.8659.48817-1.1785c.3125-.3126.7365-.4882 1.1785-.4882zm-6.66667 0c.44203 0 .86595.1756 1.17851.4882s.48816.7365.48816 1.1785-.1756.866-.48816 1.1785c-.31256.3126-.73648.4882-1.17851.4882s-.86595-.1756-1.17851-.4882c-.31256-.3125-.48816-.7365-.48816-1.1785s.1756-.8659.48816-1.1785.73648-.4882 1.17851-.4882zm6.66667-5.83329c.442 0 .8659.1756 1.1785.48816s.4882.73648.4882 1.17851-.1756.86595-.4882 1.17851-.7365.48816-1.1785.48816-.866-.1756-1.1785-.48816c-.31257-.31256-.48817-.73648-.48817-1.17851s.1756-.86595.48817-1.17851c.3125-.31256.7365-.48816 1.1785-.48816zm-6.66667 0c.44203 0 .86595.1756 1.17851.48816s.48816.73648.48816 1.17851-.1756.86595-.48816 1.17851-.73648.48816-1.17851.48816-.86595-.1756-1.17851-.48816-.48816-.73648-.48816-1.17851.1756-.86595.48816-1.17851.73648-.48816 1.17851-.48816zm6.66667-5.83332853c.442 0 .8659.17559453 1.1785.48815553.3126.31256.4882.736483.4882 1.178513s-.1756.86595-.4882 1.17851-.7365.48815-1.1785.48815-.866-.17559-1.1785-.48815c-.31257-.31256-.48817-.73648-.48817-1.17851s.1756-.865953.48817-1.178513c.3125-.312561.7365-.48815553 1.1785-.48815553zm-6.66667 0c.44203 0 .86595.17559453 1.17851.48815553.31256.31256.48816.736483.48816 1.178513s-.1756.86595-.48816 1.17851-.73648.48815-1.17851.48815-.86595-.17559-1.17851-.48815-.48816-.73648-.48816-1.17851.1756-.865953.48816-1.178513c.31256-.312561.73648-.48815553 1.17851-.48815553z" fill="currentColor"/></svg>