<svg width="20" height="20" viewBox="0 0 20 20" fill="none" xmlns="http://www.w3.org/2000/svg">
<path fill-rule="evenodd" clip-rule="evenodd" d="M5.29912 12.2991C5.11165 12.4867 5.00634 12.741 5.00634 13.0061C5.00634 13.2713 5.11165 13.5256 5.29912 13.7131L9.29912 17.7131C9.48665 17.9006 9.74096 18.0059 10.0061 18.0059C10.2713 18.0059 10.5256 17.9006 10.7131 17.7131L14.7131 13.7131C14.8953 13.5245 14.9961 13.2719 14.9938 13.0097C14.9915 12.7475 14.8864 12.4967 14.7009 12.3113C14.5155 12.1259 14.2647 12.0207 14.0025 12.0185C13.7403 12.0162 13.4877 12.117 13.2991 12.2991L11.0061 14.5921L11.0061 3.00614C11.0061 2.74092 10.9008 2.48657 10.7132 2.29903C10.5257 2.1115 10.2713 2.00614 10.0061 2.00614C9.74091 2.00614 9.48655 2.1115 9.29902 2.29903C9.11148 2.48657 9.00612 2.74092 9.00612 3.00614L9.00612 14.5921L6.71312 12.2991C6.5256 12.1117 6.27129 12.0064 6.00612 12.0064C5.74096 12.0064 5.48665 12.1117 5.29912 12.2991Z" fill="#777E90"/>
</svg>
