<svg width="20" height="20" viewBox="0 0 20 20" fill="none" xmlns="http://www.w3.org/2000/svg">
<path fill-rule="evenodd" clip-rule="evenodd" d="M5.29912 7.71292C5.11165 7.52539 5.00634 7.27108 5.00634 7.00592C5.00634 6.74076 5.11165 6.48645 5.29912 6.29892L9.29912 2.29892C9.48665 2.11145 9.74096 2.00613 10.0061 2.00613C10.2713 2.00613 10.5256 2.11145 10.7131 2.29892L14.7131 6.29892C14.8953 6.48752 14.9961 6.74012 14.9938 7.00232C14.9915 7.26452 14.8864 7.51533 14.7009 7.70074C14.5155 7.88615 14.2647 7.99132 14.0025 7.99359C13.7403 7.99587 13.4877 7.89508 13.2991 7.71292L11.0061 5.41992L11.0061 17.0059C11.0061 17.2711 10.9008 17.5255 10.7132 17.713C10.5257 17.9006 10.2713 18.0059 10.0061 18.0059C9.74091 18.0059 9.48655 17.9006 9.29902 17.713C9.11148 17.5255 9.00612 17.2711 9.00612 17.0059L9.00612 5.41992L6.71312 7.71292C6.5256 7.90039 6.27129 8.00571 6.00612 8.00571C5.74096 8.00571 5.48665 7.90039 5.29912 7.71292Z" fill="#777E90"/>
</svg>
