<svg fill="none" height="16" viewBox="0 0 17 16" width="17" xmlns="http://www.w3.org/2000/svg" xmlns:xlink="http://www.w3.org/1999/xlink"><clipPath id="a"><path d="m.001465.000381h16v16h-16z"/></clipPath><g clip-path="url(#a)" fill="currentColor"><path d="m11.0372 6.00038c-.2432.00003-.4773-.08954-.6557-.25078l-2.70476-2.45016c-.05965-.05485-.13851-.0854-.22047-.0854s-.16083.03055-.22047.0854l-2.60196 2.43887c-.0916.08546-.19954.15249-.31769.19727-.11814.04476-.24416.06639-.37088.06366-.25591-.00553-.4991-.10998-.67604-.2904-.17696-.18041-.2732-.422-.26753-.67162s.11277-.48681.29774-.65941l3.24987-3.03825c.24799-.22058.5722-.341697.9078-.33914.3356.00256.65784.1286.90226.35293l3.33343 3.01693c.1421.12853.2413.29584.2844.48013.0432.1843.0285.377-.0423.55299-.0708.17598-.1943.32707-.3545.43356-.1601.10649-.3494.16345-.5432.16342zm-4.01609-3.2928.03086.02634zm.87803-.02507-.02056.0188z"/><path d="m8.55245 15.0003c.16965.0003.33768-.0319.49442-.095.15674-.063.29908-.1555.41885-.2722l3.23758-3.0164c.1851-.1719.2923-.4082.2979-.6568.0057-.2487-.0906-.4893-.2677-.669-.177-.1798-.4203-.2838-.6764-.2893-.256-.00551-.5039.088-.689.2599l-2.60341 2.4281c-.05967.0546-.13858.0851-.2206.0851-.082 0-.16091-.0305-.2206-.0851l-2.70121-2.4393c-.18762-.169-.43669-.25862-.69239-.2493-.2557.0094-.49709.117-.67107.2992-.174.1822-.26632.4241-.25667.6724.00965.2482.12049.4827.30812.6516l3.35593 3.0326c.2375.2231.55584.3465.88625.3435zm.41676-1.7236.03602.0312zm-.83609 0-.01672.0174z"/></g></svg>