<svg width="17" height="14" viewBox="0 0 17 14" fill="none" xmlns="http://www.w3.org/2000/svg"><path fill-rule="evenodd" clip-rule="evenodd" d="M15.0015 14.0004C14.7362 14.0004 14.4819 13.895 14.2944 13.7075C14.1068 13.52 14.0015 13.2656 14.0015 13.0004V1.00038C14.0015 0.735165 14.1068 0.48081 14.2944 0.293274C14.4819 0.105738 14.7362 0.00038147 15.0015 0.00038147C15.2667 0.00038147 15.521 0.105738 15.7086 0.293274C15.8961 0.48081 16.0015 0.735165 16.0015 1.00038V13.0004C16.0015 13.2656 15.8961 13.52 15.7086 13.7075C15.521 13.895 15.2667 14.0004 15.0015 14.0004ZM7.29447 10.7074C7.10699 10.5199 7.00168 10.2655 7.00168 10.0004C7.00168 9.73522 7.10699 9.48091 7.29447 9.29338L8.58747 8.00038H1.00146C0.736248 8.00038 0.481894 7.89502 0.294358 7.70749C0.106822 7.51995 0.00146484 7.2656 0.00146484 7.00038C0.00146484 6.73517 0.106822 6.48081 0.294358 6.29327C0.481894 6.10574 0.736248 6.00038 1.00146 6.00038H8.58747L7.29447 4.70738C7.19896 4.61513 7.12277 4.50479 7.07036 4.38279C7.01795 4.26078 6.99037 4.12956 6.98921 3.99678C6.98806 3.864 7.01336 3.73232 7.06364 3.60943C7.11392 3.48653 7.18818 3.37488 7.28207 3.28099C7.37596 3.18709 7.48761 3.11284 7.61051 3.06256C7.73341 3.01228 7.86509 2.98698 7.99787 2.98813C8.13064 2.98928 8.26187 3.01687 8.38387 3.06928C8.50587 3.12169 8.61622 3.19787 8.70846 3.29338L11.7085 6.29338C11.8959 6.48091 12.0013 6.73522 12.0013 7.00038C12.0013 7.26555 11.8959 7.51985 11.7085 7.70738L8.70846 10.7074C8.52094 10.8949 8.26663 11.0002 8.00146 11.0002C7.7363 11.0002 7.48199 10.8949 7.29447 10.7074Z" fill="#818996"/></svg>