<svg width="17" height="16" viewBox="0 0 17 16" fill="none" xmlns="http://www.w3.org/2000/svg"><path fill-rule="evenodd" clip-rule="evenodd" d="M1.84978 1.00041C2.07414 0.998558 2.29029 1.08058 2.45167 1.22881H2.45253L3.97566 2.6781C5.17234 2.10185 6.49518 1.8024 7.83653 1.80413C11.6683 1.80413 14.9114 4.199 16.0015 7.50038C15.4892 9.04645 14.5037 10.4121 13.1709 11.4227L14.4313 12.6213C14.5872 12.7748 14.6735 12.9803 14.6715 13.1937C14.6696 13.4071 14.5796 13.6112 14.4209 13.762C14.2623 13.9129 14.0476 13.9985 13.8233 14.0004C13.5989 14.0022 13.3828 13.9202 13.2214 13.772L1.24173 2.37945C1.08586 2.22598 0.999609 2.02042 1.00156 1.80706C1.00351 1.5937 1.0935 1.3896 1.25215 1.23872C1.4108 1.08785 1.62542 1.00227 1.84978 1.00041ZM6.09831 4.6959L6.09777 4.69539V4.6962C6.09795 4.6961 6.09813 4.696 6.09831 4.6959ZM6.09831 4.6959L7.39328 5.92822C7.68344 5.85494 7.98875 5.85542 8.27864 5.92962C8.56854 6.00382 8.83286 6.14914 9.04514 6.35101C9.25742 6.55289 9.41022 6.80425 9.48825 7.07994C9.56627 7.35563 9.56678 7.64597 9.48973 7.9219L10.7852 9.15392C11.1711 8.53223 11.3288 7.80618 11.2333 7.08999C11.1379 6.37379 10.7948 5.70809 10.258 5.19761C9.72119 4.68714 9.02119 4.36085 8.26808 4.27008C7.51517 4.17933 6.75192 4.32913 6.09831 4.6959ZM7.74744 10.6914L10.0015 12.7678C9.34714 12.9198 8.66191 13.0004 7.95584 13.0004C4.22377 13.0004 1.06355 10.7413 0.00152588 7.62713C0.33026 6.66526 0.861989 5.7726 1.56621 5.00038L4.62807 7.8198C4.67906 8.56614 5.02411 9.26969 5.59844 9.79841C6.17277 10.3271 6.93691 10.6447 7.74744 10.6914Z" fill="#818996"/></svg>