<svg width="17" height="16" viewBox="0 0 17 16" fill="none" xmlns="http://www.w3.org/2000/svg"><path fill-rule="evenodd" clip-rule="evenodd" d="M8.00153 2.00038C4.24718 2.00038 1.06965 4.52295 0.00152588 8.00038C1.06965 11.4778 4.24718 14.0004 8.00153 14.0004C11.7559 14.0004 14.9334 11.4778 16.0015 8.00038C14.9334 4.52295 11.7559 2.00038 8.00153 2.00038ZM10.3729 10.4247C11.0018 9.78177 11.3551 8.9097 11.3551 8.00038C11.3551 7.09107 11.0018 6.219 10.3729 5.57602C9.74395 4.93303 8.89095 4.57181 8.00153 4.57181C7.1121 4.57181 6.2591 4.93303 5.63018 5.57602C5.00126 6.219 4.64793 7.09107 4.64793 8.00038C4.64793 8.9097 5.00126 9.78177 5.63018 10.4247C6.2591 11.0677 7.1121 11.429 8.00153 11.429C8.89095 11.429 9.74395 11.0677 10.3729 10.4247ZM8.56219 8.56104C8.28088 8.84235 7.89935 9.00038 7.50153 9.00038C7.1037 9.00038 6.72217 8.84235 6.44087 8.56104C6.15956 8.27974 6.00153 7.89821 6.00153 7.50038C6.00153 7.10256 6.15956 6.72103 6.44087 6.43972C6.72217 6.15842 7.1037 6.00038 7.50153 6.00038C7.89935 6.00038 8.28088 6.15842 8.56219 6.43972C8.84349 6.72103 9.00153 7.10256 9.00153 7.50038C9.00153 7.89821 8.84349 8.27974 8.56219 8.56104Z" fill="#818996"/></svg>