<svg fill="none" height="16" viewBox="0 0 16 16" width="16" xmlns="http://www.w3.org/2000/svg"><path d="m1.65864 3.18496c-.16064-.11052-.34736-.174-.54024-.18366-.192881-.00967-.384689.03485-.554958.1288s-.312612.2338-.411844.40464c-.0992308.17084-.15162689.36625-.15159799.56539v8.79977c-.0000289.1991.05236719.3945.15159799.5654.099232.1708.241575.3107.411844.4046s.362077.1385.554958.1288c.19288-.0097.3796-.0731.54024-.1837l5.80791-3.99284v3.07774c-.00002.1991.05237.3945.1516.5654.09923.1708.24158.3107.41185.4046s.36207.1385.55495.1288c.19289-.0097.37961-.0731.54025-.1837l6.3999-4.39983c.1461-.10045.2659-.23654.3487-.39619.0829-.15964.1262-.33791.1262-.51898s-.0433-.35934-.1262-.51898c-.0828-.15965-.2026-.29574-.3487-.39619l-6.3999-4.39987c-.16064-.11052-.34736-.174-.54025-.18366-.19288-.00967-.38468.03485-.55495.1288s-.31262.2338-.41185.40464-.15162.36625-.1516.56539v3.07771z" fill="currentColor"/></svg>