<svg fill="none" height="16" viewBox="0 0 17 16" width="17" xmlns="http://www.w3.org/2000/svg"><path clip-rule="evenodd" d="m6.42844 1.17499c.48747-1.564668 2.6592-1.567802 3.14642.00055.00003.00008-.00002-.00009 0 0l1.13354 3.64667h3.6419c.8233 0 1.3841.56617 1.5734 1.17585.1884.60701.0504 1.37651-.5871 1.86174l-.0007.00058-2.98 2.26302 1.1424 3.6775c0 .0002-.0001-.0001 0 0 .2337.7517-.0665 1.4669-.5875 1.8626-.5269.4003-1.3187.4958-1.9713-.0009l-2.93793-2.2311-2.93793 2.2311c-.65299.497-1.44493.4007-1.97151.0005-.52046-.3956-.82123-1.1101-.5874-1.8617l1.14249-3.678-2.979947-2.26302c-.6385691-.48541-.776521-1.25574-.5876712-1.86281.1895032-.60917.7502472-1.17536 1.5732382-1.17536h3.6419zm1.57313.92889-1.03246 3.32153c-.10345.33172-.30704.62854-.58847.84203-.28203.21394-.62673.33257-.98483.33253-.00008 0 .00008 0 0 0h-3.44865l2.82399 2.14461c.28137.21386.48478.51047.58789.84248.10301.33172.10295.68794-.00017 1.01964l-1.05675 3.4019 2.7136-2.0608c.00009-.0001-.00009.0001 0 0 .28213-.2143.62739-.3335.98585-.3335.35857 0 .70366.119.98584.3335l2.71359 2.0608-1.0567-3.4019c-.0001-.0001 0 0 0 0-.1031-.3317-.1032-.688-.0002-1.01964.1031-.33201.3062-.6284.5876-.84226l2.8243-2.14483h-3.4494c-.3579-.00028-.70302-.11908-.98477-.33303-.28109-.21346-.48419-.50929-.58756-.84074zm.09009 11.25922c.00009-.0001-.00009.0001 0 0zm4.25044-3.2842c0-.0001 0 .0001 0 0z" fill="currentColor" fill-rule="evenodd"/></svg>