<svg fill="none" height="16" viewBox="0 0 17 16" width="17" xmlns="http://www.w3.org/2000/svg"><path d="m6.97747.776479c.32283-1.034797 1.725-1.034797 2.04676 0l1.15147 3.698751c.0703.22526.2071.42154.3907.56077.1836.13924.4046.21431.6316.21449h3.7255c1.0427 0 1.4753 1.39321.6327 2.03363l-3.0131 2.28532c-.184.13936-.321.33596-.3913.56166-.0704.2256-.0705.4687-.0004.6945l1.1514 3.6987c.3229 1.0348-.8124 1.8966-1.6572 1.2562l-3.01307-2.2853c-.1838-.1394-.40509-.2144-.63222-.2144-.22712 0-.44842.075-.63221.2144l-3.0131 2.2853c-.84367.6404-1.97789-.2214-1.65614-1.2562l1.15144-3.6987c.07014-.2258.07001-.4689-.00036-.6945-.07037-.2257-.20736-.4223-.39134-.56166l-3.01203-2.28419c-.842593-.64043-.4089214-2.03364.63275-2.03364h3.72441c.22711.00006.44842-.0749.63224-.21415.18382-.13926.32074-.33566.39114-.56111l1.15144-3.698748z" fill="currentColor"/></svg>