<svg fill="none" height="16" viewBox="0 0 16 16" width="16" xmlns="http://www.w3.org/2000/svg" xmlns:xlink="http://www.w3.org/1999/xlink"><clipPath id="a"><path d="m0 0h16v16h-16z"/></clipPath><g clip-path="url(#a)"><path clip-rule="evenodd" d="m16 .999466c-.0001-.170391-.0437-.337933-.1267-.486728-.0831-.148795-.2027-.273908-.3477-.363466-.145-.0895588-.3104-.14059259-.4806-.14825912s-.3396.02828842-.492.10445312l-7.79 3.894004h-3.763c-.79565 0-1.55871.31607-2.12132.87868-.562609.56261-.87868 1.32567-.87868 2.12132s.316071 1.55871.87868 2.12132c.56261.56261 1.32567.87868 2.12132.87868h.28l1.771 5.31603c.06635.1992.19372.3724.36405.4952s.37498.1888.58495.1888h1c.26522 0 .51957-.1054.70711-.2929.18753-.1876.29289-.4419.29289-.7071v-4.382l6.553 3.276c.1524.0761.3218.1121.492.1044.1702-.0076.3356-.0587.4806-.1482.145-.0896.2646-.2147.3477-.3635.083-.1488.1266-.3163.1267-.4867z" fill="currentColor" fill-rule="evenodd"/></g></svg>