<svg fill="none" height="16" viewBox="0 0 16 16" width="16" xmlns="http://www.w3.org/2000/svg"><path clip-rule="evenodd" d="m1 1.00038c0-.265215.10536-.519569.29289-.707105.18754-.187537.44189-.29289353.70711-.29289353h12c.2652 0 .5196.10535653.7071.29289353.1875.187536.2929.44189.2929.707105v3c-.0001.2652-.1054.51951-.293.707l-4.707 4.707v3.58602c-.00006.2652-.10545.5195-.293.707l-2 2c-.13985.1398-.31802.235-.51197.2736-.19395.0385-.39498.0187-.57768-.0569-.1827-.0757-.33887-.2039-.44875-.3683-.10989-.1644-.16856-.3577-.1686-.5554v-5.58602l-4.707-4.707c-.18755-.18749-.29294-.4418-.293-.707z" fill="currentColor" fill-rule="evenodd"/></svg>