<svg fill="none" height="16" viewBox="0 0 16 16" width="16" xmlns="http://www.w3.org/2000/svg"><path clip-rule="evenodd" d="m3.04878 2.08733v1.65623l4.1996 4.88896c.29894.34798.44802.79353.4481 1.23353v2.31365l.60704-.7067v-1.60675c.00008-.44001.14905-.88564.448-1.23361l4.19968-4.88907v-1.65624zm-1.60085-1.504216c.3028-.352508.74514-.58273253 1.24042-.58273253h10.62335c.4952 0 .9376.23022353 1.2404.58273253.299.34806.4479.793606.4479 1.233686v1.99884c-.0001.44-.149.88563-.448 1.2336l-4.1997 4.88908v1.92678c0 .2527-.0901.4969-.2535.6871l-2.65578 3.0918c-.28103.3272-.73174.4426-1.13124.2897s-.66408-.5421-.66408-.9768v-5.01858l-4.1996-4.88896c-.29895-.34798-.44802-.79353-.4481-1.23353v-1.99903c0-.44008.14895-.885627.44793-1.233686z" fill="currentColor" fill-rule="evenodd"/></svg>