<svg fill="none" height="16" viewBox="0 0 16 16" width="16" xmlns="http://www.w3.org/2000/svg"><path d="m12.0771.696579c.2105-.217927.4622-.391752.7406-.511335.2784-.1195816.5778-.18252518.8808-.18515785.3029-.00263267.6034.05509855.8838.16982485.2804.114726.5352.28415.7494.498386s.3837.468993.4984.749403c.1147.28042.1724.58087.1698.88384-.0026.30296-.0656.60237-.1851.88074-.1196.27838-.2935.53015-.5114.74063l-.9047.9047-3.2263-3.22633zm-2.51788 2.517861-9.55922 9.55926v3.2263h3.22634l9.56036-9.55922-3.22862-3.22634z" fill="currentColor"/></svg>