<svg fill="none" height="16" viewBox="0 0 16 16" width="16" xmlns="http://www.w3.org/2000/svg"><path clip-rule="evenodd" d="m8 16c4.4183 0 8-3.5817 8-8 0-4.41828-3.5817-8-8-8-4.41828 0-8 3.58172-8 8 0 4.4183 3.58172 8 8 8zm-5.66821-9.97259c.37363-1.0738 1.04379-2.00877 1.91242-2.70685.26788.4091.73028.67935 1.2558.67935.82843 0 1.5.67157 1.5 1.5v.5c0 1.10457.89544 2 2.00001 2 1.10458 0 1.99998-.89543 1.99998-2 0-.94012.6487-1.72873 1.5228-1.94272.92 1.05442 1.4772 2.4335 1.4772 3.94273 0 .34077-.0284.67491-.083 1.00017h-.917c-1.1046 0-2 .89543-2 2.00001v2.1972c-.8825.5105-1.90724.8026-3.00008.8026v-1.9999c0-1.1046-.89544-2-2-2-1.10457 0-2-.89543-2-2 0-.99151-.72151-1.8145-1.66813-1.97259z" fill="currentColor" fill-rule="evenodd"/></svg>