<svg fill="none" height="16" viewBox="0 0 17 16" width="17" xmlns="http://www.w3.org/2000/svg"><path clip-rule="evenodd" d="m10.2143 5.78571v-2.86089c.4677-.2723.7857-.77319.7857-1.35339 0-.86797-.7035-1.57143-1.57143-1.57143-.5802 0-1.08134.317969-1.35339.785714h-5.15036c-.27205-.467745-.77319-.785714-1.35339-.785714-.86797 0-1.57143.70346-1.57143 1.57143 0 .5802.317969 1.08134.785714 1.35339v5.15011c-.467745.2723-.785714.77344-.785714 1.35364 0 .86793.70346 1.57143 1.57143 1.57143.5802 0 1.08134-.318 1.35339-.7857h2.86089v2.8606c-.46774.2723-.78571.7735-.78571 1.3537 0 .8679.70346 1.5714 1.57143 1.5714.5802 0 1.08134-.318 1.35339-.7857h5.15008c.2723.4677.7732.7857 1.3534.7857.868 0 1.5715-.7035 1.5715-1.5714.0002-.5802-.3178-1.0814-.7855-1.3534v-5.15038c.4677-.2723.7857-.77319.7857-1.35339 0-.86797-.7035-1.57143-1.5714-1.57143-.5802 0-1.0814.31797-1.3534.78571zm0 1.57143v.71804c.4677.27205.7857.77319.7855 1.35339 0 .86793-.7035 1.57143-1.57147 1.57143-.58021 0-1.0811-.318-1.3534-.7857h-.71779v2.8609c.2353.1366.43095.3322.56768.5674h5.15008c.1368-.2353.3324-.4309.5677-.5677v-5.15008c-.2353-.13672-.4309-.33237-.5677-.56768zm-1.57169 0v.71779c-.23531.13673-.43095.33237-.56768.56768h-.71779v-.71779c.23531-.13672.43096-.33237.56768-.56768zm0-1.57143h-.71779c-.27205-.46774-.77319-.78571-1.35339-.78571-.86797 0-1.57143.70346-1.57143 1.57143 0 .5802.31797 1.08134.78571 1.35339v.71779h-2.86089c-.13673-.23523-.33238-.4308-.56768-.56743v-5.15036c.23531-.13672.43096-.33237.56768-.56768h5.15011c.13673.23531.33237.43096.56768.56768zm.78596-3.82142c.21656 0 .39286-.1763.39286-.39286s-.1763-.39286-.39286-.39286-.39286.1763-.39286.39286.1763.39286.39286.39286zm-7.46428-.39286c0-.21656-.1763-.39286-.39286-.39286s-.39286.1763-.39286.39286.1763.39286.39286.39286.39286-.1763.39286-.39286zm-.39286 7.46428c-.21656 0-.39286.1763-.39286.39286s.1763.39286.39286.39286.39286-.1763.39286-.39286-.1763-.39286-.39286-.39286zm7.46428.39286c0 .21656.1763.39286.39286.39286s.39286-.1763.39286-.39286-.1763-.39286-.39286-.39286-.39286.1763-.39286.39286zm5.39289-2.46428c.2165 0 .3928-.1763.3928-.39286s-.1763-.39286-.3928-.39286c-.2166 0-.3929.1763-.3929.39286s.1763.39286.3929.39286zm-7.46431-.39286c0-.21656-.1763-.39286-.39286-.39286s-.39286.1763-.39286.39286.1763.39286.39286.39286.39286-.1763.39286-.39286zm-.39286 7.46427c-.21656 0-.39286.1763-.39286.3929 0 .2165.1763.3928.39286.3928s.39286-.1763.39286-.3928c0-.2166-.1763-.3929-.39286-.3929zm7.46427.3929c0 .2165.1763.3928.3929.3928.2165 0 .3928-.1763.3928-.3928 0-.2166-.1763-.3929-.3928-.3929-.2166 0-.3929.1763-.3929.3929z" fill="currentColor" fill-rule="evenodd"/></svg>