<svg fill="none" height="16" viewBox="0 0 16 16" width="16" xmlns="http://www.w3.org/2000/svg" xmlns:xlink="http://www.w3.org/1999/xlink"><clipPath id="a"><path d="m0 0h16v16h-16z"/></clipPath><g clip-path="url(#a)"><path clip-rule="evenodd" d="m16 8c0 2.1217-.8429 4.1566-2.3431 5.6569-1.5003 1.5002-3.5352 2.3431-5.6569 2.3431-2.12173 0-4.15656-.8429-5.65685-2.3431-1.500295-1.5003-2.34315-3.5352-2.34315-5.6569 0-2.12173.842855-4.15656 2.34315-5.65685 1.50029-1.500295 3.53512-2.34315 5.65685-2.34315 2.1217 0 4.1566.842855 5.6569 2.34315 1.5002 1.50029 2.3431 3.53512 2.3431 5.65685zm-8-3c-.1757-.00017-.34835.04595-.50055.13373-.15221.08778-.2786.21411-.36645.36627-.06343.11788-.14989.22182-.25424.30566s-.22447.14588-.35324.18244-.26358.04689-.39641.03039c-.13284-.01651-.26102-.05952-.37693-.12648-.1159-.06696-.21719-.15651-.29785-.26334s-.13904-.22877-.1717-.35859c-.03266-.12981-.03892-.26486-.01842-.39714.02051-.13229.06736-.2591.13779-.37294.33022-.57189.83991-1.01884 1.45003-1.27154.61011-.2527 1.28656-.29702 1.92444-.1261.63787.17092 1.20153.54753 1.60353 1.07144.402.5239.62 1.16582.62 1.8262.0002.62062-.1921 1.22603-.5502 1.73285-.3582.50683-.86473.89014-1.4498 1.09715v.17c0 .26522-.10536.51957-.29289.70711-.18754.18753-.44189.29289-.70711.29289s-.51957-.10536-.70711-.29289c-.18753-.18754-.29289-.44189-.29289-.70711v-1c0-.26522.10536-.51957.29289-.70711.18754-.18753.44189-.29289.70711-.29289s.51957-.10536.70711-.29289c.18753-.18754.29289-.44189.29289-.70711s-.10536-.51957-.29289-.70711c-.18754-.18753-.44189-.29289-.70711-.29289zm0 8c.26522 0 .51957-.1054.70711-.2929.18753-.1875.29289-.4419.29289-.7071s-.10536-.5196-.29289-.7071c-.18754-.1875-.44189-.2929-.70711-.2929s-.51957.1054-.70711.2929c-.18753.1875-.29289.4419-.29289.7071s.10536.5196.29289.7071c.18754.1875.44189.2929.70711.2929z" fill="currentColor" fill-rule="evenodd"/></g></svg>