<svg fill="none" height="16" viewBox="0 0 17 16" width="17" xmlns="http://www.w3.org/2000/svg"><path clip-rule="evenodd" d="m1.84978 1.00041c.22436-.001852.44051.08017.60189.2284h.00086l1.52313 1.44929c1.19668-.57625 2.51952-.8757 3.86087-.87397 3.83177 0 7.07487 2.39487 8.16497 5.69625-.5123 1.54607-1.4978 2.91172-2.8306 3.92232l1.2604 1.1986c.1559.1535.2422.359.2402.5724-.0019.2134-.0919.4175-.2506.5683-.1586.1509-.3733.2365-.5976.2384-.2244.0018-.4405-.0802-.6019-.2284l-11.97967-11.39255c-.15587-.15347-.242121-.35903-.24017-.57239.00195-.21336.09194-.41746.25059-.56834.15865-.15087.37327-.23645.59763-.23831zm4.24853 3.69549-.00054-.00051v.00081zm0 0 1.29497 1.23232c.29016-.07328.59547-.0728.88536.0014.2899.0742.55422.21952.7665.42139.21228.20188.36508.45324.44311.72893.07802.27569.07853.56603.00148.84196l1.29547 1.23202c.3859-.62169.5436-1.34774.4481-2.06393-.0954-.7162-.4385-1.3819-.9753-1.89238-.53681-.51047-1.23681-.83676-1.98992-.92753-.75291-.09075-1.51616.05905-2.16977.42582zm1.64913 5.9955 2.25406 2.0764c-.65436.152-1.33959.2326-2.04566.2326-3.73207 0-6.89229-2.2591-7.95431412-5.37327.32873412-.96187.86046312-1.85453 1.56468412-2.62675l3.06186 2.81942c.05099.74634.39604 1.44989.97037 1.97861.57433.52869 1.33847.84629 2.149.89299z" fill="currentColor" fill-rule="evenodd"/></svg>