<svg fill="none" height="16" viewBox="0 0 16 16" width="16" xmlns="http://www.w3.org/2000/svg"><path d="m8.70711.292893c-.39053-.3905241-1.02369-.3905241-1.41422 0l-6.999997 6.999997c-.3905241.39053-.3905241 1.02369 0 1.41422.390524.39052 1.023687.39052 1.414217 0l.29289-.2929v6.58579c0 .5523.44772 1 1 1h2c.55228 0 1-.4477 1-1v-2c0-.5523.44772-1 1-1h2c.55229 0 1 .4477 1 1v2c0 .5523.4477 1 1 1h2c.5523 0 1-.4477 1-1v-6.58579l.2929.2929c.3905.39052 1.0237.39052 1.4142 0 .3905-.39053.3905-1.02369 0-1.41422z" fill="currentColor"/></svg>