<svg fill="none" height="16" viewBox="0 0 16 16" width="16" xmlns="http://www.w3.org/2000/svg"><g fill="currentColor"><path clip-rule="evenodd" d="m1 3c0-1.10457.89543-2 2-2h1c.55228 0 1 .44772 1 1s-.44772 1-1 1h-1v10h10v-10h-1c-.5523 0-1-.44772-1-1s.4477-1 1-1h1c1.1046 0 2 .89543 2 2v10c0 1.1046-.8954 2-2 2h-10c-1.10457 0-2-.8954-2-2z" fill-rule="evenodd"/><path d="m2 10h3l1 2h4l1-2h3v4h-12z"/><path d="m5.29289 5.29289c.39053-.39052 1.02369-.39052 1.41422 0l.29289.2929v-4.58579c0-.552284.44771-1 1-1 .55228 0 1 .447715 1 1v4.58579l.29289-.2929c.39053-.39052 1.02371-.39052 1.41421 0 .3905.39053.3905 1.02369 0 1.41422l-1.99999 2c-.18754.18753-.44189.29289-.70711.29289s-.51957-.10536-.70711-.29289l-2-2c-.39052-.39053-.39052-1.02369 0-1.41422z"/></g></svg>