<svg fill="none" height="16" viewBox="0 0 16 16" width="16" xmlns="http://www.w3.org/2000/svg"><path clip-rule="evenodd" d="m1 1c-.552285 0-1 .44772-1 1s.447715 1 1 1v8c0 1.1046.89543 2 2 2h2.58579l-1.2929 1.2929c-.39052.3905-.39052 1.0237 0 1.4142.39053.3905 1.02369.3905 1.41422 0l2.29289-2.2929 2.2929 2.2929c.3905.3905 1.0237.3905 1.4142 0s.3905-1.0237 0-1.4142l-1.2929-1.2929h2.5858c1.1046 0 2-.8954 2-2v-8c.5523 0 1-.44772 1-1s-.4477-1-1-1zm11.7071 4.70711c.3905-.39053.3905-1.02369 0-1.41422-.3905-.39052-1.0237-.39052-1.4142 0l-3.2929 3.2929-1.29289-1.2929c-.39053-.39052-1.02369-.39052-1.41422 0l-2 2c-.39052.39053-.39052 1.02369 0 1.41422.39053.39049 1.02369.39049 1.41422 0l1.29289-1.2929 1.29289 1.2929c.39053.39049 1.02369.39049 1.41422 0z" fill="currentColor" fill-rule="evenodd"/></svg>