<svg fill="none" height="16" viewBox="0 0 16 16" width="16" xmlns="http://www.w3.org/2000/svg"><g fill="currentColor"><path d="m9 1c0-.552285-.44771-1-1-1s-1 .447715-1 1v1c0 .55228.44771 1 1 1s1-.44772 1-1z"/><path d="m13.6568 3.75731c.3905-.39053.3905-1.02369 0-1.41422-.3905-.39052-1.0237-.39052-1.4142 0l-.7071.70711c-.3905.39052-.3905 1.02369 0 1.41421.3905.39053 1.0237.39053 1.4142 0z"/><path d="m16 8c0 .55229-.4477 1-1 1h-1c-.5523 0-1-.44772-1-1 0-.55229.4477-1 1-1h1c.5523 0 1 .44771 1 1z"/><path d="m3.05019 4.46443c.39052.39053 1.02369.39053 1.41421 0 .39053-.39052.39053-1.02369 0-1.41421l-.7071-.70711c-.39053-.39052-1.02369-.39052-1.41422 0-.39052.39052-.39052 1.02369 0 1.41421z"/><path d="m3 8c0 .55229-.44772 1-1 1h-1c-.552285 0-1.00000012-.44772-1-1 0-.55229.447715-1 1-1h1c.55228 0 1 .44771 1 1z"/><path d="m6 14v-1h4v1c0 1.1046-.89543 2-2 2s-2-.8954-2-2z"/><path d="m10.0009 12c.0146-.3403.2067-.6463.4759-.8589.9278-.7325 1.5232-1.86726 1.5232-3.1411 0-2.20914-1.7909-4-4-4-2.20914 0-4 1.79086-4 4 0 1.27384.59545 2.4086 1.52319 3.1411.26922.2126.46132.5186.47592.8589z"/></g></svg>