<svg fill="none" height="16" viewBox="0 0 16 16" width="16" xmlns="http://www.w3.org/2000/svg"><path clip-rule="evenodd" d="m8 0c.26522 0 .51957.105357.70711.292893.18753.187537.29289.441891.29289.707107v1c0 .26522-.10536.51957-.29289.70711-.18754.18753-.44189.29289-.70711.29289s-.51957-.10536-.70711-.29289c-.18753-.18754-.29289-.44189-.29289-.70711v-1c0-.265216.10536-.51957.29289-.707107.18754-.187536.44189-.292893.70711-.292893zm4 8c0 1.06087-.4214 2.0783-1.1716 2.8284-.7501.7502-1.76753 1.1716-2.8284 1.1716s-2.07828-.4214-2.82843-1.1716c-.75014-.7501-1.17157-1.76753-1.17157-2.8284s.42143-2.07828 1.17157-2.82843c.75015-.75014 1.76756-1.17157 2.82843-1.17157s2.0783.42143 2.8284 1.17157c.7502.75015 1.1716 1.76756 1.1716 2.82843zm-.464 4.95.707.707c.1886.1822.4412.283.7034.2807s.513-.1075.6984-.2929.2906-.4362.2929-.6984-.0985-.5148-.2807-.7034l-.707-.707c-.1886-.1822-.4412-.283-.7034-.2807s-.513.1075-.6984.2929-.2906.4362-.2929.6984.0985.5148.2807.7034zm2.12-10.607c.1875.18753.2928.44184.2928.707s-.1053.51947-.2928.707l-.706.707c-.0922.09551-.2026.17169-.3246.2241s-.2532.08-.386.08115-.2645-.02415-.3874-.07443-.2345-.12453-.3284-.21842c-.0939-.0939-.1681-.20555-.2184-.32845-.0503-.12289-.0756-.25457-.0745-.38735.0012-.13278.0288-.264.0812-.386.0524-.12201.1286-.23235.2241-.3246l.707-.707c.1875-.18747.4418-.29279.707-.29279s.5195.10532.707.29279zm1.344 6.657c.2652 0 .5196-.10536.7071-.29289.1875-.18754.2929-.44189.2929-.70711s-.1054-.51957-.2929-.70711c-.1875-.18753-.4419-.29289-.7071-.29289h-1c-.2652 0-.5196.10536-.7071.29289-.1875.18754-.2929.44189-.2929.70711s.1054.51957.2929.70711c.1875.18753.4419.29289.7071.29289zm-7 4c.26522 0 .51957.1054.70711.2929.18753.1875.29289.4419.29289.7071v1c0 .2652-.10536.5196-.29289.7071-.18754.1875-.44189.2929-.70711.2929s-.51957-.1054-.70711-.2929c-.18753-.1875-.29289-.4419-.29289-.7071v-1c0-.2652.10536-.5196.29289-.7071.18754-.1875.44189-.2929.70711-.2929zm-4.95-8.536c.09284.09291.20308.16662.32441.21693s.25139.07623.38274.07627c.13134.00005.26142-.02578.38278-.076.12137-.05022.23166-.12386.32457-.2167s.16662-.20308.21693-.32441.07623-.25139.07627-.38274c.00005-.13134-.02578-.26142-.076-.38278-.05022-.12137-.12386-.23166-.2167-.32457l-.708-.707c-.1886-.18216-.4412-.28295-.7034-.28067-.2622.00227-.51301.10744-.69842.29285s-.29058.43622-.29285.69842c-.00228.2622.09851.5148.28067.7034zm1.414 8.486-.707.707c-.1886.1822-.4412.283-.7034.2807s-.51301-.1075-.69842-.2929-.29058-.4362-.29285-.6984c-.00228-.2622.09851-.5148.28067-.7034l.707-.707c.1886-.1822.4412-.283.7034-.2807s.51301.1075.69842.2929.29058.4362.29285.6984c.00228.2622-.09851.5148-.28067.7034zm-2.464-3.95c.26522 0 .51957-.10536.70711-.29289.18753-.18754.29289-.44189.29289-.70711s-.10536-.51957-.29289-.70711c-.18754-.18753-.44189-.29289-.70711-.29289h-1c-.265216 0-.51957.10536-.707107.29289-.187536.18754-.292893.44189-.292893.70711s.105357.51957.292893.70711c.187537.18753.441891.29289.707107.29289z" fill="currentColor" fill-rule="evenodd"/></svg>