<svg fill="none" height="16" viewBox="0 0 17 16" width="17" xmlns="http://www.w3.org/2000/svg"><g fill="currentColor"><path d="m10.264 3.26294c.6834-.68341 1.7915-.68341 2.4749 0 .6834.68342.6834 1.79146 0 2.47488l-2.625 2.625c-.68344.68342-1.79148.68342-2.47489 0-.34171-.34171-.89573-.34171-1.23744 0s-.34171.89573 0 1.23743c1.36683 1.36685 3.58291 1.36685 4.94973 0l2.625-2.625c1.3668-1.36683 1.3668-3.58291 0-4.94974-1.3668-1.366837-3.5829-1.366837-4.94973 0l-1.3125 1.3125c-.34171.34171-.34171.89573 0 1.23743.34171.34171.89573.34171 1.23744 0z"/><path d="m5.88902 7.63794c.68342-.68341 1.79146-.68341 2.47488 0 .3417.34171.89572.34171 1.23743 0s.34171-.89572 0-1.23743c-1.36683-1.36684-3.58291-1.36684-4.94974 0l-2.625 2.625c-1.366834 1.36679-1.366834 3.58289 0 4.94979 1.36683 1.3668 3.58291 1.3668 4.94974 0l1.3125-1.3125c.34171-.3418.34171-.8958 0-1.2375s-.89573-.3417-1.23743 0l-1.3125 1.3125c-.68342.6834-1.79146.6834-2.47487 0-.68342-.6834-.68342-1.7914 0-2.4749z"/></g></svg>