<svg fill="none" height="16" viewBox="0 0 16 16" width="16" xmlns="http://www.w3.org/2000/svg"><path clip-rule="evenodd" d="m2.90392 1.94113c1.21898-1.242886 2.87226-1.94113 4.59615-1.94113s3.37713.698244 4.59613 1.94113c1.219 1.24288 1.9038 2.92859 1.9038 4.68629s-.6848 3.44338-1.9038 4.68628l-4.59613 4.6863-4.59615-4.6863c-.60361-.6154-1.08243-1.34597-1.4091-2.15005-.32668-.80408-.49482-1.6659-.49482-2.53623 0-.87034.16814-1.73215.49482-2.53623.32667-.80408.80549-1.53467 1.4091-2.15006zm4.59615 6.57974c.49251 0 .96486-.19949 1.31312-.55458s.54391-.8367.54391-1.33887c0-.50218-.19565-.98378-.54391-1.33887-.34826-.3551-.82061-.55458-1.31312-.55458-.49252 0-.96486.19948-1.31312.55458-.34826.35509-.54391.83669-.54391 1.33887 0 .50217.19565.98378.54391 1.33887s.8206.55458 1.31312.55458z" fill="currentColor" fill-rule="evenodd"/></svg>