<svg fill="none" height="16" viewBox="0 0 16 16" width="16" xmlns="http://www.w3.org/2000/svg" xmlns:xlink="http://www.w3.org/1999/xlink"><clipPath id="a"><path d="m0 0h16v16h-16z"/></clipPath><mask id="b" height="16" maskUnits="userSpaceOnUse" width="16" x="0" y="0"><path d="m2.8284 0 13.1716 13.1716v-13.1716z" fill="currentColor"/><path d="m16 16-16-15.99997103v15.99997103z" fill="currentColor"/></mask><g clip-path="url(#a)" stroke="currentColor" stroke-linecap="round" stroke-width="2"><g mask="url(#b)"><path d="m9 12h-3.5c-1.933 0-3.5-1.567-3.5-3.5s1.567-3.5 3.5-3.5h6c1.933 0 3.5 1.567 3.5 3.5 0 1.774-1.3198 3.2398-3.0311 3.4689"/><path d="m7 14 1.82322-1.8232c.09763-.0977.09763-.2559 0-.3536l-1.82322-1.8232"/></g><path d="m3 1 12 12" stroke-linejoin="round" stroke-miterlimit="2.16568"/></g></svg>