<svg fill="none" height="16" viewBox="0 0 17 16" width="17" xmlns="http://www.w3.org/2000/svg"><path d="m11.803.00000081c-.6598-.0001942-1.3104.15365519-1.89891.44904819-.58849.295394-1.09827.724001-1.48793 1.251001-.38966.52701-.6482 1.13754-.75464 1.78201-.10643.64447-.05775 1.3047.14209 1.92705l-7.2461 7.41779c-.177756.1735-.318646.3805-.414385.6088-.0957381.2282-.14439206.4731-.14309992.7202.00129214.2472.05250422.4915.15062392.7188.098121.2272.241168.4328.420729.6045.179561.1718.392011.3063.624852.3956.23285.0893.48138.1316.731.1244.24961-.0071.49526-.0636.72249-.1661.22724-.1024.43148-.2488.60071-.4306l7.16217-7.33233c.7267.25298 1.5097.30308 2.2632.14482.7535-.15827 1.4484-.51879 2.0086-1.04204s.964-1.18903 1.1671-1.92436c.2031-.73532.1978-1.5118-.0155-2.24432-.0289-.099-.0834-.18884-.158-.26067-.0747-.07182-.167-.12316-.2678-.14894s-.2067-.02512-.3072.00192c-.1005.02703-.1921.07951-.2658.15226l-2.5467 2.51714-1.6461-1.62906 2.5251-2.50053c.0742-.07346.1277-.164932.155-.26526.0272-.100328.0274-.205991.0005-.306412-.027-.10042-.0801-.192073-.1541-.265783s-.1662-.12689-.2675-.154217c-.359-.0962821-.7285-.14494701-1.1004-.14471719z" fill="currentColor"/></svg>