<svg width="20" height="20" viewBox="0 0 20 20" fill="none" xmlns="http://www.w3.org/2000/svg">
<path fill-rule="evenodd" clip-rule="evenodd" d="M12.2932 14.707C12.4807 14.8945 12.735 14.9998 13.0002 14.9998C13.2654 14.9998 13.5197 14.8945 13.7072 14.707L17.7072 10.707C17.8947 10.5195 18 10.2652 18 10C18 9.73483 17.8947 9.48052 17.7072 9.293L13.7072 5.293C13.5186 5.11084 13.266 5.01004 13.0038 5.01232C12.7416 5.0146 12.4908 5.11977 12.3054 5.30518C12.12 5.49058 12.0148 5.7414 12.0125 6.00359C12.0103 6.26579 12.1111 6.51839 12.2932 6.707L14.5862 9H3.00021C2.735 9 2.48064 9.10535 2.29311 9.29289C2.10557 9.48042 2.00021 9.73478 2.00021 10C2.00021 10.2652 2.10557 10.5196 2.29311 10.7071C2.48064 10.8946 2.735 11 3.00021 11H14.5862L12.2932 13.293C12.1057 13.4805 12.0004 13.7348 12.0004 14C12.0004 14.2652 12.1057 14.5195 12.2932 14.707Z" fill="#777E90"/>
</svg>
