<svg width="20" height="20" viewBox="0 0 20 20" fill="none" xmlns="http://www.w3.org/2000/svg">
<path d="M10 1.99999C8.40871 1.99999 6.88259 2.63213 5.75737 3.75735C4.63215 4.88257 4.00001 6.40869 4.00001 7.99999V11.586L3.29301 12.293C3.1532 12.4328 3.05799 12.611 3.01942 12.805C2.98086 12.9989 3.00066 13.1999 3.07633 13.3826C3.152 13.5653 3.28014 13.7215 3.44455 13.8314C3.60896 13.9413 3.80226 14 4.00001 14H16C16.1978 14 16.3911 13.9413 16.5555 13.8314C16.7199 13.7215 16.848 13.5653 16.9237 13.3826C16.9994 13.1999 17.0192 12.9989 16.9806 12.805C16.942 12.611 16.8468 12.4328 16.707 12.293L16 11.586V7.99999C16 6.40869 15.3679 4.88257 14.2427 3.75735C13.1174 2.63213 11.5913 1.99999 10 1.99999ZM10 18C9.20436 18 8.4413 17.6839 7.87869 17.1213C7.31608 16.5587 7.00001 15.7956 7.00001 15H13C13 15.7956 12.6839 16.5587 12.1213 17.1213C11.5587 17.6839 10.7957 18 10 18Z" fill="#777E90"/>
</svg>
