<svg fill="none" height="16" viewBox="0 0 17 16" width="17" xmlns="http://www.w3.org/2000/svg"><path d="m7.00153 1.00038c0-.552283.44771-.99999853 1-.99999853.55228 0 1 .44771553 1 .99999853v5.5c0 .27614.22385.5.5.5.27614 0 .49997-.22386.49997-.5v-4.5c0-.55228.4477-1 1-1s1 .44772 1 1v4.5c0 .27614.2239.5.5.5.2762 0 .5-.22386.5-.5v-2.5c0-.55228.4477-1 1-1s1 .44772 1 1v5c0 3.86602-3.134 7.00002-6.99997 7.00002-3.866 0-7-3.134-7-7.00002v-2c0-.55228.44771-1 1-1 .55228 0 1 .44772 1 1v2.5c0 .27614.22385.50002.5.50002.27614 0 .5-.22388.5-.50002v-7.5c0-.55228.44771-1 1-1 .55228 0 1 .44772 1 1v4.5c0 .27614.22385.5.5.5.27614 0 .5-.22386.5-.5z" fill="currentColor"/></svg>