<svg width="20" height="20" viewBox="0 0 20 20" fill="none" xmlns="http://www.w3.org/2000/svg">
<path d="M10.8333 15V16.6667H15.3333C15.6095 16.6667 15.8333 16.8905 15.8333 17.1667V17.8333C15.8333 18.1095 15.6095 18.3333 15.3333 18.3333H10.8333C10.3913 18.3333 9.96738 18.1577 9.65482 17.8452C9.34226 17.5326 9.16666 17.1087 9.16666 16.6667V15H6.66666C5.78261 15 4.93476 14.6488 4.30964 14.0237C3.68452 13.3986 3.33333 12.5507 3.33333 11.6667V8.33333H16.6667V11.6667C16.6667 12.5507 16.3155 13.3986 15.6903 14.0237C15.0652 14.6488 14.2174 15 13.3333 15H10.8333ZM13.3333 5H15.8333C16.0543 5 16.2663 5.0878 16.4226 5.24408C16.5789 5.40036 16.6667 5.61232 16.6667 5.83333V7.5H3.33333V5.83333C3.33333 5.61232 3.42113 5.40036 3.57741 5.24408C3.73369 5.0878 3.94565 5 4.16666 5H6.66666V2.16666C6.66666 1.89052 6.89052 1.66666 7.16666 1.66666H7.83333C8.10947 1.66666 8.33333 1.89052 8.33333 2.16666V5H11.6667V2.16666C11.6667 1.89052 11.8905 1.66666 12.1667 1.66666H12.8333C13.1095 1.66666 13.3333 1.89052 13.3333 2.16666V5ZM9.99999 12.0833C10.221 12.0833 10.433 11.9955 10.5892 11.8393C10.7455 11.683 10.8333 11.471 10.8333 11.25C10.8333 11.029 10.7455 10.817 10.5892 10.6607C10.433 10.5045 10.221 10.4167 9.99999 10.4167C9.77898 10.4167 9.56702 10.5045 9.41074 10.6607C9.25446 10.817 9.16666 11.029 9.16666 11.25C9.16666 11.471 9.25446 11.683 9.41074 11.8393C9.56702 11.9955 9.77898 12.0833 9.99999 12.0833Z" fill="#B1B5C3"/>
</svg>
