<svg fill="none" height="16" viewBox="0 0 17 16" width="17" xmlns="http://www.w3.org/2000/svg"><path clip-rule="evenodd" d="m8.00055.00038147c.3031 0 .59379.12040753.80812.33473553.21433.214327.33474.505017.33474.808123v5.71428h5.71429c.3031 0 .5938.12041.8081.33474s.3348.50502.3348.80812c0 .30311-.1205.5938-.3348.80812-.2143.21433-.505.33474-.8081.33474h-5.71429v5.71426c0 .3031-.12041.5938-.33474.8081-.21433.2144-.50502.3348-.80812.3348s-.59379-.1204-.80812-.3348c-.21433-.2143-.33474-.505-.33474-.8081v-5.71426h-5.71428c-.303108 0-.593798-.12041-.808126-.33474-.214327-.21432-.33473468-.50501-.33473468-.80812 0-.3031.12040768-.59379.33473468-.80812.214328-.21433.505018-.33474.808126-.33474h5.71428v-5.71428c0-.303106.12041-.593796.33474-.808123.21433-.214328.50502-.33473553.80812-.33473553z" fill="currentColor" fill-rule="evenodd"/></svg>