<svg fill="none" height="16" viewBox="0 0 17 16" width="17" xmlns="http://www.w3.org/2000/svg"><path clip-rule="evenodd" d="m2.00153.00038147c.26521 0 .51957.10535653.7071.29289353.18754.187536.2929.44189.2929.707105v2.101c.83204-.84873 1.86643-1.47169 3.00574-1.81022 1.13931-.338519 2.34604-.38146 3.50654-.12477 1.16049.25668 2.23659.80455 3.12679 1.59199.8903.78744 1.5654 1.78854 1.9619 2.909.0481.12476.0707.2579.0665.39154-.0043.13364-.0353.26507-.0912.38652-.056.12145-.1357.23045-.2345.32055s-.2146.15948-.3407.20402-.2598.06335-.3933.05531c-.1334-.00804-.2639-.04277-.3837-.10212-.1198-.05936-.2265-.14214-.3138-.24344-.0873-.10131-.1533-.21909-.1943-.34638-.3018-.85318-.8295-1.60849-1.5268-2.18542-.6973-.57694-1.538-.95389-2.43261-1.0907-.89461-.1368-1.80958-.02833-2.64741.31386-.83782.34219-1.56711.90528-2.11015 1.62926h3.001c.26521 0 .51957.10536.7071.29289.18754.18754.2929.44189.2929.70711s-.10536.51957-.2929.70711c-.18753.18753-.44189.29289-.7071.29289h-5c-.26522 0-.51957-.10536-.70711-.29289-.18754-.18754-.29289-.44189-.29289-.70711v-5c0-.265215.10535-.519569.29289-.707105.18754-.187537.44189-.29289353.70711-.29289353zm.008 9.05699853c.12383-.04374.25507-.06266.38622-.05567.13115.00698.25963.03973.37812.09638.11849.05664.22466.13607.31245.23375s.15548.2117.19921.33554c.30186.85322.82954 1.60852 1.52681 2.18542.69728.5769 1.53801.9539 2.43262 1.0907.89462.1368 1.80958.0283 2.64741-.3139s1.56713-.9052 2.11013-1.6292h-3.00097c-.26522 0-.51957-.1054-.70711-.2929s-.29289-.4419-.29289-.7071c0-.26524.10535-.51959.29289-.70713.18754-.18753.44189-.29289.70711-.29289h4.99997c.2652 0 .5196.10536.7071.29289.1876.18754.2929.44189.2929.70713v5c0 .2652-.1053.5196-.2929.7071-.1875.1875-.4419.2929-.7071.2929s-.5195-.1054-.7071-.2929c-.1875-.1875-.2929-.4419-.2929-.7071v-2.101c-.832.8487-1.8664 1.4717-3.00572 1.8102-1.13931.3385-2.34604.3815-3.50654.1248-1.16049-.2567-2.23654-.8046-3.1268-1.592-.89027-.7875-1.56543-1.7886-1.96191-2.909-.04374-.1239-.06266-.2551-.05568-.38624.00699-.13115.03974-.25964.09638-.37813.05665-.11849.13608-.22466.23376-.31245s.21169-.15548.33554-.1992z" fill="currentColor" fill-rule="evenodd"/></svg>