<svg fill="none" height="16" viewBox="0 0 16 16" width="16" xmlns="http://www.w3.org/2000/svg"><path clip-rule="evenodd" d="m8.00006 16.0004c2.12174 0 4.15654-.8429 5.65684-2.3432s2.3432-3.5351 2.3432-5.65682c0-2.12173-.8429-4.15656-2.3432-5.65685-1.5003-1.500294-3.5351-2.34314853-5.65684-2.34314853-2.12173 0-4.15656.84285453-5.65685 2.34314853-1.500294 1.50029-2.34314896 3.53512-2.34314896 5.65685 0 2.12172.84285496 4.15652 2.34314896 5.65682 1.50029 1.5003 3.53512 2.3432 5.65685 2.3432zm1-12.00002c0-.26522-.10536-.51957-.29289-.70711-.18754-.18753-.44189-.29289-.70711-.29289s-.51957.10536-.70711.29289c-.18753.18754-.29289.44189-.29289.70711v4c.00006.2652.10545.51951.293.707l2.82804 2.82902c.0929.0929.2032.1666.3246.2169s.2515.0761.3829.0761.2615-.0258.3829-.0761.2317-.124.3246-.2169.1666-.2032.2169-.3246c.0502-.1214.0761-.2515.0761-.3829s-.0259-.2615-.0761-.3829c-.0503-.1214-.124-.2317-.2169-.3246l-2.53604-2.53502z" fill="currentColor" fill-rule="evenodd"/></svg>