<svg fill="none" height="16" viewBox="0 0 16 16" width="16" xmlns="http://www.w3.org/2000/svg"><path clip-rule="evenodd" d="m9.48975 1.17c-.38-1.56-2.6-1.56-2.98 0-.05673.23442-.16801.45212-.32478.63541-.15676.18329-.35459.32697-.57738.41936-.22278.09239-.46423.13087-.7047.11232s-.47316-.09362-.67914-.21909c-1.372-.836-2.942.734-2.106 2.106.54.886.061 2.042-.947 2.287-1.561.379-1.561 2.6 0 2.978.23448.05681.45223.16819.63551.32507.18329.15689.32693.35483.41923.57773s.13065.4645.11193.705-.09399.4733-.21967.6792c-.836 1.372.734 2.942 2.106 2.106.20594-.1257.43865-.2009.67918-.2197.24054-.0187.48209.0197.705.112s.42086.2359.57775.4192c.15688.1833.26826.401.32507.6355.379 1.561 2.6 1.561 2.978 0 .057-.2344.16849-.452.32541-.6351.15692-.1832.35484-.3267.57764-.419.2229-.0923.4643-.1307.7048-.1121.2405.0187.4732.0937.6792.2192 1.372.836 2.942-.734 2.106-2.106-.1255-.206-.2006-.4387-.2192-.6791-.0186-.2405.0198-.482.1121-.7048.0922-.2229.2358-.42077.4189-.57769.1832-.15692.4008-.26841.6352-.32541 1.561-.379 1.561-2.6 0-2.978-.2345-.05681-.4523-.16819-.6356-.32507-.1832-.15689-.3269-.35484-.4192-.57775s-.1306-.46446-.1119-.705c.0187-.24053.094-.47324.2197-.67918.836-1.372-.734-2.942-2.106-2.106-.206.12568-.4387.20095-.6792.21967-.2406.01872-.4821-.01963-.705-.11193s-.42089-.23594-.57778-.41923c-.15688-.18328-.26826-.40103-.32507-.63551zm-1.49 9.83c.79565 0 1.55871-.3161 2.12135-.8787.5626-.56259.8787-1.32565.8787-2.1213s-.3161-1.55871-.8787-2.12132c-.56264-.56261-1.3257-.87868-2.12135-.87868s-1.55871.31607-2.12132.87868-.87868 1.32567-.87868 2.12132.31607 1.55871.87868 2.1213c.56261.5626 1.32567.8787 2.12132.8787z" fill="currentColor" fill-rule="evenodd"/></svg>