<svg fill="none" height="16" viewBox="0 0 16 16" width="16" xmlns="http://www.w3.org/2000/svg"><path d="m4.5 8.00003c-.69223 0-1.36892.20527-1.94449.58985-.57558.38459-1.02418.93121-1.28909 1.57072-.2649.6396-.334215 1.3433-.19917 2.0222.13505.679.46839 1.3026.95788 1.7921.48948.4895 1.11312.8228 1.79206.9579.67893.135 1.38266.0657 2.0222-.1992s1.18617-.7135 1.57076-1.2891c.38458-.5755.58985-1.2522.58985-1.9445 0-.9282-.36875-1.81847-1.02512-2.47485-.65638-.65637-1.54662-1.02512-2.47488-1.02512zm10.3633-1.50008-2.9239-4.99981c-.0901-.15236-.2184-.27861-.3721-.36631-.1538-.08771-.3278-.13383-.5048-.13383s-.351.04612-.5048.13383c-.1537.0877-.282.21395-.3721.36631l-2.92388 4.99981c-.38937.66664.09789 1.50008.87746 1.50008h5.84662c.7796 0 1.2669-.83344.8775-1.50008zm-.7383 2.37508h-4.375c-.23206 0-.45462.09218-.61872.25628-.16409.16409-.25628.38665-.25628.61872v4.37497c0 .2321.09219.4547.25628.6187.1641.1641.38666.2563.61872.2563h4.375c.2321 0 .4546-.0922.6187-.2563.1641-.164.2563-.3866.2563-.6187v-4.37497c0-.23207-.0922-.45463-.2563-.61872-.1641-.1641-.3866-.25628-.6187-.25628z" fill="currentColor"/></svg>