<svg fill="none" height="16" viewBox="0 0 17 16" width="17" xmlns="http://www.w3.org/2000/svg"><path d="m13.0009 6.00038c.6092.00002 1.2039-.1854 1.7051-.5316s.8852-.83678 1.1008-1.40649c.2156-.56972.2527-1.19157.1063-1.78287s-.4693-1.12403-.9259-1.527337c-.4565-.403308-1.025-.6580859-1.6298-.7304534-.6048-.0723676-1.2174.0411048-1.7562.3253274-.5387.284222-.9782.725723-1.26 1.265803-.2817.54007-.39242 1.15312-.3173 1.75762l-4.93999 2.47c-.42377-.40864-.95841-.68358-1.53731-.79055-.5789-.10698-1.17649-.04126-1.71831.18896-.54182.23021-1.003936.61476-1.328777 1.10573-.32484.49097-.49804816 1.06666-.49804816 1.65536 0 .58871.17320816 1.1644.49804816 1.65537.324841.49095.786957.87555 1.328777 1.10575s1.13941.2959 1.71831.1889c.5789-.1069 1.11354-.3819 1.53731-.7905l4.93999 2.47c-.0875.7022.0761 1.4128.4618 2.0061s.9687 1.0312 1.6461 1.2362c.6773.205 1.4053.164 2.0553-.1158.65-.2799 1.1801-.7804 1.4968-1.4133.3166-.6329.3993-1.3574.2334-2.0453-.1658-.688-.5695-1.2952-1.1397-1.7143s-1.2703-.62311-1.9764-.576c-.7061.0471-1.3728.3423-1.8823.8334l-4.93999-2.47002c.03026-.24573.03026-.49426 0-.74l4.93999-2.47c.538.52 1.272.84 2.082.84z" fill="currentColor"/></svg>