<svg fill="none" height="16" viewBox="0 0 17 16" width="17" xmlns="http://www.w3.org/2000/svg"><path d="m1.00223 1.00038c-.265417 0-.519966.10536-.707647.2929-.18768.18754-.29311816.4419-.29311816.70712s.10543816.51957.29311816.70711c.187681.18754.44223.2929.707647.2929h11.00847c.2654 0 .52-.10536.7076-.2929.1877-.18754.2932-.44189.2932-.70711s-.1055-.51958-.2932-.70712c-.1876-.18754-.4422-.2929-.7076-.2929zm0 4.00006c-.265417 0-.519966.10536-.707647.2929-.18768.18754-.29311816.4419-.29311816.70712s.10543816.51958.29311816.70712c.187681.18753.44223.29289.707647.29289h7.00538c.26542 0 .51997-.10536.70765-.29289.18768-.18754.29312-.4419.29312-.70712s-.10544-.51958-.29312-.70712-.44223-.2929-.70765-.2929zm0 4.00006c-.265417 0-.519966.10536-.707647.2929-.18768.18754-.29311816.4419-.29311816.7071s.10543816.5196.29311816.7071c.187681.1876.44223.2929.707647.2929h4.00308c.26542 0 .51997-.1053.70765-.2929.18768-.1875.29312-.4419.29312-.7071s-.10544-.51956-.29312-.7071-.44223-.2929-.70765-.2929zm12.00927-3.00004c0-.26522-.1055-.51958-.2932-.70712-.1876-.18754-.4422-.2929-.7076-.2929s-.52.10536-.7077.2929c-.1876.18754-.2931.4419-.2931.70712v5.58604l-1.29398-1.293c-.18874-.1821-.44154-.2829-.70394-.2807-.26239.0023-.5134.1075-.69895.2929s-.2908.4362-.29308.6984.09859.5148.28089.7034l3.00226 3.0001c.1877.1875.4422.2928.7076.2928s.5199-.1053.7075-.2928l3.0023-3.0001c.1823-.1886.2832-.4412.2809-.7034s-.1075-.513-.2931-.6984c-.1855-.1854-.4365-.2906-.6989-.2929-.2624-.0022-.5152.0986-.704.2807l-1.2939 1.293z" fill="currentColor"/></svg>