<svg fill="none" height="16" viewBox="0 0 17 16" width="17" xmlns="http://www.w3.org/2000/svg"><g fill="currentColor"><path clip-rule="evenodd" d="m2.00153.00038147c-1.104574 0-2.00000412.89543053-2.00000412 1.99999853v11.00002c0 1.6568 1.34314412 3 3.00000412 3 1.65685 0 3-1.3432 3-3v-11.00002c0-1.104568-.89543-1.99999853-2-1.99999853zm1 14.00001853c.55228 0 1-.4477 1-1s-.44772-1-1-1c-.55229 0-1 .4477-1 1s.44771 1 1 1z" fill-rule="evenodd"/><path d="m8.00153 12.2429 4.89947-4.89944c.7811-.78105.7811-2.04738 0-2.82843l-1.4142-1.41421c-.7811-.78105-2.04738-.78105-2.82843 0l-.65684.65684z"/><path d="m14.0016 16.0004h-6.92903l6.00003-6h.929c1.1045 0 2 .8954 2 2v2c0 1.1045-.8955 2-2 2z"/></g></svg>