<svg fill="none" height="16" viewBox="0 0 17 16" width="17" xmlns="http://www.w3.org/2000/svg"><path d="m2.99377 10.0002c0 .2652.10552.5195.29335.7071.18782.1875.44257.2929.70819.2929.26563 0 .52037-.1054.7082-.2929.18782-.1876.29334-.4419.29334-.7071v-5.58603l1.29499 1.293c.18889.18216.44188.28295.70448.28067s.5138-.10745.69949-.29285c.1857-.18541.29103-.43622.29331-.69842s-.09867-.5148-.28111-.7034l-3.00461-3c-.18782-.18747-.44252-.29279-.70809-.29279s-.52027.10532-.70809.29279l-3.004612 3c-.182438.1886-.28338722.4412-.2811053.7034.00228193.2622.1076123.51301.2933063.69842.185693.1854.436891.29057.699491.29285s.51559-.09851.70448-.28067l1.29499-1.293zm10.01543-4.00003c0-.26522-.1056-.51957-.2934-.70711s-.4426-.29289-.7082-.29289-.5204.10535-.7082.29289-.2933.44189-.2933.70711v5.58603l-1.29501-1.293c-.18889-.1822-.44188-.283-.70448-.2807s-.5138.1074-.69949.2928c-.1857.1855-.29103.4363-.29331.6985s.09867.5148.2811.7034l3.00459 3c.1878.1874.4425.2928.7081.2928s.5203-.1054.7081-.2928l3.0046-3c.1825-.1886.2834-.4412.2811-.7034s-.1076-.513-.2933-.6985c-.1857-.1854-.4369-.2905-.6995-.2928s-.5156.0985-.7045.2807l-1.2949 1.293z" fill="currentColor"/></svg>