<svg fill="none" height="16" viewBox="0 0 17 16" width="17" xmlns="http://www.w3.org/2000/svg"><path d="m6.00125 3.01267c-.26522 0-.51957.10536-.70711.29289-.18753.18754-.29289.44189-.29289.70711s.10536.51957.29289.70711c.18754.18753.44189.29289.70711.29289h5.58605l-1.293 1.293c-.1822.1886-.283.4412-.2807.7034s.1074.51301.2928.69842.4363.29057.6985.29285c.2621.00228.5147-.09851.7034-.28067l3-3c.1874-.18753.2927-.44184.2927-.707s-.1053-.51947-.2927-.707l-3-3c-.0923-.095511-.2026-.171693-.3246-.2241017-.122-.052409-.2533-.07999526-.386-.08114907-.1328-.00115382-.2645.02414787-.3874.07442877-.1229.050281-.2346.124534-.3284.218427-.0939.093892-.1682.205544-.2185.328441-.0503.122896-.07555.254576-.0744.387354.00115.13278.0287.264.0811.386.0525.12201.1286.23235.2242.3246l1.293 1.293zm4.00005 10.00003c.2652 0 .5195-.1054.7071-.2929.1875-.1876.2929-.4419.2929-.7071s-.1054-.5196-.2929-.7071c-.1876-.1876-.4419-.2929-.7071-.2929h-5.58605l1.293-1.29303c.09551-.09225.17169-.20259.2241-.3246.05241-.122.08-.25322.08115-.386.00116-.13278-.02415-.26446-.07443-.38735-.05028-.1229-.12453-.23455-.21842-.32845-.0939-.09389-.20555-.16814-.32844-.21842-.1229-.05028-.25458-.07559-.38736-.07443-.13278.00115-.264.02874-.386.08115-.12201.05241-.23235.12859-.3246.2241l-3 3.00003c-.18747.1875-.29279.4418-.29279.707 0 .2651.10532.5194.29279.707l3 3c.1886.1821.44121.2829.7034.2806.2622-.0022.51301-.1074.69842-.2928s.29058-.4362.29286-.6984c.00227-.2622-.09852-.5148-.28068-.7034l-1.293-1.293z" fill="currentColor"/></svg>