<svg fill="none" height="16" viewBox="0 0 16 16" width="16" xmlns="http://www.w3.org/2000/svg"><path clip-rule="evenodd" d="m5.59368.260349c-.1667.166699-.26035.392792-.26035.62854v.888891h-1.77777c-.4715 0-.92369.1873-1.25708.5207-.3334.33339-.5207.78558-.5207 1.25708v1.77777h-.888891c-.235748 0-.461841.09365-.62854.26035-.1666985.1667-.260349.39279-.260349.62854s.0936505.46184.260349.62854c.166699.1667.392792.26035.62854.26035h.888891v1.77778h-.888891c-.235748 0-.461841.09365-.62854.26035-.1666985.1667-.260349.39279-.260349.62854 0 .23572.0936505.46182.260349.62852.166699.1667.392792.2604.62854.2604h.888891v1.7777c0 .4715.1873.9237.5207 1.2571.33339.3334.78558.5207 1.25708.5207h1.77777v.8889c0 .2358.09365.4619.26035.6286s.39279.2603.62854.2603.46184-.0936.62854-.2603.26035-.3928.26035-.6286v-.8889h1.77778v.8889c0 .2358.09365.4619.26035.6286s.39279.2603.62854.2603c.23572 0 .46182-.0936.62852-.2603s.2604-.3928.2604-.6286v-.8889h1.7777c.4715 0 .9237-.1873 1.2571-.5207s.5207-.7856.5207-1.2571v-1.7777h.8889c.2358 0 .4619-.0937.6286-.2604s.2603-.3928.2603-.62852c0-.23575-.0936-.46184-.2603-.62854s-.3928-.26035-.6286-.26035h-.8889v-1.77778h.8889c.2358 0 .4619-.09365.6286-.26035s.2603-.39279.2603-.62854-.0936-.46184-.2603-.62854-.3928-.26035-.6286-.26035h-.8889v-1.77777c0-.4715-.1873-.92369-.5207-1.25708-.3334-.3334-.7856-.5207-1.2571-.5207h-1.7777v-.888891c0-.235748-.0937-.461841-.2604-.62854-.1667-.1666985-.3928-.260349-.62852-.260349-.23575 0-.46184.0936505-.62854.260349-.1667.166699-.26035.392792-.26035.62854v.888891h-1.77778v-.888891c0-.235748-.09365-.461841-.26035-.62854-.1667-.1666985-.39279-.260349-.62854-.260349s-.46184.0936505-.62854.260349zm6.85072 3.295211h-8.88884v8.88884h8.88884zm-7.4444 1.44444h5v5h-5z" fill="currentColor" fill-rule="evenodd"/></svg>