<svg fill="none" height="16" viewBox="0 0 16 16" width="16" xmlns="http://www.w3.org/2000/svg"><path clip-rule="evenodd" d="m0 3c0-.53043.210714-1.03914.585786-1.41421.375073-.37508.883784-.58579 1.414214-.58579h12c.5304 0 1.0391.21071 1.4142.58579.3751.37507.5858.88378.5858 1.41421v10c0 .5304-.2107 1.0391-.5858 1.4142s-.8838.5858-1.4142.5858h-12c-.53043 0-1.039141-.2107-1.414214-.5858-.375072-.3751-.585786-.8838-.585786-1.4142zm3.293 1.293c.18753-.18747.44184-.29279.707-.29279s.51947.10532.707.29279l3 3c.18747.18753.29279.44184.29279.707s-.10532.51947-.29279.707l-3 3c-.1886.1822-.4412.283-.7034.2807s-.51301-.1075-.69842-.2929-.29058-.4362-.29285-.6984c-.00228-.2622.09851-.5148.28067-.7034l2.293-2.293-2.293-2.293c-.18747-.18753-.29279-.44184-.29279-.707s.10532-.51947.29279-.707zm5.707 5.707c-.26522 0-.51957.1054-.70711.2929-.18753.1875-.29289.4419-.29289.7071s.10536.5196.29289.7071c.18754.1875.44189.2929.70711.2929h3c.2652 0 .5196-.1054.7071-.2929s.2929-.4419.2929-.7071-.1054-.5196-.2929-.7071-.4419-.2929-.7071-.2929z" fill="currentColor" fill-rule="evenodd"/></svg>