<svg fill="none" height="16" viewBox="0 0 16 16" width="16" xmlns="http://www.w3.org/2000/svg"><g fill="currentColor"><path d="m6 13.5c0 .8284-.67157 1.5-1.5 1.5s-1.5-.6716-1.5-1.5.67157-1.5 1.5-1.5 1.5.6716 1.5 1.5z"/><path d="m13 13.5c0 .8284-.6716 1.5-1.5 1.5s-1.5-.6716-1.5-1.5.6716-1.5 1.5-1.5 1.5.6716 1.5 1.5z"/><path d="m1 1c-.552285 0-1 .44772-1 1v10c0 .5523.447715 1 1 1h1.05001c.23163-1.1411 1.24051-2 2.44999-2s2.21836.8589 2.44999 2h1.05001c.55228 0 1-.4477 1-1v-10c0-.55228-.44772-1-1-1z"/><path d="m12 4c-.5523 0-1 .44772-1 1v6.05c.1616-.0328.3288-.05.5-.05 1.2095 0 2.2184.8589 2.45 2h1.05c.5523 0 1-.4477 1-1v-5c0-.26522-.1054-.51957-.2929-.70711l-2-2c-.1875-.18753-.4419-.29289-.7071-.29289z"/></g></svg>