<svg fill="none" height="16" viewBox="0 0 17 16" width="17" xmlns="http://www.w3.org/2000/svg"><path clip-rule="evenodd" d="m1.00146 15.0004c0-.5523.44772-1 1-1h12.00004c.5523 0 1 .4477 1 1s-.4477 1-1 1h-12.00004c-.55228 0-1-.4477-1-1zm3.2929-10.29291c-.39053-.39053-.39053-1.02369 0-1.41421l3-3.000005c.18753-.187536.44189-.29289352.7071-.29289353.26522-.00000001.51957.10535753.70711.29289353l3.00003 2.999995c.3905.39053.3905 1.02369 0 1.41422-.3906.39052-1.0237.39052-1.4142 0l-1.29294-1.2929v7.58581c0 .5523-.44771 1-1 1-.55228 0-1-.4477-1-1v-7.5858l-1.29289 1.29289c-.39052.39052-1.02369.39052-1.41421 0z" fill="currentColor" fill-rule="evenodd"/></svg>