<svg fill="none" height="16" viewBox="0 0 16 16" width="16" xmlns="http://www.w3.org/2000/svg"><path d="m7.11111 5.57143c0 .68198-.28095 1.33604-.78105 1.81827-.50009.48224-1.17837.75316-1.88562.75316-.70724 0-1.38552-.27092-1.88561-.75316-.5001-.48223-.78105-1.13629-.78105-1.81827 0-.68199.28095-1.33604.78105-1.81828.50009-.48223 1.17837-.75315 1.88561-.75315.70725 0 1.38553.27092 1.88562.75315.5001.48224.78105 1.13629.78105 1.81828zm7.11109 0c0 .33768-.069.67206-.203.98404s-.3304.59545-.578.83423-.5416.42819-.8652.55742c-.3235.12923-.6703.19574-1.0204.19574-.3502 0-.697-.06651-1.0205-.19574-.3236-.12923-.61754-.31864-.86516-.55742-.24763-.23878-.44405-.52225-.57806-.83423-.13402-.31198-.20299-.64636-.20299-.98404 0-.68199.28095-1.33604.78105-1.81828.50006-.48223 1.17836-.75315 1.88566-.75315.7072 0 1.3855.27092 1.8856.75315.5001.48224.781 1.13629.781 1.81828zm-3.6178 9.42857c.0409-.2803.0623-.5657.0623-.8571.002-1.3467-.4678-2.6546-1.33337-3.7115.67567-.3761 1.44207-.57414 2.22217-.57415.7802 0 1.5466.19805 2.2222.57415.6757.3761 1.2367.9171 1.6268 1.5686s.5955 1.3906.5955 2.1429v.8571zm-6.15996-5.14286c1.17874 0 2.30921.45156 3.1427 1.25526.8335.8037 1.30175 1.8938 1.30175 3.0305v.8571h-8.88889v-.8571c0-1.1367.468253-2.2268 1.30175-3.0305.83349-.8037 1.96395-1.25526 3.14269-1.25526z" fill="currentColor"/></svg>