<svg fill="none" height="16" viewBox="0 0 17 16" width="17" xmlns="http://www.w3.org/2000/svg"><path d="m2.28718.00038147c-.60621 0-1.18759.24081553-1.616245.66947053-.428655.428658-.66947016 1.010038-.66947016 1.616248v2.28571c0 .60621.24081516 1.18759.66947016 1.61624.428655.42866 1.010035.66947 1.616245.66947h2.28571c.60621 0 1.18759-.24081 1.61625-.66947.42865-.42865.66947-1.01003.66947-1.61624v-2.28571c0-.60621-.24082-1.18759-.66947-1.616248-.42866-.428655-1.01004-.66947053-1.61625-.66947053zm0 9.14285853c-.60621 0-1.18759.24082-1.616245.66947-.428655.42869-.66947016 1.00999-.66947016 1.61629v2.2857c0 .6062.24081516 1.1876.66947016 1.6162.428655.4287 1.010035.6695 1.616245.6695h2.28571c.60621 0 1.18759-.2408 1.61625-.6695.42865-.4286.66947-1.01.66947-1.6162v-2.2857c0-.6063-.24082-1.1876-.66947-1.61629-.42866-.42865-1.01004-.66947-1.61625-.66947zm6.85714-6.85714c0-.60621.24082-1.18759.66947-1.616248.42861-.428655 1.01001-.66947053 1.61621-.66947053h2.2858c.6062 0 1.1875.24081553 1.6162.66947053.4286.428658.6695 1.010038.6695 1.616248v2.28571c0 .60621-.2409 1.18759-.6695 1.61624-.4287.42866-1.01.66947-1.6162.66947h-2.2858c-.6062 0-1.1876-.24081-1.61621-.66947-.42865-.42865-.66947-1.01003-.66947-1.61624zm0 9.1429c0-.6063.24082-1.1876.66947-1.61629.42861-.42865 1.01001-.66947 1.61621-.66947h2.2858c.6062 0 1.1875.24082 1.6162.66947.4286.42869.6695 1.00999.6695 1.61629v2.2857c0 .6062-.2409 1.1876-.6695 1.6162-.4287.4287-1.01.6695-1.6162.6695h-2.2858c-.6062 0-1.1876-.2408-1.61621-.6695-.42865-.4286-.66947-1.01-.66947-1.6162z" fill="currentColor"/></svg>