<svg fill="none" height="16" viewBox="0 0 16 16" width="16" xmlns="http://www.w3.org/2000/svg"><path clip-rule="evenodd" d="m7.45155 2.38852c.16239.06691.30117.18018.39879.32547.09762.1453.1497.3161.14966.49081v10.6011c-.00004.1747-.05219.3454-.14987.4907-.09767.1452-.23648.2584-.39888.3253-.1624.0668-.3411.0843-.5135.0502-.1724-.034-.33077-.1181-.45509-.2417l-3.29511-3.2748h-2.298661c-.235748 0-.461841-.0931-.62854-.2587-.1666985-.1657-.260349-.3904-.260349-.6247v-3.53371c0-.2343.0936505-.459.260349-.62467.166699-.16568.392792-.25875.62854-.25875h2.298661l3.29511-3.27485c.12431-.12362.28272-.20782.45518-.24194.17247-.03413.35125-.01664.51371.05024zm4.68805-.12987c.1666-.16561.3927-.25865.6284-.25865s.4617.09304.6284.25865c.8266.81951 1.482 1.79322 1.9288 2.86522.4468 1.07199.6761 2.22114.6748 3.38146.0013 1.16033-.228 2.30947-.6748 3.38147s-1.1022 2.0457-1.9288 2.8652c-.1676.1609-.3921.25-.6252.248s-.456-.095-.6208-.2587c-.1648-.1638-.2583-.3854-.2603-.617-.0021-.2317.0875-.4548.2495-.6214.6614-.6555 1.1859-1.4345 1.5434-2.2921.3574-.8577.5407-1.77714.5392-2.70547 0-1.95236-.7946-3.71744-2.0826-4.99752-.1667-.16566-.2603-.39032-.2603-.62458 0-.23425.0936-.45891.2603-.62458zm-2.51471 2.49832c.08255-.08213.18058-.14729.28849-.19175.10792-.04446.22362-.06734.34042-.06734s.2325.02288.3404.06734.2059.10962.2885.19175c.4959.49177.8891 1.07607 1.1571 1.71933s.4055 1.33281.4046 2.02903c.0009.69623-.1366 1.38576-.4046 2.02897-.2681.6433-.6613 1.2276-1.1571 1.7194-.1668.1658-.393.2589-.6289.2589s-.46212-.0931-.62891-.2589c-.1668-.1658-.2605-.3906-.2605-.625 0-.2345.0937-.4593.2605-.625.33081-.3276.59321-.717.77201-1.14579.1787-.42877.2704-.88845.2698-1.35258.0007-.46413-.091-.92382-.2698-1.3526-.1788-.42877-.44116-.81815-.77201-1.14571-.08265-.08205-.14821-.17948-.19295-.28673-.04473-.10724-.06775-.2222-.06775-.3383 0-.11609.02302-.23105.06775-.33829.04474-.10725.1103-.20468.19295-.28673z" fill="currentColor" fill-rule="evenodd"/></svg>