<svg fill="none" height="16" viewBox="0 0 16 16" width="16" xmlns="http://www.w3.org/2000/svg"><path clip-rule="evenodd" d="m7.88418 1.07068c.17182.07033.31865.18939.42194.34211s.1584.33225.15835.5159v11.14291c-.00004.1836-.05522.3631-.15857.5158-.10334.1527-.25021.2717-.42204.3419-.17183.0703-.3609.0887-.54331.0529-.18242-.0358-.34998-.1243-.48151-.2541l-3.48642-3.4422h-2.432123c-.249436 0-.488655-.0978-.665032-.272-.1763773-.17413-.275465-.41032-.275465-.65659v-3.71431c0-.24628.0990877-.48246.275465-.65661.176377-.17414.415596-.27197.665032-.27197h2.432123l3.48642-3.44224c.13153-.12994.29913-.21844.48161-.25431.18248-.035866.37163-.01749.54353.05281zm2.73682 3.91581c.1764-.17408.4156-.27187.665-.27187.2493 0 .4885.09779.6649.27187l1.2161 1.20065 1.216-1.20065c.0868-.08869.1906-.15943.3053-.20809.1147-.04867.2382-.07428.363-.07536.1249-.00107.2488.02243.3643.06912.1156.04669.2206.11564.3089.20282.0883.08719.1582.19087.2055.30499.0473.11411.071.23639.07.35969-.0011.12329-.0271.24514-.0764.35843-.0492.11329-.1209.21575-.2107.30141l-1.2161 1.20065 1.2161 1.20065c.1713.17514.2661.4097.264.65317-.0022.24347-.1011.47637-.2755.64853-.1744.1722-.4102.2698-.6568.2719-.2466.0022-.4842-.0914-.6616-.2606l-1.216-1.20064-1.2161 1.20064c-.1774.1692-.415.2628-.6616.2606-.2466-.0021-.4824-.0997-.6568-.2719-.1744-.17216-.2733-.40506-.2754-.64853-.0022-.24347.0926-.47803.2639-.65317l1.2161-1.20065-1.2161-1.20065c-.1763-.17413-.2753-.41028-.2753-.6565 0-.24623.099-.48237.2753-.65651z" fill="currentColor" fill-rule="evenodd"/></svg>