<svg fill="none" height="16" viewBox="0 0 16 16" width="16" xmlns="http://www.w3.org/2000/svg"><path clip-rule="evenodd" d="m6.16111 2.09914c.80708-1.465519 2.87174-1.465519 3.67777 0l5.88692 10.68966c.7913 1.4375-.2247 3.2112-1.8378 3.2112h-11.77497c-1.614162 0-2.630137-1.7737-1.838879-3.2112zm2.89389 10.66916c0 .2858-.11115.5599-.309.762s-.4662.3156-.74601.3156c-.2798 0-.54815-.1135-.746-.3156s-.30901-.4762-.30901-.762.11116-.5599.30901-.7619c.19785-.2021.4662-.3157.746-.3157.27981 0 .54816.1136.74601.3157.19785.202.309.4761.309.7619zm-1.05501-8.62067c-.2798 0-.54815.11353-.746.31562-.19785.20208-.30901.47617-.30901.76197v3.23275c0 .2858.11116.55989.30901.76197.19785.20209.4662.31562.746.31562.27981 0 .54816-.11353.74601-.31562.19785-.20208.309-.47617.309-.76197v-3.23275c0-.2858-.11115-.55989-.309-.76197-.19785-.20209-.4662-.31562-.74601-.31562z" fill="currentColor" fill-rule="evenodd"/></svg>